<?xml version="1.0" standalone="no"?>
<!DOCTYPE svg PUBLIC "-//W3C//DTD SVG 20010904//EN"
 "http://www.w3.org/TR/2001/REC-SVG-20010904/DTD/svg10.dtd">
<svg version="1.0" xmlns="http://www.w3.org/2000/svg"
 width="1472.000000pt" height="1457.000000pt" viewBox="0 0 1472.000000 1457.000000"
 preserveAspectRatio="xMidYMid meet">

<g transform="translate(0.000000,1457.000000) scale(0.100000,-0.100000)"
fill="#000000" stroke="none">
<path d="M3895 14553 c-1034 -53 -1878 -473 -2430 -1208 -425 -566 -630 -1282
-587 -2047 28 -493 11 -703 -75 -917 -48 -119 -100 -205 -228 -376 -137 -183
-206 -291 -291 -458 -271 -531 -343 -1125 -207 -1702 100 -424 325 -849 616
-1160 l75 -81 -30 -79 c-180 -492 -232 -719 -259 -1130 -11 -175 -8 -557 10
-1015 6 -176 8 -189 34 -243 34 -68 98 -127 184 -168 155 -74 1069 -263 1663
-343 679 -93 1197 -122 1993 -113 290 4 527 5 527 2 0 -2 -47 -75 -103 -162
-141 -215 -214 -337 -282 -473 -177 -354 -277 -747 -315 -1245 -12 -152 -15
-874 -4 -933 14 -80 63 -142 139 -180 49 -24 315 -92 645 -166 1368 -306 2733
-407 4175 -311 446 30 958 83 1315 135 193 29 543 91 559 99 9 6 -5 18 -45 41
-33 18 -105 64 -161 101 -494 332 -816 765 -968 1302 -40 144 -89 381 -106
522 -17 131 -16 484 0 605 75 554 302 1008 730 1462 l63 68 -98 46 c-404 187
-826 298 -1225 320 l-116 7 -7 -102 c-24 -349 -129 -450 -551 -527 -75 -14
-150 -19 -295 -19 -213 0 -277 9 -465 66 -203 62 -311 132 -362 237 l-28 57 0
478 0 478 -95 43 c-368 167 -683 434 -885 751 -95 150 -180 347 -225 520 -49
190 -63 308 -66 568 -2 168 -7 245 -16 264 -19 39 -70 70 -136 83 -319 61
-528 239 -651 553 l-36 92 1 155 c1 125 5 171 23 235 54 201 161 349 334 461
40 25 84 55 99 65 l26 18 19 -52 c46 -131 177 -199 288 -148 70 32 112 91 217
310 128 266 229 446 285 510 116 133 216 120 411 -52 225 -200 420 -317 658
-396 377 -125 761 -121 1234 14 219 63 361 145 570 330 224 198 306 230 411
161 75 -50 144 -164 335 -550 139 -281 195 -346 296 -346 73 0 207 91 227 153
9 31 28 218 53 537 16 213 16 836 -1 965 -65 496 -382 944 -826 1164 -190 95
-298 121 -620 150 -558 51 -974 61 -1587 36 -246 -10 -453 -15 -460 -12 -8 3
-19 36 -26 80 -76 448 -284 919 -560 1267 -153 193 -443 462 -672 625 -594
420 -1320 619 -2115 578z m1499 -2428 c174 -136 597 -455 665 -503 42 -29 77
-57 79 -62 2 -5 -35 -55 -81 -112 -264 -323 -313 -456 -348 -936 -15 -214 -7
-713 16 -932 9 -85 13 -171 10 -191 -5 -30 -24 -53 -109 -132 -122 -113 -219
-188 -289 -223 -29 -15 -59 -32 -67 -40 -38 -33 -223 -126 -317 -159 l-51 -18
-7 -54 c-3 -29 -6 -142 -4 -251 2 -192 1 -199 -26 -277 -136 -395 -399 -605
-758 -605 -304 0 -564 122 -702 330 -58 88 -90 161 -122 280 -24 90 -25 104
-20 275 3 99 3 207 0 241 l-5 61 -127 56 c-457 205 -801 524 -1005 933 -95
190 -166 430 -197 664 -7 52 -13 181 -13 287 -1 180 0 193 20 220 20 27 25 28
95 27 409 -8 606 -6 746 10 495 54 934 183 1398 411 410 202 720 411 950 641
56 55 110 106 121 113 32 19 73 4 148 -54z"/>
</g>
</svg>
