<svg width="1200" height="630" viewBox="0 0 1200 630" fill="none" xmlns="http://www.w3.org/2000/svg">
<path d="M1025.56 123V171.95H1065.73V211.171H1113.73V123H1025.56Z" fill="#054BE6"/>
<path d="M240.176 377.374L232.27 346.777H165.725L157.819 377.374H87L160.463 139.428H237.545L311.008 377.374H240.176ZM179.894 292.399H218.101L198.991 219.321L179.881 292.399H179.894Z" fill="black"/>
<path d="M314.293 377.374V129.225H375.243V377.374H314.293Z" fill="black"/>
<path d="M503.713 267.231H469.125V303.937C469.125 309.609 470.447 313.793 473.078 316.514C475.709 319.235 479.61 320.762 484.77 321.109C489.929 321.455 496.244 321.391 503.713 320.942V377.374C469.228 382.354 444.689 379.299 430.083 368.197C415.478 357.096 408.175 336.818 408.175 307.351V267.244H385.112V207.424H408.175V178.534L469.112 159.834V207.424H503.7V267.244L503.713 267.231Z" fill="black"/>
<path d="M518.537 377.374V207.411H579.486V377.374H518.537Z" fill="black"/>
<path d="M973.534 202.649C992.644 202.649 1007.57 208.822 1018.34 221.181C1029.09 233.541 1034.48 251.149 1034.48 274.045V377.386H973.534V282.555C973.534 269.643 967.938 263.175 956.734 263.175C943.771 263.175 937.303 271.556 937.303 288.33V377.386H876.353V282.555C876.353 269.643 870.758 263.175 859.553 263.175C846.591 263.175 840.122 271.556 840.122 288.33V377.386H779.173V207.423H840.122V223.402C850.877 209.579 865.816 202.662 884.927 202.662C904.037 202.662 917.538 209.695 926.099 223.735C937.957 209.682 953.769 202.662 973.534 202.662V202.649Z" fill="black"/>
<path d="M675.485 207.411V254.948H714.514V293.027H761.115V207.411H675.485Z" fill="#054BE6"/>
<path d="M676.641 324.818C658.236 324.818 643.323 309.943 643.323 291.59C643.323 279.013 650.331 268.078 660.662 262.431V208.63C621.005 215.817 590.934 250.405 590.934 292.014C590.934 338.833 629 376.796 675.973 376.796C687.884 376.796 699.216 374.345 709.496 369.943V376.629H761.128V307.889H705.697C699.986 317.99 689.128 324.818 676.666 324.818H676.641Z" fill="black"/>
<path d="M579.486 129.225H518.613V177.006H579.486V129.225Z" fill="black"/>
<path d="M815.366 441.904H831.011V486.284C831.011 489.981 830.292 493.266 828.867 496.128C827.443 498.99 825.518 501.275 823.092 502.969C820.679 504.663 818.022 505.934 815.122 506.755C812.234 507.589 809.167 508 805.92 508C800.645 508 795.935 507.037 791.802 505.138C787.67 503.226 784.551 500.428 782.459 496.719L795.627 489.326C797.911 492.843 801.287 494.601 805.74 494.601C808.602 494.601 810.925 493.895 812.696 492.471C814.48 491.046 815.366 488.992 815.366 486.272V481.831C812.119 485.656 807.678 487.568 802.018 487.568C795.473 487.568 790.044 485.283 785.757 480.727C781.471 476.171 779.314 470.614 779.314 464.081C779.314 457.549 781.458 452.004 785.757 447.435C790.044 442.879 795.473 440.595 802.018 440.595C807.678 440.595 812.131 442.507 815.366 446.332V441.891V441.904ZM797.963 470.986C799.836 472.809 802.275 473.72 805.252 473.72C808.23 473.72 810.668 472.809 812.542 470.986C814.416 469.164 815.353 466.866 815.353 464.094C815.353 461.322 814.416 459.025 812.542 457.202C810.668 455.38 808.23 454.481 805.252 454.481C802.275 454.481 799.836 455.393 797.963 457.202C796.089 459.025 795.152 461.322 795.152 464.094C795.152 466.866 796.089 469.164 797.963 470.986Z" fill="#054BE6"/>
<path d="M836.337 488.145V420.638H852.174V488.145H836.337Z" fill="#054BE6"/>
<path d="M880.589 489.441C873.53 489.441 867.524 487.08 862.57 482.37C857.616 477.66 855.126 471.871 855.126 465.031C855.126 458.19 857.603 452.415 862.57 447.692C867.524 442.982 873.543 440.62 880.589 440.62C887.635 440.62 893.731 442.982 898.66 447.692C903.588 452.402 906.052 458.19 906.052 465.031C906.052 471.871 903.588 477.66 898.66 482.37C893.731 487.08 887.712 489.441 880.589 489.441ZM880.589 474.644C883.387 474.644 885.697 473.745 887.507 471.961C889.317 470.177 890.228 467.867 890.228 465.031C890.228 462.194 889.317 459.884 887.507 458.1C885.697 456.316 883.387 455.418 880.589 455.418C877.791 455.418 875.584 456.316 873.774 458.1C871.965 459.884 871.053 462.194 871.053 465.031C871.053 467.867 871.965 470.177 873.774 471.961C875.584 473.745 877.856 474.644 880.589 474.644Z" fill="#054BE6"/>
<path d="M938.574 440.621C944.927 440.621 950.253 442.944 954.552 447.602C958.839 452.261 960.995 458.062 960.995 465.031C960.995 472 958.852 477.801 954.552 482.46C950.266 487.119 944.94 489.442 938.574 489.442C932.786 489.442 928.268 487.594 925.034 483.898V488.146H909.196V423.423H925.034V446.165C928.281 442.469 932.786 440.621 938.574 440.621ZM927.793 472.334C929.641 474.182 932.054 475.106 935.044 475.106C938.035 475.106 940.448 474.182 942.296 472.334C944.144 470.486 945.068 468.047 945.068 465.031C945.068 462.015 944.144 459.577 942.296 457.729C940.448 455.881 938.035 454.956 935.044 454.956C932.054 454.956 929.641 455.881 927.793 457.729C925.945 459.577 925.034 462.015 925.034 465.031C925.034 468.047 925.958 470.486 927.793 472.334Z" fill="#054BE6"/>
<path d="M997.701 441.904H1013.54V488.133H997.701V483.885C994.454 487.581 989.949 489.429 984.161 489.429C977.808 489.429 972.482 487.106 968.183 482.447C963.896 477.789 961.74 471.987 961.74 465.019C961.74 458.05 963.883 452.249 968.183 447.59C972.469 442.931 977.795 440.608 984.161 440.608C989.949 440.608 994.467 442.456 997.701 446.152V441.904ZM980.439 472.321C982.287 474.169 984.7 475.093 987.691 475.093C990.681 475.093 993.094 474.169 994.942 472.321C996.79 470.473 997.701 468.035 997.701 465.019C997.701 462.002 996.777 459.564 994.942 457.716C993.094 455.868 990.681 454.944 987.691 454.944C984.7 454.944 982.287 455.868 980.439 457.716C978.591 459.564 977.667 462.002 977.667 465.019C977.667 468.035 978.591 470.473 980.439 472.321Z" fill="#054BE6"/>
<path d="M1018.88 488.145V420.638H1034.71V488.145H1018.88Z" fill="#054BE6"/>
</svg>
