<svg xmlns="http://www.w3.org/2000/svg" width="46.998" height="57.473" viewBox="0 0 46.998 57.473">
  <g id="uyiujkfghjdtgxdfbgvbsxdfg" transform="translate(0.1 0.003)">
    <path id="Trazado_173" data-name="Trazado 173" d="M147.7,314.311l16.468.213v13.36l-16.447-.128-.011-13.455Z" transform="translate(-132.067 -280.845)" fill="#ffdfb2" fill-rule="evenodd"/>
    <path id="Trazado_174" data-name="Trazado 174" d="M46.9,360.874a31.855,31.855,0,0,1-23.355,10.145,33,33,0,0,1-3.971-.245A31.878,31.878,0,0,1-.1,360.566l1.331-3.2,14.4-6.43c0,4.694,1.905,6.366,8.239,6.462,7.824.117,8.207-1.661,8.207-6.493l13.232,6.493,1.575,3.481Z" transform="translate(0 -313.549)" fill="#9580ff" fill-rule="evenodd"/>
    <path id="Trazado_175" data-name="Trazado 175" d="M164.168,314.692v3.524c-2.842,5.078-14.477,5.173-16.468-3.715Z" transform="translate(-132.067 -281.024)" fill="#806540" fill-rule="evenodd" opacity="0.1"/>
    <path id="Trazado_176" data-name="Trazado 176" d="M111.129,21.4c22.014,0,13.434,36.47,0,36.47S89.115,21.4,111.129,21.4Z" transform="translate(-87.341 -19.125)" fill="#ffdfb2" fill-rule="evenodd"/>
    <path id="Trazado_177" data-name="Trazado 177" d="M88.045,173.1c-3.172,1.384-.479,7.952,1.522,7.92A32.885,32.885,0,0,1,88.045,173.1Z" transform="translate(-77.457 -154.676)" fill="#ffd499" fill-rule="evenodd"/>
    <path id="Trazado_178" data-name="Trazado 178" d="M337.922,173.1c3.172,1.384.479,7.952-1.522,7.92A32.885,32.885,0,0,0,337.922,173.1Z" transform="translate(-300.679 -154.676)" fill="#ffd499" fill-rule="evenodd"/>
    <path id="Trazado_179" data-name="Trazado 179" d="M118.374,24.151s1.107-9.016-2.086-12.157c-1.384,3.651-7.76,4.9-7.76,4.9a17.348,17.348,0,0,0,3.321-3.044c-1.7.735-7.111,2.959-12.008,1.2a24.412,24.412,0,0,0,3.736-2.768s-4.428,2.406-8.729,1.8c-3.1,2.31-1.714,9.474-1.714,9.474C88.993,12.6,92.815.072,105.94,0c12.785-.075,16.723,12.252,12.433,24.154Z" transform="translate(-81.887)" fill="#ff9580" fill-rule="evenodd"/>
    <path id="Trazado_180" data-name="Trazado 180" d="M114.739,349.3a17.908,17.908,0,0,0,8.229,6.664l-5.354,5.535L110.8,351.046l3.949-1.746Z" transform="translate(-99.095 -312.12)" fill="#f7f8f2" fill-rule="evenodd"/>
    <path id="Trazado_181" data-name="Trazado 181" d="M233.229,349.3A17.908,17.908,0,0,1,225,355.964l5.354,5.535,6.813-10.453-3.949-1.746Z" transform="translate(-201.138 -312.12)" fill="#f7f8f2" fill-rule="evenodd"/>
    <path id="Trazado_182" data-name="Trazado 182" d="M207.845,463.306c-.852.064-1.714.1-2.587.106-.66,0-1.309-.021-1.959-.053l1.064-9.059h2.491l.99,9.016Z" transform="translate(-181.748 -405.942)" fill="#8aff80" fill-rule="evenodd"/>
    <path id="Trazado_183" data-name="Trazado 183" d="M198.5,414.917,201.332,412l2.832,2.917-2.832,2.917Z" transform="translate(-177.459 -368.145)" fill="#8aff80" fill-rule="evenodd"/>
  </g>
</svg>
