<svg xmlns="http://www.w3.org/2000/svg" width="52.218" height="52.355" viewBox="0 0 52.218 52.355">
  <g id="Grupo_11" data-name="Grupo 11" transform="translate(-84 -344.027)">
    <g id="destination" transform="translate(84 344.027)">
      <path id="Trazado_27" data-name="Trazado 27" d="M299,24.827c.982-1.036,2.072-1.963,3.013-3.04a23.38,23.38,0,0,0,4.772-7.594c1.282-3.708,1.05-7.24-1.445-10.416A9.754,9.754,0,0,0,299.327.164l.2-.164h1.936a8.584,8.584,0,0,1,2.9.668,10.082,10.082,0,0,1,5.9,6.981,5.337,5.337,0,0,1,.123,1.472c-.014.641.041,1.3-.027,1.936a15.039,15.039,0,0,1-2.3,6.5,29.294,29.294,0,0,1-3.545,4.649,1.293,1.293,0,0,1-.327.559,38.172,38.172,0,0,1-2.986,2.768,1.05,1.05,0,0,1-1.622-.014c-.218-.191-.518-.327-.586-.668Z" transform="translate(-258.235 0)" fill="#80e0ea"/>
      <path id="Trazado_28" data-name="Trazado 28" d="M35.047,352.07c-.791-.136-1.6-.245-2.386-.409A8.976,8.976,0,0,1,28.6,349.9a2.385,2.385,0,0,1-.8-2.85c.164-.041.245.1.327.2a5.222,5.222,0,0,0,2.291,1.65,15.551,15.551,0,0,0,5.672,1.1,17.13,17.13,0,0,0,6.217-.859,5.821,5.821,0,0,0,2.836-1.827c.1-.136.2-.286.409-.232a2.279,2.279,0,0,1-.559,2.563,7.61,7.61,0,0,1-3.79,1.909,12.837,12.837,0,0,1-2.59.423.3.3,0,0,0-.273.1H35.074Z" transform="translate(-23.84 -299.729)" fill="#955eff"/>
      <path id="Trazado_29" data-name="Trazado 29" d="M371.541,309.345c-.218.232-.2.559-.314.832a.752.752,0,0,1-.954.532.767.767,0,0,1-.5-1.009c.055-.191.109-.4.15-.586.1-.423.232-.8.723-.873.464-.068.7.245.886.586v.5Z" transform="translate(-319.323 -266.207)" fill="#f25050"/>
      <path id="Trazado_30" data-name="Trazado 30" d="M83.6,147.4c1.377-1.268,2.74-2.536,3.995-3.927a31.885,31.885,0,0,0,6.013-9.094,16.855,16.855,0,0,0,1.322-6.544,12.949,12.949,0,0,0-8.153-11.671,12.3,12.3,0,0,0-2.5-.682.525.525,0,0,1-.354-.177A12.906,12.906,0,0,1,97.52,131a23.71,23.71,0,0,1-4.649,9.585c-.941,1.268-2,2.44-3.04,3.627a.574.574,0,0,1-.218.341,38.81,38.81,0,0,1-3.886,3.6c-.573.45-.832.477-1.4.027C84.05,147.963,83.641,147.841,83.6,147.4Z" transform="translate(-72.202 -99.563)" fill="#80e0ea"/>
      <path id="Trazado_31" data-name="Trazado 31" d="M36.358,330.6c.286.245.559.491.845.723a.8.8,0,0,0,1.173-.027,44.857,44.857,0,0,0,3.831-3.545c.123-.123.245-.232.368-.341a6.241,6.241,0,0,1,3.913,2.359,2.274,2.274,0,0,1,.164.314c-.273.123-.354.409-.532.6a7.7,7.7,0,0,1-3.8,1.936,18.264,18.264,0,0,1-5.958.491,14.593,14.593,0,0,1-5.031-1.132,5.274,5.274,0,0,1-2.427-1.922,3.721,3.721,0,0,1,1.881-1.827,8.8,8.8,0,0,1,2.181-.832,37.581,37.581,0,0,0,3.395,3.19Z" transform="translate(-24.96 -282.762)" fill="#9580ff"/>
      <path id="Trazado_32" data-name="Trazado 32" d="M264.195,165.518c.245.218.477.436.736.641a.877.877,0,0,0,1.35,0,35.291,35.291,0,0,0,3.436-3.259c.055.245.286.2.436.273a4.15,4.15,0,0,1,2.318,1.745c-.055.464-.423.682-.736.927a5.9,5.9,0,0,1-2.4,1.091,14.049,14.049,0,0,1-8.848-.477,4.5,4.5,0,0,1-1.473-.982.758.758,0,0,1-.314-.559,4.211,4.211,0,0,1,2.331-1.745c.164-.068.341-.136.518-.2A33.376,33.376,0,0,0,264.195,165.518Z" transform="translate(-223.429 -140.69)" fill="#9580ff"/>
      <path id="Trazado_33" data-name="Trazado 33" d="M257.114,177.7a6.109,6.109,0,0,0,3.763,2.031,13.093,13.093,0,0,0,3.79.314,10.18,10.18,0,0,0,5.358-1.486,4.273,4.273,0,0,0,.859-.859,1.889,1.889,0,0,1-.382,2.359,5.61,5.61,0,0,1-2.849,1.459,13.744,13.744,0,0,1-8.808-.545,3.4,3.4,0,0,1-1.677-1.35A1.812,1.812,0,0,1,257.114,177.7Z" transform="translate(-221.843 -153.472)" fill="#955eff"/>
      <path id="Trazado_34" data-name="Trazado 34" d="M236.045,349.027a2.71,2.71,0,0,1-.614-.068.684.684,0,0,1-.532-.723.668.668,0,0,1,.586-.723,6.573,6.573,0,0,1,1.268-.027.689.689,0,0,1,.668.75.724.724,0,0,1-.682.75C236.536,349.014,236.332,349.014,236.045,349.027Z" transform="translate(-202.874 -300.095)" fill="#f25050"/>
      <path id="Trazado_35" data-name="Trazado 35" d="M225.061,180.227c-.763.232-1.254-.136-1.309-.641-.068-.532.327-.818,1.173-.873a3.085,3.085,0,0,1,.709.014.691.691,0,0,1,.641.777.7.7,0,0,1-.709.723C225.375,180.241,225.2,180.227,225.061,180.227Z" transform="translate(-193.24 -154.336)" fill="#f25050"/>
      <path id="Trazado_36" data-name="Trazado 36" d="M199.858,190.609a.774.774,0,0,1-.736-1.091,3.312,3.312,0,0,1,.927-1.063.667.667,0,0,1,.886.041.66.66,0,0,1,.232.859,4.431,4.431,0,0,1-1,1.145.884.884,0,0,1-.327.123Z" transform="translate(-171.909 -162.632)" fill="#f25050"/>
      <path id="Trazado_37" data-name="Trazado 37" d="M261.522,251.675h.559a.749.749,0,0,1,.136,1.473,3.283,3.283,0,0,1-1.363,0,.752.752,0,0,1,.123-1.486c.191-.014.368,0,.559,0Z" transform="translate(-224.778 -217.345)" fill="#f25050"/>
      <path id="Trazado_38" data-name="Trazado 38" d="M368.953,281.765a.812.812,0,0,1-.75-.641c-.123-.545-.682-1.063-.109-1.636a.738.738,0,0,1,1.145.15,3.6,3.6,0,0,1,.45,1.227.768.768,0,0,1-.75.9Z" transform="translate(-317.689 -241.204)" fill="#f25050"/>
      <path id="Trazado_39" data-name="Trazado 39" d="M352.565,336.128a.786.786,0,0,1-.682-.436.7.7,0,0,1,.136-.845,10,10,0,0,1,.941-.764.678.678,0,0,1,.845.041.73.73,0,0,1,.286.763,2.6,2.6,0,0,1-1.541,1.241Z" transform="translate(-303.837 -288.423)" fill="#f25050"/>
      <path id="Trazado_40" data-name="Trazado 40" d="M324.892,348.209a1.939,1.939,0,0,1-.464-.041.722.722,0,0,1-.559-.8.737.737,0,0,1,.7-.7c.341-.041.682-.055,1.009-.068a.792.792,0,0,1,.818.682.77.77,0,0,1-.654.832,2.305,2.305,0,0,1-.3.055c-.164.014-.341.027-.559.041Z" transform="translate(-279.709 -299.345)" fill="#f25050"/>
      <path id="Trazado_41" data-name="Trazado 41" d="M203.942,241.414a2.65,2.65,0,0,1,1.636,1.241.7.7,0,0,1-.273.723.682.682,0,0,1-.8.1,3.844,3.844,0,0,1-1.077-.845.68.68,0,0,1-.1-.764.773.773,0,0,1,.6-.464Z" transform="translate(-175.543 -208.488)" fill="#f25050"/>
      <path id="Trazado_42" data-name="Trazado 42" d="M231.718,253.249a2,2,0,0,1-.75-.055.7.7,0,0,1-.5-.791.684.684,0,0,1,.7-.668q.532-.02,1.063,0a.746.746,0,0,1,.763.723.775.775,0,0,1-.709.791A3.826,3.826,0,0,1,231.718,253.249Z" transform="translate(-199.037 -217.405)" fill="#f25050"/>
      <path id="Trazado_43" data-name="Trazado 43" d="M320.6,251.714h.5a.751.751,0,0,1,.055,1.5,6.734,6.734,0,0,1-1.173,0,.756.756,0,0,1-.7-.8.779.779,0,0,1,.791-.709h.5Z" transform="translate(-275.755 -217.383)" fill="#f25050"/>
      <path id="Trazado_44" data-name="Trazado 44" d="M295.514,348.641h-.5a.756.756,0,0,1-.1-1.5,4.933,4.933,0,0,1,1.268,0,.683.683,0,0,1,.614.8.7.7,0,0,1-.723.7Z" transform="translate(-254.162 -299.777)" fill="#f25050"/>
      <path id="Trazado_45" data-name="Trazado 45" d="M176.906,347.8h.464a.757.757,0,0,1,.041,1.513,7.654,7.654,0,0,1-1.118,0,.737.737,0,0,1-.7-.791.725.725,0,0,1,.75-.723Z" transform="translate(-151.656 -300.381)" fill="#f25050"/>
      <path id="Trazado_46" data-name="Trazado 46" d="M291.118,251.627a4.6,4.6,0,0,1,.614,0,.693.693,0,0,1,.641.668.678.678,0,0,1-.5.777,2.936,2.936,0,0,1-1.459,0,.67.67,0,0,1-.545-.8.693.693,0,0,1,.7-.668h.559Z" transform="translate(-250.339 -217.297)" fill="#f25050"/>
      <path id="Trazado_47" data-name="Trazado 47" d="M350.366,258.991a.76.76,0,0,1-1.077.736,5.915,5.915,0,0,1-1.05-.709.751.751,0,0,1,.654-1.282,2.848,2.848,0,0,1,1.363.927A.842.842,0,0,1,350.366,258.991Z" transform="translate(-300.547 -222.574)" fill="#f25050"/>
      <path id="Trazado_48" data-name="Trazado 48" d="M265.788,348.611c-.191,0-.368.014-.559,0a.757.757,0,0,1-.15-1.472,3.056,3.056,0,0,1,1.4-.014.679.679,0,0,1,.573.777.7.7,0,0,1-.682.7c-.2.014-.409,0-.614,0h0Z" transform="translate(-228.486 -299.733)" fill="#f25050"/>
      <path id="Trazado_49" data-name="Trazado 49" d="M206.468,347.662c.191,0,.368-.014.559,0a.684.684,0,0,1,.668.7.7.7,0,0,1-.573.791,3.522,3.522,0,0,1-1.309.027.7.7,0,0,1-.627-.791.707.707,0,0,1,.723-.709h.559Z" transform="translate(-177.21 -300.256)" fill="#f25050"/>
      <path id="Trazado_50" data-name="Trazado 50" d="M192.073,215.862a.856.856,0,0,1,.5-.968.655.655,0,0,1,.859.232,2.527,2.527,0,0,1,.177,1.813.639.639,0,0,1-.736.423.689.689,0,0,1-.668-.586c-.068-.3-.082-.6-.123-.9Z" transform="translate(-165.882 -185.54)" fill="#f25050"/>
      <path id="Trazado_51" data-name="Trazado 51" d="M252.915,8.58a9.772,9.772,0,0,0-3.49-6.217A8.655,8.655,0,0,0,244.939.236c-.1,0,.027-.1-.027-.136H244.5c-.123.15-.314.136-.464.164a9.877,9.877,0,0,0-5.876,3.381,9.722,9.722,0,0,0-2.4,6.844,14.324,14.324,0,0,0,2.113,6.735,30.424,30.424,0,0,0,3.872,5.167.326.326,0,0,0,.109.314c.709.777,1.513,1.445,2.277,2.168a.287.287,0,0,0,.327.082,30.367,30.367,0,0,0,3.545-3.586,23.163,23.163,0,0,0,4.322-7.1,11.882,11.882,0,0,0,.6-5.685Zm-7.1,5.222a3.666,3.666,0,0,1-3.736-3.695,3.7,3.7,0,0,1,7.4-.014,3.671,3.671,0,0,1-3.668,3.708Z" transform="translate(-203.615 -0.086)" fill="#80ffea"/>
      <path id="Trazado_52" data-name="Trazado 52" d="M22.129,124.015a12.749,12.749,0,0,0-10.4-8.535c-.218-.068-.4.068-.6.1a12.2,12.2,0,0,0-7.2,3.49A12.709,12.709,0,0,0,.355,131.4a23.273,23.273,0,0,0,4.267,8.889,50.732,50.732,0,0,0,3.395,4.077A1.389,1.389,0,0,0,8.44,145c.7.75,1.5,1.377,2.222,2.1.218.218.436.5.8.491A10.6,10.6,0,0,0,13.2,146.1a40.152,40.152,0,0,0,3.04-3.231,29.393,29.393,0,0,0,5.617-9.107,13.95,13.95,0,0,0,.273-9.748Zm-9.367,9.053a4.793,4.793,0,0,1,.027-9.585,4.793,4.793,0,1,1-.027,9.585Z" transform="translate(-0.001 -99.72)" fill="#80ffea"/>
    </g>
  </g>
</svg>
