<svg xmlns="http://www.w3.org/2000/svg" width="65.661" height="88.698" viewBox="0 0 65.661 88.698">
  <g id="igyukgyugtfxdfvb" transform="translate(0 1.817)">
    <path id="Trazado_162" data-name="Trazado 162" d="M64.661,17.955c.6.358.447.954.447,1.491V81.154c0,3.609-2.207,5.726-5.786,5.726H5.965C2.177,86.881.03,84.733.03,80.975Q-.015,43.485,0,5.995C0,2.118,2.118,0,5.995,0H41.934a12.558,12.558,0,0,1,1.491.119c0,3.907,0,7.844.03,11.751,0,4.474,1.939,6.472,6.442,6.5H62.842a2.676,2.676,0,0,0,1.849-.418ZM41.368,48.824H51.18c.895,0,1.64-.3,1.64-1.312,0-.895-.716-1.253-1.521-1.342a10.085,10.085,0,0,0-1.342-.03H34.925c-1.193,0-2.386,0-3.579.03a1.244,1.244,0,0,0-1.253.895,1.207,1.207,0,0,0,.239,1.253,1.959,1.959,0,0,0,1.64.507h9.395Zm0,17.6H51.18c.895,0,1.64-.3,1.64-1.312,0-.865-.686-1.253-1.521-1.342-.447-.03-.895-.03-1.342-.03H33.881c-.835,0-1.7,0-2.535.03a1.237,1.237,0,0,0-1.312,1.312c0,.835.537,1.223,1.342,1.282.388.03.805.03,1.193.03h8.769Zm0-37.878H31.824c-.925,0-1.76.239-1.73,1.342,0,1.133.865,1.312,1.79,1.312h18.76a4.007,4.007,0,0,0,1.044-.089,1.255,1.255,0,0,0-.03-2.505,6.624,6.624,0,0,0-1.342-.089H41.368ZM24.516,46.855a1.385,1.385,0,0,0-.865-1.223,1.32,1.32,0,0,0-1.611.447c-1.1,1.282-2.177,2.565-3.281,3.847-.805.925-1.521,2.475-2.446,2.654-1.133.179-1.849-1.521-2.8-2.326-.686-.6-1.432-.895-2.118-.268-.805.716-.477,1.521.209,2.177,1.372,1.372,2.744,2.714,4.056,4.146.626.686.954.507,1.491-.119,2.207-2.684,4.444-5.339,6.681-7.993a2.423,2.423,0,0,0,.686-1.342Zm0-17.6a1.361,1.361,0,0,0-.865-1.253,1.458,1.458,0,0,0-1.7.537c-1.611,1.939-3.281,3.847-4.832,5.846-.686.865-1.133.865-1.79.06-.537-.656-1.193-1.193-1.79-1.79-.686-.686-1.432-1.014-2.207-.239-.686.716-.388,1.461.239,2.088,1.372,1.372,2.774,2.714,4.086,4.116.6.626.925.6,1.491-.06,2.207-2.684,4.444-5.339,6.681-7.993a2.17,2.17,0,0,0,.686-1.312Zm-8.2,45.215c.447-.06.567-.328.775-.537,2.3-2.744,4.563-5.488,6.86-8.2.6-.716.925-1.521.089-2.207-.895-.775-1.611-.268-2.267.507-1.163,1.432-2.326,2.833-3.519,4.235q-2,2.386-4.235.149c-.179-.179-.358-.328-.537-.507-.626-.656-1.342-.925-2.088-.239-.716.686-.507,1.432.149,2.088,1.4,1.4,2.774,2.833,4.176,4.235.209.209.447.388.6.537Zm21.027-18.79h5.488c.925,0,1.76-.239,1.76-1.342S43.754,53,42.829,53H31.853c-.925,0-1.76.239-1.76,1.342s.835,1.342,1.76,1.342h5.488Zm-.149,17.6h5.637c.925,0,1.76-.209,1.76-1.342s-.835-1.342-1.76-1.342H31.853c-.925,0-1.76.209-1.76,1.342s.835,1.342,1.76,1.342h5.339Zm0-35.224h5.637c.865,0,1.79-.239,1.76-1.372S43.664,35.4,42.769,35.4H31.913c-.895,0-1.79.149-1.819,1.282s.865,1.342,1.73,1.372c1.79.03,3.579,0,5.339,0Z" fill="#303440"/>
    <path id="Trazado_163" data-name="Trazado 163" d="M166.765,18.235a2.528,2.528,0,0,1-1.849.418H151.972c-4.474,0-6.412-2-6.442-6.5,0-3.907,0-7.844-.03-11.751,3.042,2.147,5.726,4.683,8.56,7.1,4.235,3.579,8.619,6.979,12.706,10.767Z" transform="translate(-102.104 -0.281)" fill="#303440" stroke="#ff80bf" stroke-width="2"/>
  </g>
</svg>
