<svg xmlns="http://www.w3.org/2000/svg" width="78.288" height="94.162" viewBox="0 0 78.288 94.162">
  <g id="fhsghfghdfghdfghdfghdfgh" transform="translate(-0.022 0.1)">
    <path id="Trazado_138" data-name="Trazado 138" d="M186.269,215.379q7.1,7.1,14.174,14.174a24.576,24.576,0,0,1,6.945,13.152,20.773,20.773,0,0,1,.378,3.9.874.874,0,0,0,.416.795c1.022.738,2.044,1.476,3.066,2.233.095.076.227.114.246.265a5.863,5.863,0,0,1-1.154,1.476,47.778,47.778,0,0,1-8.724,7.853c-1.325.908-2.668,1.76-4.069,2.555-.076-.019-.132-.076-.208-.076a28.8,28.8,0,0,1-3.122-.189,26.563,26.563,0,0,1-3.444-.53,26.138,26.138,0,0,1-7.342-2.782,21.882,21.882,0,0,1-4.069-2.99,25.942,25.942,0,0,1-2.63-2.952c-.019-.038-.057-.076-.076-.114a12.992,12.992,0,0,1-2.725-8.326,13.38,13.38,0,0,1,.568-3.444c.208-.511.4-1.041.624-1.533a6.764,6.764,0,0,0-1.571-7.986c-2.46-2.365-4.845-4.807-7.229-7.229a6.173,6.173,0,0,1-1.76-4.163,7.033,7.033,0,0,1,.587-3.1,2.244,2.244,0,0,0,.4-.719,7.146,7.146,0,0,1,3.577-2.687,8.676,8.676,0,0,1,2.517-.227,6.214,6.214,0,0,1,3.671,1.59c.643.568,1.249,1.192,1.855,1.8,1.457,1.438,2.914,2.9,4.371,4.334l1.968,2.025c.151.17.3.341.473.511l5.6,5.6a1.741,1.741,0,0,0,.473.36,1.106,1.106,0,0,0,1.192-1.855c-1.59-1.59-3.16-3.179-4.75-4.75a.853.853,0,0,1-.3-.681v-5.885c0-.151-.057-.3.076-.435Zm-14.855.095a4.326,4.326,0,0,0-.7,0,3.913,3.913,0,0,0-2.5,6.131,2.116,2.116,0,0,0,3.368.587,13.377,13.377,0,0,0,2.725-2.744,1.808,1.808,0,0,0,.038-2.63A3.453,3.453,0,0,0,171.414,215.474Z" transform="translate(-133.287 -172.46)" fill="#303440" stroke="#303440" stroke-width="0.2"/>
    <path id="Trazado_139" data-name="Trazado 139" d="M68.831,67.918a15.23,15.23,0,0,0-.568,3.444,12.992,12.992,0,0,0,2.725,8.326c.019.038.057.076.076.114H46.557c-.208,0-.4,0-.606.019-.208,0-.4-.019-.606-.038H39.291a4.906,4.906,0,0,1-4.258-2.347,5.512,5.512,0,0,1-.833-3.16V14.685c0-.208.038-.435.038-.643,0-3.066-.057-6.112.038-9.178A4.992,4.992,0,0,1,39.442,0H72.71A6.35,6.35,0,0,1,75,.473a6.234,6.234,0,0,1,1.817,1.476,5.19,5.19,0,0,1,1.117,3.312V40.308c0,.189-.019.36-.019.549v8.686c0,.17.095.378-.095.511l-1.968-2.025V10.995c0-.416-.132-.473-.492-.473H36.811c-.435,0-.568.095-.568.549v56.3c0,.435.114.53.53.53h25.85c2.063,0,4.106,0,6.169.019Z" transform="translate(-27.601)" fill="#303440" stroke="#303440" stroke-width="0.2"/>
    <path id="Trazado_140" data-name="Trazado 140" d="M130.855,435.842c-.227-.151-.473-.076-.719-.076a25.823,25.823,0,0,1-7.8-.927,31.216,31.216,0,0,1-6.075-2.592c-2.1-1.1-4.2-2.2-6.321-3.293-4.352-2.271-8.686-4.542-13.039-6.794-.208-.114-.4-.227-.606-.341.208,0,.4-.019.606-.019h24.506a22.914,22.914,0,0,0,2.63,2.952,23.21,23.21,0,0,0,4.069,2.99,25.573,25.573,0,0,0,7.342,2.782,26.584,26.584,0,0,0,3.444.53c1.041.095,2.082.189,3.122.189a.466.466,0,0,1,.208.076,44.245,44.245,0,0,1-11.392,4.542Z" transform="translate(-77.949 -341.979)" fill="#303440" stroke="#303440" stroke-width="0.2"/>
    <path id="Trazado_141" data-name="Trazado 141" d="M264.7,222.746c.17-.151.095-.341.095-.511v-8.686a5.327,5.327,0,0,1,.019-.549,12.376,12.376,0,0,1,1.533,1.457,10.729,10.729,0,0,1,1.117,1.154c-.132.132-.076.284-.076.435v5.885a.853.853,0,0,0,.3.681c1.59,1.571,3.179,3.16,4.75,4.75a1.13,1.13,0,0,1,.265,1.457,1.112,1.112,0,0,1-1.457.4,2.088,2.088,0,0,1-.473-.359l-5.6-5.6C265,223.086,264.87,222.916,264.7,222.746Z" transform="translate(-214.481 -172.692)" fill="#303440" stroke="#303440" stroke-width="0.2"/>
    <path id="Trazado_142" data-name="Trazado 142" d="M77.749,113c-2.063,0-4.106-.019-6.169-.019H45.73c-.416,0-.53-.095-.53-.53v-56.3c0-.454.132-.549.568-.549H84.316c.36,0,.492.057.492.473V93.107c-1.457-1.438-2.914-2.9-4.371-4.334-.606-.606-1.211-1.23-1.855-1.8a6.213,6.213,0,0,0-3.671-1.59V81.261c0-.322-.114-.4-.4-.378H72.848c-.341,0-.492-.057-.473-.454.038-.587,0-1.173,0-1.76,0-.227-.057-.322-.3-.322H67.625c-.246,0-.322.095-.322.322,0,.624.019,1.23,0,1.855,0,.322.132.4.416.378h1.627c.4-.019.549.057.53.492-.038.549,0,1.117,0,1.665,0,.284.076.378.36.378.606-.019,1.211,0,1.8,0,.284,0,.36.095.36.378v1.8A7.12,7.12,0,0,0,68.817,88.3c0-1.287-.019-2.593,0-3.879,0-.378-.076-.511-.473-.492-.549.038-1.117,0-1.665,0-.341,0-.416-.114-.4-.416.019-.606,0-1.23,0-1.855,0-.265-.076-.341-.341-.341H63.764V79.141c0-.265-.076-.341-.341-.341H61.531c-.208,0-.3.057-.3.284v1.93c0,.208.038.3.284.3.757,0,1.514-.019,2.252-.019,0,1.59,0,3.179-.019,4.769,0,.284.114.341.36.322h1.8c.284,0,.36.076.36.36,0,.757-.057,1.514.019,2.271H64.1c-.246,0-.322.076-.322.3v1.949c0,.189.038.284.246.284h2.044c.17,0,.265-.057.246-.246,0-.776-.019-1.533-.038-2.309h2.1a7.494,7.494,0,0,0-.587,3.1,6.21,6.21,0,0,0,1.76,4.163c2.384,2.422,4.769,4.863,7.229,7.229a6.82,6.82,0,0,1,1.571,7.986c-.246.492-.416,1.022-.624,1.533ZM49.06,87.411v8.156c0,.378.114.454.473.454H60.472c.378,0,.492-.095.492-.492V84.648c0-.4-.095-.53-.511-.53-2.8.019-5.583,0-8.383,0-.36,0-.473-.076-.473-.454.019-1.457,0-2.933,0-4.39,0-.378-.057-.53-.473-.492a11.674,11.674,0,0,1-1.627,0c-.36-.019-.473.076-.473.454v8.156ZM60.945,70.1V64.589c0-.3-.038-.435-.4-.435H49.439c-.322,0-.378.114-.378.4v11.07c0,.322.095.416.416.416,1.627,0,3.236,0,4.863-.019.473,0,.549.132.549.568-.019,1.457,0,2.9,0,4.352,0,.322.095.416.416.416.568-.019,1.135-.038,1.722,0,.36.019.435-.114.435-.454V76.454c0-.36.095-.435.435-.435.889.019,1.8,0,2.687,0,.341,0,.416-.114.416-.416V70.1Zm19.984,0V64.627c0-.378-.076-.492-.473-.492H69.517c-.36,0-.473.076-.473.454V75.565c0,.341.076.454.435.454H80.512c.322,0,.416-.076.416-.416Zm-17.183,2.46v3.482c0,.246.057.36.341.341h1.855c.265,0,.341-.076.341-.341V69.131c0-.3-.114-.36-.378-.341-.587,0-1.173.019-1.76,0-.3,0-.4.076-.4.378v3.387Zm14.647,8.08h2.214c.246,0,.322-.076.322-.322V78.422c0-.284-.114-.322-.36-.322H76.216c-.265,0-.341.076-.341.341,0,.624.019,1.23,0,1.855,0,.3.114.36.378.341h2.138Zm-.057,4.182c.057.416-.17.946.095,1.192s.795.076,1.211.076c.4,0,.908.17,1.154-.076.265-.265.076-.795.095-1.192,0-.416.189-.946-.076-1.192s-.795-.076-1.211-.076c-.4,0-.908-.17-1.154.076-.284.265-.057.795-.095,1.192Z" transform="translate(-36.519 -45.078)" fill="#303440" stroke="#303440" stroke-width="0.2"/>
    <path id="Trazado_143" data-name="Trazado 143" d="M183.949,227.228a3.43,3.43,0,0,1,2.933,1.344,1.808,1.808,0,0,1-.038,2.63,13.376,13.376,0,0,1-2.725,2.744c-1.287.965-2.422.738-3.368-.587a3.909,3.909,0,0,1,2.5-6.131A4.324,4.324,0,0,1,183.949,227.228Zm1.211,3.312a.886.886,0,0,0,.965-.889.872.872,0,0,0-.889-.87.9.9,0,0,0-.965.852A.859.859,0,0,0,185.161,230.54Z" transform="translate(-145.823 -184.214)" fill="#8aff80" stroke="#303440" stroke-width="0.2"/>
    <path id="Trazado_144" data-name="Trazado 144" d="M166.891,182.967v-1.8c0-.284-.057-.378-.36-.378-.606.019-1.211,0-1.8,0-.284,0-.379-.095-.36-.378,0-.549-.019-1.116,0-1.665.038-.435-.132-.53-.53-.492-.53.038-1.079,0-1.628,0-.284,0-.416-.057-.416-.378.019-.624,0-1.23,0-1.855,0-.227.076-.322.322-.322h4.447c.246,0,.322.095.3.322,0,.587.019,1.173,0,1.76-.019.378.114.473.473.454.549-.019,1.117,0,1.665,0,.284,0,.4.057.4.378-.019,1.381,0,2.744,0,4.125A8.675,8.675,0,0,0,166.891,182.967Z" transform="translate(-131.054 -142.451)" fill="#8aff80" stroke="#303440" stroke-width="0.2"/>
    <path id="Trazado_145" data-name="Trazado 145" d="M147.936,199.021h-2.1a18.2,18.2,0,0,1-.019-2.271c0-.284-.076-.378-.36-.36-.606.019-1.211,0-1.8,0-.246,0-.359-.057-.359-.322,0-1.59,0-3.179.019-4.769h0c.719,0,1.438.019,2.176,0,.265,0,.341.076.341.341V193.5c0,.322.057.435.4.416.549-.038,1.117.019,1.665,0,.4-.019.473.114.473.492v3.879a2.245,2.245,0,0,1-.4.719Z" transform="translate(-116.055 -155.099)" fill="#8aff80" stroke="#303440" stroke-width="0.2"/>
    <path id="Trazado_146" data-name="Trazado 146" d="M6.58,199.561a2.212,2.212,0,0,1-.208-.095,25.562,25.562,0,0,1-2.63-2.725,5.837,5.837,0,0,1,.984-7.835q.4-.322-.019-.587A5.46,5.46,0,0,1,3.458,187.3a22.961,22.961,0,0,1-2.2-2.309,5.809,5.809,0,0,1,3.463-9.083l.454-.114c0-.208-.17-.284-.284-.4-.946-.946-1.93-1.873-2.839-2.857A5.566,5.566,0,0,1,.714,166.6a5.645,5.645,0,0,1,4.636-3.9,6.842,6.842,0,0,1,1.249-.038V199.6Z" transform="translate(0 -131.87)" fill="#303440" stroke="#303440" stroke-width="0.2"/>
    <path id="Trazado_147" data-name="Trazado 147" d="M65.6,186.786V178.63c0-.378.114-.473.473-.454a11.678,11.678,0,0,0,1.627,0c.4-.038.473.114.473.492-.019,1.457,0,2.933,0,4.39,0,.378.114.454.473.454H77.03c.416,0,.511.114.511.53v10.881c0,.4-.114.492-.492.492H66.111c-.36,0-.473-.095-.473-.454v-8.156Zm5.942-.341h-2.63c-.284,0-.4.038-.4.36v5.318c0,.3.114.36.378.341H74.21c.3,0,.36-.095.36-.378v-5.318c0-.3-.114-.36-.378-.341h-2.63Z" transform="translate(-53.059 -144.454)" fill="#8aff80" stroke="#303440" stroke-width="0.2"/>
    <path id="Trazado_148" data-name="Trazado 148" d="M77.241,106.742v5.507c0,.322-.076.435-.416.416-.889-.019-1.8,0-2.687,0-.341,0-.454.076-.435.435.019,1.476,0,2.971,0,4.447,0,.341-.057.473-.435.454-.568-.038-1.135-.019-1.722,0-.322,0-.416-.076-.416-.416v-4.352c0-.435-.076-.568-.549-.568-1.627.038-3.236,0-4.863.019-.322,0-.416-.076-.416-.416V101.2c0-.284.057-.4.378-.4H76.787c.36,0,.4.132.4.435v5.507Zm-2.933-.038v-2.593c0-.322-.076-.416-.416-.416H68.65c-.284,0-.4.057-.4.378v5.28c0,.3.076.4.378.4h5.28c.322,0,.378-.114.378-.4V106.7Z" transform="translate(-52.815 -81.725)" fill="#8aff80" stroke="#303440" stroke-width="0.2"/>
    <path id="Trazado_149" data-name="Trazado 149" d="M182.984,106.761v5.507c0,.322-.095.416-.416.416H171.535c-.36,0-.435-.114-.435-.454V101.254c0-.378.114-.454.473-.454h10.938c.4,0,.473.114.473.492C182.965,103.109,182.984,104.944,182.984,106.761Zm-2.9-.038v-2.63c0-.265-.057-.378-.36-.378h-5.318c-.284,0-.36.095-.36.36v5.318c0,.246.057.36.322.36h5.374c.265,0,.341-.076.341-.341Z" transform="translate(-138.594 -81.725)" fill="#8aff80" stroke="#303440" stroke-width="0.2"/>
    <path id="Trazado_150" data-name="Trazado 150" d="M143.2,129.156v-3.387c0-.3.095-.4.4-.378.587.019,1.173,0,1.76,0,.265,0,.378.038.378.341v6.907c0,.265-.076.341-.341.341h-1.855c-.265,0-.341-.095-.341-.341Z" transform="translate(-115.974 -101.66)" fill="#8aff80" stroke="#303440" stroke-width="0.2"/>
    <path id="Trazado_151" data-name="Trazado 151" d="M209.79,177.136h-2.119c-.265,0-.4-.038-.378-.341.019-.625,0-1.23,0-1.855,0-.265.076-.341.341-.341h4.353c.246,0,.359.057.359.322v1.892c0,.246-.076.322-.322.322H209.79Z" transform="translate(-167.936 -141.559)" fill="#8aff80" stroke="#303440" stroke-width="0.2"/>
    <path id="Trazado_152" data-name="Trazado 152" d="M219.961,204.422c.057-.416-.17-.927.095-1.192.246-.246.757-.076,1.154-.076.416,0,.946-.17,1.211.076.265.265.076.795.076,1.192,0,.416.189.927-.095,1.192-.246.246-.757.076-1.154.076-.416,0-.946.17-1.211-.076-.265-.265-.038-.795-.095-1.192Z" transform="translate(-178.163 -164.663)" fill="#8aff80" stroke="#303440" stroke-width="0.2"/>
    <path id="Trazado_153" data-name="Trazado 153" d="M145.883,232.2h0c0,.776.019,1.533.038,2.309,0,.189-.095.246-.246.246h-2.044c-.208,0-.265-.095-.246-.284v-1.949c0-.246.076-.322.322-.3h2.176Z" transform="translate(-116.121 -188.259)" fill="#8aff80" stroke="#303440" stroke-width="0.2"/>
    <path id="Trazado_154" data-name="Trazado 154" d="M132.436,180.8c-.757,0-1.514,0-2.252.019-.227,0-.284-.095-.284-.3v-1.93c0-.227.095-.284.3-.284H132.1c.265,0,.341.076.341.341v2.176h0Z" transform="translate(-105.191 -144.559)" fill="#8aff80" stroke="#303440" stroke-width="0.2"/>
    <path id="Trazado_155" data-name="Trazado 155" d="M203.386,237.36a.859.859,0,0,1-.889-.908.89.89,0,0,1,.965-.852.872.872,0,0,1,.889.87A.886.886,0,0,1,203.386,237.36Z" transform="translate(-164.049 -191.015)" fill="#303440" stroke="#303440" stroke-width="0.2"/>
    <path id="Trazado_156" data-name="Trazado 156" d="M83.947,221.9h2.63c.265,0,.378.038.378.341v5.318c0,.265-.057.378-.36.378H81.279c-.265,0-.378-.038-.378-.341v-5.318c0-.322.114-.378.4-.36h2.63Zm1.211,3.009c0-.4.151-.927-.038-1.154-.227-.284-.776-.076-1.192-.095-.4,0-.927-.132-1.154.057-.265.227-.095.776-.095,1.192s-.189.965.095,1.192c.227.208.757.057,1.154.057s.927.132,1.154-.076c.284-.227.057-.776.057-1.192Z" transform="translate(-65.463 -179.908)" fill="#303440" stroke="#303440" stroke-width="0.2"/>
    <path id="Trazado_157" data-name="Trazado 157" d="M87.037,119.109v2.649c0,.284-.057.4-.378.4h-5.28c-.3,0-.378-.095-.378-.4v-5.28c0-.322.114-.378.4-.378h5.242c.322,0,.416.095.416.416-.019.871,0,1.722,0,2.593Zm-1.741.038c-.057-.416.17-.946-.095-1.192s-.795-.076-1.211-.076c-.4,0-.908-.17-1.154.076s-.076.757-.076,1.154c0,.416-.189.946.076,1.192s.795.076,1.211.076c.4,0,.908.17,1.154-.076s.038-.757.076-1.154Z" transform="translate(-65.544 -94.129)" fill="#303440" stroke="#303440" stroke-width="0.2"/>
    <path id="Trazado_158" data-name="Trazado 158" d="M192.737,119.1v2.687c0,.265-.076.341-.341.341h-5.374c-.284,0-.322-.114-.322-.36V116.45c0-.284.076-.378.359-.36h5.318c.3,0,.36.114.36.378Zm-4.277-.038c.057.416-.189.965.095,1.23.246.246.795.057,1.211.076h.038c.378-.038.87.17,1.116-.095.227-.227.076-.7.057-1.079,0-.435.189-1-.076-1.287-.265-.246-.814-.076-1.249-.076-.378,0-.871-.17-1.117.076-.227.246-.038.738-.076,1.135Z" transform="translate(-151.242 -94.119)" fill="#303440" stroke="#303440" stroke-width="0.2"/>
    <path id="Trazado_159" data-name="Trazado 159" d="M92.7,232.265c0,.416.208.946-.057,1.192-.246.208-.757.076-1.154.076s-.927.132-1.154-.057c-.284-.227-.095-.776-.095-1.192s-.189-.946.095-1.192c.227-.208.757-.076,1.154-.057.416,0,.965-.189,1.192.095.189.227.038.757.038,1.154Z" transform="translate(-72.982 -187.264)" fill="#8aff80" stroke="#303440" stroke-width="0.2"/>
    <path id="Trazado_160" data-name="Trazado 160" d="M92.636,126.522c-.038.4.17.908-.076,1.154s-.757.076-1.154.076c-.416,0-.946.17-1.211-.076s-.076-.795-.076-1.192-.17-.908.076-1.154.757-.076,1.154-.076c.416,0,.946-.17,1.211.076s.038.795.095,1.192Z" transform="translate(-72.885 -101.505)" fill="#8aff80" stroke="#303440" stroke-width="0.2"/>
    <path id="Trazado_161" data-name="Trazado 161" d="M195.784,126.431c.038-.4-.151-.889.076-1.135s.738-.076,1.116-.076c.435,0,.984-.189,1.249.076.284.284.076.852.076,1.287,0,.36.151.852-.057,1.079-.246.246-.738.057-1.116.095h-.038c-.416-.019-.946.17-1.211-.076-.284-.265-.057-.814-.095-1.23Z" transform="translate(-158.566 -101.47)" fill="#8aff80" stroke="#303440" stroke-width="0.2"/>
  </g>
</svg>
