<svg xmlns="http://www.w3.org/2000/svg" width="112.609" height="101.121" viewBox="0 0 112.609 101.121">
  <g id="fghdfgj" transform="translate(-0.068 -0.015)">
    <path id="Trazado_120" data-name="Trazado 120" d="M124.909,38.891c-.776-1.856-1.662-3.685-2.327-5.569-2.133-6.04-2.632-12.163-.111-18.2,3.353-7.98,9.337-12.773,17.871-14.352.388-.083.8-.111,1.191-.166a8.147,8.147,0,0,0,1.995.526,23.122,23.122,0,0,1,12.246,7.592,22.356,22.356,0,0,1,5.4,12.634,29.383,29.383,0,0,1-3.214,15.765,59.666,59.666,0,0,1-7.98,11.969,73.785,73.785,0,0,1-8.922,8.977c-1.552-1.053-2.687-2.549-4.128-3.74a75.507,75.507,0,0,1-8.949-10.75c-1.025-1.552-2.05-3.131-3.048-4.71Zm27.707-15.156a8.561,8.561,0,1,0-8.589,8.506A8.526,8.526,0,0,0,152.616,23.735Z" transform="translate(-87.262 -0.423)" fill="#303440"/>
    <path id="Trazado_121" data-name="Trazado 121" d="M230.129,211.712a.521.521,0,0,0,.222.471c0,1.912.249,3.8.416,5.68.3,3.353.443,6.7.693,10.057a35.107,35.107,0,0,1,.36,4.128c-.055,1.524.665,3.048.083,4.572-5.209,2.327-10.445,4.655-15.654,6.982-.36.166-.748.3-1.108.471q-5.32-5.486-10.639-10.944v-22.3a5.463,5.463,0,0,0,.72-.222c4.655-2.023,9.309-4.017,13.936-6.1a1.634,1.634,0,0,1,1.967.222c2.965,2.355,5.985,4.627,8.977,6.954Z" transform="translate(-147.791 -147.671)" fill="#303440"/>
    <path id="Trazado_122" data-name="Trazado 122" d="M29.28,248.039c-3.131,1.385-6.234,2.771-9.365,4.156-5.652,2.521-11.332,5.07-16.984,7.592-.748.333-1.5.665-2.244,0a2.309,2.309,0,0,1-.526-2.355c1.081-6.012,2.161-12,3.242-18.009.332-1.856.748-3.713,1.108-5.569a2.669,2.669,0,0,0,.5-.194q11.138-5.86,22.248-11.748A21.484,21.484,0,0,1,31.192,220c-.083,1.053-.139,2.133-.222,3.186-.36,4.544-.72,9.06-1.081,13.6-.194,2.383-.5,4.738-.582,7.121-.055,1.358-.554,2.743-.083,4.128Z" transform="translate(0 -159.034)" fill="#303440"/>
    <path id="Trazado_123" data-name="Trazado 123" d="M323.314,211.506q-14.047-16.333-28.122-32.638c-.388-.443-.8-.859-1.191-1.275v-.055a5.541,5.541,0,0,1,.582-.277c3.685-.831,7.4-1.607,11.083-2.466,2.826-.665,5.68-1.108,8.451-1.995.554.277,1.108.582,1.662.859A2.22,2.22,0,0,1,317,175.377q1.621,9.018,3.3,18.037l2.992,16.541a4.037,4.037,0,0,1,.055,1.524Z" transform="translate(-212.493 -124.912)" fill="#303440"/>
    <path id="Trazado_124" data-name="Trazado 124" d="M104.977,247.75c-.471-1.385.028-2.743.083-4.128.083-2.383.388-4.766.582-7.121.36-4.544.72-9.06,1.081-13.6.083-1.053.139-2.133.222-3.186l.055-.055V219.6c.222.332.471.637.693.97,5.458,8.284,10.889,16.569,16.375,24.853,2.771,4.184,5.569,8.367,8.34,12.551v1.884a45.566,45.566,0,0,1-5.874-2.494Q115.768,252.585,105,247.75Z" transform="translate(-75.697 -158.745)" fill="#303440"/>
    <path id="Trazado_125" data-name="Trazado 125" d="M23.2,159.514c.139-2.438.8-4.766,1.164-7.176.36-2.3.859-4.544,1.247-6.844A2.678,2.678,0,0,1,27,143.5q10.806-5.985,21.611-12.025a1.578,1.578,0,0,1,1.358-.249c-.083,1.136-.139,2.272-.249,3.408-.388,3.851-.748,7.73-.859,11.609l-.249.166a5.4,5.4,0,0,0-.61.222c-7.01,3.685-14.02,7.4-21.057,11.083a20.224,20.224,0,0,1-3.74,1.8Z" transform="translate(-16.723 -94.808)" fill="#303440"/>
    <path id="Trazado_126" data-name="Trazado 126" d="M193.928,57.641a78,78,0,0,0,8.922-8.977,59.664,59.664,0,0,0,7.979-11.969,29.129,29.129,0,0,0,3.214-15.765A22.2,22.2,0,0,0,208.64,8.3,23.082,23.082,0,0,0,196.394.7,7.073,7.073,0,0,1,194.4.177,23.25,23.25,0,0,1,219,15.915a25.183,25.183,0,0,1,.3,14.1,36.13,36.13,0,0,1-3.214,8.146c-.222.388-.416.776-.637,1.164a70.532,70.532,0,0,1-7.564,10.556c-2.189,2.383-4.461,4.71-6.871,6.871-1.3,1.164-2.41,2.6-4.239,3.075a7.752,7.752,0,0,1-2.881-2.189Z" transform="translate(-140.127)" fill="#5f5c52"/>
    <path id="Trazado_127" data-name="Trazado 127" d="M299.352,257.337c.582-1.524-.139-3.048-.083-4.572.055-1.385-.277-2.743-.36-4.128-.249-3.353-.416-6.733-.693-10.057-.166-1.884-.416-3.768-.416-5.68,2.41,2.6,4.6,5.431,6.871,8.173q11.637,14.006,23.246,28.011a2.321,2.321,0,0,1-2.494-.083q-12.26-5.527-24.548-11c-.5-.222-1.025-.416-1.524-.609Z" transform="translate(-215.24 -168.36)" fill="#303440"/>
    <path id="Trazado_129" data-name="Trazado 129" d="M115.8,146.417c.111-3.879.471-7.73.859-11.609.111-1.136.166-2.272.249-3.408,1.219.166,2.133,1.025,3.242,1.468.388.166.776.36,1.191.554,1.025,1.579,2.023,3.159,3.048,4.71a75.512,75.512,0,0,0,8.949,10.75c-2.355-.3-4.738-.61-7.093-.942-3.491-.5-6.954-1.025-10.445-1.552Z" transform="translate(-83.666 -94.982)" fill="#303440"/>
    <path id="Trazado_132" data-name="Trazado 132" d="M244.5,144.839a72.573,72.573,0,0,0,7.564-10.556c.222-.388.416-.776.637-1.164,1.025-.083,1.773-.8,2.66-1.191.5-.194.914-.637,1.5-.554a41.823,41.823,0,0,1,.665,7.9l-11.055,4.9a3.853,3.853,0,0,1-1.967.637Z" transform="translate(-176.708 -94.956)" fill="#303440"/>
    <path id="Trazado_133" data-name="Trazado 133" d="M289.665,139.19a41.824,41.824,0,0,0-.665-7.9,1.493,1.493,0,0,1,1.358.249c3.159,1.773,6.317,3.519,9.448,5.292-3.325.8-6.622,1.607-9.947,2.411a.653.653,0,0,1-.222-.055Z" transform="translate(-208.878 -94.849)" fill="#303440"/>
    <path id="Trazado_134" data-name="Trazado 134" d="M22.766,233.4c-.055.083-.111.139-.166.222C22.6,233.511,22.6,233.4,22.766,233.4Z" transform="translate(-16.289 -168.722)" fill="#303440"/>
    <path id="Trazado_137" data-name="Trazado 137" d="M164.928,245.6c-2.494-3.879-4.959-7.73-7.453-11.609q-3.574-5.569-7.093-11.193c-.166-.249-.277-.5-.582-1,5.209.637,10.168,1.247,15.128,1.829v21.944Z" transform="translate(-108.246 -160.336)" fill="#303440"/>
  </g>
</svg>
