<?xml version="1.0" encoding="utf-8"?>
<!-- Generator: Adobe Illustrator 27.4.1, SVG Export Plug-In . SVG Version: 6.00 Build 0)  -->
<svg version="1.1" id="Capa_1" xmlns="http://www.w3.org/2000/svg" xmlns:xlink="http://www.w3.org/1999/xlink" x="0px" y="0px"
	 viewBox="0 0 884.1 1010.5" style="enable-background:new 0 0 884.1 1010.5;" xml:space="preserve">
<g>
	<path d="M482.8,715.3c10.5,3.2,20.7,5.6,30.3,9.6c6.6,2.7,13.1,6.9,18.3,11.8c10.6,9.9,10.3,23.8,0.1,34.1
		c-9.5,9.6-21.7,14.1-34.4,17.2c-35.9,8.6-71.7,8.5-106.8-3.5c-8.3-2.8-16.4-7.6-23-13.4c-11.5-10-11.1-24.4-0.2-35.1
		c10-9.8,22.9-13.8,36-17.3c3.9-1,7.8-1.7,12.5-2.7c-1.2-1.8-2.2-3.4-3.3-4.9c-38.7-53.6-75.6-108.5-107.8-166.3
		c-16.8-30.1-31.9-61-43.7-93.4c-22-60.3-12.3-116.6,22.2-168.8c33.7-51,82.3-80,143-87.7c102.1-12.9,199.6,58.6,219.3,159.1
		c7.6,38.5,1.6,74.6-12.7,110.3c-18.1,45-41.1,87.3-67.1,128c-25.3,39.5-52.2,78-78.4,117C485.7,711.4,484.2,713.4,482.8,715.3z
		 M448.7,727.3c1.4-1.8,2.1-2.6,2.8-3.6c37-49.7,72.2-100.6,104.3-153.7c23.2-38.5,44.8-77.9,60.8-120.1c11.2-29.6,15.7-59.6,9.2-91
		C606,264.3,519.5,201.9,423.9,215.8c-68.7,10-116.4,49-142.6,113.1c-15.1,37-17.1,75.1-2.4,113c7.4,19,15,38.1,23.9,56.4
		c28.8,58.8,64.4,113.4,101.7,167C418.8,686,433.7,706.3,448.7,727.3z M451.5,773.8c4.2-0.3,11.2-0.4,18.1-1.2
		c13.9-1.5,27.8-3.9,40.2-10.7c3.4-1.9,6-5.3,9-8.1c-2.9-2.8-5.5-6.2-8.9-8.1c-12.1-6.8-25.6-9-39.2-10.7c-1.2-0.2-3.1,1-4,2.1
		c-3.3,4-6.2,8.2-9.5,12.3c-4.8,6-11.7,6-16.6,0.1c-3.3-4-6.1-8.3-9.5-12.2c-1.1-1.2-3.3-2.3-4.9-2.1c-6.1,0.8-12.2,1.8-18.2,3.2
		c-9.3,2.2-18.4,4.9-25.9,11c-4.1,3.3-4.3,5.7,0,8.7c4.5,3.1,9.4,5.8,14.4,7.7C413.4,771.8,431,773.5,451.5,773.8z"/>
	<path d="M449.4,523.7c-72.1,0.1-130.4-58-130.4-130c0-71.8,58.1-130,129.9-130c71.8,0,130.1,58,130.2,129.7
		C579.1,465.3,521.1,523.6,449.4,523.7z M559,393.6c0-60.6-49.3-109.9-109.9-109.9c-60.7,0-110,49.2-110,109.8
		c0,60.9,49.3,110.2,110.2,110.1C509.8,503.6,559,454.3,559,393.6z"/>
	<path d="M427.5,389.8c16.4-18.7,32.3-37.1,48.4-55.3c15.1-17.1,41.2-13.5,50.4,7c5,11.2,3.6,22.1-4.3,31.3
		c-23.5,27.3-47.2,54.4-71.1,81.3c-11.4,12.8-30.6,13-42.9,1.1c-10.3-10-20.4-20.1-30.4-30.4c-11.7-12-11.5-30.6,0.1-42.3
		c11.6-11.7,30.2-11.8,42.3-0.2C422.5,384.6,424.8,387,427.5,389.8z M429.5,444.9c3.1-2.3,6.2-3.9,8.4-6.4
		c13.4-15,26.6-30.2,39.9-45.4c9.4-10.8,18.9-21.5,28.2-32.3c5.6-6.5,2.6-15.7-5.4-17c-4.4-0.7-7.6,1.5-10.4,4.7
		c-17.7,20.3-35.5,40.6-53.3,60.9c-5.8,6.6-11.2,6.8-17.4,0.7c-4.3-4.2-8.4-8.5-12.7-12.7c-5-4.8-10.8-5-15-0.7
		c-4,4.2-3.8,9.9,0.8,14.6c9.5,9.6,18.9,19.2,28.6,28.6C423.3,441.9,426.3,443,429.5,444.9z"/>
</g>
</svg>
