<?xml version="1.0" encoding="utf-8"?>
<!-- Generator: Adobe Illustrator 27.5.0, SVG Export Plug-In . SVG Version: 6.00 Build 0)  -->
<svg version="1.1" id="Capa_1" xmlns="http://www.w3.org/2000/svg" xmlns:xlink="http://www.w3.org/1999/xlink" x="0px" y="0px"
	 viewBox="0 0 335 100.6" style="enable-background:new 0 0 335 100.6;" xml:space="preserve">
<g>
	<path d="M125.7,89.6c-9.2-0.2-17-3.5-22.3-11.3c-9.3-13.5-3.3-32.2,12.1-37.8c10.1-3.7,19.7-2.6,28.1,4.3
		c14.4,11.9,10.8,35.1-6.4,42.4C133.5,88.8,129.7,89.6,125.7,89.6z M136,64.1c-0.1-0.7-0.1-1.6-0.3-2.5c-1.6-7.4-9.7-10.9-15.7-6.8
		c-3.5,2.4-5.2,7.2-4.2,11.8c1.5,6.9,8.6,10.6,14.7,7.4C134.4,72,135.9,68.5,136,64.1z"/>
	<path d="M295.9,88.4c0-1.6,0-3.1,0-4.9c-0.7,0.7-1.3,1.2-1.9,1.7c-4.2,3.5-9.1,4.7-14.5,4.2c-2.4-0.2-4.6-0.8-6.7-1.9
		c-4-2.1-6.4-5.5-7.1-9.9c-0.7-4.5-0.3-8.9,2.8-12.6c2.5-3.1,6-4.6,9.8-5.4c5.6-1.1,11.2-0.6,16.7,1c0.3,0.1,0.6,0.2,0.9,0.2
		c0.6-3.3-1-6.4-4-7.7c-2.6-1.1-5.4-1.1-8.1-0.9c-3.4,0.2-6.7,1.1-9.9,2.3c-0.2,0.1-0.5,0.1-0.8,0.2c-1.1-4-2.3-7.9-3.5-12
		c1.1-0.4,2.2-0.9,3.3-1.2c8.3-2.7,16.7-3.4,25.3-1.6c4.5,1,8.3,3.1,11,6.9c2,2.8,3,5.9,3.3,9.3c0.2,2.2,0.4,4.5,0.4,6.7
		c0,8.2,0,16.3,0,24.5c0,0.9-0.2,1.2-1.1,1.1c-4.9,0-9.8,0-14.7,0C296.7,88.5,296.4,88.4,295.9,88.4z M296.2,70.4c0-0.2,0-0.4,0-0.6
		c0.2-1-0.3-1.6-1.3-1.7c-0.7-0.1-1.4-0.4-2.1-0.5c-2.7-0.5-5.4-0.6-7.9,0.7c-2.4,1.2-3.5,3.5-3.1,6.2c0.4,2.3,2.1,3.9,4.6,4.3
		C291.9,79.4,296.4,76.1,296.2,70.4z"/>
	<path d="M52.7,88.4c0-1.6,0-3.1,0-4.9c-0.4,0.4-0.7,0.6-0.9,0.8c-4.3,4.2-9.5,5.7-15.3,5.1c-2-0.2-4.1-0.7-6-1.5
		c-4.2-1.7-6.9-4.9-7.8-9.3c-1.1-4.8-0.7-9.5,2.5-13.6c2.5-3.2,6-4.7,9.9-5.5c5.6-1.1,11.2-0.6,16.7,1c0.3,0.1,0.6,0.2,0.9,0.2
		c0.8-3.2-1.3-6.7-4.6-7.9c-2.5-0.9-5-0.9-7.6-0.6c-1.8,0.2-3.6,0.5-5.3,0.9c-1.8,0.4-3.5,1-5.3,1.6c-1.1-3.9-2.3-7.8-3.5-12
		c1.5-0.5,3-1.1,4.6-1.6c7.6-2.3,15.2-2.8,23-1.4c4.8,0.9,8.9,3,11.9,6.9c2,2.7,3,5.7,3.4,9c0.2,1.7,0.3,3.4,0.3,5.1
		c0,8.8,0,17.6,0,26.4c0,0.4,0,0.8,0,1.3C63.8,88.4,58.3,88.4,52.7,88.4z M46.5,67c-2.3,0.2-4.5,0.6-6.2,2.1
		c-2.8,2.4-2.3,7.2,0.8,8.9c3.3,1.7,8.2,0.5,10.4-2.5c1.4-2,1.5-4.3,1.3-6.7c0-0.2-0.4-0.5-0.7-0.6C50.3,67.8,48.4,67.4,46.5,67z"/>
	<path d="M263.4,49.6c-3.8,2.9-7.6,5.7-11.4,8.6c-0.5-0.6-1-1.2-1.6-1.8c-2.6-2.8-5.8-3.9-9.5-3c-3.7,0.8-6,3.5-7,7
		c-1,3.4-0.7,6.7,1,9.9c2.7,5,9,6.6,13.7,3.4c1.4-0.9,2.6-2.2,3.9-3.3c3.6,2.7,7.4,5.4,11.2,8.2c-1.8,2.7-3.9,5.1-6.5,6.9
		c-4.8,3.4-10.3,4.5-16.1,4.2c-12.4-0.6-21.8-8.9-23.8-21.2c-2.4-15,7.7-28,22.5-29.5c5.9-0.6,11.5,0.3,16.6,3.4
		C259,43.9,262.1,47.1,263.4,49.6z"/>
	<path d="M93.3,88.5c-5.6,0-11.1,0-16.7,0c0-26.5,0-53,0-79.5c5.5,0,11.1,0,16.7,0C93.3,35.5,93.3,61.9,93.3,88.5z"/>
	<path d="M174.6,88.4c-5.6,0-11.2,0-16.8,0c0-16.2,0-32.4,0-48.6c5.6,0,11.1,0,16.8,0c0,3,0,6.1,0,9.1c0.1,0,0.2,0.1,0.3,0.1
		c2.8-6.5,7.4-10.4,14.9-10.1c0,6,0,11.9,0,17.7c-1.9,0.2-3.8,0.3-5.6,0.7c-5.4,1.3-8.1,5.1-9.1,10.4c-0.3,1.8-0.5,3.7-0.5,5.6
		c-0.1,4.6,0,9.3,0,13.9C174.7,87.6,174.6,88,174.6,88.4z"/>
	<path d="M194.5,39.7c5.6,0,11.1,0,16.7,0c0,16.2,0,32.4,0,48.6c-5.6,0-11.1,0-16.7,0C194.5,72.2,194.5,56,194.5,39.7z"/>
	<path d="M194.3,35c0-8.5,0-17,0-25.6c1.5,1.4,2.8,2.7,4.1,4c2.9,2.8,5.8,5.7,8.7,8.5c1.3,1.3,2.7,2.6,4,4c0.2,0.2,0.4,0.7,0.4,1
		c0,2.5,0,5,0,7.5c0,0.6-0.2,0.9-0.8,0.9c-5.4,0-10.8,0-16.2,0C194.5,35.1,194.4,35.1,194.3,35z"/>
</g>
</svg>
