<?xml version="1.0" encoding="utf-8"?>
<!-- Generator: Adobe Illustrator 27.7.0, SVG Export Plug-In . SVG Version: 6.00 Build 0)  -->
<svg version="1.1" id="Capa_1" xmlns="http://www.w3.org/2000/svg" xmlns:xlink="http://www.w3.org/1999/xlink" x="0px" y="0px"
	 viewBox="0 0 3941.4 3846.2" style="enable-background:new 0 0 3941.4 3846.2;" xml:space="preserve">
<g id="BG">
</g>
<g>
	<path d="M1644.3,1249.9c15.9,9,33.5,10.1,52.9,2.8c37.6-13.8,137.1-56.9,298.8-129.1c26.8-12,40-32,40-59.9
		c0-180.7,0-361.4,0-542.2c0-22.8-7.5-40.6-22.1-53.7c-13.5-12-30.3-17.2-50.1-15.7c-23.2,1.7-40,12.7-50.3,32.7
		c-6,11.6-8.8,29.7-8.8,54.3c0.2,159.6,0,319.2-0.6,478.8c0,2.6-1.5,4.9-3.7,5.8c-81.8,33.9-163,69.4-243.6,106.1
		c-18.9,8.8-31.8,18.7-38.5,29.7c-10.1,16.8-11.8,34.4-4.7,52.9C1619.8,1229.5,1630.1,1241.8,1644.3,1249.9z"/>
	<path d="M3929.7,3002.7c-0.7-164.8-51.3-310.9-151.5-438c-95-120.5-222.6-199.1-382.6-235.4l-188.2-33.1c-6.7-1.1-7.7-4.1-3-9
		c126.8-132.8,188.2-287.4,183.5-463.8c-1.3-54.8-10.1-108.7-26.2-161.6c-53.7-176.4-166.9-306.4-339.9-390.3l-88.1-34.4
		c-2.1-0.7-3.4-3.2-2.8-5.4c22.6-100.3,29.7-200,21.1-299.5c-17.6-203.9-91.5-385.4-221.5-544.2c-168.9-201.3-384.8-319-647.3-352.8
		c-110-12.2-218.7-6.2-326.5,17.8c-185.6,41.7-346.1,129.3-481,262.9c-75.6,74.6-136.9,159.6-184.5,254.8
		c-104.6,208.6-131.7,429.2-81.2,661.7c0.6,2.6-0.9,5.4-3.6,6.2c-35.7,10.3-70.3,23.8-104,40.6c-101.8,50.3-183.3,121.6-244.3,213.8
		c-71.7,107.9-107,225.8-106.1,353.4c0.4,55.6,7.9,109.8,22.3,162.4c29,105.9,83.3,198.9,163.1,279.1c4.3,4.5,3.4,7.3-2.8,8.4
		l-203.7,36.5c-118.2,28.2-220.9,84.4-308.3,168.6C98.4,2621,28.6,2767.7,13.3,2940.9c-3.9,43.8-4.5,114.1-1.9,210.8
		c1.3,49.8,6.4,89.4,15.3,119c35.9,120.1,118.4,198.3,247.5,235c46.8,13.3,153.4,34.4,320.1,63.6c102.3,20.2,205,37,308.3,50.7
		c2.6,0.4,5.2,1.5,7.3,3.2c62.1,51.4,133.6,82.1,214.2,91.9c185.4,42.1,372.5,75.6,561.1,100.3c183.3,28.8,366.7,30.1,550.4,4.1
		c110.8-14.2,220.9-32,330.6-53.3c80.1-14.2,179.6-34.4,298.2-60.8c63.4-14,118.6-41.2,165.4-81.6c2.1-1.9,4.5-2.8,7.1-3.2
		c126.7-16.8,252.4-38.4,377.4-64c83.4-14.4,166.3-31.1,248.8-49.8c56.7-12.9,106.6-38.5,149.9-77.1c49-43.6,82.7-95.2,101-154.9
		c9.4-30.5,14.4-75.8,15.3-135.4C3929.7,3099.6,3929.9,3053.7,3929.7,3002.7z M3024.1,1420.9c80.3,51.3,141.1,118.6,182.2,202.1
		c52.2,105.9,64.7,217.4,38,334.7c-29,127.4-101.2,229.2-216.1,305.1c-121.8,76.1-253.3,97.1-394.4,62.3l-81.6-28.8
		c-2.6-0.9-3.9-4.1-2.8-6.9c22.3-55.4,37.2-111.5,45.3-168.2c7.5-53.5,7.5-108.1-0.2-163.7c-22.6-163.7-99.2-299.9-229.9-409
		c-1.9-1.5-2.1-4.1-0.7-6c79.1-105.3,184.1-169.3,315.4-191.6C2803.3,1332,2918.3,1355.4,3024.1,1420.9z M1929.2,2537.6
		c-94.5-8.6-178.9-40.4-252.9-95c-76.3-56.3-131.9-127-166.9-212.5c-20.8-50.7-32.9-103.8-36.7-159.4
		c-6.7-99.9,15.5-193.6,66.8-281.4c66-113,163.9-189.3,293.2-228.8c111.5-29.9,221.3-23.8,329.1,18.5
		c174.7,78.9,276,212,303.6,398.7c13.3,89.2-0.9,178.7-42.3,268.3c-56.1,121.4-145.6,207.1-268.3,257.1
		C2083.6,2532.2,2008.4,2543.6,1929.2,2537.6z M1311.1,472.5c2.8-3.4,7.9-3.7,11-0.6c19.5,19.5,38.4,38.4,56.7,56.7
		c14.8,14.8,27.7,23.8,39.3,27.1c18.1,5.4,35,3.4,50.7-6.4c16.7-10.3,26.9-24.9,30.7-43.4c2.8-13.7,1.1-26.9-4.9-40
		c-3.7-8-11.8-18.1-24.3-30.7c-19.3-19.1-38.9-38.7-58.9-58.7c-1.7-1.7-1.5-4.3,0.2-5.8c101.8-88.5,217.6-149.3,347.2-182
		c46.4-12.7,93-20.8,139.6-24.1c3.4-0.2,6.2,2.4,6.2,5.8c0,38.5,0,74.1,0,107c0,10.9,0.9,20.4,2.6,28.8c1.9,9.4,6,17.8,12.5,25.6
		c18.9,23,42.3,30.3,70,21.3c14.6-4.7,25.8-12.7,33.7-23.6c8.2-11.8,12.5-25.6,12.5-41.7c0.2-37.6,0.2-77.1,0.2-118.6
		c0-2.8,2.4-5.1,5.1-4.7l87.4,12.2c138.6,26.8,263.8,84.2,375.9,172.3c2.1,1.5,2.2,4.7,0.2,6.5c-26.9,25.3-53.1,51.3-78.6,78
		c-18.3,19.5-29,36.1-32.4,50.3c-5.4,24.1,2.8,44.9,24.9,62.3c17.4,13.7,35.7,17.6,55.4,11.4c11.4-3.6,25.8-13.5,42.8-29.7
		c26.6-25.3,53.9-52.4,82.1-81.4c2.1-2.2,5.6-2.1,7.5,0.2l70.3,90c81,120.3,128.7,255.7,143.1,406.5c0.2,3-2.1,5.4-5.1,5.4
		c-33.7,0.6-68.1,0.7-103.1,0.6c-20,0-34.8,2.1-44.5,6.2c-16.1,6.7-27.1,18-33.5,33.3c-8.4,20.2-7.1,40,3.7,59.3
		c12.5,22.3,34.4,33.1,65.9,32.7c37.4-0.4,74.8-0.4,112.4,0.2c2.2,0,4.1,2.1,3.9,4.1c-1.9,41.9-8.6,83.1-20.2,123.5
		c-0.7,2.1-2.6,3.7-5.2,3.9l-115.8,7.7c-176.2,24.1-317.7,107.4-424.7,249.9c-2.8,3.9-8,5.2-12.5,3c-31.8-16.1-66-29-102.7-38.9
		c-110.6-31.2-221.5-31.6-332.6-0.7c-36.5,9.2-71.5,22.1-105,38.7c-5.6,2.8-12.3,1.1-16.1-3.7c-110.4-146.1-256.1-229.4-437.6-249.9
		l-102.1-5.1c-2.6-0.2-4.7-1.7-5.2-3.9c-9.7-39.8-16.7-81.4-20.4-124.8c-0.2-2.2,1.5-4.1,3.9-4.1c40,0,78.6,0.2,115.6,0.7
		c17,0.2,32-4.1,44.7-12.9c11.8-8,19.8-20,24.3-36.1c8.8-32,0-55.8-26.4-71.5c-12.7-7.5-31.4-11.4-55.8-11.6
		c-33.7-0.4-67.7-0.4-102.3-0.2c-2.2,0-4.1-2.1-3.9-4.1c8-91.7,29.6-179.2,64.2-262.9C1216.1,608,1258.3,538.2,1311.1,472.5z
		 M684.4,1875.7c-3.4-54.3,2.2-108.5,17-162.6c37-135.8,119.9-239.8,248.6-312.4c97.7-48.8,200.9-65.3,309.8-49.6
		c131.9,22.3,237.6,86.1,317.5,191.6c1.3,1.9,1.1,4.5-0.7,6c-102.5,84.6-172.5,188.6-209.5,312.4c-16.1,53.3-24.7,107.2-26.2,161.6
		c-2.4,91.7,14.8,180.9,51.3,267.7c0.9,2.2,0,4.9-2.4,6c-51.8,22.6-104.8,37-158.6,43.2c-112.3,9.5-216.3-14.6-311.9-72.2
		c-43.6-27.5-82.1-60.8-115.4-100.3C730.9,2080.9,691.1,1983.8,684.4,1875.7z M800.4,3163.6c-1.5,33.3-2.1,78-1.1,134.1
		c0.7,44.7,3.6,89.4,8.4,134c1.5,14,3.9,26.4,7.3,37c1.1,3.7-2.1,7.3-5.8,6.5L594.7,3438c-72-14.6-143.9-29.2-215.7-44
		c-64.9-13.5-108.9-26.4-131.5-39.1c-44.3-24.9-74.8-61.7-91.7-110.6c-8.8-25.6-13.5-66.8-13.8-123.7c-0.6-86.6,0.4-143.1,2.6-169.5
		c10.9-122.7,55.2-229,133-318.8c70.5-81.4,159.8-137.5,267.5-168.2c105.7-21.5,212-40.4,318.6-55.9c0.4,0,5.6-1.3,15.5-3.7
		c11-2.6,21.5-0.6,31.4,6.7c4.3,3.2,12,6.5,22.6,9.9c109.8,48.3,224.3,62.7,343.3,43.4c60.4-8.4,119-26.6,175.9-54.4
		c3.6-1.7,8-0.7,11,2.6l61.9,72c4.1,4.9,3.2,7.7-3,8.6c-89.1,11.8-178.1,29.7-267.2,53.9c-90,33.1-165.9,78-228.1,134.7
		C885.3,2810.9,809.7,2971.6,800.4,3163.6z M2828.9,3579.8c-45.6,10.7-144.8,30.5-297.8,59.9l-320.5,50.7
		c-125.9,16.8-237.6,21.7-334.7,14.8c-20.2-1.3-84.9-8.2-194.8-20.6c-192.3-29-383.3-64.5-573.4-106.5
		c-87.7-17.8-144.4-69.4-170.1-154.9c-6.5-21.9-9.4-53.3-8.2-93.9c1.1-43.2,1.7-86.2,1.7-129.5c0-51.8,6.5-102.3,19.6-151.5
		c12.9-48.8,32.6-95.2,58.7-139.2c60.8-101.8,147.8-177.4,260.8-226.7c46.6-17,87.7-28.4,123.5-34.4c89.2-14.8,183-30.1,280.8-46.2
		c5.2-0.7,10.7,0,15.5,2.2c71.1,34.4,142.6,55.2,214.6,62.3c123.3,12.9,239.8-8.4,349.7-64.2c2.4-1.3,5.1-1.7,7.7-1.3
		c83.8,13.5,167.4,27.3,251.1,41.9c48.6,8.4,83.6,16.1,105.3,22.6c79.5,23.9,146.1,59.9,199.6,107.8
		c127.2,113.9,191,257.6,191.4,430.9c0,47.1,0.4,94.5,0.7,141.6C3011.5,3473.2,2951.1,3551.2,2828.9,3579.8z M3694.8,3353.5
		c-22.1,12.9-57.1,24.3-104.8,34.6c-73.5,15.7-147.2,30.9-220.9,45.5l-239.8,40.4c-2.1,0.4-3.6-1.5-3.2-3.4
		c10.1-43,15.3-86.8,15.5-131c0.2-43.4,0-86.8-0.9-130.2c-1.1-55.4-4.1-98.6-9.2-129.7c-13.5-83.8-41.7-161.6-84.6-233.7
		c-102.5-172.3-253.3-279.5-452.4-321.6l-176.2-30.9c-6.9-1.3-7.9-4.1-3-9c22.3-21.9,42.5-45.5,60.8-71.1c3.2-4.5,9.2-5.8,14-3.4
		c40.6,21.1,84.4,36.5,131,46c143.5,32.7,279.3,18,407.5-44.7c17.2-8.2,34-9.7,50.7-4.1l341.4,61.7c48.6,21.3,77.1,34.2,85.3,38.9
		c167.8,94.9,263.6,235.5,287.4,422.3c3.2,25.1,4.9,62.3,4.9,112.1c0,37.4,0.2,74.8,0.6,112.3
		C3799.3,3246.6,3764.7,3312.9,3694.8,3353.5z"/>
</g>
</svg>
