<?xml version="1.0" encoding="utf-8"?>
<!-- Generator: Adobe Illustrator 27.5.0, SVG Export Plug-In . SVG Version: 6.00 Build 0)  -->
<svg version="1.1" id="Capa_1" xmlns="http://www.w3.org/2000/svg" xmlns:xlink="http://www.w3.org/1999/xlink" width="800px" height="800px" viewBox="0 0 4000 4000" style="enable-background:new 0 0 4000 4000;" xml:space="preserve">
<g id="BG">
</g>
<g>
	<path d="M1782.3,1484.7c8.5,4.8,17.9,5.4,28.3,1.5c20.1-7.4,73.3-30.4,159.7-69c14.3-6.4,21.4-17.1,21.4-32c0-96.6,0-193.2,0-289.8
		c0-12.2-4-21.7-11.8-28.7c-7.2-6.4-16.2-9.2-26.8-8.4c-12.4,0.9-21.4,6.8-26.9,17.5c-3.2,6.2-4.7,15.9-4.7,29
		c0.1,85.3,0,170.6-0.3,255.9c0,1.4-0.8,2.6-2,3.1c-43.7,18.1-87.1,37.1-130.2,56.7c-10.1,4.7-17,10-20.6,15.9
		c-5.4,9-6.3,18.4-2.5,28.3C1769.2,1473.8,1774.7,1480.4,1782.3,1484.7z"/>
	<path d="M3003.9,2421.6c-0.4-88.1-27.4-166.2-81-234.1c-50.8-64.4-119-106.4-204.5-125.8l-100.6-17.7c-3.6-0.6-4.1-2.2-1.6-4.8
		c67.8-71,100.6-153.6,98.1-247.9c-0.7-29.3-5.4-58.1-14-86.4c-28.7-94.3-89.2-163.8-181.7-208.6l-47.1-18.4
		c-1.1-0.4-1.8-1.7-1.5-2.9c12.1-53.6,15.9-106.9,11.3-160.1c-9.4-109-48.9-206-118.4-290.9c-90.3-107.6-205.7-170.5-346-188.6
		c-58.8-6.5-116.9-3.3-174.5,9.5c-99.2,22.3-185,69.1-257.1,140.5c-40.4,39.9-73.2,85.3-98.6,136.2
		c-55.9,111.5-70.4,229.4-43.4,353.7c0.3,1.4-0.5,2.9-1.9,3.3c-19.1,5.5-37.6,12.7-55.6,21.7c-54.4,26.9-98,65-130.6,114.3
		c-38.3,57.7-57.2,120.7-56.7,188.9c0.2,29.7,4.2,58.7,11.9,86.8c15.5,56.6,44.5,106.3,87.2,149.2c2.3,2.4,1.8,3.9-1.5,4.5
		l-108.9,19.5c-63.2,15.1-118.1,45.1-164.8,90.1c-66.4,64-103.7,142.4-111.9,235c-2.1,23.4-2.4,61-1,112.7
		c0.7,26.6,3.4,47.8,8.2,63.6c19.2,64.2,63.3,106,132.3,125.6c25,7.1,82,18.4,171.1,34c54.7,10.8,109.6,19.8,164.8,27.1
		c1.4,0.2,2.8,0.8,3.9,1.7c33.2,27.5,71.4,43.9,114.5,49.1c99.1,22.5,199.1,40.4,299.9,53.6c98,15.4,196,16.1,294.2,2.2
		c59.2-7.6,118.1-17.1,176.7-28.5c42.8-7.6,96-18.4,159.4-32.5c33.9-7.5,63.4-22,88.4-43.6c1.1-1,2.4-1.5,3.8-1.7
		c67.7-9,134.9-20.5,201.7-34.2c44.6-7.7,88.9-16.6,133-26.6c30.3-6.9,57-20.6,80.1-41.2c26.2-23.3,44.2-50.9,54-82.8
		c5-16.3,7.7-40.5,8.2-72.4C3003.9,2473.4,3004,2448.9,3003.9,2421.6z M2519.8,1576.1c42.9,27.4,75.4,63.4,97.4,108
		c27.9,56.6,34.6,116.2,20.3,178.9c-15.5,68.1-54.1,122.5-115.5,163.1c-65.1,40.7-135.4,51.9-210.8,33.3l-43.6-15.4
		c-1.4-0.5-2.1-2.2-1.5-3.7c11.9-29.6,19.9-59.6,24.2-89.9c4-28.6,4-57.8-0.1-87.5c-12.1-87.5-53-160.3-122.9-218.6
		c-1-0.8-1.1-2.2-0.4-3.2c42.3-56.3,98.4-90.5,168.6-102.4C2401.8,1528.6,2463.3,1541.1,2519.8,1576.1z M1934.6,2173
		c-50.5-4.6-95.6-21.6-135.2-50.8c-40.8-30.1-70.5-67.9-89.2-113.6c-11.1-27.1-17.6-55.5-19.6-85.2c-3.6-53.4,8.3-103.5,35.7-150.4
		c35.3-60.4,87.6-101.2,156.7-122.3c59.6-16,118.3-12.7,175.9,9.9c93.4,42.2,147.5,113.3,162.3,213.1c7.1,47.7-0.5,95.5-22.6,143.4
		c-30,64.9-77.8,110.7-143.4,137.4C2017.1,2170.1,1976.9,2176.2,1934.6,2173z M1604.2,1069.2c1.5-1.8,4.2-2,5.9-0.3
		c10.4,10.4,20.5,20.5,30.3,30.3c7.9,7.9,14.8,12.7,21,14.5c9.7,2.9,18.7,1.8,27.1-3.4c8.9-5.5,14.4-13.3,16.4-23.2
		c1.5-7.3,0.6-14.4-2.6-21.4c-2-4.3-6.3-9.7-13-16.4c-10.3-10.2-20.8-20.7-31.5-31.4c-0.9-0.9-0.8-2.3,0.1-3.1
		c54.4-47.3,116.3-79.8,185.6-97.3c24.8-6.8,49.7-11.1,74.6-12.9c1.8-0.1,3.3,1.3,3.3,3.1c0,20.6,0,39.6,0,57.2
		c0,5.8,0.5,10.9,1.4,15.4c1,5,3.2,9.5,6.7,13.7c10.1,12.3,22.6,16.2,37.4,11.4c7.8-2.5,13.8-6.8,18-12.6c4.4-6.3,6.7-13.7,6.7-22.3
		c0.1-20.1,0.1-41.2,0.1-63.4c0-1.5,1.3-2.7,2.7-2.5l46.7,6.5c74.1,14.3,141,45,200.9,92.1c1.1,0.8,1.2,2.5,0.1,3.5
		c-14.4,13.5-28.4,27.4-42,41.7c-9.8,10.4-15.5,19.3-17.3,26.9c-2.9,12.9,1.5,24,13.3,33.3c9.3,7.3,19.1,9.4,29.6,6.1
		c6.1-1.9,13.8-7.2,22.9-15.9c14.2-13.5,28.8-28,43.9-43.5c1.1-1.2,3-1.1,4,0.1l37.6,48.1c43.3,64.3,68.8,136.7,76.5,217.3
		c0.1,1.6-1.1,2.9-2.7,2.9c-18,0.3-36.4,0.4-55.1,0.3c-10.7,0-18.6,1.1-23.8,3.3c-8.6,3.6-14.5,9.6-17.9,17.8
		c-4.5,10.8-3.8,21.4,2,31.7c6.7,11.9,18.4,17.7,35.2,17.5c20-0.2,40-0.2,60.1,0.1c1.2,0,2.2,1.1,2.1,2.2c-1,22.4-4.6,44.4-10.8,66
		c-0.4,1.1-1.4,2-2.8,2.1l-61.9,4.1c-94.2,12.9-169.8,57.4-227,133.6c-1.5,2.1-4.3,2.8-6.7,1.6c-17-8.6-35.3-15.5-54.9-20.8
		c-59.1-16.7-118.4-16.9-177.8-0.4c-19.5,4.9-38.2,11.8-56.1,20.7c-3,1.5-6.6,0.6-8.6-2c-59-78.1-136.9-122.6-233.9-133.6l-54.6-2.7
		c-1.4-0.1-2.5-0.9-2.8-2.1c-5.2-21.3-8.9-43.5-10.9-66.7c-0.1-1.2,0.8-2.2,2.1-2.2c21.4,0,42,0.1,61.8,0.4
		c9.1,0.1,17.1-2.2,23.9-6.9c6.3-4.3,10.6-10.7,13-19.3c4.7-17.1,0-29.8-14.1-38.2c-6.8-4-16.8-6.1-29.8-6.2
		c-18-0.2-36.2-0.2-54.7-0.1c-1.2,0-2.2-1.1-2.1-2.2c4.3-49,15.8-95.8,34.3-140.5C1553.4,1141.6,1576,1104.3,1604.2,1069.2z
		 M1269.2,1819.2c-1.8-29,1.2-58,9.1-86.9c19.8-72.6,64.1-128.2,132.9-167c52.2-26.1,107.4-34.9,165.6-26.5
		c70.5,11.9,127,46,169.7,102.4c0.7,1,0.6,2.4-0.4,3.2c-54.8,45.2-92.2,100.8-112,167c-8.6,28.5-13.2,57.3-14,86.4
		c-1.3,49,7.9,96.7,27.4,143.1c0.5,1.2,0,2.6-1.3,3.2c-27.7,12.1-56,19.8-84.8,23.1c-60,5.1-115.6-7.8-166.7-38.6
		c-23.3-14.7-43.9-32.5-61.7-53.6C1294.1,1928.9,1272.8,1877,1269.2,1819.2z M1331.2,2507.6c-0.8,17.8-1.1,41.7-0.6,71.7
		c0.4,23.9,1.9,47.8,4.5,71.6c0.8,7.5,2.1,14.1,3.9,19.8c0.6,2-1.1,3.9-3.1,3.5l-114.6-19.9c-38.5-7.8-76.9-15.6-115.3-23.5
		c-34.7-7.2-58.2-14.1-70.3-20.9c-23.7-13.3-40-33-49-59.1c-4.7-13.7-7.2-35.7-7.4-66.1c-0.3-46.3,0.2-76.5,1.4-90.6
		c5.8-65.6,29.5-122.4,71.1-170.4c37.7-43.5,85.4-73.5,143-89.9c56.5-11.5,113.3-21.6,170.3-29.9c0.2,0,3-0.7,8.3-2
		c5.9-1.4,11.5-0.3,16.8,3.6c2.3,1.7,6.4,3.5,12.1,5.3c58.7,25.8,119.9,33.5,183.5,23.2c32.3-4.5,63.6-14.2,94-29.1
		c1.9-0.9,4.3-0.4,5.9,1.4l33.1,38.5c2.2,2.6,1.7,4.1-1.6,4.6c-47.6,6.3-95.2,15.9-142.8,28.8c-48.1,17.7-88.7,41.7-121.9,72
		C1376.6,2319.1,1336.2,2405,1331.2,2507.6z M2415.5,2730.1c-24.4,5.7-77.4,16.3-159.2,32l-171.3,27.1c-67.3,9-127,11.6-178.9,7.9
		c-10.8-0.7-45.4-4.4-104.1-11c-102.8-15.5-204.9-34.5-306.5-56.9c-46.9-9.5-77.2-37.1-90.9-82.8c-3.5-11.7-5-28.5-4.4-50.2
		c0.6-23.1,0.9-46.1,0.9-69.2c0-27.7,3.5-54.7,10.5-81c6.9-26.1,17.4-50.9,31.4-74.4c32.5-54.4,79-94.8,139.4-121.2
		c24.9-9.1,46.9-15.2,66-18.4c47.7-7.9,97.8-16.1,150.1-24.7c2.8-0.4,5.7,0,8.3,1.2c38,18.4,76.2,29.5,114.7,33.3
		c65.9,6.9,128.2-4.5,186.9-34.3c1.3-0.7,2.7-0.9,4.1-0.7c44.8,7.2,89.5,14.6,134.2,22.4c26,4.5,44.7,8.6,56.3,12.1
		c42.5,12.8,78.1,32,106.7,57.6c68,60.9,102.1,137.7,102.3,230.3c0,25.2,0.2,50.5,0.4,75.7
		C2513.1,2673.1,2480.8,2714.8,2415.5,2730.1z M2878.3,2609.1c-11.8,6.9-30.5,13-56,18.5c-39.3,8.4-78.7,16.5-118.1,24.3
		l-128.2,21.6c-1.1,0.2-1.9-0.8-1.7-1.8c5.4-23,8.2-46.4,8.3-70c0.1-23.2,0-46.4-0.5-69.6c-0.6-29.6-2.2-52.7-4.9-69.3
		c-7.2-44.8-22.3-86.4-45.2-124.9c-54.8-92.1-135.4-149.4-241.8-171.9l-94.2-16.5c-3.7-0.7-4.2-2.2-1.6-4.8
		c11.9-11.7,22.7-24.3,32.5-38c1.7-2.4,4.9-3.1,7.5-1.8c21.7,11.3,45.1,19.5,70,24.6c76.7,17.5,149.3,9.6,217.8-23.9
		c9.2-4.4,18.2-5.2,27.1-2.2l182.5,33c26,11.4,41.2,18.3,45.6,20.8c89.7,50.7,140.9,125.9,153.6,225.7c1.7,13.4,2.6,33.3,2.6,59.9
		c0,20,0.1,40,0.3,60C2934.2,2552,2915.7,2587.4,2878.3,2609.1z"/>
</g>
</svg>
