<?xml version="1.0" encoding="utf-8"?>
<!-- Generator: Adobe Illustrator 27.4.1, SVG Export Plug-In . SVG Version: 6.00 Build 0)  -->
<svg version="1.1" id="Capa_1" xmlns="http://www.w3.org/2000/svg" xmlns:xlink="http://www.w3.org/1999/xlink" x="0px" y="0px"
	 viewBox="0 0 884.1 1010.5" style="enable-background:new 0 0 884.1 1010.5;" xml:space="preserve">
<g>
	<path d="M561.7,282.2c3.9,1.8,8.2,3,11.8,5.4c8,5.5,12.1,13.4,12.2,23.2c0.1,47.8,0,95.6,0,143.3c0,4.5-2,6.9-5.5,7
		c-3.7,0.1-5.7-2.3-5.7-7.1c0-30.8,0-61.6,0-92.4c0-1.5,0-3,0-4.7c-93.4,0-186.5,0-280,0c0,1.5,0,2.9,0,4.2c0,91.1,0,182.1,0,273.2
		c0,12.8,7.1,19.9,19.9,19.9c36.7,0,73.4,0,110,0c1.4,0,2.7,0,4.1,0c6-13.9,11.7-27.6,17.9-41.2c1.8-3.9,4.2-7.7,7.2-10.7
		c48.1-48.4,96.4-96.6,144.7-144.8c9.9-9.9,21.1-9.9,31.1,0.1c2.5,2.5,5,4.9,7.4,7.4c9.7,9.8,9.8,21.1,0,30.9
		c-41.7,41.7-83.4,83.5-125.2,125.2c-5.3,5.3-10.8,10.4-15.8,15.9c-5.4,5.9-11.6,10.4-19.3,13.1c-2.7,0.9-5.2,2.3-8.8,3.8
		c1.7,0.2,2.6,0.4,3.4,0.4c28.2,0,56.4,0,84.6,0c11,0,18.5-7.6,18.5-18.7c0.1-20.3,0-40.7,0-61c0-2.9,0.7-5.2,3.6-6.3
		c4-1.6,7.7,1.3,7.7,6.2c0,21.1,0,42.2,0,63.2c0,1.8-0.3,3.7-0.7,5.5c-2.8,12.7-14.4,22.2-27.5,22.2c-82,0-163.9,0-245.9,0
		c-15.3,0-28.2-12.8-28.2-28.1c0-109,0-218.1,0-327.1c0-11.9,7.9-22.5,19.5-26.6c1.2-0.4,2.4-1,3.7-1.5
		C391.6,282.2,476.6,282.2,561.7,282.2z M574,345.1c0.2-0.6,0.4-0.8,0.4-1c0-10.7,0.1-21.5,0-32.2c-0.1-11-7.6-18.5-18.7-18.5
		c-80.8,0-161.7,0-242.5,0c-11.2,0-18.7,7.5-18.7,18.8c0,9.9,0,19.7,0,29.6c0,1.1,0.1,2.1,0.2,3.3C388,345.1,480.9,345.1,574,345.1z
		 M486.8,629.3c35.6-35.6,71.2-71.2,106.4-106.4c-7.1-7.2-14.5-14.6-21.5-21.6c-35.4,35.4-71,71-106.5,106.5
		C472.2,614.7,479.5,622,486.8,629.3z M618.4,498.4c4-4,8.1-7.9,12-12.1c3.3-3.6,3.4-7.9,0.1-11.5c-3.5-3.8-7.3-7.5-11.1-11.1
		c-2.8-2.6-7.4-3.2-10-0.7c-4.6,4.3-8.6,9.1-12.7,13.6C603.7,483.6,610.9,490.9,618.4,498.4z M580.5,491.5
		c7.4,7.5,14.8,14.9,21.9,22c2.1-2.2,4.6-4.6,6.8-6.8c-7.2-7.2-14.5-14.6-21.9-22C585,487,582.5,489.5,580.5,491.5z M477.4,637.3
		c-6.9-7-13.5-13.6-20.3-20.4c-1.4,3.3-3,6.5-4.2,9.8c-0.3,0.7,0.3,2.1,0.9,2.8c3.6,3.8,7.3,7.5,11.1,11.1c0.7,0.7,2.3,1,3.2,0.7
		C471.2,640.2,474.2,638.7,477.4,637.3z M454.5,647.2c-2.5-2.5-4.8-4.9-7.4-7.4c-1.7,3.9-3.5,8-5.6,12.9
		C446.5,650.6,450.5,648.9,454.5,647.2z"/>
	<path d="M434.5,410c-36.4,0-72.8,0-109.2,0c-5.9,0-8.8-1.9-8.9-5.7c-0.1-3.8,2.9-5.9,8.7-5.9c72.9,0,145.9,0,218.8,0
		c0.2,0,0.5,0,0.7,0c5.1,0,8,2.2,8,5.9c-0.1,3.6-3,5.7-8.2,5.7C507.8,410,471.1,410,434.5,410z"/>
	<path d="M434.6,438.5c36,0,72.1,0,108.1,0c1,0,2,0,3,0c4.3,0.1,6.9,2.3,6.9,5.7c-0.1,3.4-2.8,5.6-7,5.6c-74.1,0-148.1,0-222.2,0
		c-4.3,0-7-2.2-7-5.6c-0.1-3.5,2.6-5.7,7.2-5.7C360.6,438.5,397.6,438.5,434.6,438.5z"/>
	<path d="M434.1,489.6c-36.3,0-72.6,0-108.9,0c-6.1,0-8.8-1.7-8.9-5.5c-0.1-3.9,2.8-5.8,9.1-5.8c72.7,0,145.4,0,218.1,0
		c6.3,0,9.2,1.8,9.1,5.8c-0.1,3.8-2.8,5.5-8.9,5.5C507.2,489.6,470.6,489.6,434.1,489.6z"/>
	<path d="M399.3,529.7c-24.4,0-48.9,0-73.3,0c-1.1,0-2.2,0-3.4,0c-3.7-0.3-6.2-2.5-6.3-5.6c0-3.2,2.6-5.6,6.5-5.9c0.7,0,1.5,0,2.2,0
		c49.9,0,99.8,0,149.6,0c1.4,0,2.8,0,4.1,0.3c2.9,0.7,4.5,2.7,4.3,5.7c-0.1,2.8-1.8,4.6-4.5,5.2c-1.5,0.3-3,0.3-4.5,0.3
		C449.2,529.7,424.2,529.7,399.3,529.7z"/>
	<path d="M379.5,569.6c-18.7,0-37.4,0-56.1,0c-4.9,0-8.2-3.4-6.6-7c0.8-1.7,2.9-3,4.7-4.1c0.8-0.5,2.2-0.2,3.3-0.2
		c36.7,0,73.3,0,110,0c1,0,2,0,3,0.1c3,0.3,4.8,2.1,5,5.1c0.3,3.2-1.5,5.2-4.5,6c-1.2,0.3-2.5,0.2-3.7,0.2
		C416.1,569.6,397.8,569.6,379.5,569.6z"/>
	<path d="M359.9,598.1c12.3,0,24.7,0,37,0c3,0,5.5,1.4,5.8,4.2c0.2,2-1.2,4.3-2.3,6.1c-0.5,0.7-2.3,0.9-3.4,0.9
		c-24.8,0-49.6,0.1-74.4,0c-3.7,0-6.2-2.4-6.2-5.6c0-3.2,2.5-5.6,6.2-5.6C335,598.1,347.5,598.1,359.9,598.1z"/>
</g>
</svg>
