<?xml version="1.0" encoding="utf-8"?>
<!-- Generator: Adobe Illustrator 27.4.1, SVG Export Plug-In . SVG Version: 6.00 Build 0)  -->
<svg version="1.1" id="Capa_1" xmlns="http://www.w3.org/2000/svg" xmlns:xlink="http://www.w3.org/1999/xlink" x="0px" y="0px"
	 viewBox="0 0 884.1 1010.5" style="enable-background:new 0 0 884.1 1010.5;" xml:space="preserve">
<path d="M693.2,719.1c-2.5,5.6-4.1,11.9-7.7,16.7c-16,21.7-43.9,23.1-63.6,3.4c-35.8-35.7-71.6-71.4-107.2-107.4
	c-3.5-3.6-5.7-4-10-1.1c-27.1,17.9-56.9,28.5-89.2,31.7c-53.5,5.3-101.8-8.1-144.3-41c-41.6-32.1-67.5-74.2-76.2-126.1
	c-10.2-60.6,4.4-115.3,43.1-162.8C270.3,293,312.2,269,362.8,261c52.2-8.2,100.7,2.3,144.3,31.8c47.9,32.4,77.4,77.6,87.1,134.8
	c8.3,48.6-0.7,94.2-25.6,136.7c-2,3.3-1.6,5.1,1.1,7.8c33.8,33.6,67.4,67.4,101.2,100.9c9.5,9.5,19,18.8,22.3,32.4
	C693.2,710,693.2,714.6,693.2,719.1z M531.2,460.8c-0.6-76-61.7-136.7-137-136.5c-75,0.2-136.6,60.5-136.4,137.1
	c0.2,76.2,62.2,136.9,137.8,136.3C470.4,597.3,531.8,535.3,531.2,460.8z"/>
</svg>
