<?xml version="1.0" encoding="utf-8"?>
<!-- Generator: Adobe Illustrator 27.7.0, SVG Export Plug-In . SVG Version: 6.00 Build 0)  -->
<svg version="1.1" id="Capa_1" xmlns="http://www.w3.org/2000/svg" xmlns:xlink="http://www.w3.org/1999/xlink" x="0px" y="0px"
	 viewBox="0 0 3843.9 3556.5" style="enable-background:new 0 0 3843.9 3556.5;" xml:space="preserve">
<g>
	<path d="M3831.8,1444.2c-6.5,19-18,37.5-26,51.6c-13.1,22.9-26.2,45.8-39.2,68.6c-25.8,45.2-51.6,90.5-77.2,135.8
		c-39.9,70.6-70.6,75.7-129.8,20.6c-65.7-61.1-131.5-122-196.9-183.5c-34.2-32.1-38.9-67.4-14-94.3c26-27.8,59-25.8,95.1,6.8
		c32,28.9,63.3,58.5,94.8,87.6c3.9-1.7,7.6-3.5,11.5-5.2c-21.3-83.9-36-170-64.7-251.2C3260,645.4,2816,259.3,2148.5,155.6
		C1341.3,30.3,565.5,541.3,340.7,1328.3c-3.3,11.9-6.7,24.1-11.4,35.4c-13,32.2-40.4,46.6-71.3,38.1c-32-8.7-50.2-37.3-41.5-72.6
		c10.7-43.3,22.9-86.8,38.7-128.6C491.4,575.9,935.2,181.7,1588.7,51.2c964.5-192.6,1895.6,453.9,2067,1416.6c1.5,8,4.8,15.7,9,29
		c17.4-30.9,32-56.7,46.4-82.5c12.2-21.8,30.6-49.6,58.2-51.9c11.6-0.9,22.8,3.2,32.6,9.1c9.7,5.8,22.4,12.5,28.4,22.5
		C3839.4,1409.1,3837.7,1426.9,3831.8,1444.2z"/>
	<path d="M1922.7,525.4c692.1,1.5,1254.9,565.7,1254.1,1257.3c-0.8,693.2-567.6,1257.7-1260.2,1255
		c-692.3-2.7-1254.2-568-1252.1-1259.3C666.5,1086.1,1231,523.9,1922.7,525.4z M1919.2,2918.1c626,0.9,1137.2-509,1138-1135.2
		S2548.3,645.9,1922,645c-626.3-0.8-1137,508.7-1138,1135.2C783.1,2406.3,1292.9,2917.3,1919.2,2918.1z"/>
	<path d="M178.7,2061.6c-22.7,40.5-39.2,71-56.7,100.9c-21,35.7-53.6,46.7-84.5,29.4c-30.9-17.1-39.5-51.1-19.7-87.2
		c47.8-87.4,96-174.4,145.4-261c25.5-44.9,64.1-51.2,101.8-16.7c73.6,67.3,146.5,135.2,218.8,203.7c29.8,28.1,32.2,63.7,8.7,89.2
		c-24.3,26.2-57.8,26.2-89.5-1.9c-34.1-30.2-67.2-61.7-100.6-92.6c-3.7,1.7-7.4,3.5-11.1,5.1c20.2,81.6,34.1,165.3,61.5,244.4
		c208.9,602.8,622.3,986.7,1247.9,1116.7c839.4,174.6,1662.6-334,1899.5-1157.6c3.1-10.7,6-21.5,10-32c13-34.5,40.9-50,73-40.9
		c31.8,9.1,49.9,37.6,40.9,73c-11.2,44.5-23.8,89.1-40.3,132c-244.1,638.2-701,1033.4-1372.9,1153
		c-942.4,168-1840.8-464.4-2023.4-1406.5C185.3,2099.6,183,2086.3,178.7,2061.6z"/>
	<path d="M1920.7,2776.1c-547.8,0.1-994.2-445.7-994.7-993.4c-0.4-549.5,446.5-996.3,996-995.6c547.7,0.7,993.2,447.3,992.8,995.1
		C2914.7,2329.9,2468.5,2775.9,1920.7,2776.1z M1430.7,1057.1c-93.6,64.3-171.9,141-234.4,235.3c37.2,26.8,96.3,43.7,65.3,103.7
		c-34.4,66.8-83.7,22.3-127.3,2.3c-49.8,104.1-79.5,208.9-85.2,320.4c88,8.8,110.4,20.2,108.9,60.1c-2.5,73.7-62.2,59-109.7,64.6
		c8.7,113.8,34.9,220.5,87.4,320.6c73.3-38.4,101.5-39.7,122.4-5.2c7.2,11.9,14.8,33,9.4,41.3c-18.5,27.4-42.8,50.8-66.6,77.9
		c59.7,87.2,136.7,165.1,229.8,227.3c51.9-72.2,71.4-85.5,105.1-65.7c65.5,38.7,20.3,84.7,2.7,128.7c103.3,49.1,208,78.9,319.4,84.7
		c8.8-88.8,19.7-108,60.1-109.4c40.3-1.5,51,16.1,66.6,110.1c111.7-8.7,218.3-34.8,318.5-87.2c-38.3-73.4-39.7-101.4-5.4-122.4
		c11.9-7.2,33-15,41.3-9.5c27.4,18.5,51,42.8,78.1,66.8c86.8-59.8,165.1-136.6,227.5-230.6c-36.3-27.3-96.6-43.2-65.4-103.8
		c34.6-67.4,83.9-21.1,127.7-3.2c49.5-103,78.8-207.9,84.9-319.3c-87.5-9.2-108.2-18.7-108.8-56.2c-1.2-77.9,62.1-63.8,109.8-67.8
		c-9.6-116.1-35.6-222.1-87.5-321.4c-73.4,38-101.5,39.5-122.5,5.5c-7.4-11.8-15-33-9.5-41.3c18.5-27.4,42.7-51,66.6-78.3
		c-59.1-87.1-136.4-164.9-230.5-227.7c-26.9,36.5-43.5,96-103.7,65.4c-67.7-34.4-21.3-83.6-3.3-127.7
		c-102.9-49.5-207.9-78.9-319.3-84.9c-9.6,88.4-20.6,107.8-60.1,109.6c-40.8,1.7-52-16.5-66.8-110.1
		c-111.8,8.4-218.4,34.8-318.6,87.1c38.5,74.2,38.8,103.8,2.8,125.1C1504.1,1143.3,1481,1130.2,1430.7,1057.1z"/>
	<path d="M2047.2,1923.8c-113.3,86-237.2,40-288.1-44.5c-55.6-92.4-23.9-212.7,72.9-263c24.6-12.8,29.6-27,29.3-51.6
		c-1.1-122-0.7-244-0.4-366c0.1-41.7,18.7-65.8,52-69.8c39.9-4.8,67.2,22.6,67.3,69.6c0.4,122,0.7,244-0.3,366
		c-0.1,24.3,4.1,39.1,28.9,52c67,35.4,102.7,93.6,98.9,170.4c-1.3,27.3,8.4,39.7,30.2,51.8c63.1,34.8,125.3,71.4,187.5,107.8
		c38.5,22.6,50.7,55,33.8,86.4c-17.3,32.4-54,39.5-93.6,17C2193.3,2008.5,2121.3,1966.6,2047.2,1923.8z M1988.8,1781.3
		c-0.1-38.8-29.7-68.1-68.5-68.1c-38.8,0.1-68.1,29.6-68.1,68.4c0.1,38.8,29.7,68.2,68.4,68.1
		C1959.4,1849.7,1988.9,1820,1988.8,1781.3z"/>
</g>
</svg>
