<?xml version="1.0" encoding="utf-8"?>
<!-- Generator: Adobe Illustrator 27.5.0, SVG Export Plug-In . SVG Version: 6.00 Build 0)  -->
<svg version="1.1" id="Capa_1" xmlns="http://www.w3.org/2000/svg" xmlns:xlink="http://www.w3.org/1999/xlink" x="0px" y="0px"
	 viewBox="0 0 4000 4000" style="enable-background:new 0 0 4000 4000;" xml:space="preserve">
<g>
	<path d="M3395.3,1651.6c-36.3,63.6-72.7,127-108.7,190.8c-29.8,52.8-52.8,56.6-97,15.4c-49.1-45.7-98.3-91.2-147.2-137.2
		c-25.6-24-29.1-50.4-10.5-70.5c19.4-20.8,44.1-19.3,71.1,5.1c23.9,21.6,47.3,43.7,70.9,65.5c2.9-1.3,5.7-2.6,8.6-3.9
		c-15.9-62.7-26.9-127.1-48.4-187.8c-168.5-475.2-500.4-763.8-999.4-841.3c-603.4-93.7-1183.4,288.3-1351.4,876.6
		c-2.5,8.9-5,18-8.5,26.5c-9.7,24.1-30.2,34.8-53.3,28.5c-23.9-6.5-37.5-27.9-31-54.3c8-32.4,17.1-64.9,28.9-96.1
		c176.5-467,508.3-761.7,996.8-859.3c721-144,1417.1,339.3,1545.2,1059c1.1,6,3.6,11.7,6.7,21.7c13-23.1,23.9-42.4,34.7-61.7
		c27-48.2,55.4-51.4,92.4-10.7C3395.3,1629.3,3395.3,1640.4,3395.3,1651.6z"/>
	<path d="M1965.9,964.1c517.4,1.1,938.1,422.9,937.5,939.9c-0.6,518.2-424.3,940.2-942.1,938.2c-517.5-2-937.6-424.6-936-941.4
		C1026.8,1383.3,1448.8,963,1965.9,964.1z M1963.3,2752.8c468,0.7,850.1-380.5,850.7-848.6c0.6-468.1-380.4-850-848.6-850.7
		c-468.2-0.6-850,380.3-850.7,848.6C1114,2370.2,1495.1,2752.2,1963.3,2752.8z"/>
	<path d="M662.2,2112.5c-17,30.3-29.3,53.1-42.4,75.4c-15.7,26.7-40.1,34.9-63.2,22c-23.1-12.8-29.5-38.2-14.7-65.2
		c35.7-65.3,71.8-130.4,108.7-195.1c19.1-33.6,47.9-38.3,76.1-12.5c55,50.3,109.5,101.1,163.6,152.3c22.3,21,24.1,47.6,6.5,66.7
		c-18.2,19.6-43.2,19.6-66.9-1.4c-25.5-22.6-50.2-46.1-75.2-69.2c-2.8,1.3-5.5,2.6-8.3,3.8c15.1,61,25.5,123.6,46,182.7
		c156.2,450.6,465.2,737.6,932.9,834.8c627.5,130.5,1242.9-249.7,1420-865.4c2.3-8,4.5-16.1,7.5-23.9c9.7-25.8,30.6-37.4,54.6-30.6
		c23.8,6.8,37.3,28.1,30.6,54.6c-8.4,33.3-17.8,66.6-30.1,98.7c-182.5,477.1-524,772.5-1026.3,861.9
		C1477.1,3327.7,805.5,2854.9,669,2150.7C667.1,2140.9,665.4,2131,662.2,2112.5z"/>
	<path d="M1964.4,2646.6c-409.5,0.1-743.2-333.2-743.6-742.6c-0.3-410.8,333.8-744.8,744.6-744.3c409.4,0.5,742.5,334.4,742.2,743.9
		C2707.5,2313.1,2373.9,2646.5,1964.4,2646.6z M1598.1,1361.6c-70,48.1-128.5,105.4-175.2,175.9c27.8,20,72,32.7,48.8,77.5
		c-25.7,49.9-62.6,16.7-95.2,1.7c-37.2,77.8-59.4,156.2-63.7,239.5c65.8,6.6,82.5,15.1,81.4,44.9c-1.9,55.1-46.5,44.1-82,48.3
		c6.5,85.1,26.1,164.8,65.3,239.7c54.8-28.7,75.9-29.7,91.5-3.9c5.4,8.9,11.1,24.7,7,30.9c-13.8,20.5-32,38-49.8,58.2
		c44.6,65.2,102.2,123.4,171.8,169.9c38.8-54,53.4-63.9,78.6-49.1c49,28.9,15.2,63.3,2,96.2c77.2,36.7,155.5,59,238.8,63.3
		c6.6-66.4,14.7-80.7,44.9-81.8c30.1-1.1,38.1,12,49.8,82.3c83.5-6.5,163.2-26,238.1-65.2c-28.6-54.9-29.7-75.8-4-91.5
		c8.9-5.4,24.7-11.2,30.9-7.1c20.5,13.8,38.1,32,58.4,49.9c64.9-44.7,123.4-102.1,170.1-172.4c-27.1-20.4-72.2-32.3-48.9-77.6
		c25.9-50.4,62.7-15.8,95.5-2.4c37-77,58.9-155.4,63.5-238.7c-65.4-6.9-80.9-14-81.3-42c-0.9-58.2,46.4-47.7,82.1-50.7
		c-7.2-86.8-26.6-166-65.4-240.3c-54.9,28.4-75.9,29.5-91.6,4.1c-5.5-8.8-11.2-24.7-7.1-30.9c13.8-20.5,31.9-38.1,49.8-58.5
		c-44.2-65.1-102-123.3-172.3-170.2c-20.1,27.3-32.5,71.8-77.5,48.9c-50.6-25.7-15.9-62.5-2.5-95.5c-76.9-37-155.4-59-238.7-63.5
		c-7.2,66.1-15.4,80.6-44.9,81.9c-30.5,1.3-38.9-12.3-49.9-82.3c-83.6,6.3-163.3,26-238.2,65.1c28.8,55.5,29,77.6,2.1,93.5
		C1653,1426,1635.7,1416.2,1598.1,1361.6z"/>
	<path d="M2059,2009.5c-84.7,64.3-177.3,29.9-215.4-33.3c-41.6-69.1-17.9-159,54.5-196.6c18.4-9.6,22.1-20.2,21.9-38.6
		c-0.8-91.2-0.5-182.4-0.3-273.6c0.1-31.2,14-49.2,38.9-52.2c29.8-3.6,50.2,16.9,50.3,52c0.3,91.2,0.5,182.4-0.2,273.6
		c-0.1,18.2,3.1,29.2,21.6,38.9c50.1,26.5,76.8,70,73.9,127.4c-1,20.4,6.3,29.7,22.6,38.7c47.2,26,93.7,53.4,140.2,80.6
		c28.8,16.9,37.9,41.1,25.3,64.6c-12.9,24.2-40.4,29.5-70,12.7C2168.2,2072.8,2114.4,2041.5,2059,2009.5z M2015.3,1903
		c-0.1-29-22.2-50.9-51.2-50.9c-29,0.1-50.9,22.1-50.9,51.1c0.1,29,22.2,51,51.1,50.9C1993.3,1954.1,2015.4,1931.9,2015.3,1903z"/>
</g>
</svg>
