<?xml version="1.0" encoding="utf-8"?>
<!-- Generator: Adobe Illustrator 27.7.0, SVG Export Plug-In . SVG Version: 6.00 Build 0)  -->
<svg version="1.1" id="Capa_1" xmlns="http://www.w3.org/2000/svg" xmlns:xlink="http://www.w3.org/1999/xlink" x="0px" y="0px"
	 viewBox="0 0 14.5 18.9" style="enable-background:new 0 0 14.5 18.9;" xml:space="preserve">

<g id="contraseña" transform="translate(-397.428 -281.086)">
	<path id="Trazado_7" class="st0" d="M400.5,287.1c0-0.5,0-1,0-1.5c0-2.3,1.8-4.2,4.2-4.2c2,0,3.8,1.4,4.1,3.4
		c0,0.3,0.1,0.6,0.1,0.9c0,0.5,0,0.9,0,1.4c0.1,0,0.2,0.1,0.4,0.1c1.4,0.3,2.4,1.6,2.5,3c0,2.1,0,4.3,0,6.4c-0.1,1.5-1.2,2.7-2.7,3
		c-0.2,0-0.4,0-0.6,0c-2.5,0-5,0-7.5,0c-1.5,0-2.8-1-3.2-2.5c0-0.2-0.1-0.4-0.1-0.5c0-2.2,0-4.3,0-6.5c0.1-1.5,1.1-2.7,2.6-3
		C400.4,287.1,400.4,287.1,400.5,287.1z M404.7,299c1.3,0,2.5,0,3.8,0c1.4,0,2.5-1.1,2.5-2.4c0-2.1,0-4.2,0-6.3
		c0-1.4-1.1-2.4-2.5-2.4c-2.5,0-5,0-7.5,0c-1.4,0-2.5,1.1-2.5,2.5c0,0,0,0,0,0c0,2,0,4,0,6.1c0,0.2,0,0.3,0,0.5
		c0.2,1.2,1.3,2.1,2.5,2.1H404.7z M408.1,287.1c0-0.6,0-1.1,0-1.6c0-0.2,0-0.4-0.1-0.6c-0.4-1.9-2.2-3.1-4-2.7
		c-1.3,0.2-2.4,1.2-2.7,2.5c-0.1,0.8-0.2,1.6-0.1,2.4c0,0,0,0,0,0C403.6,287.1,405.8,287.1,408.1,287.1L408.1,287.1z"/>
	<path id="Trazado_8" class="st0" d="M404.7,296.7c-0.4,0-0.7,0-1.1,0c-0.4,0-0.8-0.3-0.8-0.8c0-0.1,0-0.1,0-0.2
		c0.2-0.7,0.3-1.5,0.5-2.2c0.1-0.1,0-0.3-0.1-0.4c-0.8-0.8-0.8-2.1,0-2.9c0.8-0.8,2.1-0.8,2.9,0c0.3,0.3,0.5,0.7,0.6,1.2
		c0.1,0.7-0.1,1.3-0.6,1.8c-0.1,0.1-0.1,0.2-0.1,0.3c0.2,0.7,0.4,1.5,0.5,2.2c0.1,0.4-0.1,0.9-0.5,1c-0.1,0-0.2,0-0.3,0
		C405.4,296.8,405,296.7,404.7,296.7z M404.7,296.1h0.9c0.3,0,0.3,0,0.2-0.3c-0.2-0.8-0.4-1.5-0.6-2.3c-0.1-0.4-0.1-0.4,0.2-0.6
		c0.5-0.4,0.7-1.1,0.4-1.7c-0.3-0.6-0.9-0.9-1.6-0.7c-0.5,0.1-0.8,0.5-0.9,1c-0.1,0.5,0.1,1,0.6,1.3c0.3,0.2,0.3,0.2,0.2,0.6
		c-0.2,0.8-0.4,1.6-0.6,2.4c0,0.2,0,0.2,0.2,0.2C404.1,296.1,404.4,296.1,404.7,296.1L404.7,296.1z"/>
</g>
</svg>
