<?xml version="1.0" encoding="utf-8"?>
<!-- Generator: Adobe Illustrator 27.5.0, SVG Export Plug-In . SVG Version: 6.00 Build 0)  -->
<svg version="1.1" id="Capa_1" xmlns="http://www.w3.org/2000/svg" xmlns:xlink="http://www.w3.org/1999/xlink" x="0px" y="0px"
	 viewBox="0 0 1876.6 1834.8" style="enable-background:new 0 0 1876.6 1834.8;" xml:space="preserve">
<g>
	<path d="M1836.7,787.8c0.9,5.8,1.5,11.6,1.6,17.5c1.5,46-21,93.2-55.7,123.1c-39.2,33.8-93,44.3-142.8,32
		c-3.6-0.9-7.4-0.9-12.2-1.5c0,8,0,14.4,0,20.8c0,256.8-0.3,513.5,0.4,770.3c0.1,32.8-11.3,55.1-42.5,66.4c-430.7,0-861.4,0-1292,0
		c-31.6-11.3-42-34.5-41.9-66.9c0.5-255.7,0.3-511.4,0.3-767.1c0-7.5,0-15,0-24.2c-7.1,1.6-12.1,2.8-17.1,3.9
		C161,978.9,84.7,941,55.1,872.8c-29.8-68.6-11.9-139.6,48.3-190.7C346,476.2,588.7,270.4,831.4,64.6C903.6,3.4,982.9,3.5,1055,65
		c79.7,67.9,159.3,135.9,239,203.8c5.1,4.3,10.3,8.4,18,14.6c0-36-0.2-68.1,0.1-100.1c0.3-39.1,20.8-59.4,59.8-59.5
		c63.8-0.1,127.5-0.1,191.3,0c45.7,0,64.4,19.1,64.4,65.4c0,116.4,0.2,232.9-0.3,349.3c-0.1,12.4,3.9,20.3,13.2,28.1
		c45.2,38,89.8,76.8,134.8,115.1C1806.9,708.7,1830.3,746.6,1836.7,787.8z M1521.9,1710.1c0.3-5.7,0.7-10.3,0.7-14.8
		c0-266.9-0.1-533.7,0.3-800.6c0-11.5-4.7-17.9-12.7-24.8c-152.1-130-304-260.2-456-390.4c-36.8-31.5-73.6-62.9-110.8-94.7
		c-4.8,3.7-8.6,6.3-12.1,9.2C743.9,553,556.6,712.1,369,870.8c-9.5,8.1-12.6,16.2-12.6,28.3c0.3,263.9,0.3,527.9,0.3,791.8
		c0,6.2,0,12.5,0,19c88.9,0,175.7,0,263.8,0c0-8.1,0-15,0-21.9c0-146.9,0-293.8,0-440.7c0-43.6,19.6-63,63.3-63
		c170.3,0,340.5,0,510.8,0c45,0,64.3,19.1,64.3,63.8c0,146.9,0,293.8,0,440.7c0,6.9,0,13.7,0,21.4
		C1347.1,1710.1,1433.4,1710.1,1521.9,1710.1z M208.2,860.9c6.9-4.2,22-10.6,34-20.8C461.1,655,679.6,469.4,898.3,283.9
		c33.9-28.7,55.8-28.6,89.7,0.5c175.5,150.4,350.9,300.8,526.4,451.3c43.1,36.9,85.8,74.3,129.4,110.7
		c33.4,27.8,79.5,13.1,87.9-27.6c5-24-6.5-41.2-24.2-56.4C1467,556.6,1226.6,350.6,986.2,144.6c-31.4-26.9-54.9-26.8-87,0.4
		C685,326.7,470.8,508.4,256.7,690.1c-30.3,25.7-60.9,51.2-90.9,77.3c-19,16.5-24.3,38.8-15.8,60.2
		C157.8,847.7,177.8,861.2,208.2,860.9z M1153.3,1290.5c-143.6,0-285.3,0-426.8,0c0,140.7,0,280.1,0,419.3c143,0,284.7,0,426.8,0
		C1153.3,1569.5,1153.3,1430.5,1153.3,1290.5z M1417,230c0,46.9-0.3,93,0.4,139c0.1,4.6,5.1,10,9.1,13.5
		c26,22.6,52.3,44.8,78.6,67.2c5,4.2,10,8.3,16.6,13.8c0-79.9,0-156.2,0-233.4C1487.2,230,1453.5,230,1417,230z"/>
	<path d="M939.6,650.5c51.5,0,102.9-0.1,154.4,0c38.9,0.1,59.6,20.7,59.6,59.6c0.1,100.6,0.1,201.2,0,301.8
		c0,38.8-20.9,59.9-59.4,60c-102.9,0.2-205.8,0.1-308.7,0c-38.8-0.1-59.5-20.7-59.6-59.8c-0.2-100.6-0.2-201.2,0-301.8
		c0.1-39.3,20.5-59.7,59.4-59.8C836.7,650.4,888.1,650.5,939.6,650.5z M1047.9,757.3c-73.7,0-145.2,0-216.2,0
		c0,70.3,0,139.1,0,208.1c72.7,0,144.2,0,216.2,0C1047.9,895.4,1047.9,826.6,1047.9,757.3z"/>
	<path d="M943.1,1447.2c0.2-28.8,24-52.3,52.9-52.1c28.8,0.2,52.4,24,52.2,52.8c-0.2,28.6-24.4,52.5-52.9,52.3
		C966.7,1499.9,942.9,1475.8,943.1,1447.2z"/>
</g>
</svg>
