<?xml version="1.0" encoding="utf-8"?>
<!-- Generator: Adobe Illustrator 27.4.1, SVG Export Plug-In . SVG Version: 6.00 Build 0)  -->
<svg version="1.1" id="Capa_1" xmlns="http://www.w3.org/2000/svg" xmlns:xlink="http://www.w3.org/1999/xlink" x="0px" y="0px"
	 viewBox="0 0 884.1 1010.5" style="enable-background:new 0 0 884.1 1010.5;" xml:space="preserve">

<g>
	<path d="M533.7,238.7c3.3,0.9,6.7,1.7,10,2.7c24.3,7.6,40.8,29.3,41,54.8c0.3,31.9,0.1,63.9,0.1,95.8c0,9.9-6.7,16.9-15.7,17
		c-9,0.1-16.1-7.3-16.1-17.3c-0.1-31.1,0-62.2-0.1-93.3c0-14.4-8.5-24.8-22-27.4c-1.8-0.3-3.6-0.4-5.5-0.4c-43.6,0-87.1,0-130.7,0
		c-0.7,0-1.3,0.1-3.3,0.2c2.3,0.9,3.6,1.5,4.8,1.9c10.1,3.4,20.2,6.7,30.2,10.1c19.5,6.6,30.5,21.9,30.6,42.5
		c0.1,42.2,0,84.5,0,126.7c0,65,0,130.1,0,195.1c0,2,0,4,0,6.5c1.8,0.1,3.4,0.3,5,0.3c20.8,0,41.6,0,62.4,0
		c17.4,0,28.4-11,28.4-28.3c0.1-30.3,0-60.5,0.1-90.8c0-2.6,0.2-5.4,0.8-7.9c1.9-7.1,9.1-12,16.3-11.4c7.9,0.7,14.1,6.7,14.7,14.5
		c0.1,1.3,0.1,2.7,0.1,4c0,30.6,0.1,61.2,0,91.8c-0.1,34.8-25.5,60-60.2,60.1c-20.5,0-40.9,0-61.4,0c-1.8,0-3.6,0-6.1,0
		c0,6.8,0,13.2,0,19.6c-0.2,26.3-19.4,45.3-44.8,44.1c-4.3-0.2-8.6-1.2-12.6-2.5c-41.6-13.7-83.2-27.6-124.8-41.5
		c-19.5-6.5-30.6-22.2-30.6-43.1c0-126.1,0-252.1,0-378.2c0-23.9,12.3-39.5,35.6-44.9c0.5-0.1,0.9-0.4,1.3-0.7
		C365.3,238.7,449.5,238.7,533.7,238.7z M425.1,515.7c0-62.9,0-125.7,0-188.6c0-9.1-1.9-11.8-10.4-14.6
		c-40.5-13.5-80.9-27-121.4-40.4c-11-3.7-17.2,0.7-17.2,12.2c0,125.7,0,251.4,0,377.1c0,8.6,2.1,11.5,10.2,14.3
		c14.6,4.9,29.3,9.8,43.9,14.6c26.5,8.8,52.9,17.7,79.4,26.4c8.9,2.9,15.2-1.7,15.4-11c0-1.5,0-3,0-4.5
		C425.1,639.4,425.1,577.6,425.1,515.7z"/>
	<path d="M755.3,467.2c-3.4,4-6.6,8.1-10.3,11.8c-24.4,24.5-48.8,49-73.4,73.4c-9.7,9.6-24.4,6.1-27.6-6.4
		c-1.6-6.4,0.5-11.7,5.2-16.2c15.8-15.7,31.5-31.5,47.3-47.2c1.1-1.1,2.2-2.3,4-4.3c-2.7,0-4.5,0-6.2,0c-51.9,0-103.8,0-155.6,0
		c-12.1,0-19.8-9.4-16.9-20.2c1.7-6.4,7.3-11.1,14-11.7c1.8-0.2,3.7-0.1,5.5-0.1c50.9,0,101.8,0,152.6,0c1.8,0,3.6,0,6.7,0
		c-1.8-1.9-2.9-3.1-4-4.3c-16-16-32-32-47.9-48c-5.3-5.3-6.4-12.1-3.5-18.3c2.8-6,9.2-10.1,15.8-9c3.5,0.6,7.5,2.3,10,4.8
		c26.8,26.4,53.3,53,79.9,79.6c1.8,1.8,3.1,4.2,4.6,6.3C755.3,460.6,755.3,463.9,755.3,467.2z"/>
	<path class="st0" d="M425.1,515.7c0,61.9,0,123.7,0,185.6c0,1.5,0,3,0,4.5c-0.2,9.3-6.5,13.9-15.4,11
		c-26.5-8.7-52.9-17.6-79.4-26.4c-14.6-4.9-29.3-9.7-43.9-14.6c-8.1-2.7-10.2-5.6-10.2-14.3c0-125.7,0-251.4,0-377.1
		c0-11.5,6.1-15.9,17.2-12.2c40.5,13.5,80.9,27,121.4,40.4c8.5,2.8,10.4,5.5,10.4,14.6C425.1,390,425.1,452.8,425.1,515.7z"/>
</g>
</svg>
