<?xml version="1.0" encoding="utf-8"?>
<!-- Generator: Adobe Illustrator 27.5.0, SVG Export Plug-In . SVG Version: 6.00 Build 0)  -->
<svg version="1.1" id="Capa_1" xmlns="http://www.w3.org/2000/svg" xmlns:xlink="http://www.w3.org/1999/xlink" x="0px" y="0px"
	 viewBox="0 0 1876.6 1834.8" style="enable-background:new 0 0 1876.6 1834.8;" xml:space="preserve">

<g>
	<path d="M1082,49.8c11.4,3.1,23.1,5.9,34.5,9.3c83.9,26.3,140.9,101.2,141.6,189.3c1,110.2,0.3,220.8,0.3,331
		c0,34.2-23.1,58.4-54.2,58.7c-31.1,0.3-55.6-25.2-55.6-59.8c-0.3-107.4,0-214.9-0.3-322.3c0-49.7-29.4-85.7-76-94.7
		c-6.2-1-12.4-1.4-19-1.4c-150.6,0-300.9,0-451.5,0c-2.4,0-4.5,0.3-11.4,0.7c7.9,3.1,12.4,5.2,16.6,6.6
		c34.9,11.7,69.8,23.1,104.3,34.9c67.4,22.8,105.4,75.7,105.7,146.8c0.3,145.8,0,291.9,0,437.7c0,224.6,0,449.4,0,674
		c0,6.9,0,13.8,0,22.5c6.2,0.3,11.7,1,17.3,1c71.9,0,143.7,0,215.6,0c60.1,0,98.1-38,98.1-97.8c0.3-104.7,0-209,0.3-313.7
		c0-9,0.7-18.7,2.8-27.3c6.6-24.5,31.4-41.5,56.3-39.4c27.3,2.4,48.7,23.1,50.8,50.1c0.3,4.5,0.3,9.3,0.3,13.8
		c0,105.7,0.3,211.4,0,317.1c-0.3,120.2-88.1,207.3-208,207.6c-70.8,0-141.3,0-212.1,0c-6.2,0-12.4,0-21.1,0c0,23.5,0,45.6,0,67.7
		c-0.7,90.9-67,156.5-154.8,152.3c-14.9-0.7-29.7-4.1-43.5-8.6c-143.7-47.3-287.4-95.3-431.1-143.4
		c-67.4-22.5-105.7-76.7-105.7-148.9c0-435.6,0-870.9,0-1306.5c0-82.6,42.5-136.5,123-155.1c1.7-0.3,3.1-1.4,4.5-2.4
		C500.3,49.8,791.2,49.8,1082,49.8z M706.9,1006.7c0-217.3,0-434.2,0-651.5c0-31.4-6.6-40.8-35.9-50.4
		C531,258.1,391.4,211.4,251.5,165.1c-38-12.8-59.4,2.4-59.4,42.1c0,434.2,0,868.5,0,1302.7c0,29.7,7.3,39.7,35.2,49.4
		c50.4,16.9,101.2,33.9,151.7,50.4c91.5,30.4,182.8,61.1,274.3,91.2c30.7,10,52.5-5.9,53.2-38c0-5.2,0-10.4,0-15.5
		C706.9,1434,706.9,1220.5,706.9,1006.7z"/>
	<path d="M1845.9,838.6c-1.4,3.9-3.4,7.6-5.8,11c-3.7,5.1-8.8,8.8-12.8,13.5c-4.9,5.8-9.9,11.4-15.3,16.7
		c-84.3,84.6-168.6,169.3-253.6,253.6c-33.5,33.2-84.3,21.1-95.3-22.1c-5.5-22.1,1.7-40.4,18-56c54.6-54.2,108.8-108.8,163.4-163.1
		c3.8-3.8,7.6-7.9,13.8-14.9c-9.3,0-15.5,0-21.4,0c-179.3,0-358.6,0-537.5,0c-41.8,0-68.4-32.5-58.4-69.8
		c5.9-22.1,25.2-38.3,48.4-40.4c6.2-0.7,12.8-0.3,19-0.3c175.8,0,351.7,0,527.2,0c6.2,0,12.4,0,23.1,0c-6.2-6.6-10-10.7-13.8-14.9
		c-55.3-55.3-110.5-110.5-165.5-165.8c-18.3-18.3-22.1-41.8-12.1-63.2c9.7-20.7,31.8-34.9,54.6-31.1c12.1,2.1,25.9,7.9,34.5,16.6
		c30.1,30.1,60.5,59.8,90.7,89.8c30.3,30.2,60.6,60.4,90.8,90.6c30.1,30.1,60.1,60.3,90.3,90.3c5.5,5.5,11.5,10.7,15.5,17.5
		c6.5,10.9,6.9,25.6,3.7,37.6C1846.9,835.8,1846.4,837.2,1845.9,838.6z"/>
	<path class="st0" d="M706.9,1006.7c0,213.8,0,427.3,0,641.2c0,5.2,0,10.4,0,15.5c-0.7,32.1-22.5,48-53.2,38
		c-91.5-30.1-182.8-60.8-274.3-91.2c-50.4-16.9-101.2-33.5-151.7-50.4c-28-9.3-35.2-19.3-35.2-49.4c0-434.2,0-868.5,0-1302.7
		c0-39.7,21.1-54.9,59.4-42.1c139.9,46.6,279.5,93.3,419.4,139.6c29.4,9.7,35.9,19,35.9,50.4C706.9,572.4,706.9,789.4,706.9,1006.7z
		"/>
</g>
</svg>
