<?xml version="1.0" encoding="utf-8"?>
<!-- Generator: Adobe Illustrator 27.5.0, SVG Export Plug-In . SVG Version: 6.00 Build 0)  -->
<svg version="1.1" id="Capa_1" xmlns="http://www.w3.org/2000/svg" xmlns:xlink="http://www.w3.org/1999/xlink" x="0px" y="0px"
	 viewBox="0 0 368.5 371.6" style="enable-background:new 0 0 368.5 371.6;" xml:space="preserve">
<g>
	<path d="M13.3,328c4.4-12.7,8.8-25.5,13.4-38.2c1-2.7,0.8-4.9-0.3-7.5C11.1,243.4,16,207.3,41.6,174.4c4.6-5.9,10.7-10.6,16-16.1
		c1.2-1.2,2.3-3.1,2.3-4.6c1.4-62.8,46.4-119.2,107.6-135c73.1-18.8,147.4,20.2,173,91.1c13,36.2,11.2,72.2-4.1,107.5
		c-1.4,3.3-1.7,6-0.5,9.5c6.1,17.2,12,34.4,17.8,51.5c4.8,14-1.8,26.9-15.7,30.5c-4.7,1.2-9.2,0.5-13.7-1
		c-17.7-6.1-35.2-12-52.9-18.2c-2.5-0.9-4.5-0.8-6.9,0.3c-16.4,7.6-33.6,12-51.7,12.7c-3.1,0.2-5.2,1.3-7.2,3.7
		c-25,30.1-57.1,43.1-96,38.9c-10.1-1.1-19.7-4.1-29.1-8c-1.4-0.6-3.4-0.7-4.9-0.2c-11.7,3.8-23.3,7.9-35,11.9
		c-12.8,4.4-22,0.1-26.8-12.5c-0.1-0.2-0.3-0.3-0.5-0.4C13.3,333.4,13.3,330.7,13.3,328z M79.9,158.2c1.1,8.6,1.6,17.3,3.3,25.7
		c5.5,26.5,18.6,48.8,38.8,66.9c24.7,22,53.7,32.5,86.7,31.7c18.2-0.4,35.6-5,51.8-13.4c4-2.1,7.9-2.3,12.1-0.8
		c18.7,6.5,37.6,13,56.3,19.4c1.1,0.3,2.1,0.8,3.2,0.9c1.8,0.3,2.8-0.5,2.4-2.4c-0.2-0.8-0.5-1.7-0.8-2.5
		c-6.3-18.2-12.4-36.6-18.9-54.7c-2.2-5.9-1.8-10.9,1-16.5c12-24.4,15.3-50,10.3-76.6c-5-26.9-17.7-50-38-68.4
		c-30-27.3-65.4-37.4-105.4-31.1c-16.4,2.6-31.6,8.7-45.6,17.8c-18.9,12.4-33.6,28.6-43.8,48.9C84.9,120.4,80.5,138.7,79.9,158.2z
		 M61.5,183.1c0.2-0.1-0.3,0-0.4,0.2c-13.1,14.5-20.8,31.4-22.3,50.9c-1.3,16,1.8,31.1,9,45.5c1.8,3.5,1.8,6.9,0.5,10.6
		c-4.1,11.6-8,23.3-12,34.9c-0.3,1.1-0.7,2.3-1.1,3.9c1.7-0.5,2.8-0.8,3.9-1.2c10.7-3.7,21.5-7.1,32-11.1c5.7-2.2,10.7-1.8,16.2,0.8
		c25.1,11.5,50.1,11,74.8-1.3c7.4-3.7,14.2-8.5,19.9-14.3C116.7,287.6,76.7,248.1,61.5,183.1z"/>
	<path d="M204.4,124.9c-19.7,0-39.4,0-59.1,0c-7,0-11.5-3.9-11.6-10c-0.1-6.2,4.6-10.5,11.7-10.5c24-0.1,48.1,0,72.1,0
		c15.1,0,30,0,45.1,0c1.5,0,3.1,0.1,4.6,0.4c5.4,1.1,8.6,5.6,8,11.3c-0.5,4.9-4.8,8.8-10,8.8C244.9,124.9,224.7,124.9,204.4,124.9z"
		/>
	<path d="M204.4,146.3c19.9,0,39.8,0,59.7,0c6.8,0,11.2,4.4,11,10.6c-0.1,5.1-3.8,9.1-9.1,9.9c-0.8,0.1-1.8,0.1-2.7,0.1
		c-39.3,0-78.6,0-117.9,0c-4.9,0-8.8-1.5-11-6c-3.3-6.9,1.8-14.5,9.7-14.6c15.6-0.1,31.2,0,46.8,0
		C195.6,146.3,200,146.3,204.4,146.3z"/>
	<path d="M181.2,188.3c12.5,0,24.9-0.1,37.3,0.1c6.4,0.1,10.5,4.9,10,11.1c-0.3,4.6-3.8,8.3-8.5,9c-1.2,0.2-2.4,0.3-3.7,0.3
		c-23.6,0-47.1,0-70.7,0c-1.8,0-3.8-0.2-5.5-0.8c-4.5-1.6-7.1-6.1-6.4-10.8c0.7-4.8,4.5-8.6,9.5-8.7
		C155.8,188.3,168.5,188.3,181.2,188.3L181.2,188.3z"/>
</g>
</svg>
