<?xml version="1.0" encoding="utf-8"?>
<!-- Generator: Adobe Illustrator 27.5.0, SVG Export Plug-In . SVG Version: 6.00 Build 0)  -->
<svg version="1.1" id="Capa_1" xmlns="http://www.w3.org/2000/svg" xmlns:xlink="http://www.w3.org/1999/xlink" x="0px" y="0px"
	 viewBox="0 0 685.2 528" style="enable-background:new 0 0 685.2 528;" xml:space="preserve">
<path d="M29.4,275.4c3.1-14.6,11.9-25.6,22.6-35.3c4.5-4.1,8.7-8.6,13-12.9c20.6-20.2,49.4-20.3,69.8,0
	c36,35.8,71.8,71.8,107.7,107.6c1.1,1.1,2.3,2.2,4,3.8c1.8-1.7,3.5-3.2,5.2-4.9C350.4,235,449.2,136.3,547.9,37.5
	c23.3-23.3,51-23.3,74.2-0.2c5.6,5.6,11.3,11.2,16.9,16.9c22.3,22.4,22.4,50.6,0.1,73c-33.8,33.9-67.7,67.8-101.6,101.6
	C449.3,317,361.1,405.3,272.9,493.5c-17.6,17.6-35,17.6-52.5,0c-55.9-55.9-111.8-112-167.9-167.7c-10.4-10.3-19.8-20.9-23.1-35.7
	C29.4,285.2,29.4,280.3,29.4,275.4z"/>
</svg>
