<?xml version="1.0" encoding="utf-8"?>
<!-- Generator: Adobe Illustrator 27.5.0, SVG Export Plug-In . SVG Version: 6.00 Build 0)  -->
<svg version="1.1" id="Capa_1" xmlns="http://www.w3.org/2000/svg" xmlns:xlink="http://www.w3.org/1999/xlink" x="0px" y="0px"
	 viewBox="0 0 1876.6 1834.8" style="enable-background:new 0 0 1876.6 1834.8;" xml:space="preserve">

<g id="QR" transform="translate(-348.356 -348)">
	<path id="Trazado_33" class="st0" d="M601.6,2153.1c-12.5-3.2-25.4-6-37.9-10.2c-96.1-28.8-162.2-117-162.8-217.3
		c-0.5-139.2,0-278.3,0-417.6v-12.9h110.5v419.8c-5.1,65.2,43.7,122.1,108.9,127.2c6.2,0.5,12.5,0.5,18.7,0h418.9v111H601.6z"/>
	<path id="Trazado_34" class="st0" d="M1515.2,2152.9v-111h418.4c65.3,5.4,122.7-43.1,128.1-108.4c0.6-6.7,0.5-13.4,0-20.1v-419.1
		h111V1952c-1.3,3.2-2.4,6.4-3.2,9.7c-12.8,81.3-68.9,149.2-146.4,177.1c-16.7,5.8-33.6,10.5-50.8,14.3L1515.2,2152.9z"/>
	<path id="Trazado_35" class="st0" d="M1058.4,377.7v111H639.5c-65.2-5.3-122.3,43.3-127.6,108.4c-0.5,6.2-0.5,12.5,0,18.7v419.8
		h-111V613.8c-4.1-116,79.8-216.4,194.7-233c2.1-0.6,4.2-1.6,6-2.8C753.7,377.7,906.2,377.7,1058.4,377.7z"/>
	<path id="Trazado_36" class="st0" d="M2172.6,1036.3h-111V617c5.7-65.3-42.7-122.8-108-128.5c-6.7-0.6-13.4-0.6-20.1,0h-418.9
		V377.7h456.8c3.2,1.3,6.4,2.4,9.7,3.2c81.5,12.8,149.5,69.2,177.1,147c5.7,16.7,10.5,33.6,14.3,50.8L2172.6,1036.3z"/>
	<path id="Trazado_37" class="st0" d="M1208.2,649.1v546H663.5v-546H1208.2z M1097.2,1084.6V760H774.9v324.6H1097.2z"/>
	<path id="Trazado_38" class="st0" d="M1892.9,1195.6h-543.7V649.1h543.7V1195.6z M1459.6,759.6v324.6h322.9V759.6H1459.6z"/>
	<path id="Trazado_39" class="st0" d="M1207.7,1882.1H664v-546h543.7L1207.7,1882.1z M1097.2,1771.1v-324.6H774.9v324.6H1097.2z"/>
	<path id="Trazado_40" class="st0" d="M1543.8,1770.3v-60.6h109.6v60.6h129.4v-60.6h110v172.2h-587.1v-172.2h108.7v60.6
		L1543.8,1770.3z"/>
	<path id="Trazado_41" class="st0" d="M1697.5,1402.7h-281.6v172.9h-110.2v-282.5h391.7L1697.5,1402.7z"/>
	<path id="Trazado_42" class="st0" d="M1501.8,1630.6v-108.2h391.7v108.2H1501.8z"/>
	<path id="Trazado_43" class="st0" d="M1893.8,1293.1v116.2h-108.2v-116.2H1893.8z"/>
	<path id="Trazado_44" class="st0" d="M987.6,870.5v103.3h-104V870.5H987.6z"/>
	<path id="Trazado_45" class="st0" d="M1673.3,871v102.6h-104V871H1673.3z"/>
	<path id="Trazado_46" class="st0" d="M883.6,1659.8v-102.2h104v102.2L883.6,1659.8z"/>
</g>
</svg>
