<?xml version="1.0" encoding="utf-8"?>
<!-- Generator: Adobe Illustrator 27.4.1, SVG Export Plug-In . SVG Version: 6.00 Build 0)  -->
<svg version="1.1" id="Capa_1" xmlns="http://www.w3.org/2000/svg" xmlns:xlink="http://www.w3.org/1999/xlink" x="0px" y="0px"
	 viewBox="0 0 884.1 1010.5" style="enable-background:new 0 0 884.1 1010.5;" xml:space="preserve">
<g>
	<path d="M619.1,579.9c-0.4,0.2-0.9,0.4-1.3,0.4c-11.8,0-23.6,0-35.4,0c-0.1,0-0.3-0.1-0.7-0.3c0-12.1,0-24.4,0-36.9
		c-4,0-7.6,0-11.3,0c-7.7,0-15.4,0.1-23.2,0c-2,0-2.8,0.6-2.8,2.7c0.1,5.2,0,10.4,0,15.9c-4.5,0-8.8,0-13.1,0
		c-6.2,0-5.6-0.7-5.6,5.5c0,4.2,0,8.5,0,12.9c-6.2,0-12.2,0-18.5,0c0-6,0-12,0-18.3c-6.3,0-12.3,0-18.6,0c0-6.3,0-12.3,0-18.7
		c-2.5,0-4.8,0-7,0c-3.1,0-6.1,0.1-9.2,0c-1.8,0-2.5,0.6-2.5,2.5c0.1,5.3,0,10.5,0,15.9c-6.2,0-12.2,0-18.5,0c0-18.4,0-36.9,0-55.7
		c-6.5,0-12.7,0-18.9,0l0.1,0.1c0-6.2,0-12.4,0-18.5c-6.4,0-12.4,0-18.5,0l0.1,0.1c0-18.8,0-37.6,0-56.4l-0.1,0.1
		c6.1,0,12.1,0.1,18.2,0.1c6.3,0,12.6,0,19,0c0,6.3,0,12.3,0,18.7c-2.1,0-4.2,0-6.3,0c-3.4,0-6.8-0.1-10.1,0.1c-0.7,0-2,1.1-2,1.8
		c-0.2,5.4-0.1,10.8-0.1,16.6c6.2,0,12.3,0,18.7,0c0,5,0,9.7,0,14.4c0,4.4,0,4.4,4.3,4.4c3.9,0,7.9,0,11.8,0c0.8,0,1.5,0.2,2.3,0.3
		c0.1,0.9,0.2,1.7,0.2,2.6c0,10.5,0,20.9,0,31.4c0,0.8,0,1.7,0,2.6c6.3,0,12.4,0,18.5,0c0-12.4,0-24.5,0-37c-5.6,0-11,0-16.4,0
		c-0.8,0-1.5,0.3-2.3,0.4c0.1-5.1,0.1-10.2,0.2-15.3c0-1.2,0-2.3,0-3.6c6.2,0,12.3,0,18.6,0c0,5,0,9.8,0,14.7c0,4.5-0.6,3.8,3.9,3.9
		c4,0,8,0,12.1,0c0.8,0,1.7-0.1,2.7-0.1c0-12.4,0-24.6,0-36.9c6.2,0,12.2,0,18.5,0c0,12.2,0,24.5,0,37.1c3.5,0,6.7,0,9.9,0
		c2.2,0,4.4-0.1,6.6,0c1.7,0.1,2.3-0.4,2.3-2.2c-0.1-5.3,0-10.7,0-16.4c6.2,0,12.3,0,18.5,0c0-6.3,0-12.3,0-18.6
		c-6.1,0-12.2,0-18.4,0c0-6.4,0-12.4,0-18.7c6.1,0,12.2,0,18.4,0c0-6.3,0-12.3,0-18.8c6.3,0,12.3,0,18.3,0l0,0
		c0.1,2.1,0.3,4.2,0.3,6.3c0.1,3.5,0.1,6.9,0,10.4c-0.1,1.7,0.5,2.2,2.1,2.2c4.6-0.1,9.1,0,13.7,0c0.9,0,1.7,0,2.7,0
		c0,6.3,0,12.3,0,18.7c-5.2,0-10.3,0-15.4,0c-3.1,0-3.2,0.1-3.2,3.2c0,16.6,0,33.2,0,49.8c0,0.9-0.2,1.9-0.2,2.8c-6,0-12.1,0-18.3,0
		c0-6.2,0-12.2,0-18.4c-6.3,0-12.3,0-18.4,0c0,12.4,0,24.6,0,36.8c12.4,0,24.6,0,37,0c0-3.4,0-6.6,0-9.9c0-2.9-0.2-5.8-0.3-8.7
		c6.2,0,12.4,0,18.9,0c0-12.2,0-24.5,0-37c12.5,0,24.7,0,37.1,0c0,30.9,0,61.7,0,93c-6.2,0-12.3,0-18.5,0c0-12.3,0-24.7,0-37.1
		c-12.5,0-24.8,0-37,0c0,6.2,0,12.2,0,18.5c6.2,0,12.2,0,18.5,0c0,6.3,0,12.3,0,18.5c6.4,0,12.5,0,18.6,0
		C619,567.8,619,573.9,619.1,579.9L619.1,579.9z M525.6,543c0-6.2,0-12.2,0-18.5c-5.7,0-11.2-0.1-16.6,0.1c-0.6,0-1.7,1.1-1.7,1.7
		c-0.1,5.5-0.1,11-0.1,16.7C513.4,543,519.4,543,525.6,543z M507.4,505.8c6.2,0,12.2,0,18.3,0c0-6.2,0-12.2,0-18.3
		c-6.1,0-12.1,0-18.3,0C507.4,493.6,507.4,499.6,507.4,505.8z"/>
	<path d="M339.4,468.6c-5.3,0-10.6,0.1-15.8,0.1c-1.9,0-2.7,0.7-2.6,2.6c0.1,5.3,0,10.5,0,16c-24.8,0-49.4,0-74.2,0
		c0-6.2,0-12.2,0-18.5c18.5,0,36.9,0,55.5,0c0-6.2,0-12.2,0-18.5c6.3,0,12.3,0,18.7,0c0-6.5,0-12.8,0-19l-0.1,0.1
		c6.2,0,12.4,0,18.4,0c0-6.3,0-12.3,0-18.5c-6.3,0-12.4,0-18.4,0l0.1,0.1c0-6.1,0-12.1,0-18.5c24.8,0,49.4,0,74.4,0
		c0-12.5,0-24.8,0-37.2c6.4,0,12.4,0,18.7,0c0,6,0,12,0,18.2c6.2,0,12.2,0,18.6,0c0-6,0-12,0-18.2c6.4,0,12.4,0,18.7,0
		c0,6.1,0,12.1,0,18.3c6.3,0,12.3,0,18.6,0c0-0.9,0-1.8,0-2.7c0-16.8,0-33.6,0-50.3c0-0.9,0.1-1.9,0.1-2.8l-0.1,0.1
		c6.1,0,12.1,0,18.5,0c0,25,0,49.6,0,74.6c12.5,0,24.8,0,37.2,0c0,12.5,0,24.8,0,37.1c-6.1,0-12.1,0-18.4,0c0-6.1,0-12.1,0-18.4
		c-6.3,0-12.3,0-18.6,0c0-6.3,0-12.3,0-18.6c-5.9,0-11.6-0.1-17.2,0.1c-0.5,0-1.4,1.4-1.4,2.2c-0.1,4.6-0.1,9.1-0.1,13.7
		c0,0.8,0,1.5,0,2.6c-1,0-1.9,0-2.7,0c-16.7,0-33.4,0-50.1,0c-3,0-3,0-3,3.1c0,5.1,0,10.2,0,15.4c0,0,0.1-0.1,0.1-0.1
		c-6.1,0-12.2,0-18.4,0c-0.1-5-0.2-10-0.3-15.1c0-1.1-0.1-2.1-0.2-3.3c-10.5,0-20.8,0-31,0c-6,0-6,0-6,6c0,4.1,0,8.3,0,12.5
		c0.7,0.1,1.1,0.1,1.5,0.1c11.3,0,22.7,0,34,0c0.7,0,1.4-0.2,2.1-0.3c-0.1,1.2-0.3,2.3-0.3,3.5c0,5.1,0,10.2,0,15.4
		c-12.5,0-24.8,0-37.2,0c0-6.2,0-12.2,0-18.5c-5.6,0-11.1,0.1-16.5,0c-1.8,0-2.2,0.6-2.2,2.3c0.1,10.7,0,21.4,0,32.1
		C339.6,466.8,339.5,467.7,339.4,468.6C339.4,468.6,339.4,468.6,339.4,468.6z M432.7,375.7c0,5.9,0,11.6,0.1,17.4
		c0,0.4,1.2,1.2,1.8,1.2c5,0.1,10.1,0,15.1,0.1c1.4,0,1.7-0.6,1.7-1.9c-0.1-2.8,0-5.7,0-8.5c0-2.7,0-5.4,0-8.3
		C445,375.7,439.1,375.7,432.7,375.7z"/>
	<path d="M246.7,636.1c0-43.3,0-86.5,0-130c43.3,0,86.5,0,130,0c0,43.2,0,86.5,0,130C333.4,636.1,290.1,636.1,246.7,636.1z
		 M358.1,617.5c0-31.1,0-61.9,0-92.8c-31,0-61.9,0-92.8,0c0,31,0,61.9,0,92.8C296.3,617.5,327.1,617.5,358.1,617.5z"/>
	<path d="M376.7,375.4c-43.4,0-86.6,0-130,0c0-43.3,0-86.5,0-129.9c43.3,0,86.5,0,130,0C376.7,288.7,376.7,331.9,376.7,375.4z
		 M358.2,264c-31.1,0-62,0-92.9,0c0,31,0,61.9,0,92.8c31,0,61.9,0,92.9,0C358.2,325.9,358.2,295.1,358.2,264z"/>
	<path d="M637.4,245.5c0,43.3,0,86.5,0,129.9c-43.3,0-86.6,0-130,0c0-43.3,0-86.5,0-129.9C550.7,245.5,593.9,245.5,637.4,245.5z
		 M618.7,356.9c0-31.1,0-62,0-92.9c-31,0-61.9,0-92.7,0c0,31.1,0,62,0,92.9C556.9,356.9,587.7,356.9,618.7,356.9z"/>
	<path d="M432.5,505.9c0.1,6.4,0.3,12.7,0.3,19.1c0,17.5,0,34.9-0.2,52.4c0,2.5,0.8,3,3.1,3c5.1-0.1,10.2,0,15.5,0
		c0,6.3,0,12.3,0,18.7c-6.3,0-12.5,0-18.7,0c-5.2,0-10.4,0.1-15.6-0.1c-2.1-0.1-2.9,0.6-2.9,2.8c0.1,10.5,0,21,0,31.4
		c0,0.9,0,1.7,0,2.8c-6.2,0-12.3,0-18.5,0c0-18.5,0-37,0-55.7c6.2,0,12.3,0,18.4,0c0-6.3,0-12.3,0-18.6c-6.1,0-12.2,0-18.3,0
		c-0.1-0.9-0.1-1.6-0.1-2.3c0-23.3,0-46.6,0-69.9c0-0.7,0.1-1.4,0.2-2.1l0,0c6.2,0,12.3,0,18.5,0l-0.1-0.1c0,6.1,0,12.2,0,18.5
		C420.5,506,426.5,506,432.5,505.9C432.6,506,432.5,505.9,432.5,505.9z"/>
	<path d="M470.1,319.5c-6.2,0-12.4,0.1-18.6,0.1c0,0,0,0.1,0,0.1c0-2-0.1-4.1-0.1-6.1c0-9.5,0-19,0-28.6c0-1.1,0.4-2.5-1.6-2.5
		c-5,0-10.1,0-15.1,0c-1.6,0-2,1-2,2.5c0,4.9,0,9.8,0,14.6c0,6.7-0.1,13.4-0.1,20.1l0-0.1c-6.1,0-12.1,0-18.4,0c0-6.1,0-12.1,0-18.4
		c-6.3,0-12.3,0-18.5,0c0-6.3,0-12.4,0-18.8c6.1,0,12.2,0,18.4,0c0-12.4,0-24.6,0-37c6.2,0,12.2,0,18.5,0c0,6,0,12,0,18.2
		c6.4,0,12.4,0,18.8,0c0-6.1,0-12.1,0-18.3c12.4,0,24.6,0,37,0c0,6.1,0,12.1,0,18.5c-2.3,0-4.7,0-7.1,0c-3.1,0-6.1,0-9.2,0
		c-1.3,0-2.1,0.5-2.1,1.9c0,5.4,0,10.8,0,16.6c6.2,0,12.2,0,18.4,0c0,6.4,0,12.5,0,18.8c-5.1,0-10.1,0-15.2,0c-3.2,0-3.3,0-3.2,3.3
		C469.9,309.5,470,314.5,470.1,319.5C470,319.6,470.1,319.5,470.1,319.5z"/>
	<path d="M321,431.2c-0.9,0.1-1.9,0.2-2.8,0.2c-10.5,0-20.9,0-31.4,0c-2.9,0-3.1,0.2-3.1,3.1c0,5.1,0,10.2,0,15.5
		c-12.4,0-24.6,0-37,0c0-6.1,0-12.2,0-18.5c6.1,0,12.1,0,18.3,0c0-6.3,0-12.3,0-18.6c-6.1,0-12.1,0-18.3,0c0-6.3,0-12.3,0-18.5
		c18.5,0,37,0,55.7,0c0,6.1,0,12.2,0,18.5c6.4,0,12.5,0,18.6,0c0,0-0.1-0.1-0.1-0.1C320.9,418.9,320.9,425.1,321,431.2L321,431.2z"
		/>
	<path d="M618.9,599.1c0,6,0,12.1,0,18.4c6.2,0,12.2,0,18.4,0c0,6.3,0,12.4,0,18.7c-18.5,0-36.9,0-55.5,0c0-12.3,0-24.5,0-36.9
		c0.5-0.1,1-0.2,1.5-0.2c11.5,0,23,0,34.5,0C618.2,599.1,618.6,599.2,618.9,599.1C618.9,599.2,618.9,599.1,618.9,599.1z"/>
	<path d="M395.7,487.5c-5.9-0.1-11.8-0.1-17.7-0.1c-12.4,0-24.8,0-37.2,0c-0.3,0-0.6-0.1-1.4-0.2c0-6.2,0-12.4,0-18.5
		c0,0,0,0.1,0,0.1c18.6,0,37.3,0,56.3,0C395.7,475.1,395.7,481.3,395.7,487.5L395.7,487.5z"/>
	<path d="M637.4,450c-6.2,0-12.2,0-18.3,0c0-12.3,0-24.6,0-37.1c6.1,0,12.1,0,18.3,0C637.4,425.3,637.4,437.5,637.4,450z"/>
	<path d="M525.7,636.1c-6.1,0-12.2,0-18.3,0c0-12.4,0-24.6,0-37c6.2,0,12.2,0,18.3,0C525.7,611.5,525.7,623.8,525.7,636.1z"/>
	<path d="M451.5,319.6c0,6.1,0,12.3,0,18.6c-6.3,0-12.4,0-18.9,0c0-6.2,0-12.4,0-18.6c0,0,0,0.1,0,0.1
		C438.9,319.7,445.2,319.7,451.5,319.6L451.5,319.6z"/>
	<path d="M488.4,450c-6.2,0-12.1,0-18.3,0c0-6.1,0-12.2,0-18.4c6.1,0,12.1,0,18.3,0C488.4,437.7,488.4,443.7,488.4,450z"/>
	<path d="M581.3,412.6c0.1-3,0.2-5.9,0.3-8.9c0.1-3.1,0-6.1,0-9.3c6.3,0,12.4,0,18.6,0c0,6.1,0,12.1,0,18.2
		C593.8,412.6,587.5,412.6,581.3,412.6C581.3,412.6,581.3,412.6,581.3,412.6z"/>
	<path d="M470,598.9c0-6.2,0-12.2,0-18.3c6.1,0,12.2,0,18.4,0c0,6.1,0,12.2,0,18.3C482.3,598.9,476.2,598.9,470,598.9z"/>
	<path d="M563,580.5c0,6.2,0,12.2,0,18.4c-6.1,0-12.1,0-18.3,0c0-6.1,0-12.1,0-18.4C550.7,580.5,556.7,580.5,563,580.5z"/>
	<path d="M619.1,579.9c0.8,0.2,1.6,0.4,2.4,0.4c5.2,0,10.4,0,15.8,0c0,6.3,0,12.3,0,18.8c-6.2,0-12.3,0-18.4,0c0,0,0.1,0.1,0.1,0.1
		C619,592.8,619,586.3,619.1,579.9C619.1,579.9,619.1,579.9,619.1,579.9z"/>
	<path d="M470.1,617.7c6.2,0,12.1,0,18.3,0c0,6.2,0,12.2,0,18.5c-6.1,0-12.1,0-18.3,0C470.1,630,470.1,624,470.1,617.7z"/>
	<path d="M544.6,617.7c6.1,0,12.1,0,18.2,0c0,6.1,0,12.2,0,18.4c-6,0-12,0-18.2,0C544.6,630,544.6,624,544.6,617.7z"/>
	<path d="M283.9,543.3c18.6,0,37,0,55.5,0c0,18.6,0,37,0,55.6c-18.5,0-37,0-55.5,0C283.9,580.5,283.9,562,283.9,543.3z"/>
	<path d="M283.9,282.6c18.5,0,36.9,0,55.5,0c0,18.5,0,36.9,0,55.6c-18.5,0-36.9,0-55.5,0C283.9,319.7,283.9,301.2,283.9,282.6z"/>
	<path d="M600.1,338.3c-18.6,0-37,0-55.5,0c0-18.6,0-37,0-55.6c18.5,0,36.9,0,55.5,0C600.1,301.1,600.1,319.6,600.1,338.3z"/>
</g>
</svg>
