<?xml version="1.0" encoding="utf-8"?>
<!-- Generator: Adobe Illustrator 27.4.1, SVG Export Plug-In . SVG Version: 6.00 Build 0)  -->
<svg version="1.1" id="Capa_1" xmlns="http://www.w3.org/2000/svg" xmlns:xlink="http://www.w3.org/1999/xlink" x="0px" y="0px"
	 viewBox="0 0 1080 1080" style="enable-background:new 0 0 1080 1080;" xml:space="preserve">
<g>
	<path d="M305.7,396.8c2.8-9.1,6.3-17.9,13.5-24.6c9.7-9.2,21.5-12.7,34.7-12.7c145.6,0,291.1,0,436.7,0c0.9,0,1.7,0,2.6,0
		c18.5,0.7,32.8,8.5,40.9,25.4c2.7,5.7,4.4,12.6,4.4,19c0.4,44.6,0.3,89.2,0.1,133.8c-0.1,25-19.6,43.8-45.5,44.4
		c-7.6,0.2-15.3,0-22.9,0c-138.8,0-277.6,0-416.4,0c-19.5,0-34.6-7.6-43.7-25.4c-1.9-3.8-3-8-4.5-12
		C305.7,495.3,305.7,446,305.7,396.8z M572.2,559.3c72.9,0,145.7-0.2,218.6,0.2c13.6,0.1,25.8-8,25.6-25.7
		c-0.4-42.1-0.4-84.3,0-126.5c0.2-17.6-12.3-25.5-25.4-25.4c-145.9,0.3-291.8,0.3-437.7,0c-13.1,0-25.5,7.8-25.4,25.4
		c0.4,42.1,0.4,84.3,0,126.5c-0.2,17.7,12,25.8,25.7,25.7C426.5,559,499.4,559.3,572.2,559.3z"/>
	<path d="M505.6,451.2c0-4.9-0.1-9,0-13c0.1-6.8,4.4-11.5,10.5-12c5.8-0.4,10.9,4.2,11.5,10.9c0.4,4.3,0.1,8.6,0.1,14.1
		c4.2-2.4,7.4-4.3,10.7-6.1c6.8-3.7,13.6-2.3,16.8,3.3c3.3,5.9,1.2,12-5.6,16.2c-3.1,1.9-6.2,3.7-10.2,6c4.2,2.5,8.1,4.6,11.7,7
		c4.3,2.8,6.4,6.9,5.3,12c-1,4.6-4,8-8.7,8.4c-2.9,0.3-6.1-0.7-8.9-1.8c-3.4-1.4-6.6-3.6-10.4-5.8c-0.3,5.6-0.3,10.6-1,15.5
		c-1.1,7.3-8.8,11.2-15.4,8.1c-4-2-6.3-5.4-6.4-9.9c-0.1-4.3,0-8.7,0-14c-4.1,2.3-7.5,4.4-11.1,6.3c-6.3,3.4-12.8,2.2-16-3
		c-3.6-5.9-1.9-12.2,4.7-16.4c3.3-2.1,6.7-3.9,10.6-6.2c-4.8-3.1-9.2-5.5-13.1-8.5c-3.6-2.9-5-6.8-3.4-11.6c1.5-4.6,4.8-7.4,9.4-7.7
		c2.7-0.1,5.7,1.1,8.3,2.2C498.5,446.8,501.6,448.9,505.6,451.2z"/>
	<path d="M650.5,470.5c4.7,3,8.9,5.3,12.8,8.1c3.6,2.6,5.2,6.4,4.2,10.9c-1.1,4.9-4.2,8.2-9.1,8.7c-2.7,0.3-5.8-0.7-8.4-1.9
		c-3.6-1.6-6.9-3.8-11.1-6.3c0,4.6,0,8.5,0,12.4c-0.1,7.5-4.5,12.6-10.9,12.7c-6,0.1-10.8-4.7-11.4-11.8c-0.3-4.1-0.1-8.2-0.1-13.2
		c-4.1,2.3-7.2,4.1-10.4,5.9c-6.8,3.8-13.6,2.5-16.8-3c-3.5-6.1-1.3-12.3,5.7-16.5c3.1-1.9,6.2-3.6,10-5.9c-4-2.3-7.4-4.3-10.7-6.3
		c-6.4-4-8.4-10.2-5.2-15.9c3.1-5.5,9.8-7,16.3-3.6c3.3,1.8,6.6,3.7,10.5,6c0.3-5.5,0.3-10.5,1-15.3c1.1-7.3,8.6-11.4,15.2-8.3
		c4.3,2,6.5,5.6,6.6,10.4c0,4.3,0,8.5,0,13.6c3.8-2.1,6.9-3.9,10.1-5.6c7.3-4.1,13.7-3,17.2,2.8c3.6,6,1.3,12.3-6.2,16.7
		C657,466.8,654.1,468.5,650.5,470.5z"/>
	<path d="M383.1,470.6c-4.2-2.5-7.6-4.3-10.8-6.3c-6.2-3.9-8.2-10.5-5-16c3.3-5.6,9.7-6.9,16.3-3.4c3.3,1.8,6.6,3.7,10.7,6.1
		c0-4.5-0.1-8.2,0-11.9c0.2-7.7,4.8-13,11.2-13.1c6.4-0.1,11.1,5.2,11.4,12.9c0.1,3.6,0,7.3,0,11.9c4.4-2.4,8.1-4.6,12-6.6
		c4.4-2.3,8.7-2,12.6,1.2c3.5,2.9,5.1,7.1,3.4,11.2c-1.2,3-3.8,5.6-6.4,7.7c-2.9,2.3-6.4,3.9-10.1,6.1c4.8,3,9.1,5.5,13,8.4
		c3.9,2.9,4.7,7.2,3.4,11.7c-1.2,4.4-4.5,7.3-8.9,7.6c-2.7,0.2-5.7-0.8-8.3-2c-3.4-1.5-6.6-3.7-10.7-6c0,4.5,0.1,8.2,0,11.9
		c-0.2,7.7-4.8,13-11.2,13.1c-6.5,0.1-11.1-5.2-11.4-12.9c-0.1-3.6,0-7.3,0-11.9c-3.7,2.1-6.9,3.8-10.1,5.6
		c-6.9,3.9-13.5,2.8-16.8-2.8c-3.5-5.8-1.3-12.4,5.6-16.6C376.1,474.7,379.2,473,383.1,470.6z"/>
	<path d="M727.5,451c0-3.8,0-6.9,0-10c0-9.4,4.4-15.1,11.5-14.9c7,0.1,11.2,5.6,11.2,14.7c0,3.1,0,6.2,0,10.2
		c4-2.3,7.3-4.3,10.8-6.1c6.6-3.5,13-2.1,16.3,3.5c3.2,5.5,1.2,12-5.1,16c-3.2,2-6.5,3.8-10.6,6.2c4.3,2.6,8.1,4.7,11.8,7.1
		c4.3,2.9,6.1,7,5,12.1c-1,4.7-4.2,7.8-8.8,8.3c-2.7,0.3-5.8-0.7-8.4-1.8c-3.6-1.5-6.9-3.8-11-6.1c0,2.6,0,4.5,0,6.3
		c0,12.9-3.6,18.7-11.5,18.6c-7.8-0.1-11.2-5.7-11.2-18.3c0-1.9,0-3.8,0-6.6c-4,2.3-7.3,4.2-10.7,6.1c-6.5,3.6-13.1,2.2-16.3-3.4
		c-3.2-5.7-1.3-12,5-16c3.2-2,6.5-3.8,10.7-6.2c-4.3-2.6-8.1-4.7-11.7-7.1c-4.5-3-6.3-7.3-5-12.6c1.2-4.6,4.5-7.6,9.2-7.9
		c2.7-0.2,5.7,0.9,8.3,2C720.3,446.6,723.5,448.8,727.5,451z"/>
</g>
</svg>
