<?xml version="1.0" encoding="utf-8"?>
<!-- Generator: Adobe Illustrator 27.5.0, SVG Export Plug-In . SVG Version: 6.00 Build 0)  -->
<svg version="1.1" id="Capa_1" xmlns="http://www.w3.org/2000/svg" xmlns:xlink="http://www.w3.org/1999/xlink" x="0px" y="0px"
	 viewBox="0 0 368.5 371.6" style="enable-background:new 0 0 368.5 371.6;" xml:space="preserve">
<g>
	<path d="M27.5,8.2c70.1,0,140.1,0,210.2,0c4.5,1.8,5.8,5.3,5.8,9.9c-0.1,39.6-0.1,79.3-0.1,118.9c0,1.3,0,2.7,0,4.3
		c1.8,0,3.2,0,4.5,0c29.4,0,58.7,0,88.1,0c8.9,0,11.1,2.2,11.1,11c0,63.8,0,127.6,0,191.4c0,1.5,0,2.9,0,4.8c2.4,0,4.3,0,6.3,0
		c5.1,0.1,8.4,3,8.4,7.3c0.1,4.4-3.3,7.4-8.6,7.5c-0.5,0-0.9,0-1.4,0c-111.7,0-223.3,0-335,0.1c-4.6,0-8.1-1.3-10.1-5.6
		c0-1.2,0-2.3,0-3.5c2.6-7.1,8.9-5.5,14.7-5.9c0-1.8,0-3.4,0-5c0-108.2,0-216.4,0-324.5C21.4,14.1,22.3,10,27.5,8.2z M228.4,348.5
		c0-108.6,0-216.9,0-325.3c-64.1,0-127.9,0-191.9,0c0,108.5,0,216.7,0,325.2c19.6,0,39.1,0,59,0c0-1.4,0-2.6,0-3.8
		c0-15,0-30.1,0-45.1c0-7.6,2.5-10.1,10.2-10.1c17.8,0,35.6,0,53.4,0c7.9,0,10.4,2.5,10.4,10.3c0,14.9,0,29.8,0,44.7
		c0,1.3,0.1,2.7,0.2,4.1C189.5,348.5,208.9,348.5,228.4,348.5z M331.9,348.5c0-64.3,0-128.1,0-192.1c-29.6,0-58.8,0-88.2,0
		c0,64.2,0,128.1,0,192.1C273.3,348.5,302.5,348.5,331.9,348.5z M154.4,348.5c0-14.9,0-29.4,0-44c-14.7,0-29.2,0-43.9,0
		c0,14.8,0,29.4,0,44C125.3,348.5,139.7,348.5,154.4,348.5z"/>
	<path d="M95.2,259.8c-6.6,0-13.2,0-19.7,0c-6.7,0-9.6-2.8-9.6-9.4c-0.1-13.5-0.1-27,0-40.5c0-6.5,2.8-9.3,9.3-9.3
		c13.5-0.1,27-0.1,40.5,0c6.6,0,9.4,2.8,9.4,9.6c0,13.4,0,26.8,0,40.2c0,6.7-2.8,9.4-9.5,9.5C108.8,259.9,102,259.8,95.2,259.8z
		 M80.9,215.6c0,9.9,0,19.5,0,29c9.8,0,19.5,0,29.1,0c0-9.8,0-19.3,0-29C100.2,215.6,90.7,215.6,80.9,215.6z"/>
	<path d="M95.4,111.8c-6.9,0-13.9,0.1-20.8,0c-5.9-0.1-8.7-2.8-8.8-8.7c-0.1-13.9-0.1-27.7,0-41.6c0-6,3-8.8,9-8.8
		c13.7,0,27.5,0,41.2,0c6,0,8.9,2.8,8.9,8.9c0.1,13.7,0.1,27.5,0,41.2c0,6.3-2.8,8.9-9.2,9C109.1,111.8,102.2,111.8,95.4,111.8z
		 M81,67.6c0,10,0,19.6,0,29.3c9.8,0,19.3,0,29,0c0-9.8,0-19.4,0-29.3C100.3,67.6,90.8,67.6,81,67.6z"/>
	<path d="M95.6,126.7c6.8,0,13.6,0,20.4,0c6.1,0.1,9,2.7,9,8.8c0.1,13.7,0.1,27.5,0,41.2c0,6.3-2.9,9-9.2,9c-13.6,0-27.2,0-40.9,0
		c-6.3,0-9.1-2.8-9.2-9.1c-0.1-13.7-0.1-27.5,0-41.2c0-6.1,2.8-8.8,9-8.8C81.8,126.6,88.7,126.7,95.6,126.7z M81,141.6
		c0,9.9,0,19.5,0,29.3c9.8,0,19.3,0,29,0c0-9.8,0-19.5,0-29.3C100.3,141.6,90.8,141.6,81,141.6z"/>
	<path d="M199,230.4c0,6.8,0,13.6,0,20.4c-0.1,6.1-2.8,8.9-8.9,9c-13.7,0.1-27.5,0.1-41.2,0c-6.3,0-9-2.9-9-9.2
		c0-13.6,0-27.2,0-40.9c0-6.3,2.8-9.1,9.1-9.2c13.6-0.1,27.2-0.1,40.9,0c6.5,0,9.1,2.8,9.2,9.4C199,216.8,199,223.6,199,230.4z
		 M184.1,215.6c-9.8,0-19.4,0-29.2,0c0,9.8,0,19.4,0,29c9.9,0,19.5,0,29.2,0C184.1,234.9,184.1,225.3,184.1,215.6z"/>
	<path d="M199,82.2c0,6.9,0.1,13.9,0,20.8c-0.1,6-2.7,8.7-8.7,8.7c-13.9,0.1-27.7,0.1-41.6,0c-6.2,0-8.9-2.8-8.9-8.9
		c0-13.7,0-27.5,0-41.2c0-6.1,2.8-8.9,8.9-8.9c13.7,0,27.5,0,41.2,0c6.2,0,8.9,2.7,9,8.8C199.1,68.4,199,75.3,199,82.2z M154.9,67.6
		c0,10.1,0,19.7,0,29.2c9.9,0,19.6,0,29.1,0c0-9.9,0-19.5,0-29.2C174.2,67.6,164.6,67.6,154.9,67.6z"/>
	<path d="M199,156.3c0,6.9,0.1,13.9,0,20.8c-0.1,5.9-2.8,8.7-8.7,8.8c-13.9,0-27.7,0-41.6,0c-6,0-8.8-2.9-8.8-9
		c0-13.7,0-27.5,0-41.2c0-6.1,2.7-8.9,8.9-8.9c13.7-0.1,27.5-0.1,41.2,0c6.4,0,8.9,2.7,8.9,9.1C199,142.6,199,149.4,199,156.3z
		 M154.9,141.5c0,9.9,0,19.6,0,29.3c9.9,0,19.5,0,29.2,0c0-9.9,0-19.5,0-29.3C174.3,141.5,164.7,141.5,154.9,141.5z"/>
	<path d="M287.9,244.9c-6.8,0-13.6,0-20.4,0c-6.5,0-9.1-2.6-9.1-8.9c0-13.7-0.1-27.5,0-41.2c0-6.3,2.8-8.9,9.2-8.9
		c13.5,0,27,0,40.5,0c6.7,0,9.4,2.7,9.4,9.5c0,13.4,0,26.8,0,40.2c0,6.8-2.6,9.4-9.4,9.4C301.3,245,294.6,244.9,287.9,244.9z
		 M302.4,230.1c0-9.8,0-19.5,0-29.3c-9.9,0-19.5,0-29.2,0c0,9.9,0,19.5,0,29.3C283.1,230.1,292.6,230.1,302.4,230.1z"/>
	<path d="M258.3,289.5c0-6.9,0-13.9,0-20.8c0.1-6.2,2.7-8.9,8.9-8.9c13.7-0.1,27.5-0.1,41.2,0c6.4,0,9,2.7,9,9.1
		c0,13.6,0,27.2,0,40.9c0,6.3-2.8,9.1-9.1,9.1c-13.6,0-27.2,0-40.9,0c-6.4,0-9.1-2.7-9.1-9C258.3,303.1,258.3,296.3,258.3,289.5z
		 M273.2,304c9.9,0,19.5,0,29.3,0c0-9.9,0-19.5,0-29.2c-9.9,0-19.5,0-29.3,0C273.2,284.5,273.2,294.1,273.2,304z"/>
</g>
</svg>
