<?xml version="1.0" encoding="utf-8"?>
<!-- Generator: Adobe Illustrator 27.5.0, SVG Export Plug-In . SVG Version: 6.00 Build 0)  -->
<svg version="1.1" id="Capa_1" xmlns="http://www.w3.org/2000/svg" xmlns:xlink="http://www.w3.org/1999/xlink" x="0px" y="0px"
	 viewBox="0 0 335 76.6" style="enable-background:new 0 0 335 76.6;" xml:space="preserve">
<g>
	<path d="M72.9,6.7c0.9,0.1,1.8,0.2,2.6,0.5c0.3,0.1,0.5,0.1,0.8,0.1c1.9,0.4,3.8,0.8,5.7,1.3c1.4,0.4,2.8,0.7,4.3,1.1
		c1.1,0.3,2.2,0.6,3.4,1c0.8,0.2,1.6,0.5,2.4,0.8c0.4,0.1,0.8,0.2,1.1,0.3c0.5,0.2,1.1,0.4,1.6,0.6c1.2,0.3,2.3,0.7,3.5,1.1
		c1,0.4,2.1,0.7,3.1,1.2c1,0.4,2,0.8,3,1.2c1.8,0.7,3.6,1.5,5.4,2.3c1.5,0.7,3.1,1.4,4.6,2.2c1.1,0.5,2.1,1.2,3.2,1.7
		c0,0,0,0.1,0,0.1c-0.9-0.4-1.7-0.8-2.6-1.2c-0.6-0.3-1.3-0.5-1.9-0.8c-0.6-0.2-1.1-0.5-1.7-0.7c-1.1-0.4-2.2-0.8-3.2-1.2
		c-1.8-0.6-3.5-1.2-5.3-1.8c-0.9-0.3-1.9-0.6-2.8-0.9c-1.1-0.3-2.2-0.7-3.2-1c-1-0.3-1.9-0.6-2.9-0.9c-0.8-0.2-1.5-0.5-2.3-0.7
		c-0.9-0.3-1.9-0.5-2.8-0.8c-1-0.3-2-0.5-3-0.8c-2.9-0.7-5.7-1.3-8.7-1.8c-2.2-0.4-4.4-0.7-6.6-1c-2.3-0.3-4.6-0.5-6.9-0.6
		c-0.5,0-1-0.1-1.5-0.1c-0.1,0-0.2,0-0.3,0c-2.1-0.1-4.2-0.1-6.4-0.1c-1.6,0-3.3,0.1-4.9,0.3c-1.7,0.2-3.4,0.4-5.1,0.7
		c-2.8,0.5-5.6,1.1-8.2,2.1c-2.9,1.1-5.6,2.5-7.9,4.6c-1.3,1.2-2.4,2.5-3.1,4.1c-0.8,1.9-1.1,3.9-0.9,6c0.2,1.1,0.4,2.2,0.8,3.3
		c0,0.1,0,0.1,0.1,0.1c0.9,2.7,2.5,4.9,4.2,7.1c0.4,0.5,0.9,1.1,1.3,1.6c0.2,0.2,0.2,0.4,0.4,0.5c0,0.1,0.1,0.2,0.2,0.2
		c0,0.2,0.2,0.3,0.3,0.4c0.5,0.5,0.9,1,1.5,1.4c0.5,0.4,0.9,0.9,1.4,1.4c0,0-0.1,0.1-0.1,0.1c-0.4-0.2-0.8-0.6-1.2-0.9
		c-3-2.4-5.7-5-8.2-8c-1.7-2.1-3.2-4.4-4.2-7c-0.8-2-1.1-4.1-1-6.3c0.1-1.1,0.3-2.2,0.7-3.2c0.5-1.1,1.1-2.3,2-3.2
		c0.3-0.4,0.7-0.7,1-1c1.6-1.6,3.4-2.8,5.5-3.7c0.8-0.4,1.6-0.7,2.4-1c0.7-0.3,1.4-0.5,2.1-0.7c1.4-0.4,2.8-0.8,4.2-1
		c2.4-0.5,4.8-0.8,7.3-1c2.3-0.2,4.7-0.3,7-0.3c2.4,0,4.7,0.1,7.1,0.3c1.9,0.1,3.8,0.3,5.7,0.5c2,0.2,3.9,0.5,5.9,0.9
		c0.3,0,0.5,0.1,0.8,0.1C72.7,6.8,72.8,6.7,72.9,6.7z"/>
	<path d="M99.9,55.4c0,0.1,0,0.1,0.1,0.1c0.1,0.1,0.2,0.2,0.3,0.2c0.1,0.3,0.4,0.3,0.6,0.4c1.8,1.4,3.7,2.8,5.5,4.2
		c0,0.1,0,0.1,0.1,0.1c1.2,0.9,2.4,1.9,3.7,2.8c0.9,0.7,1.8,1.4,2.8,2.1c0.1,0.1,0.1,0.2,0.2,0.2l0,0l0,0c0-0.1,0-0.1,0-0.2
		c0-0.6,0-1.2,0-1.8c0-0.1,0-0.2,0-0.4c0-2.9,0-5.9,0-8.8c0-0.1,0-0.2,0-0.4c0-0.3,0-0.6,0-0.9c0-0.3,0.1-0.5,0.5-0.5
		c0.2,0,0.4,0,0.6,0c1.2,0,2.4,0,3.6,0c0.1,0,0.1,0,0.2,0c0.5,0,0.6,0.1,0.6,0.6c0,0.1,0,0.2,0,0.3c0,6.1,0,12.2,0,18.3
		c0,0.5-0.1,0.7-0.7,0.7c-1.2,0-2.3,0-3.5,0c-0.4,0-0.7-0.2-1-0.4c-1.3-1-2.5-1.9-3.8-2.9c-2.8-2.2-5.6-4.3-8.5-6.5
		c-1.7-1.3-3.4-2.6-5.1-3.9c-0.1-0.1-0.3-0.2-0.4-0.3c-0.2,0.1-0.1,0.2-0.1,0.3c0,4.2,0,8.4,0,12.6c0,0.4,0,0.7-0.2,1
		c0-0.1,0.1,0,0,0c0,0-0.1,0,0,0c0,0.1,0,0,0,0c-0.2,0.1-0.4,0.1-0.6,0.1c-1.3,0-2.6,0-4,0c0,0-0.1,0-0.1,0c-0.5,0-0.6-0.1-0.6-0.6
		c0-0.2,0-0.4,0-0.7c0-5.8,0-11.7,0-17.5c0-0.1,0-0.3,0-0.4c0-0.4,0.2-0.6,0.5-0.6c0.1,0,0.1,0,0.2,0c1.7,0,3.5,0,5.2,0
		c0.1,0.2,0.3,0.2,0.5,0.3l0,0c0.1,0.1,0.2,0.2,0.3,0.2c0.3,0.3,0.7,0.5,1,0.8c0.1,0.1,0.2,0.2,0.3,0.2c0,0.1,0,0.1,0.1,0.1
		c0.1,0.1,0.2,0.2,0.3,0.2c0.2,0.3,0.5,0.5,0.8,0.6c0,0.1,0,0.1,0.1,0.1c0,0.1,0.1,0.1,0.1,0.1C99.7,55.3,99.8,55.4,99.9,55.4z"/>
	<path d="M194.9,56.2c0,0.1,0.1,0.1,0.1,0.1c0.1,0.1,0.2,0.2,0.3,0.2c0,0.1,0,0.1,0.1,0.1c0.1,0.1,0.2,0.2,0.3,0.2
		c0.1,0.1,0.1,0.2,0.2,0.2c0,0.1,0.1,0.2,0.3,0.2c0,0.2,0.2,0.2,0.3,0.2c0,0.1,0,0.1,0.1,0.1c0.3,0.3,0.7,0.6,1,0.8
		c0,0.1,0.1,0.2,0.3,0.2c0,0.1,0.1,0.1,0.1,0.1c0.1,0.1,0.2,0.2,0.3,0.2c0.3,0.3,0.7,0.6,1.1,0.8c0.1,0.1,0.1,0.2,0.3,0.2
		c0,0.1,0.1,0.1,0.1,0.1c0.1,0.1,0.2,0.2,0.3,0.2c0.3,0.3,0.7,0.6,1,0.8c0.1,0.1,0.2,0.2,0.3,0.2c0,0.1,0,0.1,0.1,0.1
		c0.1,0.1,0.2,0.2,0.3,0.2c0.3,0.3,0.7,0.6,1.1,0.8c0,0.1,0.1,0.2,0.3,0.2c0.2,0.4,0.7,0.4,0.9,0.7c0,0.1,0,0.1,0.1,0.1
		c0.2,0.1,0.2,0.3,0.4,0.3c0.1,0.1,0.2,0.2,0.3,0.2c0,0.1,0,0.1,0.1,0.1c0.1,0.1,0.2,0.2,0.3,0.2c0.2,0.3,0.5,0.5,0.8,0.6
		c0,0.1,0,0.1,0.1,0.1c0.2,0.2,0.4,0.5,0.8,0.5c0.1,0.1,0.2,0.2,0.2,0c0-0.6,0-1.1,0-1.7c0-3.4,0-6.8,0-10.1c0-0.8-0.1-1,1-1
		c1.2,0,2.4,0,3.6,0c0.1,0,0.2,0,0.4,0c0.3,0.1,0.4,0.2,0.4,0.5c0,0.3,0,0.6,0,0.9c0,5.5,0,11.1,0,16.6c0,0.4,0,0.9,0,1.3
		c0,0.2,0,0.4-0.2,0.5c-0.1,0-0.1,0-0.1,0.1c-1.3,0.1-2.7,0-4,0c-0.3,0-0.5-0.1-0.7-0.3c-1.9-1.4-3.7-2.8-5.6-4.3
		c-1.3-1-2.6-2-3.9-3c-1.9-1.4-3.7-2.9-5.5-4.3c-0.9-0.7-1.8-1.4-2.7-2.1c0,0,0-0.1-0.1-0.1c0,0-0.1,0-0.1,0.1c-0.1,0.2,0,0.5,0,0.7
		c0,4.1,0,8.2,0,12.3c0,0.1,0,0.1,0,0.2c0,0.6-0.1,0.7-0.8,0.7c-1.2,0-2.4,0-3.6,0c-0.2,0-0.4,0-0.6,0c-0.4,0-0.5-0.1-0.5-0.5
		c0-0.2-0.1-0.5-0.1-0.7c0-5.7,0-11.4,0-17.2c0-0.4,0-0.7,0.1-1.1c0-0.2,0.1-0.3,0.3-0.4c0.2-0.1,0.5-0.1,0.7-0.1c1.4,0,2.8,0,4.2,0
		c0.5,0,0.9,0.3,1.4,0.5c0.5,0.3,1,0.6,1.4,1c0.5,0.5,1.2,0.8,1.7,1.3c0.2,0.2,0.6,0.3,0.8,0.6C194.7,56.1,194.8,56.2,194.9,56.2z"
		/>
	<path d="M85,65.6c-0.1,0.2-0.2,0.5-0.3,0.7c-0.1,0-0.2,0.1-0.2,0.3c-0.1,0.1-0.1,0.2-0.2,0.3C84.1,67,84,67.1,84,67.3
		c-0.1,0-0.1,0.1-0.1,0.1c-0.1,0-0.2,0.1-0.2,0.3c-0.1,0.1-0.2,0.2-0.3,0.3c-0.3,0.2-0.6,0.5-0.8,0.8c-0.2,0.2-0.5,0.4-0.7,0.6
		c-0.1,0-0.1,0-0.1,0.1c-0.1,0-0.2,0-0.2,0.1c-0.1,0-0.1,0-0.1,0.1c-0.1,0.1-0.2,0-0.2,0.1c-0.1,0-0.1,0-0.1,0.1
		c-0.1,0-0.2,0-0.2,0.1c-0.1,0-0.1,0-0.1,0.1c0,0-0.1,0-0.1,0c-0.1,0-0.1,0-0.1,0.1c0,0-0.1,0-0.1,0c-0.1,0-0.1,0-0.1,0.1
		c-0.6,0.3-1.1,0.6-1.7,0.8c-1.4,0.6-2.9,1.1-4.5,1.3c-2.7,0.5-5.3,0.5-8,0.3c-2-0.2-3.9-0.5-5.8-1.2c-2.3-0.8-4.3-2-5.8-3.9
		c-1-1.2-1.6-2.6-1.8-4.1c-0.3-2.2,0.2-4.2,1.6-6c1-1.4,2.4-2.4,3.9-3.2c2.1-1.1,4.3-1.7,6.6-2c1.9-0.3,3.8-0.4,5.7-0.3
		c0.4,0,0.7,0.1,1.1,0.1c0.1,0,0.2,0.1,0.3,0c1.4,0.2,2.7,0.3,4,0.7c1,0.3,2,0.6,3,1c0,0.1,0,0.1,0.1,0.1c1.2,0.5,2.3,1.1,3.2,2.1
		c0.4,0.4,0.8,0.8,1.2,1.2c0,0.1,0.1,0.2,0.2,0.3c0.2,0.3,0.3,0.5,0.5,0.7c0,0.2,0,0.2,0.2,0.3c0.1,0.2,0.1,0.4,0.2,0.5
		c0,0.1,0,0.1,0.1,0.1c0,0,0.1,0.1,0.1,0.1c-0.1,0.2,0,0.3,0.1,0.4c0,0.1,0,0.1,0,0.2c0,0.1,0,0.1,0.1,0.1c0,0,0,0.1,0.1,0.1
		c0,0.1-0.1,0.2,0.1,0.2c0,0.1,0,0.1,0,0.2c0,0.1,0,0.1,0.1,0.1c0,0.1,0,0.2,0,0.3c0,0.1,0,0.2,0.1,0.2c0.1,0.5,0.1,1,0.1,1.5
		c0,0.7-0.1,1.5-0.3,2.2c-0.1,0-0.1,0-0.1,0.1c0,0.1,0,0.1,0,0.2c-0.1,0.1-0.2,0.2-0.1,0.4C85.1,65.5,85.1,65.5,85,65.6
		C85,65.5,85,65.6,85,65.6z M60.1,61.1c0,0.1,0,0.2,0,0.3c-0.1,1.2-0.1,2.4,0.3,3.5c0.3,1.1,0.9,2.1,1.8,2.9
		c1.3,1.2,2.9,1.9,4.6,2.1c0.3,0,0.6,0,0.8,0.2l0,0c0.3-0.2,0.5-0.1,0.8,0.1l0,0c0.2-0.2,0.3-0.1,0.5-0.1c1.1,0,2.3-0.1,3.4-0.4
		c0.5-0.1,1-0.3,1.5-0.6c0.8-0.3,1.5-0.7,2.1-1.3c1.1-0.9,1.8-2.2,2.1-3.6c0.3-1.5,0.4-2.9-0.1-4.4c-0.3-1.1-0.8-2-1.6-2.8
		c-0.9-0.9-2-1.5-3.2-1.9c-0.7-0.3-1.4-0.4-2.2-0.5c-1.6-0.3-3.2-0.2-4.8,0.2c-1.1,0.2-2.1,0.7-3.1,1.3c-0.1,0-0.1,0-0.1,0.1
		c-0.3,0-0.4,0.2-0.6,0.4c-0.5,0.4-1.1,0.9-1.4,1.6c-0.1,0-0.2,0.1-0.2,0.3c-0.1,0.1-0.2,0.2-0.2,0.4c-0.1,0-0.1,0.1-0.1,0.2
		c0,0,0,0.1-0.1,0.1c-0.1,0-0.1,0-0.1,0.1c0,0.1,0,0.1,0,0.2c-0.1,0-0.1,0-0.1,0.1c-0.1,0.4-0.1,0.8-0.2,1.1
		C60.1,60.8,60.1,60.9,60.1,61.1z"/>
	<path d="M253.4,64.1c-0.1,0-0.2,0-0.2,0.2c0,0.2,0,0.4,0,0.7c0,2.1,0,4.1,0,6.2c0,0.2,0,0.3,0,0.5c0,0.6-0.2,0.8-0.8,0.8
		c-1.8,0-3.6,0-5.3,0c-0.6,0-0.7-0.2-0.8-0.8c0-0.3,0-0.6,0-0.9c0-5.4,0-10.8,0-16.1c0-0.5,0-0.9,0.1-1.4c0-0.2,0.1-0.3,0.3-0.3
		c0.6-0.2,1.2-0.2,1.7-0.3c1.6-0.1,3.1-0.2,4.7-0.2c0.7,0,1.4,0,2-0.1c1.5,0,3.1,0,4.6,0.1c1,0.1,2,0.2,3,0.3
		c1.5,0.3,2.9,0.6,4.3,1.3c0.7,0.4,1.4,0.9,1.9,1.5c0.7,0.9,1,2,0.7,3.2c-0.1,0-0.1,0-0.1,0.1c0,0.1,0,0.1,0,0.2
		c-0.1,0-0.1,0-0.1,0.1c0,0.1-0.1,0.2-0.1,0.3c-0.1,0-0.2,0.1-0.2,0.3c-0.2,0.1-0.3,0.4-0.5,0.6c-0.3,0.3-0.7,0.5-1,0.8
		c-0.1,0-0.1,0-0.1,0.1c-0.2,0-0.3,0.1-0.4,0.2c-0.1,0-0.1,0-0.1,0.1c0,0-0.1,0-0.1,0c-0.1,0-0.1,0-0.1,0.1
		c-0.4,0.1-0.8,0.4-1.2,0.5c-0.2,0.1-0.5,0.2-0.7,0.2c-0.1,0-0.1,0-0.1,0.1c-0.4,0-0.7,0.3-1.1,0.3c-0.5,0.1-1,0.2-1.6,0.4
		c-0.1,0-0.2,0-0.2,0c0,0.1,0.1,0.2,0.2,0.1c0.3,0.3,0.5,0.7,0.9,0.9c0.1,0.2,0.2,0.3,0.4,0.3c0.1,0.1,0.2,0.3,0.3,0.3
		c0,0.2,0.2,0.2,0.3,0.2c0.4,0.5,0.9,0.9,1.4,1.3c0.3,0.3,0.6,0.6,1,0.9c0,0,0.1,0.1,0.2,0.1c0,0.2,0.2,0.2,0.3,0.2
		c0.3,0.4,0.7,0.7,1.1,1c0,0.2,0.2,0.2,0.3,0.2c0.3,0.4,0.7,0.7,1.1,1c0.1,0.2,0.2,0.3,0.4,0.3c0.3,0.4,0.7,0.6,1,0.9
		c0,0.1,0.1,0.2,0.3,0.2c0,0.1,0.1,0.2,0.2,0.2c0.1,0.2,0.2,0.3,0.4,0.4c0,0.1,0,0.2,0,0.2c-0.1,0-0.1,0.1-0.1,0.2
		c-0.3,0.2-0.5,0.1-0.8,0.1c-1.9,0-3.8,0-5.7,0c-0.5,0-0.9-0.1-1.2-0.5c-0.9-0.8-1.7-1.6-2.6-2.4c-1.1-1-2.1-2.1-3.3-3
		c-0.3-0.2-0.6-0.5-0.9-0.7c-0.2-0.3-0.4-0.5-0.7-0.7c-0.4-0.4-0.8-0.8-1.4-1C254.6,64,254,63.8,253.4,64.1
		C253.4,64,253.4,64.1,253.4,64.1z M253.2,58.4C253.2,58.4,253.2,58.4,253.2,58.4c0,1.1,0,2.3,0,3.4c0,0.3,0.1,0.4,0.3,0.3
		c0.8,0,1.5,0,2.3,0c1.2,0,2.4-0.1,3.6-0.5c0.7-0.2,1.5-0.5,2.1-1c1.7-1.2,1.5-3.3,0.4-4.4c-0.7-0.7-1.6-1.1-2.6-1.3
		c-1.9-0.5-3.9-0.3-5.8-0.3c-0.3,0-0.3,0.2-0.3,0.4C253.2,56.1,253.2,57.2,253.2,58.4z"/>
	<path d="M297.7,68c-0.8,0.7-1.5,1.4-2.3,2.1c-0.7,0.6-1.3,1.2-1.9,1.8c-0.3,0.3-0.7,0.5-1.2,0.5c-1.1,0-2.2,0-3.3,0
		c-0.2,0-0.4,0-0.5-0.1c-0.2-0.1-0.3-0.3-0.1-0.5c0.1-0.1,0.2-0.3,0.4-0.4c1.3-1.3,2.6-2.7,4-4c1.7-1.6,3.3-3.3,4.9-4.9
		c0.2-0.2,0.3-0.3,0-0.5c-0.9-1-1.8-2-2.7-3c-0.8-0.8-1.5-1.7-2.3-2.5c-0.4-0.4-0.8-0.9-1.2-1.3c-0.2-0.2-0.4-0.4-0.5-0.6
		c-0.2-0.4-0.6-0.6-0.9-0.9c-0.2-0.2-0.3-0.5-0.5-0.8c-0.1-0.2-0.1-0.3,0.1-0.3c0.1,0,0.2,0,0.4,0c1.6,0,3.2,0,4.8,0
		c0.5,0,1,0.2,1.4,0.5c0.8,0.8,1.7,1.6,2.5,2.4c1,0.9,1.9,1.8,2.9,2.7c0.3,0.2,0.3,0.2,0.5,0c0.6-0.6,1.2-1.2,1.9-1.7
		c0.2-0.1,0.4-0.3,0.5-0.5c0.8-1,1.8-1.7,2.7-2.6c0.3-0.2,0.5-0.5,0.9-0.7c0.2-0.1,0.5-0.2,0.8-0.2c1.3,0,2.7,0,4,0
		c0.2,0,0.4,0,0.6,0.1c0.3,0.2,0.3,0.3,0.2,0.6c-0.1,0.1-0.2,0.2-0.2,0.3c-1.4,1.3-2.7,2.6-4.1,3.9c-0.9,0.9-1.8,1.7-2.8,2.6
		c-0.5,0.4-1,0.9-1.5,1.3c-0.3,0.2-0.3,0.3,0,0.5c1.1,1,2.2,2.1,3.3,3.2c1.6,1.6,3.2,3.2,4.8,4.7c0.6,0.6,1.2,1.2,1.9,1.9
		c0.1,0.1,0.4,0.3,0.2,0.6c-0.1,0.3-0.4,0.3-0.6,0.3c-1.9,0-3.9,0-5.8,0c-0.4,0-0.8-0.2-1.1-0.5c-0.5-0.4-0.9-0.9-1.4-1.3
		c-0.1-0.2-0.2-0.3-0.4-0.4c-0.7-0.8-1.5-1.4-2.2-2.1c-0.3-0.3-0.6-0.6-0.9-0.8c-0.1-0.2-0.3-0.4-0.5-0.5c-0.4-0.5-0.9-1-1.5-1.5
		c-0.1-0.1-0.2-0.1-0.2,0c-0.2,0.1-0.3,0.3-0.4,0.4c-0.2,0-0.2,0.2-0.3,0.3c-0.6,0.5-1.1,1-1.7,1.6C297.9,67.8,297.8,67.9,297.7,68z
		"/>
	<path d="M30,59.4c-0.1,0.2-0.1,0.3-0.1,0.5c-0.1,0.1-0.2,0.1-0.2,0.3c0,0.6-0.1,1.3,0,1.9c0,0-0.1,0-0.1,0c0,0,0.1,0,0.1,0
		c0,0.1,0.1,0.3,0.1,0.4c-0.1,0.1-0.1,0.2,0,0.2c0,0.1,0,0.1,0,0.2c0,0.1-0.1,0.2,0.1,0.2c0,0.1,0,0.1,0,0.2c0,0.3,0.1,0.5,0.3,0.7
		c0,0.1,0,0.2,0.1,0.3c0.2,0.4,0.4,0.8,0.7,1.2c0,0.1,0.1,0.2,0.2,0.3c0,0.1,0.1,0.2,0.2,0.2c0,0.1,0.1,0.2,0.2,0.2
		c0.1,0.2,0.2,0.4,0.4,0.5c0.1,0.2,0.2,0.2,0.4,0.3c0.3,0.4,0.7,0.6,1.1,0.8c0.1,0.2,0.2,0.2,0.4,0.3c0.3,0.1,0.6,0.3,0.9,0.4
		c0.1,0.1,0.2,0.2,0.3,0.1c0.1,0.1,0.3,0.1,0.4,0.2c0.1,0.1,0.2,0.1,0.3,0.1c0,0,0.1,0,0.1,0c0,0.1,0.1,0.1,0.2,0.1
		c0.1,0,0.1,0,0.2,0c0,0.1,0.1,0.1,0.2,0.1c0.1,0,0.1,0,0.2,0c0,0.1,0.1,0.1,0.2,0.1c0.1,0,0.1,0,0.2,0c0,0.1,0.1,0.1,0.2,0.1
		c0.1,0,0.1,0,0.2,0c0,0.1,0.1,0.1,0.2,0.1c0.4,0,0.8-0.1,1.1,0.2c0,0,0,0,0,0c0.1-0.1,0.2-0.1,0.4-0.1c1.4,0.1,2.7,0.1,4-0.1
		c0.1,0.1,0.2,0.1,0.2,0c0.8-0.1,1.6-0.4,2.4-0.6c0.3-0.1,0.6-0.2,1-0.4c0.1-0.1,0.3-0.1,0.4-0.1c0.1,0,0.1,0,0.1-0.1
		c0.1,0,0.1,0,0.2,0c0.1,0,0.1,0,0.1-0.1c0.6-0.3,1.3-0.2,2-0.2c0.1,0.1,0.1,0.2,0.3,0.2c0.1,0.1,0.2,0.2,0.3,0.2
		c0.3,0.3,0.4,0.6,0.1,0.9c-0.3,0.3-0.6,0.6-0.9,0.9c-0.1,0-0.1,0-0.1,0.1c-0.2,0-0.3,0.1-0.4,0.2c-0.1,0-0.1,0-0.1,0.1
		c0,0-0.1,0-0.1,0c-0.1,0-0.1,0-0.1,0.1c0,0-0.1,0-0.1,0c-0.1,0-0.1,0-0.1,0.1c-0.2,0-0.4,0.2-0.6,0.2c-0.1,0-0.1,0-0.1,0.1
		c-1.2,0.5-2.3,0.8-3.6,1c-2.4,0.4-4.9,0.5-7.3,0.3c-1.9-0.1-3.7-0.4-5.5-0.8c-1.8-0.5-3.5-1.2-5.1-2.3c-1.7-1.2-3-2.8-3.6-4.8
		c-0.8-2.5-0.4-4.9,1.1-7.1c1-1.4,2.3-2.4,3.8-3.2c2-1.1,4.1-1.7,6.3-2c1.7-0.3,3.5-0.4,5.2-0.4c1.7,0,3.3,0.1,4.9,0.5
		c1.5,0.3,3,0.6,4.4,1.2c0.6,0.3,1.2,0.6,1.7,1c0.2,0.2,0.5,0.4,0.6,0.7c0.4,0.6,0.3,1.2-0.3,1.7c-0.5,0.4-1,0.6-1.6,0.6
		c-0.6,0.1-1.2,0.1-1.8,0c-0.9-0.1-1.6-0.5-2.2-1c-0.4-0.3-0.8-0.6-1.2-0.9c-1.2-0.8-2.6-1.3-4-1.4c-1.6-0.1-3.2,0-4.7,0.5
		c-0.8,0.3-1.6,0.6-2.3,1.1c-0.1,0-0.1,0-0.1,0.1c-0.1,0-0.3,0-0.3,0.2c-0.1,0-0.1,0-0.1,0.1l0,0c-0.2,0.1-0.3,0.1-0.4,0.3
		c-0.2,0.1-0.4,0.3-0.5,0.5c-0.2,0.1-0.3,0.2-0.3,0.4c-0.1,0.1-0.2,0.2-0.2,0.3c-0.1,0-0.2,0.1-0.2,0.3c-0.1,0.1-0.2,0.2-0.2,0.4
		c-0.1,0-0.1,0.1-0.1,0.2c0,0.1-0.2,0.1-0.1,0.2C30,59.2,29.8,59.3,30,59.4z"/>
	<path d="M131,59.9c-0.1,0.8-0.2,1.6-0.1,2.4c0,0-0.1,0-0.1,0c0,0,0,0,0.1,0c0.1,0.3,0.1,0.6,0.1,0.9c0,0.1,0,0.2,0.1,0.2
		c0,0.1,0,0.1,0,0.2c0,0.1,0,0.1,0.1,0.1c0,0,0,0.1,0.1,0.1c-0.1,0.2,0,0.3,0.1,0.4c0,0,0,0.1,0.1,0.1c-0.1,0.2,0,0.3,0.2,0.4
		c0,0.1,0,0.2,0.1,0.2c0,0.1,0.1,0.2,0.2,0.3c0,0.1,0,0.2,0.1,0.2c0,0.2,0.1,0.2,0.2,0.3c0.2,0.3,0.4,0.6,0.7,0.8
		c0.1,0.3,0.4,0.5,0.7,0.7c0.3,0.4,0.7,0.6,1.1,0.8c0.1,0.1,0.2,0.2,0.3,0.2c0,0.1,0.2,0,0.2,0.1c0.1,0.2,0.3,0.3,0.5,0.3
		c0.1,0,0.2,0.1,0.3,0.1c0,0.1,0.1,0.1,0.2,0.1c0.1,0,0.2,0.1,0.3,0.1c0,0.1,0,0.1,0.1,0.1c0,0,0.1,0,0.1,0c0,0.1,0.1,0.1,0.2,0.1
		c0,0,0.1,0,0.1,0c0,0.1,0.1,0.1,0.2,0.1c0.1,0,0.1,0,0.2,0c0,0.1,0.1,0.1,0.2,0.1c0.1,0,0.1,0,0.2,0c0.1,0.1,0.3,0.2,0.5,0.2
		c0.2,0,0.5,0,0.7,0.1c0.1,0.1,0.1,0.3,0.3,0.1c0.2,0,0.5,0,0.6,0.2c0,0,0,0,0,0c0.1-0.1,0.3-0.1,0.4-0.1c1.5,0.2,3,0,4.5-0.2
		c0.7-0.1,1.4-0.3,2-0.5c0.1,0,0.1,0,0.1-0.1c0.5-0.2,1.1-0.4,1.6-0.5c0.1,0,0.1,0,0.1-0.1c0.5-0.2,1.1-0.2,1.6-0.2
		c0.2,0,0.4,0.1,0.5,0.2c0.1,0.1,0.2,0.1,0.3,0.1c0.5,0.5,0.5,0.8,0,1.3c-0.3,0.3-0.6,0.5-0.8,0.8c-0.1,0-0.1,0-0.1,0.1
		c0,0-0.1,0-0.1,0c-0.1,0-0.1,0-0.1,0.1c0,0-0.1,0-0.1,0c-0.1,0-0.1,0-0.1,0.1c0,0-0.1,0-0.1,0c-0.1,0-0.1,0-0.1,0.1
		c0,0-0.1,0-0.1,0c-0.1,0-0.1,0-0.1,0.1c0,0-0.1,0-0.1,0c-0.1,0-0.1,0-0.1,0.1c-0.7,0.3-1.3,0.5-2.1,0.7c-1.1,0.3-2.3,0.5-3.5,0.7
		c-1.7,0.2-3.3,0.2-5,0.2c-1.3,0-2.5-0.2-3.7-0.3c-1.1-0.1-2.2-0.4-3.3-0.7c-1.4-0.4-2.7-1-3.9-1.8c-1.8-1.3-3.4-2.8-4.1-5.1
		c-0.4-1.4-0.5-2.7-0.2-4.1c0.3-1.4,1-2.6,1.9-3.7c1.2-1.3,2.6-2.3,4.2-3c1.5-0.7,3.1-1.2,4.8-1.5c1.1-0.2,2.2-0.3,3.3-0.4
		c0.1,0,0.2,0,0.3,0c0.5,0,0.9-0.1,1.4-0.1c1.6,0,3.2,0.1,4.7,0.3c1.9,0.3,3.7,0.6,5.4,1.4c0.6,0.3,1.2,0.6,1.7,1
		c0.2,0.2,0.4,0.3,0.5,0.5c0.6,0.7,0.5,1.4-0.2,1.9c-0.5,0.4-1,0.5-1.6,0.6c-0.5,0-1,0.1-1.5,0c-0.8-0.1-1.6-0.4-2.2-0.9
		c-0.7-0.5-1.4-1.1-2.2-1.5c-1.2-0.6-2.4-0.9-3.7-1c-1.4-0.1-2.7,0.1-4,0.4c-0.9,0.2-1.7,0.7-2.5,1.1c-0.1,0-0.1,0-0.1,0.1
		c-0.2,0.1-0.4,0.2-0.5,0.4c-0.1,0-0.3,0-0.3,0.2c-0.4,0.3-0.8,0.7-1,1.2c-0.1,0.1-0.2,0.1-0.2,0.3c-0.1,0-0.1,0.1-0.1,0.2
		c-0.1,0-0.1,0.1-0.1,0.2c0,0,0,0.1,0,0.1c-0.1,0-0.1,0-0.1,0.1c0,0.1,0,0.1,0,0.2c-0.1,0-0.1,0-0.1,0.1c0,0.1,0,0.1,0,0.2
		c-0.1,0-0.1,0-0.1,0.1c0,0.1,0,0.1,0,0.2C131,59.7,131,59.7,131,59.9z"/>
	<path d="M165,60.7c0.4,0.1,0.8,0,1.2,0c2.6,0,5.2,0,7.8,0c0.6,0,1.3,0,1.9,0.1c0,0.1,0.1,0.1,0.2,0.1c0.2,0.6,0.1,1.3,0.1,1.9
		c0,0.2-0.2,0.3-0.4,0.3c-0.3,0.1-0.7,0.1-1,0.1c-3.1,0-6.2,0-9.3,0c-0.1,0-0.2,0-0.4,0c-0.2,0-0.3,0.1-0.3,0.3c0,0.2,0,0.5,0,0.7
		c0,1.7,0,3.3,0,5c0,0.4,0,0.4,0.4,0.4c0.1,0,0.3,0,0.4,0c3.7,0,7.3,0,11,0c0.3,0,0.5,0,0.8,0c0,0,0,0.1,0,0.1c0,0,0-0.1,0-0.1
		c0.1,0,0.2,0,0.3,0.1c0.3,0.1,0.4,0.2,0.4,0.5c0,0.5,0,1,0,1.5c0,0.3-0.1,0.4-0.4,0.5c-0.2,0-0.4,0-0.6,0c-6.1,0-12.3,0-18.4,0
		c-0.1,0-0.1,0-0.2,0c-0.7,0-0.8-0.1-0.8-0.8c0-6.1,0-12.1,0-18.2c0-0.6,0.2-0.8,0.8-0.9c0.4-0.1,0.9-0.1,1.3-0.1
		c5.7,0,11.4,0,17.1,0c0.3,0,0.5,0,0.8,0.1c0.3,0.1,0.4,0.2,0.4,0.5c0,0.5,0,1,0,1.5c0,0.3-0.1,0.4-0.4,0.5
		c-0.2,0.1-0.5,0.1-0.7,0.1c-3.9,0-7.8,0-11.7,0c-0.2,0-0.3,0-0.5,0c-0.1,0-0.1,0-0.1,0.1c-0.1,1,0,2.1,0,3.1
		C164.8,59.1,164.8,59.9,165,60.7C164.9,60.7,164.9,60.8,165,60.7z"/>
	<path d="M129.7,42.3c-0.6-0.8-1.2-1.4-1.9-2.1c-0.7-0.8-1.5-1.5-2.2-2.2c-0.1-0.1-0.2-0.3-0.4-0.3c-0.1-0.2-0.3-0.3-0.5-0.5
		c-1.2-1.2-2.5-2.2-3.8-3.2c-3.6-2.8-7.4-5.2-11.4-7.4c-4.1-2.2-8.4-4.1-12.9-5.7c-5.1-1.8-10.4-3.3-15.7-4.6
		c-3.4-0.8-6.7-1.5-10.1-2.1c-2.7-0.5-5.5-0.9-8.2-1.2c-2-0.2-4.1-0.4-6.1-0.6c-0.1,0-0.2,0-0.3,0c-0.1,0-0.1,0-0.2,0
		c-0.4-0.1-0.7-0.1-1.1-0.1c-0.1,0-0.2,0-0.3,0c-0.8,0-1.7-0.1-2.5-0.1c-0.2,0-0.4,0-0.5-0.1c1.5-0.1,3,0,4.5-0.1
		c2.8,0,5.6,0.2,8.3,0.4c3.4,0.3,6.7,0.7,10,1.3c4.9,0.8,9.8,1.8,14.6,3.1c4.3,1.1,8.6,2.4,12.8,3.9c4.1,1.5,8.1,3.2,12,5.2
		c3.9,2,7.6,4.3,11.2,7c2.2,1.7,4.4,3.4,6.3,5.4c1.4,1.5,3,2.9,4.3,4.5c0.4,0.5,0.7,1,1.1,1.4c0,0.1,0,0.1,0.1,0.1
		c0.6,0.8,1.2,1.6,1.7,2.5c-0.2,0.1-0.4,0.1-0.5,0.1c-1.2,0-2.3,0-3.5,0.1c-0.2,0-0.4,0.1-0.7,0.1c-0.1,0-0.2,0-0.3,0
		c-0.2,0-0.3-0.2-0.4-0.3c-0.8-1.2-1.7-2.4-2.6-3.6c-0.1-0.1-0.2-0.3-0.4-0.4C130,42.5,129.9,42.4,129.7,42.3z"/>
	<path d="M217.1,54.9c-0.1-0.1-0.1-0.2-0.1-0.3c0-0.5,0-1,0-1.5c0-0.4,0.1-0.4,0.5-0.5c0.3-0.1,0.6-0.1,0.9-0.1c7.5,0,15,0,22.4,0
		c0.1,0,0.2,0,0.3,0c0.8,0,0.9,0.2,0.9,1c0,0.3,0,0.7,0,1c0,0.3-0.1,0.5-0.4,0.5c-0.2,0.1-0.5,0.1-0.7,0.1c-2.4,0-4.7,0-7.1,0
		c-0.2,0-0.4,0-0.6,0c-0.1,0-0.2,0-0.2,0.1c-0.1,0.3,0,0.5,0,0.8c0,4.9,0,9.8,0,14.7c0,0.3,0,0.7,0,1c0,0.5-0.2,0.7-0.7,0.7
		c-0.1,0-0.2,0-0.3,0c-1.7,0-3.3,0-5,0c-0.2,0-0.4,0-0.6,0c-0.3-0.1-0.4-0.2-0.4-0.5c0-0.3,0-0.5,0-0.8c0-5.2,0-10.3,0-15.5
		c0-0.1,0-0.2,0-0.3c0-0.2-0.1-0.3-0.3-0.3c-0.1,0-0.2,0-0.4,0c-2.4,0-4.7,0-7.1,0c-0.3,0-0.6,0-0.9,0c0,0,0-0.1-0.1,0
		C217.2,55,217.2,55,217.1,54.9C217.2,54.9,217.1,54.9,217.1,54.9z"/>
	<path d="M55.7,16.5c-2,0.3-3.9,0.9-5.7,1.6c-1.7,0.7-3.3,1.5-4.7,2.6c-1.3,1-2.4,2.1-3.2,3.5c-0.5,0.9-0.8,1.9-1,2.9
		c-0.4,2-0.1,3.8,0.6,5.7c0.7,1.9,1.7,3.6,2.9,5.2c2.4,3.1,5.3,5.7,8.4,7.9c1.6,1.2,3.3,2.2,5,3.2c0.1,0.1,0.2,0.2,0.4,0.2
		c0,0,0.1,0.1,0.1,0.1l0,0c0,0.1,0,0.1,0,0.2c-0.9,0.4-1.8,0.8-2.7,1.2c-0.3,0.1-0.5,0.1-0.8,0c-4.5-2.5-8.8-5.4-12.4-9
		c-2.2-2.2-4-4.7-5.3-7.6c-0.3-0.7-0.5-1.4-0.7-2.1c-0.2-0.8-0.3-1.7-0.3-2.5c0-2.5,0.8-4.7,2.5-6.5c1.6-1.8,3.6-3.1,5.9-4.1
		c2.1-0.9,4.2-1.5,6.4-2c1.5-0.3,3.1-0.6,4.6-0.7c0.1,0,0.1,0,0.2,0C55.7,16.4,55.7,16.4,55.7,16.5z"/>
	<path d="M282.9,72.2c-0.2,0.1-0.4,0.1-0.6,0.1c-1.8,0-3.6,0-5.4,0c-0.1,0-0.2,0-0.4,0c-0.3,0-0.5-0.2-0.5-0.5c0-0.1,0-0.2,0-0.4
		c0-5.9,0-11.9,0-17.8c0-0.3,0-0.6,0-0.9c0,0,0.1,0,0-0.1c0.3-0.2,0.5-0.2,0.8-0.2c1.8,0,3.6,0,5.4,0c0.7,0,0.8,0.2,0.8,0.9
		c0,6.2,0,12.4,0,18.7C283,72.1,282.9,72.1,282.9,72.2z"/>
	<path d="M108.9,37.9c-1.3-0.8-2.6-1.7-3.9-2.4c-3.6-2-7.4-3.7-11.4-5c-3.1-1-6.2-1.8-9.3-2.4c-1.7-0.3-3.3-0.6-5-0.8
		c-0.4,0-0.8,0-1.3-0.1c-1.8-0.2-3.5-0.2-5.3-0.1c-1,0-1.9,0.1-2.9,0.2c-0.7,0.1-1.3,0.2-2,0.3c-0.8,0.2-1.6,0.3-2.3,0.5
		c-1.4,0.4-2.7,1.1-3.9,2c-1,0.8-1.7,1.7-2.1,2.9c-0.2,0.7-0.3,1.4-0.2,2.1c0.1,1,0.4,1.9,0.8,2.8c0.5,1.2,1.3,2.2,2.2,3.2
		c0.6,0.7,1.3,1.2,1.9,1.8c0,0.1,0,0.1-0.1,0.1c-0.8-0.7-1.6-1.3-2.3-2c-0.7-0.6-1.3-1.4-1.9-2.1c-0.6-0.6-1-1.4-1.5-2.1
		c-0.4-0.6-0.7-1.3-0.9-2c-0.2-0.8-0.2-1.6-0.2-2.3c0-1.2,0.6-2.2,1.2-3.2c0.1-0.2,0.3-0.3,0.4-0.4c1.1-1.3,2.6-2.1,4.3-2.7
		c1.5-0.5,3.1-0.8,4.7-1c1.8-0.2,3.6-0.3,5.4-0.2c1.8,0.1,3.5,0.2,5.3,0.5c1.3,0.2,2.6,0.4,3.8,0.7c1,0.2,2.1,0.5,3.1,0.7
		c1.3,0.3,2.5,0.7,3.7,1.1c1.6,0.5,3.1,1,4.7,1.6c1.7,0.6,3.3,1.3,5,2.1c1.3,0.6,2.7,1.3,4,2c1.4,0.7,2.8,1.6,4,2.5
		c0.7,0.5,1.4,0.9,2,1.5C108.8,37.7,109,37.8,108.9,37.9C109,37.9,109,37.9,108.9,37.9z"/>
	<path d="M97.4,43.2c-0.1,0.3-0.1,0.6-0.2,0.9c-0.4,1-1.1,1.7-2.1,2.1C94,46.8,92.8,47,91.6,47c-2.2,0.1-4.3-0.2-6.5-0.7
		c-2.8-0.6-5.5-1.4-8.1-2.6c-2-0.9-3.9-2-5.6-3.4c-0.1-0.1-0.3-0.2-0.4-0.5c0.6,0.4,1,0.7,1.6,1c1.8,1,3.8,1.8,5.7,2.5
		c2.3,0.8,4.7,1.3,7.1,1.5c2.1,0.2,4.2,0.2,6.2-0.3c0.6-0.1,1.2-0.3,1.7-0.6c1.1-0.5,1.5-1.5,1.5-2.7c0-1-0.4-1.8-1.1-2.4
		c-0.5-0.5-1-1-1.6-1.3c-1-0.6-2-1.1-3-1.5c-0.3-0.1-0.6-0.2-0.9-0.4c-0.2-0.1-0.4-0.2-0.6-0.2c-0.4-0.1-0.8-0.2-1.1-0.4
		c0,0,0-0.1,0-0.1c1.6,0.4,3.2,0.9,4.7,1.5c1.6,0.7,3,1.5,4.3,2.7c0.4,0.3,0.7,0.7,1,1.1c0.5,0.7,0.9,1.5,1,2.5
		C97.4,42.9,97.4,43.1,97.4,43.2z"/>
	<path d="M322.5,51.2c0.1-1,0.6-1.9,0.9-2.9c0.1-0.3,0.2-0.6,0.3-0.9c0.1-0.2,0.1-0.2,0.3-0.2c0,0,0,0,0.1,0
		c0.8-0.1,0.8-0.1,0.8,0.7c0.1,1.4,0.2,2.9,0.3,4.3c0,0.2,0.1,0.4-0.2,0.4c-0.4,0-0.5,0-0.5-0.3c0-0.3,0-0.6-0.1-0.9
		c0.1-0.1,0.1-0.1,0-0.2c0-0.3,0-0.6,0-0.8c0-0.1,0-0.1,0-0.2c0-0.5-0.1-0.9-0.1-1.4c0-0.2,0-0.4,0.1-0.7c-0.2,0.3-0.2,0.5-0.3,0.7
		c-0.5,1.1-0.9,2.2-1.2,3.4c-0.1,0.2-0.2,0.3-0.4,0.3c-0.2,0-0.3,0-0.4-0.2c-0.3-0.9-0.6-1.7-0.9-2.6c-0.1-0.3-0.2-0.6-0.2-0.8
		c-0.1-0.2-0.1-0.3-0.2-0.6c0,0.3-0.1,0.4,0,0.6c-0.1,1.1-0.1,2.2-0.2,3.3c0,0.1,0,0.3-0.1,0.3c-0.2,0.1-0.4,0.1-0.5,0
		c-0.1,0-0.1-0.1-0.1-0.2c0-0.4,0-0.7,0.1-1.1c0-0.2,0.1-0.4,0-0.7c0.1,0,0.1-0.1,0-0.2c0.2-0.9,0.1-1.9,0.2-2.8
		c0-0.5,0.1-0.4,0.5-0.4c0.5,0,0.5,0,0.7,0.5c0.4,1.2,0.9,2.4,1.2,3.7c0,0.1,0,0.1,0.1,0.1C322.5,51.4,322.5,51.3,322.5,51.2z"/>
	<path d="M316.7,47.8c-0.3-0.1-0.6,0-0.8,0c-0.7,0-0.7,0-0.7-0.3c0-0.3,0-0.3,0.7-0.3c0.2,0,0.4,0,0.6,0c0.3,0,0.5,0,0.8,0
		c0.2,0,0.5,0,0.7,0c0.1,0,0.2,0,0.3,0c0.2,0,0.5,0,0.7,0c0.3,0,0.3,0.1,0.3,0.3c0,0.2-0.1,0.3-0.3,0.3c-0.3,0-0.6,0-1,0
		c-0.4,0-0.4,0-0.4,0.4c0,1,0,1.9,0,2.9c0,0.4,0,0.8,0,1.2c0,0.2-0.1,0.3-0.3,0.3c-0.5,0-0.5,0-0.5-0.5c0-1.4,0-2.7,0-4.1
		C316.8,47.9,316.8,47.8,316.7,47.8z"/>
	<path d="M113.2,54c0,0.1,0,0.2,0,0.4c0,2.9,0,5.9,0,8.8c0,0.1,0,0.2,0,0.4c-0.1,0-0.2,0-0.2-0.1c0-0.1,0-0.2,0-0.4
		c0-2.9,0-5.7,0-8.6C113.1,54.3,112.9,54,113.2,54z"/>
	<path d="M117.6,22.2c0,0,0-0.1,0-0.1c0.6,0.3,1.1,0.6,1.7,1C118.7,22.9,118.2,22.5,117.6,22.2z"/>
	<path d="M82.6,68.8c0.2-0.3,0.5-0.6,0.8-0.8C83.4,68.5,83.1,68.7,82.6,68.8z"/>
	<path d="M35.5,42.2c0,0,0.1-0.1,0.1-0.1c0.3,0.2,0.6,0.4,0.8,0.8l0,0c-0.1,0-0.2-0.1-0.3-0.1c-0.1-0.1-0.2-0.2-0.3-0.3
		C35.7,42.4,35.6,42.3,35.5,42.2z"/>
	<path d="M64,43.1c0.1,0,0.1-0.1,0.1-0.1c0.3,0.1,0.4,0.3,0.6,0.5C64.3,43.5,64.3,43.5,64,43.1z"/>
	<path d="M133.6,67.3c-0.3-0.2-0.6-0.4-0.7-0.7C133.3,66.7,133.5,66.9,133.6,67.3z"/>
	<path d="M256.5,65.1c0.3,0.2,0.5,0.4,0.7,0.7C256.8,65.7,256.5,65.5,256.5,65.1z"/>
	<path d="M317.2,47.1c-0.3,0-0.5,0-0.8,0C316.7,46.9,317,46.9,317.2,47.1z"/>
	<path d="M55.7,16.5c0,0,0-0.1,0-0.1c0.1-0.1,0.3-0.2,0.4-0.1c0,0,0,0.1,0,0.1C56.1,16.6,55.9,16.5,55.7,16.5
		C55.8,16.5,55.7,16.5,55.7,16.5z"/>
	<path d="M324,48.9c0.1-0.2,0.1-0.4,0.3-0.7c0,0.3,0,0.5-0.1,0.7C324.1,48.9,324,48.9,324,48.9z"/>
	<path d="M302.2,66.8c0.2,0.1,0.4,0.3,0.5,0.5C302.4,67.3,302.2,67.1,302.2,66.8z"/>
	<path d="M124.8,37.2c0.2,0.1,0.4,0.3,0.5,0.5C125,37.6,124.8,37.5,124.8,37.2z"/>
	<path d="M30.2,64.2c-0.2-0.2-0.2-0.5-0.3-0.7C30.2,63.7,30.2,64,30.2,64.2z"/>
	<path d="M135.7,68.7c-0.2,0-0.4-0.1-0.5-0.3C135.5,68.4,135.7,68.4,135.7,68.7z"/>
	<path d="M31.6,56.7c0.1-0.2,0.2-0.3,0.4-0.3C32.1,56.7,31.8,56.7,31.6,56.7z"/>
	<path d="M305.8,70.2c0.2,0.1,0.3,0.2,0.4,0.4C305.9,70.6,305.8,70.5,305.8,70.2z"/>
	<path d="M271.7,71.8c-0.1-0.1-0.3-0.2-0.4-0.4C271.6,71.4,271.8,71.5,271.7,71.8z"/>
	<path d="M138.4,69.6c-0.2,0-0.4-0.1-0.5-0.2C138.1,69.3,138.3,69.4,138.4,69.6z"/>
	<path d="M129.7,42.3c0.2,0.1,0.3,0.2,0.3,0.4C129.8,42.7,129.7,42.5,129.7,42.3z"/>
	<path d="M320.6,48.9c0-0.2,0-0.3,0-0.6c0.1,0.3,0.1,0.4,0.2,0.6C320.7,48.9,320.7,48.9,320.6,48.9z"/>
	<path d="M30.8,57.6c0-0.2,0.2-0.3,0.3-0.4C31.1,57.4,31,57.6,30.8,57.6z"/>
	<path d="M269.8,70.1c-0.2-0.1-0.3-0.2-0.4-0.3C269.6,69.8,269.8,69.9,269.8,70.1z"/>
	<path d="M32.4,67.3c-0.2-0.1-0.3-0.1-0.4-0.3C32.3,67,32.4,67,32.4,67.3z"/>
	<path d="M263.4,64.6c-0.2-0.1-0.3-0.1-0.4-0.3C263.2,64.3,263.4,64.4,263.4,64.6z"/>
	<path d="M97.4,43.2c0-0.1,0-0.3,0-0.4C97.6,42.9,97.6,43.1,97.4,43.2z"/>
	<path d="M96.6,52.8c-0.2-0.1-0.4-0.1-0.5-0.3C96.3,52.6,96.5,52.6,96.6,52.8z"/>
	<path d="M131.6,64.7c-0.1-0.1-0.2-0.2-0.2-0.4C131.6,64.4,131.7,64.5,131.6,64.7z"/>
	<path d="M262.1,63.4c-0.1,0-0.3,0-0.2-0.1c0-0.1,0.2-0.1,0.2,0C262.1,63.3,262.1,63.3,262.1,63.4z"/>
	<path d="M299.7,66.1c0.1-0.1,0.1-0.3,0.3-0.3C300,66,299.9,66.2,299.7,66.1z"/>
	<path d="M318.3,47.1c-0.1,0-0.2,0-0.3,0c0-0.1,0-0.2,0.1-0.2C318.2,47,318.2,47,318.3,47.1z"/>
	<path d="M72.9,6.7c-0.1,0-0.3,0.1-0.3-0.1C72.8,6.5,72.9,6.5,72.9,6.7z"/>
	<path d="M138,52.1c-0.1,0-0.2,0-0.3,0C137.8,52,137.9,52,138,52.1z"/>
	<path d="M61.9,8.3c0.1,0,0.2,0,0.3,0c0,0.1,0,0.2-0.2,0.2C62,8.4,62,8.3,61.9,8.3z"/>
	<path d="M72.1,52.1c-0.1,0-0.2,0-0.3,0C71.9,52,72,52,72.1,52.1z"/>
	<path d="M33.9,68.4c-0.1-0.1-0.3-0.1-0.4-0.3C33.8,68.1,33.9,68.1,33.9,68.4z"/>
	<path d="M85.2,59.6C85,59.5,85,59.4,85,59.2C85.2,59.3,85.1,59.5,85.2,59.6z"/>
	<path d="M131.4,64.2c-0.1-0.1-0.2-0.2-0.1-0.4C131.4,63.9,131.3,64.1,131.4,64.2z"/>
	<path d="M54.5,12.3c0.1,0,0.2,0,0.3,0c0,0.1,0,0.2-0.1,0.2C54.6,12.5,54.5,12.4,54.5,12.3z"/>
	<path d="M85.1,65.4c-0.1-0.2,0-0.3,0.1-0.4C85.2,65.2,85.3,65.4,85.1,65.4z"/>
	<path d="M108.9,37.9C109,37.9,109,37.9,108.9,37.9c0.2,0,0.3,0.1,0.3,0.2c0,0,0,0,0,0C109.1,38.1,109,38.1,108.9,37.9z"/>
	<path d="M297.7,68c0.1-0.1,0.2-0.2,0.3-0.3C298,67.9,297.9,68,297.7,68z"/>
	<path d="M133.4,47c0.1,0,0.2,0,0.3,0c0,0.1,0,0.2-0.2,0.2C133.4,47.1,133.4,47,133.4,47z"/>
	<path d="M131.6,58.2c0-0.2,0.1-0.2,0.2-0.3C131.8,58.1,131.8,58.2,131.6,58.2z"/>
	<path d="M98.2,54.1c-0.1,0-0.2-0.1-0.3-0.2C98,53.9,98.2,53.9,98.2,54.1z"/>
	<path d="M194.9,56.2c-0.1,0-0.2-0.1-0.3-0.2C194.8,56,194.9,56,194.9,56.2z"/>
	<path d="M31.6,66.5c-0.1,0-0.2-0.1-0.2-0.2C31.6,66.2,31.6,66.4,31.6,66.5z"/>
	<path d="M268.3,68.8c-0.1,0-0.2,0-0.3-0.2C268.1,68.6,268.3,68.6,268.3,68.8z"/>
	<path d="M195.3,56.5c-0.1,0-0.2-0.1-0.3-0.2C195.1,56.3,195.3,56.3,195.3,56.5z"/>
	<path d="M100.3,55.7c-0.1,0-0.2-0.1-0.3-0.2C100.2,55.5,100.3,55.5,100.3,55.7z"/>
	<path d="M132.8,56.7c0-0.2,0.2-0.2,0.3-0.2C133.1,56.7,133,56.7,132.8,56.7z"/>
	<path d="M195.7,56.8c-0.1,0-0.2-0.1-0.3-0.2C195.6,56.6,195.7,56.6,195.7,56.8z"/>
	<path d="M196.2,57.2c-0.1,0-0.2-0.1-0.3-0.2C196.1,57,196.2,57,196.2,57.2z"/>
	<path d="M35.8,42.5c0.1,0.1,0.2,0.1,0.3,0.3C35.9,42.8,35.8,42.8,35.8,42.5z"/>
	<path d="M83.9,57.5c-0.1,0-0.2-0.1-0.2-0.3C83.9,57.2,83.9,57.3,83.9,57.5z"/>
	<path d="M31.2,66c-0.1,0-0.2-0.1-0.2-0.3C31.2,65.7,31.2,65.9,31.2,66z"/>
	<path d="M30.4,58.2c0-0.2,0.1-0.2,0.2-0.3C30.6,58.1,30.6,58.2,30.4,58.2z"/>
	<path d="M99.9,55.4c-0.1,0-0.2-0.1-0.3-0.2C99.8,55.2,99.9,55.2,99.9,55.4z"/>
	<path d="M84.7,58.5c-0.1-0.1-0.2-0.1-0.2-0.3C84.6,58.2,84.7,58.4,84.7,58.5z"/>
	<path d="M132.2,65.7c-0.1-0.1-0.2-0.1-0.2-0.3C132.2,65.4,132.2,65.6,132.2,65.7z"/>
	<path d="M197.9,58.5c-0.1,0-0.2-0.1-0.3-0.2C197.8,58.3,197.9,58.3,197.9,58.5z"/>
	<path d="M32.4,39c-0.1,0-0.2-0.1-0.2-0.2C32.4,38.7,32.4,38.8,32.4,39z"/>
	<path d="M135,68.3c-0.1,0-0.2-0.1-0.3-0.2C134.9,68.1,135,68.1,135,68.3z"/>
	<path d="M198.3,58.8c-0.1,0-0.2-0.1-0.3-0.2C198.2,58.6,198.3,58.6,198.3,58.8z"/>
	<path d="M322.5,51.2c0,0.1,0,0.2-0.1,0.2c-0.1,0-0.1,0-0.1-0.1C322.4,51.3,322.5,51.2,322.5,51.2z"/>
	<path d="M264,65.1c-0.1,0-0.2,0-0.3-0.2C263.9,64.9,264,64.9,264,65.1z"/>
	<path d="M131.9,65.2c-0.1,0-0.2-0.1-0.2-0.3C131.9,64.9,131.9,65.1,131.9,65.2z"/>
	<path d="M271.1,71.2c-0.1,0-0.2-0.1-0.3-0.2C271,71,271.1,71,271.1,71.2z"/>
	<path d="M84,67.3c0-0.1,0.1-0.2,0.2-0.3C84.2,67.1,84.2,67.3,84,67.3z"/>
	<path d="M205.3,64.1c-0.1,0-0.2-0.1-0.3-0.2C205.1,63.9,205.3,63.9,205.3,64.1z"/>
	<path d="M30,59.4c-0.1-0.2,0-0.2,0.1-0.4C30.1,59.2,30.1,59.4,30,59.4z"/>
	<path d="M83.7,67.7c0-0.1,0.1-0.2,0.2-0.3C83.9,67.5,83.9,67.7,83.7,67.7z"/>
	<path d="M266.9,67.5c-0.1,0-0.2,0-0.3-0.2C266.7,67.4,266.8,67.4,266.9,67.5z"/>
	<path d="M204.9,63.8c-0.1,0-0.2-0.1-0.3-0.2C204.7,63.6,204.9,63.6,204.9,63.8z"/>
	<path d="M98.6,54.4c-0.1,0-0.2-0.1-0.3-0.2C98.4,54.2,98.6,54.2,98.6,54.4z"/>
	<path d="M269.1,59.8c0-0.1,0.1-0.2,0.2-0.3C269.3,59.6,269.3,59.7,269.1,59.8z"/>
	<path d="M96.9,53.1c-0.1,0-0.2-0.1-0.3-0.2C96.7,52.8,96.9,52.8,96.9,53.1z"/>
	<path d="M199.7,59.9c-0.1,0-0.2-0.1-0.3-0.2C199.5,59.6,199.7,59.7,199.7,59.9z"/>
	<path d="M203.1,62.5c-0.1,0-0.2-0.1-0.3-0.2C203,62.3,203.1,62.3,203.1,62.5z"/>
	<path d="M200.1,60.2c-0.1,0-0.2-0.1-0.3-0.2C199.9,59.9,200.1,60,200.1,60.2z"/>
	<path d="M201.8,61.5c-0.1,0-0.2-0.1-0.3-0.2C201.7,61.3,201.8,61.3,201.8,61.5z"/>
	<path d="M201.4,61.2c-0.1,0-0.2-0.1-0.3-0.2C201.3,61,201.4,61,201.4,61.2z"/>
	<path d="M84.5,66.7c0-0.1,0.1-0.2,0.2-0.3C84.7,66.5,84.6,66.6,84.5,66.7z"/>
	<path d="M176.1,61c-0.1,0-0.2,0-0.2-0.1C176,60.7,176,60.8,176.1,61z"/>
	<path d="M131.4,58.6c0-0.1,0-0.2,0.1-0.2C131.6,58.6,131.5,58.6,131.4,58.6z"/>
	<path d="M282.9,72.2c0-0.1,0.1-0.2,0.2-0.2C283.1,72.2,283.1,72.2,282.9,72.2z"/>
	<path d="M271.6,72.2c0-0.1,0-0.2,0.1-0.2C271.9,72.2,271.7,72.2,271.6,72.2z"/>
	<path d="M85.6,61.1c-0.1,0-0.1-0.1-0.1-0.2C85.6,60.9,85.7,60.9,85.6,61.1z"/>
	<path d="M85.4,60.2c-0.2,0-0.1-0.1-0.1-0.2C85.4,60.1,85.5,60.1,85.4,60.2z"/>
	<path d="M55.9,12.4c0.1,0,0.1,0,0.2,0c0,0.1,0,0.1-0.1,0.1C56,12.6,56,12.5,55.9,12.4z"/>
	<path d="M29.7,60.3c0-0.1,0.1-0.2,0.2-0.3C29.9,60.1,29.9,60.2,29.7,60.3z"/>
	<path d="M86.5,35c0,0,0,0.1,0,0.1c-0.1,0-0.2,0-0.2-0.1C86.3,35,86.4,35,86.5,35z"/>
	<path d="M109.5,38.3c-0.1,0-0.2-0.1-0.2-0.2c0,0,0,0,0,0C109.4,38.1,109.5,38.2,109.5,38.3L109.5,38.3z"/>
	<path d="M36.4,42.9c0.1,0,0.2,0.1,0.3,0.2C36.5,43.1,36.4,43,36.4,42.9L36.4,42.9z"/>
	<path d="M139.4,69.7c-0.2,0.2-0.2,0-0.3-0.1C139.2,69.6,139.3,69.6,139.4,69.7z"/>
	<path d="M43.5,69.7c-0.1,0.1-0.1,0.1-0.2,0C43.4,69.6,43.4,69.6,43.5,69.7z"/>
	<path d="M37.7,69.7c-0.1,0-0.2,0-0.2-0.1C37.7,69.4,37.7,69.6,37.7,69.7z"/>
	<path d="M29.8,62.9c-0.2,0-0.2-0.1,0-0.2C29.9,62.7,29.9,62.8,29.8,62.9z"/>
	<path d="M29.9,63.3c-0.1,0-0.1-0.1-0.1-0.2C29.9,63.1,30,63.2,29.9,63.3z"/>
	<path d="M131,59.9c0-0.1,0-0.2,0.1-0.2C131.2,59.8,131.1,59.8,131,59.9z"/>
	<path d="M131.1,63.4c-0.1,0-0.1-0.1-0.1-0.2C131.1,63.2,131.2,63.2,131.1,63.4z"/>
	<path d="M37.3,69.6c-0.1,0-0.2,0-0.2-0.1C37.3,69.3,37.3,69.4,37.3,69.6z"/>
	<path d="M36.9,69.5c-0.1,0-0.2,0-0.2-0.1C36.8,69.2,36.9,69.3,36.9,69.5z"/>
	<path d="M137.7,69.4c-0.1,0-0.2,0-0.2-0.1C137.6,69.1,137.7,69.2,137.7,69.4z"/>
	<path d="M36.5,69.4c-0.1,0-0.2,0-0.2-0.1C36.4,69.1,36.5,69.2,36.5,69.4z"/>
	<path d="M137.3,69.3c-0.1,0-0.2,0-0.2-0.1C137.2,69,137.2,69.1,137.3,69.3z"/>
	<path d="M36.1,69.3c-0.1,0-0.2,0-0.2-0.1C36,69,36.1,69.1,36.1,69.3z"/>
	<path d="M137,69.2c-0.1,0-0.2,0-0.2-0.1C136.9,68.9,136.9,69,137,69.2z"/>
	<path d="M35.8,69.2c-0.1,0-0.2-0.1-0.3-0.1C35.7,69,35.7,69,35.8,69.2z"/>
	<path d="M136.3,68.9c-0.1,0-0.2,0-0.2-0.1C136.2,68.6,136.2,68.7,136.3,68.9z"/>
	<path d="M35.1,68.9c-0.1,0-0.2-0.1-0.3-0.1C34.9,68.7,35,68.7,35.1,68.9z"/>
	<path d="M151.3,68.6c-0.1,0-0.2-0.1-0.3-0.1C151.2,68.4,151.3,68.4,151.3,68.6z"/>
	<path d="M58.5,49.8c0-0.1,0-0.1,0-0.2c0.1,0,0.1,0,0.1,0.1C58.7,49.8,58.6,49.8,58.5,49.8z"/>
	<path d="M49.9,68.5c-0.2,0-0.2-0.1-0.3-0.2C49.8,68.3,49.9,68.3,49.9,68.5z"/>
	<path d="M30.1,58.8c0-0.1,0-0.2,0.1-0.2C30.3,58.8,30.2,58.8,30.1,58.8z"/>
	<path d="M113.2,65.5c-0.1,0-0.1-0.2-0.2-0.2c0.1,0,0.2,0,0.3,0C113.3,65.4,113.2,65.4,113.2,65.5C113.2,65.5,113.2,65.5,113.2,65.5
		L113.2,65.5z"/>
	<path d="M319.8,50.4c0.1,0.1,0.1,0.1,0,0.2C319.7,50.5,319.7,50.5,319.8,50.4z"/>
	<path d="M324.3,50.2c0,0,0,0.1,0,0.2c-0.1,0-0.1,0-0.1-0.1C324.2,50.2,324.3,50.2,324.3,50.2z"/>
	<path d="M324.3,51.2c0.1,0.1,0.1,0.1,0,0.2C324.2,51.4,324.2,51.3,324.3,51.2z"/>
	<path d="M207.2,65.3c-0.1,0.2-0.1,0.1-0.2,0C207,65.3,207.1,65.3,207.2,65.3z"/>
	<path d="M189.6,58.4C189.5,58.4,189.6,58.4,189.6,58.4c0.1-0.1,0.1,0,0.1,0C189.6,58.4,189.6,58.4,189.6,58.4z"/>
	<path d="M300.5,65.3c0.1-0.1,0.1-0.2,0.2,0C300.6,65.3,300.5,65.3,300.5,65.3z"/>
	<path d="M233,55.2c0-0.1,0.1-0.1,0.2-0.1C233.1,55.2,233.1,55.2,233,55.2z"/>
	<path d="M165,60.7C164.9,60.8,164.9,60.7,165,60.7C164.9,60.7,164.9,60.7,165,60.7z"/>
	<path d="M212.2,72.3c0-0.1,0-0.1,0.1-0.1C212.3,72.3,212.2,72.3,212.2,72.3z"/>
	<path d="M133.6,56.1C133.6,56,133.6,56,133.6,56.1C133.7,56,133.6,56.1,133.6,56.1z"/>
	<path d="M32.4,56.1C32.4,56,32.5,56,32.4,56.1C32.5,56,32.5,56.1,32.4,56.1z"/>
	<path d="M32,56.4c0-0.1,0-0.1,0.1-0.1C32.1,56.3,32.1,56.4,32,56.4z"/>
	<path d="M164.9,55.2C164.9,55.1,164.9,55.1,164.9,55.2C164.9,55.1,164.9,55.1,164.9,55.2z"/>
	<path d="M217.3,55C217.3,55,217.3,55,217.3,55C217.3,55.1,217.3,55,217.3,55z"/>
	<path d="M99.5,55.1c-0.1,0-0.1,0-0.1-0.1C99.4,55,99.5,55,99.5,55.1z"/>
	<path d="M217.1,54.9C217.1,54.9,217.2,54.9,217.1,54.9C217.1,55,217.1,54.9,217.1,54.9z"/>
	<path d="M79.3,53.9c-0.1,0-0.1,0-0.1-0.1C79.2,53.9,79.2,53.9,79.3,53.9z"/>
	<path d="M276.1,52.8C276.1,52.8,276.1,52.8,276.1,52.8C276,52.8,276,52.8,276.1,52.8z"/>
	<path d="M196.6,57.5c-0.1,0-0.1,0-0.1-0.1C196.6,57.4,196.6,57.5,196.6,57.5z"/>
	<path d="M85,65.6C85,65.6,85,65.5,85,65.6C85,65.6,85,65.6,85,65.6z"/>
	<path d="M131.3,58.8c0-0.1,0-0.1,0.1-0.1C131.3,58.8,131.3,58.8,131.3,58.8z"/>
	<path d="M269.5,58.8C269.5,58.8,269.5,58.7,269.5,58.8C269.6,58.8,269.6,58.8,269.5,58.8z"/>
	<path d="M58.5,49.6c-0.1,0-0.1,0-0.1-0.1C58.4,49.5,58.5,49.5,58.5,49.6z"/>
	<path d="M206.2,64.8c-0.1,0-0.1,0-0.1-0.1C206.1,64.8,206.2,64.8,206.2,64.8z"/>
	<path d="M47.7,68.5C47.7,68.5,47.7,68.6,47.7,68.5C47.6,68.5,47.7,68.5,47.7,68.5z"/>
	<path d="M148.9,68.5C148.9,68.5,148.9,68.6,148.9,68.5C148.8,68.5,148.8,68.5,148.9,68.5z"/>
	<path d="M47.4,68.6c0,0.1,0,0.1-0.1,0.1C47.3,68.6,47.4,68.6,47.4,68.6z"/>
	<path d="M316.7,47.8c0.1,0,0.1,0.1,0.1,0.1C316.8,47.9,316.8,47.9,316.7,47.8z"/>
	<path d="M85.3,64.8C85.3,64.8,85.3,64.7,85.3,64.8C85.3,64.8,85.3,64.8,85.3,64.8z"/>
	<path d="M85,59.1C84.9,59.1,84.9,59.1,85,59.1C84.9,59.1,84.9,59.1,85,59.1z"/>
	<path d="M131.2,59.1C131.2,59.1,131.2,59,131.2,59.1C131.2,59.1,131.2,59.1,131.2,59.1z"/>
	<path d="M136.7,69.1C136.6,69.1,136.6,69.1,136.7,69.1C136.6,69,136.6,69,136.7,69.1z"/>
	<path d="M253.4,64.1C253.4,64.1,253.4,64,253.4,64.1C253.5,64.1,253.4,64.1,253.4,64.1z"/>
	<path d="M269.4,59.1C269.4,59.1,269.4,59,269.4,59.1C269.5,59.1,269.4,59.1,269.4,59.1z"/>
	<path d="M147.2,69.1c0,0.1,0,0.1-0.1,0.1C147.1,69.1,147.1,69.1,147.2,69.1z"/>
	<path d="M131.1,59.4C131.1,59.4,131.1,59.4,131.1,59.4C131.1,59.4,131.1,59.4,131.1,59.4z"/>
	<path d="M131.2,63.7C131.1,63.7,131.1,63.7,131.2,63.7C131.1,63.6,131.1,63.7,131.2,63.7z"/>
	<path d="M136.7,44.2C136.6,44.2,136.6,44.2,136.7,44.2C136.6,44.1,136.6,44.2,136.7,44.2z"/>
	<path d="M204.2,63.3C204.1,63.3,204.1,63.3,204.2,63.3C204.1,63.2,204.1,63.3,204.2,63.3z"/>
	<path d="M81.8,69.5c0-0.1,0-0.1,0.1-0.1C81.9,69.4,81.8,69.5,81.8,69.5z"/>
	<path d="M264.7,62.5C264.7,62.4,264.7,62.4,264.7,62.5C264.8,62.4,264.7,62.5,264.7,62.5z"/>
	<path d="M85.3,59.9C85.2,59.9,85.2,59.9,85.3,59.9C85.2,59.9,85.2,59.9,85.3,59.9z"/>
	<path d="M81.5,69.7c0-0.1,0-0.1,0.1-0.1C81.6,69.6,81.5,69.7,81.5,69.7z"/>
	<path d="M130.9,62.3C130.8,62.3,130.8,62.3,130.9,62.3C130.8,62.2,130.8,62.2,130.9,62.3C130.9,62.2,130.9,62.2,130.9,62.3z"/>
	<path d="M38.9,69.9C38.9,69.9,38.9,69.9,38.9,69.9C38.9,69.9,38.9,69.9,38.9,69.9z"/>
	<path d="M81.2,69.9C81.2,69.8,81.2,69.8,81.2,69.9C81.3,69.8,81.2,69.9,81.2,69.9z"/>
	<path d="M140.1,69.9C140.1,69.9,140,69.9,140.1,69.9C140,69.9,140.1,69.9,140.1,69.9z"/>
	<path d="M177.5,69.8C177.5,69.8,177.4,69.9,177.5,69.8C177.4,69.9,177.4,69.8,177.5,69.8C177.4,69.8,177.5,69.8,177.5,69.8z"/>
	<path d="M29.7,62.3C29.7,62.3,29.6,62.2,29.7,62.3C29.6,62.2,29.7,62.2,29.7,62.3C29.7,62.2,29.7,62.2,29.7,62.3z"/>
	<polygon points="109.5,38.3 109.5,38.3 109.5,38.3 	"/>
	<path d="M266.8,61.7C266.8,61.6,266.8,61.6,266.8,61.7C266.8,61.6,266.8,61.7,266.8,61.7z"/>
	<path d="M80.9,70.1c0-0.1,0-0.1,0.1-0.1C80.9,70,80.9,70.1,80.9,70.1z"/>
	<path d="M80.7,70.2C80.7,70.2,80.7,70.1,80.7,70.2C80.7,70.2,80.7,70.2,80.7,70.2z"/>
	<path d="M80.5,70.3C80.5,70.3,80.5,70.2,80.5,70.3C80.5,70.3,80.5,70.3,80.5,70.3z"/>
	<path d="M267,61.6c0-0.1,0-0.1,0.1-0.1C267,61.5,267,61.6,267,61.6z"/>
	<path d="M49.3,70.6C49.3,70.6,49.4,70.5,49.3,70.6C49.4,70.6,49.4,70.6,49.3,70.6z"/>
	<path d="M150.4,70.7c0-0.1,0-0.1,0.1-0.1C150.5,70.6,150.4,70.7,150.4,70.7z"/>
	<path d="M150.2,70.8C150.2,70.8,150.2,70.7,150.2,70.8C150.3,70.8,150.2,70.8,150.2,70.8z"/>
	<path d="M48.8,70.9C48.8,70.9,48.8,70.8,48.8,70.9C48.9,70.9,48.9,70.9,48.8,70.9z"/>
	<path d="M150,70.9C150,70.9,150,70.8,150,70.9C150.1,70.9,150,70.9,150,70.9z"/>
	<path d="M48.6,71C48.6,71,48.6,70.9,48.6,71C48.7,71,48.6,71,48.6,71z"/>
	<path d="M149.8,71C149.8,71,149.8,70.9,149.8,71C149.9,71,149.8,71,149.8,71z"/>
	<path d="M48.4,71.1C48.4,71.1,48.4,71,48.4,71.1C48.5,71.1,48.4,71.1,48.4,71.1z"/>
	<path d="M149.6,71.1C149.6,71.1,149.6,71,149.6,71.1C149.7,71.1,149.6,71.1,149.6,71.1z"/>
	<path d="M26.3,29.5c-0.1,0-0.1,0-0.1-0.1C26.3,29.4,26.3,29.5,26.3,29.5z"/>
	<path d="M149.4,71.2c0-0.1,0-0.1,0.1-0.1C149.5,71.2,149.4,71.2,149.4,71.2z"/>
	<path d="M47.7,71.4c0,0,0-0.1,0.1-0.1C47.8,71.4,47.7,71.4,47.7,71.4z"/>
	<path d="M267.5,61.3C267.5,61.2,267.5,61.2,267.5,61.3C267.5,61.2,267.5,61.2,267.5,61.3z"/>
	<path d="M106.5,60.4C106.5,60.5,106.4,60.4,106.5,60.4C106.5,60.4,106.5,60.4,106.5,60.4z"/>
	<path d="M85.5,60.6C85.4,60.5,85.4,60.5,85.5,60.6C85.4,60.5,85.4,60.5,85.5,60.6z"/>
	<path d="M95.4,72.2C95.4,72.2,95.4,72.3,95.4,72.2C95.4,72.2,95.4,72.2,95.4,72.2C95.5,72.3,95.4,72.2,95.4,72.2
		C95.4,72.2,95.4,72.2,95.4,72.2z"/>
	<polygon points="113.2,65.5 113.2,65.5 113.2,65.5 113.2,65.5 	"/>
	<path d="M60.3,60.7c0,0.2,0.1,0.3-0.2,0.4C60.1,60.9,60.1,60.8,60.3,60.7z"/>
	<path d="M61.1,58.1c0,0.1,0,0.3-0.2,0.3C60.9,58.3,61,58.2,61.1,58.1z"/>
	<path d="M60.7,58.8c0.1,0.1,0.1,0.2-0.1,0.2C60.7,59,60.6,58.9,60.7,58.8z"/>
	<path d="M60.6,59.2C60.6,59.2,60.6,59.2,60.6,59.2C60.5,59.2,60.6,59.2,60.6,59.2z"/>
	<path d="M60.5,59.5C60.5,59.5,60.5,59.5,60.5,59.5C60.4,59.5,60.5,59.5,60.5,59.5z"/>
	<path d="M67.7,70.1C67.7,70.1,67.7,70.1,67.7,70.1C67.7,70.1,67.7,70.1,67.7,70.1z"/>
	<path d="M68.5,70.2C68.5,70.2,68.5,70.2,68.5,70.2C68.5,70.2,68.5,70.2,68.5,70.2z"/>
	<path d="M63.2,56.1c0,0-0.1,0.1-0.1,0.1C63.1,56.1,63.1,56.1,63.2,56.1z"/>
</g>
</svg>
