<?xml version="1.0" encoding="utf-8"?>
<!-- Generator: Adobe Illustrator 27.4.1, SVG Export Plug-In . SVG Version: 6.00 Build 0)  -->
<svg version="1.1" id="Capa_1" xmlns="http://www.w3.org/2000/svg" xmlns:xlink="http://www.w3.org/1999/xlink" x="0px" y="0px"
	 viewBox="0 0 1080 1080" style="enable-background:new 0 0 1080 1080;" xml:space="preserve">

<g>
	<path class="st0" d="M561,701.3c-85.7,0-154.8-69.5-154.7-155.7c0.1-85.3,69.7-154.3,155.6-154.3c85.4,0.1,154.5,69.6,154.4,155.4
		C716.2,632.2,646.7,701.3,561,701.3z M681.8,546.2c0-66-54.4-120.4-120.4-120.5c-66-0.1-120.5,54.2-120.6,120.3
		c-0.2,66.2,54.5,120.9,120.7,120.8C627.5,666.7,681.8,612.3,681.8,546.2z"/>
	<path class="st0" d="M538.2,579.2c26.3-26.3,51.9-52.2,77.8-77.6c3.4-3.3,8.5-5.9,13.2-6.8c6.9-1.3,12.6,2.3,16,8.7
		c3.5,6.5,2.8,12.9-1.4,18.8c-1.1,1.5-2.5,2.9-3.9,4.2c-28.9,28.9-57.8,57.9-86.8,86.8c-10.3,10.3-19.4,10.3-29.7,0
		c-13.9-13.9-27.9-27.8-41.8-41.8c-8.3-8.4-8.9-19.2-1.4-26.4c7.3-7,17.8-6.4,26,1.8C516.8,557.6,527.3,568.2,538.2,579.2z"/>
</g>
</svg>
