<?xml version="1.0" encoding="utf-8"?>
<!-- Generator: Adobe Illustrator 27.5.0, SVG Export Plug-In . SVG Version: 6.00 Build 0)  -->
<svg version="1.1" id="Capa_1" xmlns="http://www.w3.org/2000/svg" xmlns:xlink="http://www.w3.org/1999/xlink" x="0px" y="0px"
	 viewBox="0 0 1876.6 1681.5" style="enable-background:new 0 0 1876.6 1681.5;" xml:space="preserve">
<g>
	<path d="M890,1670.9c-86.2-5-172-23.3-254-55.1c-40.5-15.7-79.7-34.6-117-56.7c-61.9-36.6-118.5-81.6-168.8-132.9
		c-11.2-11.4-22-23.1-32.6-35c-116.8-132.2-184.9-287-201.7-462.4C95,712.3,150.2,515.6,283,343C406,183,566.8,79.4,764.6,38.1
		c247.1-51.6,473.7-1,674.9,151.5c85.4,64.7,157.7,146.2,211.7,238.8c54.4,93.3,90.2,197.2,105.7,304.1c17,117,7.3,237.3-26.7,350.4
		c-33.1,110-89.2,213-164,300.2c-4.1,4.8-8.4,9.6-12.6,14.3c-48.4,53.7-103.2,101.7-163.6,141.5c-59.7,39.2-124.6,70.2-192.5,92.3
		C1097.8,1663.5,993.5,1676.8,890,1670.9z M938.4,101.5c-410.6-0.2-745,334.4-744.4,744.7c0.6,410.8,331.9,742.4,743.4,744.1
		c409.5,1.7,744.3-332.5,745.2-743.9C1683.5,436.3,1349.2,101.7,938.4,101.5z"/>
	<path d="M938.1,374c65.2,1.4,135.4,15.3,199.9,53.2c122,71.7,154.5,249,44,354.5c-38.7,36.9-82.6,68.7-125.6,100.9
		c-27.3,20.5-47.2,45.1-57.5,77.5c-1.5,4.6-3.8,8.9-5.5,13.4c-18.7,48.7-57.5,58.3-102.5,48.4c-39.2-8.6-61.5-49-57.7-92.7
		c4.9-55.6,37.4-93.6,77.2-127.2c29.2-24.6,59.9-47.5,88.8-72.4c29.4-25.4,53.7-54.5,55.6-96.3c2.5-56.7-28.2-97.4-83.6-109.7
		c-29.4-6.6-58.9-5.9-87.8,2.7c-28.1,8.4-49.2,26.2-63,52c-11.5,21.3-21.5,43.3-33.6,64.3c-23.4,40.6-67.2,55.6-111.1,38.9
		c-38.7-14.7-55.6-50.6-46.4-98.3c13.3-69.1,55.5-117.6,112.4-154.7C798.8,391.4,861.8,373.8,938.1,374z"/>
	<path d="M1023.2,1213.1c0.2,56.9-46.1,104-103,104.6c-57.3,0.6-105-46.6-105.1-104.1c-0.1-57.4,47.8-105.4,104.6-104.7
		C976.7,1109.5,1023,1156.2,1023.2,1213.1z"/>
</g>
</svg>
