<?xml version="1.0" encoding="utf-8"?>
<!-- Generator: Adobe Illustrator 27.7.0, SVG Export Plug-In . SVG Version: 6.00 Build 0)  -->
<svg version="1.1" id="Capa_1" xmlns="http://www.w3.org/2000/svg" xmlns:xlink="http://www.w3.org/1999/xlink" x="0px" y="0px"
	 viewBox="0 0 1664.4 1667.3" style="enable-background:new 0 0 1664.4 1667.3;" xml:space="preserve">
<g>
	<path d="M784.9,1656.7c-86.2-5-172-23.3-254-55.1c-40.5-15.7-79.7-34.6-117-56.7c-61.9-36.6-118.5-81.6-168.8-132.9
		c-11.2-11.4-22-23.1-32.6-35C95.7,1244.8,27.6,1090,10.8,914.6c-20.9-216.5,34.3-413.2,167.1-585.8
		c123-160,283.8-263.6,481.6-304.9c247.1-51.6,473.7-1,674.9,151.5c85.4,64.7,157.7,146.2,211.7,238.8
		c54.4,93.3,90.2,197.2,105.7,304.1c17,117,7.3,237.3-26.7,350.4c-33.1,110-89.2,213-164,300.2c-4.1,4.8-8.4,9.6-12.6,14.3
		c-48.4,53.7-103.2,101.7-163.6,141.5c-59.7,39.2-124.6,70.2-192.5,92.3C992.7,1649.3,888.4,1662.6,784.9,1656.7z M833.3,87.3
		C422.7,87.1,88.3,421.7,88.9,832c0.6,410.8,331.9,742.4,743.4,744.1c409.5,1.7,744.3-332.5,745.2-743.9
		C1578.4,422.1,1244.1,87.5,833.3,87.3z"/>
	<path d="M833,359.8c65.2,1.4,135.4,15.3,199.9,53.2c122,71.7,154.5,249,44,354.5c-38.7,36.9-82.6,68.7-125.6,100.9
		c-27.3,20.5-47.2,45.1-57.5,77.5c-1.5,4.6-3.8,8.9-5.5,13.4c-18.7,48.7-57.5,58.3-102.5,48.4c-39.2-8.6-61.5-49-57.7-92.7
		c4.9-55.6,37.4-93.6,77.2-127.2c29.2-24.6,59.9-47.5,88.8-72.4c29.4-25.4,53.7-54.5,55.6-96.3c2.5-56.7-28.2-97.4-83.6-109.7
		c-29.4-6.6-58.9-5.9-87.8,2.7c-28.1,8.4-49.2,26.2-63,52c-11.5,21.3-21.5,43.3-33.6,64.3c-23.4,40.6-67.2,55.6-111.1,38.9
		c-38.7-14.7-55.6-50.6-46.4-98.3c13.3-69.1,55.5-117.6,112.4-154.7C693.7,377.2,756.7,359.6,833,359.8z"/>
	<path d="M918.1,1198.9c0.2,56.9-46.1,104-103,104.6c-57.3,0.6-105-46.6-105.1-104.1c-0.1-57.4,47.8-105.4,104.6-104.7
		C871.6,1095.3,917.9,1142,918.1,1198.9z"/>
</g>
</svg>
