<?xml version="1.0" encoding="utf-8"?>
<!-- Generator: Adobe Illustrator 27.4.1, SVG Export Plug-In . SVG Version: 6.00 Build 0)  -->
<svg version="1.1" id="Capa_1" xmlns="http://www.w3.org/2000/svg" xmlns:xlink="http://www.w3.org/1999/xlink" x="0px" y="0px"
	 viewBox="0 0 1080 1080" style="enable-background:new 0 0 1080 1080;" xml:space="preserve">
<g>
	<path d="M460.1,408.2c0-11.7-0.1-22.8,0-33.9c0.3-43.8,28.9-80,71.2-90.4c50.7-12.5,103.4,22.3,111.6,73.8c1,6.4,1.4,12.9,1.6,19.4
		c0.3,10.2,0.1,20.3,0.1,31c2.8,0.7,5.5,1.3,8.2,2c31.6,8,53.7,34.7,54.1,67.1c0.5,47.4,0.4,94.7-0.1,142.1
		c-0.4,31.5-27.6,61.2-58.9,65.5c-4.2,0.6-8.5,1-12.8,1c-55.2,0.1-110.3,0.1-165.5,0c-34.1,0-62.2-22.2-70.1-55.3
		c-0.9-3.8-1.6-7.8-1.6-11.7c-0.1-47.8-0.5-95.7,0.1-143.5c0.4-31.8,25.7-60.3,57.2-66C456.7,409.1,458.2,408.7,460.1,408.2z
		 M552.1,669.8c28,0,56,0.1,83.9,0c30-0.2,54.4-23.3,54.8-53.3c0.6-46.4,0.6-92.8,0-139.2c-0.4-30.1-25.1-53.5-55.2-53.6
		c-55.5-0.1-111-0.1-166.4,0c-4.1,0-8.3,0.5-12.2,1.4c-26.3,6.3-43.1,27.5-43.2,54.9c-0.1,44.5,0,89,0,133.5c0,3.5,0.1,7,0.8,10.4
		c5.4,27.7,27.3,45.8,55.5,45.9C497.4,669.8,524.7,669.8,552.1,669.8z M628.5,407.3c0-12.3,0.1-24.1-0.1-35.8
		c-0.1-4.1-0.7-8.2-1.5-12.3c-6.4-33.9-36.5-60-69.5-61.6c-40.7-1.9-70.9,25.7-78.6,56.8c-4.3,17.2-2.2,34.7-2.3,52.1
		c0,0.2,0.4,0.5,0.6,0.7C527.4,407.3,577.7,407.3,628.5,407.3z"/>
	<path d="M552.3,621c-7.8,0-15.6,0.1-23.4,0c-11.7-0.1-19.8-10.2-17.1-21.6c3.7-16,7.6-32,11.6-48c0.8-3.4,0.5-5.6-2.3-8.2
		c-14.3-13.4-17.9-35.2-9.2-52.5c9.1-18.1,28.2-27.5,48.9-24c18.2,3,33.6,19,36.1,37.7c2,15.3-2.6,28.6-13.9,39.3
		c-2.4,2.3-2.7,4.2-2,7c3.9,16,7.8,32,11.6,48c2.9,12.4-4.9,22.3-17.6,22.4C567.5,621.1,559.9,621,552.3,621z M552.2,605.8
		c6.5,0,13,0,19.5,0c5.7,0,5.9-0.2,4.6-5.6c-4.1-17.1-8.2-34.1-12.3-51.2c-1.9-8.1-1.6-9,5.1-13.9c11.6-8.5,15.4-23.8,9.1-36.5
		c-6.4-12.8-20.9-19.2-34.5-14.8c-10.8,3.5-18,10.9-19.9,22.2c-2,12.1,1.9,22.2,12.2,29.5c5.9,4.2,6.4,5.3,4.8,12.3
		c-4.2,17.7-8.3,35.4-12.8,53.1c-1,4.1,0.3,5.1,4.1,5C538.9,605.7,545.5,605.8,552.2,605.8z"/>
</g>
</svg>
