<?xml version="1.0" encoding="utf-8"?>
<!-- Generator: Adobe Illustrator 27.5.0, SVG Export Plug-In . SVG Version: 6.00 Build 0)  -->
<svg version="1.1" id="Capa_1" xmlns="http://www.w3.org/2000/svg" xmlns:xlink="http://www.w3.org/1999/xlink" x="0px" y="0px"
	 viewBox="0 0 368.5 237.4" style="enable-background:new 0 0 368.5 237.4;" xml:space="preserve">
<g>
	<path d="M184.3,226.6c-46.9,0-93.8,0-140.7,0c-12.3,0-21.2-6.9-23.6-18.2c-0.4-1.9-0.4-4-0.4-6c0-55.4,0-110.8,0-166.2
		c0-15,9.3-24.4,24.2-24.4c93.7,0,187.4,0,281.1,0c15,0,24.2,9.4,24.2,24.4c0,55.4,0,110.8,0,166.2c0,14.9-9.4,24.1-24.4,24.1
		C277.8,226.6,231.1,226.6,184.3,226.6z M46,214.8c92.4,0,184.2,0,276.5,0c-28.8-34.6-57.3-68.7-85.8-102.9
		c-9.9,8-19.3,15.6-28.8,23.1c-14.6,11.6-32.5,11.5-47.2,0c-2.9-2.3-5.8-4.7-8.8-7c-6.6-5.3-13.2-10.5-20-16
		C103.2,146.2,74.8,180.3,46,214.8z M40.3,23.6c1.4,1.3,2,1.9,2.8,2.5c41.4,33.1,82.7,66.3,124.1,99.4c11.1,8.9,22.8,9,33.8,0.2
		c41.6-33.2,83.2-66.5,124.7-99.8c0.7-0.5,1.2-1.3,2.2-2.3C231.9,23.6,136.6,23.6,40.3,23.6z M122.9,104.7
		C92.4,80.3,62.1,56.1,31.8,31.9c-0.3,0.2-0.6,0.3-1,0.5c0,1.6,0,3.2,0,4.7c0,24.3,0,48.7,0,73c0,30.6,0,61.1,0,91.7
		c0,3.4,0.2,6.7,3.1,9.5C63.7,175.7,93.2,140.3,122.9,104.7z M337.4,31.3c-31,24.8-61.3,49.1-91.7,73.4
		c29.7,35.6,59.2,71,88.8,106.6c3.1-2.9,3.2-6.3,3.2-9.8c0-54.9,0-109.8,0-164.7C337.6,35.3,337.5,33.8,337.4,31.3z"/>
</g>
</svg>
