<?xml version="1.0" encoding="utf-8"?>
<!-- Generator: Adobe Illustrator 27.5.0, SVG Export Plug-In . SVG Version: 6.00 Build 0)  -->
<svg version="1.1" id="Capa_1" xmlns="http://www.w3.org/2000/svg" xmlns:xlink="http://www.w3.org/1999/xlink" x="0px" y="0px"
	 viewBox="0 0 439 520.3" style="enable-background:new 0 0 439 520.3;" xml:space="preserve">
<g>
	<path d="M199.8,501c-8-1.3-16.1-2.3-24.1-3.8c-34.9-6.8-65.7-22.1-92.5-45.4c-31.3-27.3-52.7-61-63.3-101.3
		c-7.2-27.3-8.3-54.9-3.8-82.8c7-43.7,26.5-81.1,58-112c28.7-28.1,62.9-46.2,102.5-53.7c8.4-1.6,8.4-1.5,8.4-10.2
		c0-3.8,0-7.6-0.1-11.3c0-0.5-0.2-0.9-0.4-2.1c-3.1,0-6.4,0.1-9.6,0c-11.8-0.3-20.4-8.9-20.5-20.8c-0.1-6.9-0.1-13.9,0-20.8
		c0.2-11,8.9-19.8,19.9-19.8c27.1-0.1,54.2-0.1,81.3,0c11,0,19.6,8.8,19.8,19.8c0.1,7.2,0.1,14.5,0,21.7
		c-0.2,11.1-8.8,19.5-19.9,19.8c-3.3,0.1-6.6,0-10.5,0c0,6.9-0.1,13.5,0.2,20c0,1,2.2,2.4,3.6,2.6c30.6,5.3,58.4,17,83.7,34.9
		c2.1,1.5,4,3.1,6,4.6c1.9,1.4,3.7,2.8,5.9,4.5c5.5-5.4,10.8-10.7,16.1-16c11-11,21.9-11,32.8-0.1c4,4,8.1,7.9,12,12.1
		c8.9,9.3,8.9,20.6-0.1,29.8c-6.7,6.9-13.6,13.5-20,19.8c5.6,11.5,11.4,22.1,16.1,33.2c12.5,29.8,17,61,14.2,93.2
		c-4.2,48.7-24,90.3-58.2,124.7c-31.9,32-70.6,51.6-115.7,57.4c-3.9,0.5-7.7,1.2-11.6,1.8C220,501,209.9,501,199.8,501z M33.5,299.4
		c0.8,99.7,79.3,181.1,180.8,181.5c100.1,0.4,181.5-79.1,181.8-180.8c0.3-100.2-79.3-181.5-180.9-181.8
		C115.1,118.1,34.8,198.1,33.5,299.4z M174.5,58.2c27.2,0,54,0,80.7,0c0-7.3,0-14.3,0-21.2c-27.1,0-53.8,0-80.7,0
		C174.5,44.1,174.5,51,174.5,58.2z M391.2,156.2c-5-4.9-9.7-9.6-14.2-14c-5.5,5.6-11.3,11.4-17.2,17.4c4.1,4.6,8.7,9.7,13.2,14.7
		C379.3,168.1,385.2,162.2,391.2,156.2z M205.6,78.7c0,6.7,0,12.9,0,19.3c6.4,0,12.6,0,18.8,0c0-6.6,0-12.8,0-19.3
		C218.1,78.7,212,78.7,205.6,78.7z"/>
	<path d="M376.7,299.5c0.2,89.5-72.1,161.8-162.3,161.7c-43.7-0.1-81.4-16-112.7-46.4c-32.1-31.2-48.5-70.3-48.8-114.1
		c-0.3-44.4,15.9-84,48.3-115.7c31.3-30.7,69.1-46.7,112.9-46.9C304.1,137.7,376.5,209.9,376.7,299.5z M356.1,290.6
		C351.4,213.5,286,160.5,224.2,159c0,2.5,0.1,5,0,7.4c-0.2,4.2-0.1,8.5-0.8,12.7c-0.9,5.1-5.3,7.9-10.4,7.4
		c-5.7-0.6-8.9-4.7-9.1-11.8c-0.1-5.3,0-10.6,0-15.9C131.4,163.4,76,226.1,74.4,290.6c2.2,0,4.3-0.1,6.5,0c3.9,0.1,7.9,0,11.8,0.5
		c5.9,0.9,8.9,5.3,8.1,11.2c-0.7,5.2-4.8,8.4-11.2,8.5c-5,0.1-10,0-15.6,0c3.6,37.7,18.8,69,46.5,94c23.6,21.3,51.3,33.2,83.5,36
		c0-3.1-0.1-5.4,0-7.7c0.2-4.2,0.1-8.5,0.8-12.7c0.8-4.8,4.7-7.5,9.5-7.5c6.1,0.1,9.9,4.4,10,11.8c0.1,5.3,0,10.6,0,15.9
		c74.7-3.7,129.4-68.2,131.3-129.3c-0.1-0.1-0.3-0.3-0.4-0.3c-5.5-0.1-11-0.1-16.5-0.2c-7.2-0.2-11.6-4.4-11.4-10.5
		c0.2-5.9,4.4-9.5,11.6-9.7C344.5,290.4,350.1,290.6,356.1,290.6z"/>
	<path d="M225.2,291.6c6.4,0,12.4,0,18.3,0c8.8,0,17.6-0.1,26.5,0.1c6.6,0.1,10.6,3.4,11.2,8.6c0.7,6.4-3.3,11.3-10.2,11.4
		c-18.6,0.3-37.2,0.2-55.8,0c-6-0.1-9.1-3.4-10-9.3c-0.2-1.2-0.3-2.5-0.3-3.8c0-23.2,0-46.3,0-69.5c0-7.8,3.2-12.3,9-12.8
		c6.9-0.6,11.3,4,11.3,12.4c0.1,19.1,0,38.1,0,57.2C225.2,287.7,225.2,289.4,225.2,291.6z"/>
</g>
</svg>
