<?xml version="1.0" encoding="utf-8"?>
<!-- Generator: Adobe Illustrator 27.5.0, SVG Export Plug-In . SVG Version: 6.00 Build 0)  -->
<svg version="1.1" id="Capa_1" xmlns="http://www.w3.org/2000/svg" xmlns:xlink="http://www.w3.org/1999/xlink" x="0px" y="0px"
	 viewBox="0 0 1876.6 1834.8" style="enable-background:new 0 0 1876.6 1834.8;" xml:space="preserve">

<g>
	<path d="M73.5,871.2c2.1-27.7,4.8-56.1,9-83.8c18-130.2,64.4-249.3,136.4-358.8c92.1-138.5,214.7-243.1,365-313.1
		c44.3-20.8,91.4-35.3,137.8-50.6c24.2-8.3,50.6,2.1,64.4,22.2c14.5,20.8,14.5,45.7-2.8,67.9c-43.6,55.4-79,115-102.5,181.5
		c-36,103.2-47.8,209.2-31.9,317.9c17.3,117.7,63.7,223,137.8,315.1c70,86.6,156.5,151,259,192.5c88.7,36,181.5,52.6,277.7,47.8
		c130.2-6.2,246.6-49.2,351.9-124.7c13.2-9,24.9-19.4,37.4-29.1c23.5-16.6,50.6-17.3,71.3-2.8c18.7,13.9,24.9,35.3,18,63.7
		c-42.2,169-124.7,315.1-252.8,433.6c-122.6,114.3-266,191.9-430.8,220.3c-359.5,61.6-653.1-54-876.9-342.2
		c-38.1-49.2-70.6-103.2-95.6-160c-24.9-56.8-43.6-116.4-56.1-177.3c-6.9-36-12.5-72-15.9-108.7C70.8,945.3,70.8,908.6,73.5,871.2z
		 M1638.9,1249.4c-321.4,133-621.3,104.6-874.1-141.3S473.9,563,597.2,239.6C363.7,355.2,163.6,635.1,194.7,980
		c31.2,346.3,292.3,626.8,640.7,682.2C1179,1716.9,1492.7,1534.8,1638.9,1249.4z"/>
	<path class="st0" d="M1638.9,1249.4c-146.1,285.4-460.6,467.5-803.4,412.8C487,1606.1,225.9,1325.6,194.7,980
		c-31.2-344.2,168.3-624.7,402.4-740.4C473.9,563,512,862.9,764.8,1108.1C1017.6,1354,1318.2,1382.4,1638.9,1249.4z"/>
</g>
</svg>
