<?xml version="1.0" encoding="utf-8"?>
<!-- Generator: Adobe Illustrator 27.4.1, SVG Export Plug-In . SVG Version: 6.00 Build 0)  -->
<svg version="1.1" id="Capa_1" xmlns="http://www.w3.org/2000/svg" xmlns:xlink="http://www.w3.org/1999/xlink" x="0px" y="0px"
	 viewBox="0 0 884.1 1010.5" style="enable-background:new 0 0 884.1 1010.5;" xml:space="preserve">

<g>
	<path class="st0" d="M354.2,467c0,3.9,0.5,7.5-0.2,10.8c-0.4,2.3-1.8,5.3-3.7,6.2c-1.8,0.9-5.4,0.4-7.1-1
		c-15.2-11.9-30.2-24.1-45.2-36.3c-4-3.3-4-7.5,0.1-10.8c15-12.2,30.1-24.3,45.1-36.4c2.2-1.8,4.7-2.4,7.3-1
		c2.6,1.3,3.7,3.5,3.7,6.4c0,3.5,0,6.9,0,10.8c5.1,0,10,0,14.8,0c46,0.1,85.7,28.8,100.1,72.5c3.6,10.9,5.1,22,5.1,33.5
		c-0.1,22.8,0,45.7,0,68.5c0,6.5-1.9,8.5-8.4,8.6c-11.5,0-23,0.1-34.4,0c-6.3,0-8.2-2.1-8.2-8.4c0-23.3,0.3-46.7-0.1-70
		c-0.3-22.5-10.7-38.9-31.1-48.8c-7.9-3.8-16.4-4.7-25.1-4.7C362.7,467,358.6,467,354.2,467z"/>
	<path class="st0" d="M474.2,348.1c0,1.9,0,3.2,0,4.5c0,20,0,39.9,0.1,59.9c0,2.5-0.7,3.8-3,5.2c-7.8,4.9-15.4,10.1-22.7,15.1
		c-7.9-5.2-16.1-10.6-24.1-16.2c-0.9-0.6-1.3-2.5-1.3-3.8c-0.1-20.1-0.1-40.2-0.1-60.3c0-1.3,0-2.7,0-4.5c-3.6,0-6.8,0-10,0
		c-3,0-5.7-0.7-7.2-3.7c-1.4-2.8-0.5-5.2,1.1-7.7c11.8-17.7,23.6-35.5,35.4-53.2c3.9-5.9,8.7-5.9,12.6,0
		c11.8,17.7,23.6,35.5,35.4,53.3c1.6,2.4,2.4,4.9,1.1,7.7c-1.5,3-4.2,3.6-7.3,3.6C481,348.1,477.8,348.1,474.2,348.1z"/>
	<path class="st0" d="M543,467.4c-23.9-2.2-45,1.6-60,23c-1.1-3.4-2-6.2-3-8.9c-4-11.2-9.5-21.6-16.7-31.1c-3.8-5-3.1-10.2,2-13.9
		c18.4-13.5,39-20.5,62-20.6c5.1,0,10.2,0,15.7,0c0-3.8,0-7.2,0-10.7c0-3,1.1-5.3,3.9-6.7c2.7-1.3,5.1-0.5,7.3,1.3
		c14.9,12,29.9,24.1,44.8,36.1c4.2,3.4,4.3,7.6,0.1,11.1c-15,12.2-30,24.3-45.2,36.2c-1.7,1.3-5.2,1.7-7.1,0.8
		c-1.8-0.8-3.2-3.7-3.5-5.9C542.6,474.6,543,471.1,543,467.4z"/>
</g>
</svg>
