<?xml version="1.0" encoding="utf-8"?>
<!-- Generator: Adobe Illustrator 27.4.1, SVG Export Plug-In . SVG Version: 6.00 Build 0)  -->
<svg version="1.1" id="Capa_1" xmlns="http://www.w3.org/2000/svg" xmlns:xlink="http://www.w3.org/1999/xlink" x="0px" y="0px"
	 viewBox="0 0 884.1 1010.5" style="enable-background:new 0 0 884.1 1010.5;" xml:space="preserve">

<g>
	<path d="M625,480.3c0,8,0,16,0,24c-0.2,1-0.5,1.9-0.6,2.9c-3.4,42-18.8,79.1-46.4,110.8c-29.7,34.1-67,55.2-111.6,63.1
		c-7,1.2-14,2-21,2.9c-8,0-16,0-24,0c-1.1-0.2-2.2-0.5-3.2-0.7c-11.4-1.9-23-3-34.2-6C291.7,652.9,232.1,565,243.1,469.8
		c5.1-44.1,23.2-82.3,55-113.1c52.6-50.8,115.7-68.5,186-48.8c76.2,21.4,121.9,73.6,138,151.3C623.5,466.2,624,473.3,625,480.3z"/>
	<g>
		<path class="st0" d="M514.6,440.6c-0.2,0.9-0.3,1.8-0.7,2.6c-1.1,2.2-1.9,4.6-3.4,6.3c-4.2,4.6-8.9,8.8-13.2,13
			c-11.4-11.4-23-23-34.4-34.4c4.3-4.4,8.4-9.1,13-13.2c6.1-5.5,16.4-5.4,22.6,0.2c4.2,3.8,8.1,7.9,12,12c2.4,2.5,3.4,5.8,4.1,9.1
			C514.6,437.6,514.6,439.1,514.6,440.6z"/>
		<path class="st0" d="M452.5,438.2c11.6,11.6,23.1,23.1,34.8,34.8c-0.3,0.4-0.7,0.8-1.1,1.2c-29.1,29.1-58.3,58.3-87.5,87.4
			c-0.9,0.9-2.2,1.6-3.5,2c-12.7,3.2-25.4,6.4-38.1,9.5c-3.4,0.8-5.5-1.3-4.7-4.7c3.2-12.9,6.4-25.8,9.7-38.8
			c0.2-0.8,0.7-1.7,1.3-2.3c29.5-29.6,59.1-59.1,88.7-88.7C452.1,438.4,452.3,438.3,452.5,438.2z"/>
	</g>
</g>
</svg>
