<?xml version="1.0" encoding="utf-8"?>
<!-- Generator: Adobe Illustrator 27.7.0, SVG Export Plug-In . SVG Version: 6.00 Build 0)  -->
<svg version="1.1" id="Capa_1" xmlns="http://www.w3.org/2000/svg" xmlns:xlink="http://www.w3.org/1999/xlink" x="0px" y="0px"
	 viewBox="0 0 3827.6 3810.6" style="enable-background:new 0 0 3827.6 3810.6;" xml:space="preserve">
<g>
	<path d="M815.2,1235.6c-95.9,5.4-198.2-70.7-200.1-182.7c-1.7-105.4,74.5-183.7,164-184.4c-17.7-35.7-34.7-70.4-51.7-105
		C618,541.9,713.2,309.2,945.1,223.9c36.5-13.4,68-42,100.1-65.8c78.9-59,165.4-99.8,262.6-118.6c123.6-24.1,243.4-12.4,359,36.5
		c63.7,27,126.8,55.6,189,85.8c237.3,115.2,339.6,384.7,240,628.9c-10.4,25.3-21.4,50.5-33.8,79.7c29.4,9.7,87.4,16.8,133.4,68.7
		c30.4,34.2,41.5,77.2,38.9,123.1c-6.1,107.8-82.1,162.7-201.4,173.7c-4.9,37.7-7.8,76.3-15.5,113.9
		c-33.7,165.9-122.7,295.6-263.8,388.9c-20.6,13.6-28.7,27.2-27.4,51.5c2,37.6,0.5,75.3,0.5,116.9c72.9,12.2,144.5,24.5,216,36.5
		c131.6,22.1,263.3,43.5,394.9,66.3c27.2,4.8,47.8,0.3,72.8-15.5c30.4-19.2,69.5-33.3,105.2-33.8c200.4-3.1,401-2.2,601.4-1.2
		c105.4,0.5,182.2,78.9,183.4,185.1c0.7,57.6,0.2,115.2,0.2,176.9c65.6,0,128.3,0,190.9,0c56.8,0,113.5-0.7,170.2,0.2
		c70.9,1.2,122.6,51.2,122.7,121.5c0.7,402.7,0.7,805.2,0,1207.9c-0.2,68.2-52.2,117.6-120.7,120c-10,0.3-20.2,0.2-30.3,0.2
		c-1168.8,0-2337.7,0-3506.5,0c-80.2,0-95.2-14.6-95.2-93.8c0-392.5,6.1-785.3-2.4-1177.6C24.5,2268.1,153,2055.7,447,2018.4
		c218.4-27.7,435-70.2,652.4-106.2c6.1-1,11.9-3.6,21.8-6.5c0-44.5,1-89.4-0.8-134.3c-0.3-8.8-9.2-20.1-17.2-25.5
		c-180.2-118.8-274.9-285.7-285.1-500.6C818.4,1242.4,816.9,1240.2,815.2,1235.6z M2330.9,2133.1c-8-2.5-13.8-5.1-19.9-6.1
		c-185.1-30.8-370.7-58.8-555-93.8c-55.2-10.5-90.1,3.2-123.6,43.7c-13.3,16.1-16.3,28-9.5,46.6c13.1,35.4,28.2,70.7,34.8,107.3
		c4.2,23.5,1.2,52.7-9.9,73.4c-22.9,43.2-54.7,81.4-79.6,123.6c-7.3,12.6-9.7,33.5-4.6,46.9c29.1,77.7,62,153.8,91.3,231.3
		c7.1,18.9,10.9,42.5,6.6,61.7c-57.5,253.6-116.4,506.9-175.4,760.2c-10,43-31.3,63.9-63.7,61.7c-37.6-2.5-52.9-26.9-60.7-61.2
		c-56.9-248.5-115.6-496.7-171.2-745.5c-6.1-27.2-1.5-59.7,7.5-86.5c20.2-60.7,42-121.7,71.6-178.1c26.5-50.8,16.1-86.9-14.4-131.9
		c-97.2-143.5-86-86.2-35-248c18-57.3-36.7-118.5-97.2-108.3c-223.5,37.4-446.5,79.2-670.9,110.1
		c-218.4,30.3-303.4,184.6-300.9,348.8c5.9,372.3,1.9,744.7,1.9,1117.1c0,14.4,0,28.9,0,42.5c164.4,0,322.8,0,485.1,0
		c0-342.2,0-682.3,0-1021.9c42.3,0,80.6,0,121.4,0c0,342.2,0,681.4,0,1021.6c363.8,0,724.6,0,1088.4,0c0-17.2,0-32.1,0-46.9
		c0-382.5-0.2-764.9,0.2-1147.4c0-82.3,49.5-131.9,131.4-132.1c104.7-0.3,209.2,0,314-0.2c12.1,0,24.3-1,37.6-1.7
		C2330.9,2256.3,2330.9,2196.3,2330.9,2133.1z M1826.3,721.4c-119.8,96.5-251.7,149.9-402.3,149.8c-150.4,0-282.2-53.7-401.7-149.4
		c-28,55.9-54.1,107.3-79.6,158.8c-2.2,4.2-2.7,9.7-2.7,14.6c2,138.2-6.6,277.7,8.7,414.6c26.2,232.7,238.7,407.6,475.6,407.4
		c237.1,0,447.6-175.4,475.6-408c13.3-110.5,0.5-223.9,10.2-335.2C1918.7,876.3,1864.2,806.1,1826.3,721.4z M3657.6,2444.7
		c-561.1,0-1123.9,0-1688.6,0c0,61.7-0.7,120.7,0.2,179.8c2.4,167.3,133.4,298.5,301.2,300.5c107.1,1.4,214.3,0.3,321.6,0.3
		c13.4,0,26.9,0,43,0c0-59.7-0.3-114.7,0.2-169.8c0.5-49.5,22.3-71.2,71.7-71.6c70.5-0.5,141.3-0.3,211.8-0.2
		c59.3,0.2,79.2,20.1,79.4,79.2c0.2,53.5,0,107.1,0,162.3c117.6,0,229.6,0,341.8,0c15.1,0,30.3,0.3,45.4-0.8
		c134.8-10.4,251.9-110.1,270.4-244.1C3666.3,2604.1,3657.6,2525.2,3657.6,2444.7z M3662.5,2919.1
		c-108.4,107.6-235.6,133.1-374.1,127.5c-85.7-3.4-171.5-0.7-257.2-0.5c-10.7,0-21.4,1.4-33.3,2.2c0,24,0.7,44-0.2,64.1
		c-3.9,98.1-84.7,175.4-182.2,175.1c-97.6-0.5-177.3-78.5-180.3-176.9c-0.7-20.9-0.2-41.8-0.2-64.6c-123.7,0-242.1,0-360.5,0
		c-73.3,0-142.6-16.8-206.2-53.2c-33.1-19-63.6-43-97.4-66.5c0,160.8,0,319.6,0,479.9c564.5,0,1127.3,0,1691.6,0
		C3662.5,3245.8,3662.5,3087.7,3662.5,2919.1z M865.9,762.7c25.5-50.5,48.4-96.2,71.6-141.9c29.7-58.3,61.9-66.3,113.9-28.2
		c34.5,25.3,68,52.2,103.9,75.6c116.4,75.8,242.4,99.3,379.1,69.4c102.3-22.4,181.7-83.6,262.1-144.3
		c51.7-39.1,84.7-30.9,114.1,26.9c22.1,43.2,43.9,86.7,67.3,133.1c84.3-172.5,10.9-386.7-161.7-475.9
		c-70.4-36.4-142.4-70.2-216.6-97.7c-146.4-54.4-288.1-38.6-431.7,42c109.5,36.7,189.9,98.1,244.6,194.8
		c-33.8,22.4-65.1,43.2-96.2,63.7c-147.7-163-284.2-195.6-411.7-99.9C787.2,468,770.8,613.3,865.9,762.7z M3662.2,3532
		c-566,0-1128.7,0-1691.5,0c0,39.9,0,77.2,0,116.1c564.5,0,1127.1,0,1691.5,0C3662.2,3608.9,3662.2,3571.6,3662.2,3532z
		 M2795.8,2318.7c128.2,0,254.8,0,383.8,0c0-56.3,0.3-110.1,0-164s-21.4-75-75.8-75.1c-126-0.3-251.9-0.2-377.9-0.2
		c-37.2,0-74.5,0-123.9,0C2700.6,2141.9,2762.3,2219.9,2795.8,2318.7z M1419.2,3239.1c2.5,0.2,5.3,0.2,7.8,0.3
		c1.7-4.2,3.7-8.3,4.8-12.6c35.2-151.5,70.7-302.9,104.9-454.7c3.1-13.8,2.2-30.4-2.9-43.5c-25.8-68-52.9-135.6-81.3-202.6
		c-4.2-10-18.9-22.9-27.2-21.9c-11,1.4-25.5,12.7-30.1,23.5c-28.2,65.8-54.4,132.2-80.1,199c-4.6,12.1-7.3,27.4-4.4,39.6
		C1346.2,2924.2,1382.8,3081.6,1419.2,3239.1z M1424.4,2116.3c60-60.3,116.8-117.3,173-174.6c4.1-4.1,7.6-10.7,7.8-16.3
		c0.7-37.1,0.3-74.1,0.3-115.2c-123.2,37.7-242.2,35-363.1,0.8c0,37.7-1.4,69.2,0.7,100.5c0.8,12.4,5.9,27.2,14.3,36
		C1310.7,2002.7,1365.3,2056.8,1424.4,2116.3z M2755.9,2806.2c0,101-0.5,197.5,0.2,294.2c0.3,40.6,26,67,61.4,66.3
		c35.2-0.7,58.8-27,59.2-68.7c0.7-79,0.2-158.1,0.2-237.1c0-18.2,0-36.5,0-54.7C2834.2,2806.2,2797,2806.2,2755.9,2806.2z
		 M2665.6,2319.2c-46.2-89.6-114.1-143.6-209.4-166.4c0,58.3,0,112.5,0,166.4C2526.4,2319.2,2593.5,2319.2,2665.6,2319.2z
		 M1520.8,2201.9c-32.5,19.5-64.9,54.6-97.1,54.2c-32.3-0.2-64.4-35.4-96-54.9c-19.5,48.6-19.5,48.4,11.2,94.7
		c13.3,19.9,26.3,39.8,39.8,59.7c26.2,38.8,65.3,38.2,91.8-0.8c14.1-20.9,25.8-43.7,42.5-62.2
		C1540.7,2261.3,1538.8,2230.7,1520.8,2201.9z M817.6,991.8c-125.1-1.9-108.6,74.8-97.9,94.5c16.1,30.1,41,24,97.9,24.8
		C817.6,1071.2,817.6,1034.2,817.6,991.8z M2032.4,993.5c0,38.8,0,77.7,0,116.4c62.9,7.6,97.9-5.8,101.3-57.5
		C2134.8,1005.8,2100.6,991.7,2032.4,993.5z"/>
</g>
</svg>
