<?xml version="1.0" encoding="utf-8"?>
<!-- Generator: Adobe Illustrator 27.5.0, SVG Export Plug-In . SVG Version: 6.00 Build 0)  -->
<svg version="1.1" id="Capa_1" xmlns="http://www.w3.org/2000/svg" xmlns:xlink="http://www.w3.org/1999/xlink" x="0px" y="0px"
	 viewBox="0 0 4000 4000" style="enable-background:new 0 0 4000 4000;" xml:space="preserve">
<g>
	<path d="M1387.2,1444.7c-56.4,3.2-116.6-41.6-117.7-107.5c-1-62,43.8-108.1,96.5-108.5c-10.4-21-20.4-41.4-30.4-61.8
		c-64.4-130.3-8.4-267.2,128-317.4c21.5-7.9,40-24.7,58.9-38.7c46.4-34.7,97.3-58.7,154.5-69.8c72.7-14.2,143.2-7.3,211.2,21.5
		c37.5,15.9,74.6,32.7,111.2,50.5c139.6,67.8,199.8,226.3,141.2,370c-6.1,14.9-12.6,29.7-19.9,46.9c17.3,5.7,51.4,9.9,78.5,40.4
		c17.9,20.1,24.4,45.4,22.9,72.4c-3.6,63.4-48.3,95.7-118.5,102.2c-2.9,22.2-4.6,44.9-9.1,67c-19.8,97.6-72.2,173.9-155.2,228.8
		c-12.1,8-16.9,16-16.1,30.3c1.2,22.1,0.3,44.3,0.3,68.8c42.9,7.2,85,14.4,127.1,21.5c77.4,13,154.9,25.6,232.3,39
		c16,2.8,28.1,0.2,42.8-9.1c17.9-11.3,40.9-19.6,61.9-19.9c117.9-1.8,235.9-1.3,353.8-0.7c62,0.3,107.2,46.4,107.9,108.9
		c0.4,33.9,0.1,67.8,0.1,104.1c38.6,0,75.5,0,112.3,0c33.4,0,66.8-0.4,100.1,0.1c41.7,0.7,72.1,30.1,72.2,71.5
		c0.4,236.9,0.4,473.7,0,710.6c-0.1,40.1-30.7,69.2-71,70.6c-5.9,0.2-11.9,0.1-17.8,0.1c-687.6,0-1375.3,0-2062.9,0
		c-47.2,0-56-8.6-56-55.2c0-230.9,3.6-462-1.4-692.8c-2.9-136.4,72.7-261.3,245.7-283.3c128.5-16.3,255.9-41.3,383.8-62.5
		c3.6-0.6,7-2.1,12.8-3.8c0-26.2,0.6-52.6-0.5-79c-0.2-5.2-5.4-11.8-10.1-15c-106-69.9-161.7-168.1-167.7-294.5
		C1389.1,1448.7,1388.2,1447.4,1387.2,1444.7z M2278.9,1972.7c-4.7-1.5-8.1-3-11.7-3.6c-108.9-18.1-218.1-34.6-326.5-55.2
		c-32.5-6.2-53,1.9-72.7,25.7c-7.8,9.5-9.6,16.5-5.6,27.4c7.7,20.8,16.6,41.6,20.5,63.1c2.5,13.8,0.7,31-5.8,43.2
		c-13.5,25.4-32.2,47.9-46.8,72.7c-4.3,7.4-5.7,19.7-2.7,27.6c17.1,45.7,36.5,90.5,53.7,136.1c4.2,11.1,6.4,25,3.9,36.3
		c-33.8,149.2-68.5,298.2-103.2,447.2c-5.9,25.3-18.4,37.6-37.5,36.3c-22.1-1.5-31.1-15.8-35.7-36c-33.5-146.2-68-292.2-100.7-438.6
		c-3.6-16-0.9-35.1,4.4-50.9c11.9-35.7,24.7-71.6,42.1-104.8c15.6-29.9,9.5-51.1-8.5-77.6c-57.2-84.4-50.6-50.7-20.6-145.9
		c10.6-33.7-21.6-69.7-57.2-63.7c-131.5,22-262.7,46.6-394.7,64.8c-128.5,17.8-178.5,108.6-177,205.2c3.5,219,1.1,438.1,1.1,657.2
		c0,8.5,0,17,0,25c96.7,0,189.9,0,285.4,0c0-201.3,0-401.4,0-601.2c24.9,0,47.4,0,71.4,0c0,201.3,0,400.9,0,601
		c214,0,426.3,0,640.3,0c0-10.1,0-18.9,0-27.6c0-225-0.1-450,0.1-675c0-48.4,29.1-77.6,77.3-77.7c61.6-0.2,123.1,0,184.7-0.1
		c7.1,0,14.3-0.6,22.1-1C2278.9,2045.2,2278.9,2009.9,2278.9,1972.7z M1982,1142.2c-70.5,56.8-148.1,88.2-236.7,88.1
		c-88.5,0-166-31.6-236.3-87.9c-16.5,32.9-31.8,63.1-46.8,93.4c-1.3,2.5-1.6,5.7-1.6,8.6c1.2,81.3-3.9,163.4,5.1,243.9
		c15.4,136.9,140.4,239.8,279.8,239.7c139.5,0,263.3-103.2,279.8-240c7.8-65,0.3-131.7,6-197.2
		C2036.4,1233.3,2004.3,1192,1982,1142.2z M3059.4,2156c-330.1,0-661.2,0-993.4,0c0,36.3-0.4,71,0.1,105.8
		c1.4,98.4,78.5,175.6,177.2,176.8c63,0.8,126.1,0.2,189.2,0.2c7.9,0,15.8,0,25.3,0c0-35.1-0.2-67.5,0.1-99.9
		c0.3-29.1,13.1-41.9,42.2-42.1c41.5-0.3,83.1-0.2,124.6-0.1c34.9,0.1,46.6,11.8,46.7,46.6c0.1,31.5,0,63,0,95.5
		c69.2,0,135.1,0,201.1,0c8.9,0,17.8,0.2,26.7-0.5c79.3-6.1,148.2-64.8,159.1-143.6C3064.5,2249.8,3059.4,2203.4,3059.4,2156z
		 M3062.3,2435.1c-63.8,63.3-138.6,78.3-220.1,75c-50.4-2-100.9-0.4-151.3-0.3c-6.3,0-12.6,0.8-19.6,1.3c0,14.1,0.4,25.9-0.1,37.7
		c-2.3,57.7-49.8,103.2-107.2,103c-57.4-0.3-104.3-46.2-106.1-104.1c-0.4-12.3-0.1-24.6-0.1-38c-72.8,0-142.4,0-212.1,0
		c-43.1,0-83.9-9.9-121.3-31.3c-19.5-11.2-37.4-25.3-57.3-39.1c0,94.6,0,188,0,282.3c332.1,0,663.2,0,995.2,0
		C3062.3,2627.3,3062.3,2534.3,3062.3,2435.1z M1417,1166.5c15-29.7,28.5-56.6,42.1-83.5c17.5-34.3,36.4-39,67-16.6
		c20.3,14.9,40,30.7,61.1,44.5c68.5,44.6,142.6,58.4,223,40.8c60.2-13.2,106.9-49.2,154.2-84.9c30.4-23,49.8-18.2,67.1,15.8
		c13,25.4,25.8,51,39.6,78.3c49.6-101.5,6.4-227.5-95.1-280c-41.4-21.4-83.8-41.3-127.4-57.5c-86.1-32-169.5-22.7-254,24.7
		c64.4,21.6,111.7,57.7,143.9,114.6c-19.9,13.2-38.3,25.4-56.6,37.5c-86.9-95.9-167.2-115.1-242.2-58.8
		C1370.7,993.1,1361.1,1078.6,1417,1166.5z M3062.1,2795.7c-333,0-664,0-995.1,0c0,23.5,0,45.4,0,68.3c332.1,0,663.1,0,995.1,0
		C3062.1,2840.9,3062.1,2819,3062.1,2795.7z M2552.4,2081.9c75.4,0,149.9,0,225.8,0c0-33.1,0.2-64.8,0-96.5
		c-0.2-31.7-12.6-44.1-44.6-44.2c-74.1-0.2-148.2-0.1-222.3-0.1c-21.9,0-43.8,0-72.9,0C2496.4,1977.9,2532.7,2023.8,2552.4,2081.9z
		 M1742.5,2623.4c1.5,0.1,3.1,0.1,4.6,0.2c1-2.5,2.2-4.9,2.8-7.4c20.7-89.1,41.6-178.2,61.7-267.5c1.8-8.1,1.3-17.9-1.7-25.6
		c-15.2-40-31.1-79.8-47.8-119.2c-2.5-5.9-11.1-13.5-16-12.9c-6.5,0.8-15,7.5-17.7,13.8c-16.6,38.7-32,77.8-47.1,117.1
		c-2.7,7.1-4.3,16.1-2.6,23.3C1699.6,2438.1,1721.1,2530.7,1742.5,2623.4z M1745.6,1962.8c35.3-35.5,68.7-69,101.8-102.7
		c2.4-2.4,4.5-6.3,4.6-9.6c0.4-21.8,0.2-43.6,0.2-67.8c-72.5,22.2-142.5,20.6-213.6,0.5c0,22.2-0.8,40.7,0.4,59.1
		c0.5,7.3,3.5,16,8.4,21.2C1678.7,1896,1710.8,1927.8,1745.6,1962.8z M2528.9,2368.7c0,59.4-0.3,116.2,0.1,173.1
		c0.2,23.9,15.3,39.4,36.1,39c20.7-0.4,34.6-15.9,34.8-40.4c0.4-46.5,0.1-93,0.1-139.5c0-10.7,0-21.5,0-32.2
		C2575,2368.7,2553.1,2368.7,2528.9,2368.7z M2475.8,2082.2c-27.2-52.7-67.1-84.5-123.2-97.9c0,34.3,0,66.2,0,97.9
		C2393.9,2082.2,2433.4,2082.2,2475.8,2082.2z M1802.3,2013.2c-19.1,11.5-38.2,32.1-57.1,31.9c-19-0.1-37.9-20.8-56.5-32.3
		c-11.5,28.6-11.5,28.5,6.6,55.7c7.8,11.7,15.5,23.4,23.4,35.1c15.4,22.8,38.4,22.5,54-0.5c8.3-12.3,15.2-25.7,25-36.6
		C1814,2048.1,1812.9,2030.1,1802.3,2013.2z M1388.6,1301.3c-73.6-1.1-63.9,44-57.6,55.6c9.5,17.7,24.1,14.1,57.6,14.6
		C1388.6,1348,1388.6,1326.2,1388.6,1301.3z M2103.3,1302.3c0,22.8,0,45.7,0,68.5c37,4.5,57.6-3.4,59.6-33.8
		C2163.5,1309.5,2143.4,1301.2,2103.3,1302.3z"/>
</g>
</svg>
