<?xml version="1.0" encoding="utf-8"?>
<!-- Generator: Adobe Illustrator 27.5.0, SVG Export Plug-In . SVG Version: 6.00 Build 0)  -->
<svg version="1.1" id="Capa_1" xmlns="http://www.w3.org/2000/svg" xmlns:xlink="http://www.w3.org/1999/xlink" x="0px" y="0px"
	 viewBox="0 0 757.2 752.5" style="enable-background:new 0 0 757.2 752.5;" xml:space="preserve">
<g>
	<path d="M212,739.4c-4.7-1.3-9.5-2.5-14.1-3.9c-34.7-10.7-59.1-43.4-60.8-81.5c-0.2-4-0.2-8-0.2-12c0-134.9,0-269.8,0.1-404.7
		c0-5.3-0.9-8.2-6.6-10.2c-27.5-9.9-45.1-39.4-41.3-67.9c4.1-30.6,28-53.9,58.2-56.5c5.9-0.5,11.8-0.8,17.7-0.8
		c24.8-0.1,49.6,0,75,0c0.4-9.4,0.6-18.5,1.3-27.6c2.5-33.3,30.5-60.3,66-60.6c50.8-0.4,101.6-0.7,152.4,0.1
		c39.2,0.6,65.8,29.4,66.6,69.8c0.1,5.7,0,11.3,0,17.9c2.8,0.1,5.3,0.3,7.7,0.3c25.3,0,50.6-0.2,75.9,0.1c30,0.4,52,13.6,63.8,41.8
		c13.2,31.4-3.6,70.6-35.5,82.7c-6.2,2.4-8.3,5.3-8.3,12c0.2,135.1,0.1,270.3,0.2,405.4c0,28.1-7.9,53.1-28.8,72.9
		c-12,11.3-26.2,18.4-42.4,21.4c-1.3,0.2-2.5,0.9-3.8,1.4C440.8,739.4,326.4,739.4,212,739.4z M170.9,231.4c0,2.5,0,4.4,0,6.3
		c0,135.9,0,271.7,0,407.6c0,4.7,0.4,9.5,1.1,14.1c4.2,27,25.1,45.8,52,45.9c106.3,0.2,212.7,0.1,319,0c13.2,0,25-4.3,34.8-13.5
		c14.1-13.3,18.2-30.3,18.2-48.9c0-134.4,0-268.9,0-403.3c0-2.5,0-5.1,0-8.1C454.2,231.4,313,231.4,170.9,231.4z M383.2,197
		c74.2,0,148.4,0,222.6,0c3.8,0,7.6-0.1,11.3-0.5c16.1-1.8,27.7-15.9,26.6-32c-1.3-17.5-14.3-28.8-33.9-28.8
		c-150.7-0.1-301.5,0-452.2,0c-3.1,0-6.1,0.3-9.2,0.8c-14.3,2.3-24.8,14.4-25.4,29c-0.6,13.8,9.3,27.3,22.9,30.4
		c4.5,1,9.4,1.1,14.1,1.1C234.4,197,308.8,197,383.2,197z M491.8,101.3c0-8.6,0.7-16.6-0.1-24.5c-1.7-17-14.7-29.1-31.8-29.2
		c-51-0.3-102.1-0.3-153.1,0c-15.9,0.1-28.9,11-31.2,26.6c-1.3,8.7-0.2,17.8-0.2,27.1C347.2,101.3,419.2,101.3,491.8,101.3z"/>
	<path d="M300,453.6c0,51.5,0,103,0,154.4c0,2.1,0.1,4.3-0.1,6.4c-0.7,9.9-7.3,16.8-16.4,17.1c-8.6,0.3-15.6-6-17.2-15.6
		c-0.3-1.8-0.3-3.8-0.3-5.6c0-104.1,0-208.3,0-312.4c0-12.5,5.1-19.7,14.5-20.9c9.5-1.3,17.4,4.3,19,13.7c0.5,2.8,0.4,5.6,0.4,8.5
		C300,350.7,300,402.2,300,453.6z"/>
	<path d="M366.5,453.6c0-52.2,0-104.4,0-156.6c0-12.2,5.5-19.3,15.3-20.2c8.7-0.7,15.8,4.1,17.7,12.7c0.8,3.4,1,7,1,10.5
		c0,102.7,0,205.4,0,308.2c0,3.5-0.2,7.1-1,10.5c-1.7,7.6-8.3,12.6-15.8,12.8c-7.4,0.1-14.3-4.8-16.2-12.3c-0.8-3.1-0.9-6.5-0.9-9.8
		C366.5,557.5,366.5,505.5,366.5,453.6z"/>
	<path d="M466.9,453.6c0-51.2,0-102.5,0-153.7c0-3.1,0-6.2,0.5-9.2c1.2-8.1,8.1-13.9,16.2-14c7.9-0.1,14.7,5.2,16.3,13
		c0.6,3,0.9,6.1,0.9,9.1c0,103.4,0,206.9,0,310.3c0,3.3-0.3,6.6-1,9.8c-1.7,7.6-9,13-16.6,12.7c-7.8-0.3-14.6-6-15.8-13.7
		c-0.5-3.2-0.5-6.6-0.5-9.9C466.8,556.5,466.9,505,466.9,453.6z"/>
</g>
</svg>
