<?xml version="1.0" encoding="utf-8"?>
<!-- Generator: Adobe Illustrator 27.4.1, SVG Export Plug-In . SVG Version: 6.00 Build 0)  -->
<svg version="1.1" id="Capa_1" xmlns="http://www.w3.org/2000/svg" xmlns:xlink="http://www.w3.org/1999/xlink" x="0px" y="0px"
	 viewBox="0 0 884.1 1010.5" style="enable-background:new 0 0 884.1 1010.5;" xml:space="preserve">
<path d="M507,460.5c-3.1-0.6-6.1-1.2-9.2-1.8c-33.9-5.8-67.8-11.6-101.8-17.5c-22.4-3.9-44.8-7.9-67.2-11.7
	c-2.3-0.4-3.1-1.5-3.5-3.5c-10.3-46.1-20.7-92.2-30.9-138.3c-0.7-3.2-0.8-6.8,0-9.9c1.9-7.1,9.8-9.8,17.4-6.1
	c7.7,3.7,15.4,7.7,23,11.7c67.5,34.6,135.1,69.3,202.6,103.9c39.9,20.5,79.8,40.9,119.8,61.4c4.7,2.4,8.4,5.3,8.9,11
	c0.5,6.1-2,10.3-7.4,13.1c-15,7.7-30,15.3-44.9,23C514,546.9,414.1,598.1,314.1,649.2c-3.2,1.6-7.1,2.4-10.7,2.4
	c-5.3,0-9.6-4.4-9.3-9.7c0.2-5.5,1.2-11.1,2.4-16.5c9.6-43.1,19.3-86.1,28.9-129.2c0.5-2.3,1.5-3.3,3.8-3.7
	c19.6-3.3,39.2-6.8,58.8-10.2c22.3-3.9,44.6-7.7,66.9-11.5c16.7-2.9,33.3-5.8,49.9-8.7c0.8-0.1,1.5-0.5,2.2-0.7
	C507,461,507,460.8,507,460.5z"/>
</svg>
