<?xml version="1.0" encoding="utf-8"?>
<!-- Generator: Adobe Illustrator 27.5.0, SVG Export Plug-In . SVG Version: 6.00 Build 0)  -->
<svg version="1.1" id="Capa_1" xmlns="http://www.w3.org/2000/svg" xmlns:xlink="http://www.w3.org/1999/xlink" x="0px" y="0px"
	 viewBox="0 0 703.7 1365.9" style="enable-background:new 0 0 703.7 1365.9;" xml:space="preserve">

<g>
	<path class="st0" d="M285,1281c-20.4-16-25.7-38.3-22.4-60.7c2-13.5,9.9-27.2,14.4-41.1c20-61.2,39.6-122.6,59.6-183.8
		c15-45.8,30.3-91.6,45.6-137.3c3.9-11.8,2.4-21.4-7.7-29.6c-27.6-22.2-54.8-44.9-82.5-67c-33.6-26.8-67.4-53.2-101.3-79.6
		c-31.7-24.8-62.4-50.9-95.3-74.2c-22.6-16-32.8-41.4-27.2-66c5.1-22.1,19.9-36.9,41.1-42.4c-21.6,5.4-36.8,20.3-41.9,42.6
		c-5.6,24.6,4.6,50,27.2,66c32.9,23.3,63.6,49.4,95.3,74.2c33.9,26.4,67.7,52.8,101.3,79.6c27.7,22.1,54.9,44.8,82.5,67
		c10.1,8.2,11.6,17.8,7.7,29.6c-15.3,45.7-30.6,91.5-45.6,137.3c-20,61.2-39.6,122.6-59.6,183.8c-4.5,13.9-12.4,27.6-14.4,41.1
		c-3.3,22.4,2,44.7,22.4,60.7c13.6,10.7,38.6,15.6,55.2,11.2C322.8,1296.4,298.3,1291.5,285,1281z"/>
	<path class="st0" d="M613.2,139.8c6.6-21.1,11.3-42.3,29.7-57.4c8.9-7.4,21.3-10.7,33.9-10.6c-12.8-0.2-25.4,3.1-34.4,10.6
		c-18.4,15.1-23.1,36.3-29.7,57.4c-20.6,66.2-42.5,132-63.7,198c-4.8,15-9.3,30.1-13.8,45.2c4.7-15.1,9.5-30.1,14.3-45.2
		C570.7,271.8,592.6,206,613.2,139.8z"/>
	<path class="st0" d="M677.4,1055.5v-0.2c-2.5,0.2-4.8,0.5-7,1.1C672.6,1055.9,674.9,1055.6,677.4,1055.5z"/>
	<path class="st0" d="M474,496.7c-0.1,0-0.2,0-0.2,0C473.8,496.7,473.9,496.7,474,496.7C474,496.7,474,496.7,474,496.7z"/>
	<path d="M670.4,1056.4c-13.8,3.5-22.9,14.1-33.3,21.6c-51.5,37.4-103.1,74.7-154.8,111.9c-44.6,32-88.5,65.1-132.5,97.9
		c-2.8,2.1-6.4,3.6-10.4,4.6c-16.6,4.4-41.6-0.5-55.2-11.2c-20.4-16-25.7-38.3-22.4-60.7c2-13.5,9.9-27.2,14.4-41.1
		c20-61.2,39.6-122.6,59.6-183.8c15-45.8,30.3-91.6,45.6-137.3c3.9-11.8,2.4-21.4-7.7-29.6c-27.6-22.2-54.8-44.9-82.5-67
		c-33.6-26.8-67.4-53.2-101.3-79.6c-31.7-24.8-62.4-50.9-95.3-74.2c-22.6-16-32.8-41.4-27.2-66c5.1-22.4,20.3-37.2,41.9-42.6
		c6-1.6,12.6-2.4,19.6-2.5c58-0.3,116.1-0.1,174.2-0.1c56.9,0,113.8,0.1,170.7,0c0.1,0,0.2,0,0.2,0c0,0,0,0,0,0c0.2,0,0.3,0,0.5,0
		c7.9-0.1,17.1,1.4,22.9-4.8c7-7.4,8.7-19.2,11.9-28.8c9-26.6,17.5-53.3,25.9-80.1c4.5-15.1,9-30.2,13.8-45.2
		c21.2-66,43.1-131.8,63.7-198c6.6-21.1,11.3-42.3,29.7-57.4c9.1-7.5,21.6-10.8,34.4-10.6c0.2,0,0.4,0,0.6,0V25.4
		c-33.7-1.4-62.6,14.5-84,42.9c-13,17.3-17.4,37.8-23.8,57.7c-17,52.7-34.9,105.2-51.8,158c-16.7,52.4-32.7,105-48.9,157.6
		c-2.3,7.3-6.1,10.4-14.7,10.3c-55.2-0.6-110.5-0.3-165.7-0.3c-53.8,0-107.7,0-161.4-0.1c-27.6,0-52.9,7.7-73.1,26.7
		C6.5,523.1,8.5,602.1,66.9,643c31.8,22.1,60.6,48.1,92.1,70.8c21.8,15.7,42,34.8,63.3,51.9c34.4,27.6,69.3,54.5,104,81.8
		c5.5,4.4,7.7,8.8,5,16.8c-22.4,67.2-45.3,134.3-65.7,202.1c-14.8,49.1-35.5,96.2-44.8,147.3c-3.5,19.4-4.6,36.2,1.2,54.5
		c19.7,62.3,95.7,95,154.3,54.6c60.8-41.9,119.2-87.3,180.1-129.2c38.1-26.3,74.5-55,111.5-83c3.1-2.3,6.4-3.6,9.5-3.7v-51.5
		C674.9,1055.6,672.6,1055.9,670.4,1056.4z"/>
	<path class="st1" d="M676.8,71.8c-12.7-0.1-25,3.2-33.9,10.6c-18.4,15.1-23.1,36.3-29.7,57.4c-20.6,66.2-42.5,132-63.7,198
		c-4.8,15.1-9.6,30.1-14.3,45.2c-8.4,26.8-16.9,53.5-25.9,80.1c-3.2,9.6-4.9,21.4-11.9,28.8c-5.8,6.2-15,4.7-22.9,4.8
		c-0.2,0-0.3,0-0.5,0c-0.1,0-0.2,0-0.3,0c-56.9,0.1-113.8,0-170.7,0c-58.1,0-116.2-0.2-174.2,0.1c-7,0-13.5,0.9-19.6,2.5
		c-21.2,5.6-36.1,20.3-41.1,42.4c-5.6,24.6,4.6,50,27.2,66c32.9,23.3,63.6,49.4,95.3,74.2c33.9,26.4,67.7,52.8,101.3,79.6
		c27.7,22.1,54.9,44.8,82.5,67c10.1,8.2,11.6,17.8,7.7,29.6c-15.3,45.7-30.6,91.5-45.6,137.3c-20,61.2-39.6,122.6-59.6,183.8
		c-4.5,13.9-12.4,27.6-14.4,41.1c-3.3,22.4,2,44.7,22.4,60.7c13.3,10.5,37.8,15.4,54.4,11.4c4-1,7.6-2.5,10.4-4.6
		c44-32.8,87.9-65.9,132.5-97.9c51.7-37.2,103.3-74.5,154.8-111.9c10.4-7.5,19.5-18.1,33.3-21.6c2.2-0.6,4.5-1,7-1.1V71.8
		C677.2,71.8,677,71.8,676.8,71.8z"/>
</g>
</svg>
