<?xml version="1.0" encoding="utf-8"?>
<!-- Generator: Adobe Illustrator 27.7.0, SVG Export Plug-In . SVG Version: 6.00 Build 0)  -->
<svg version="1.1" id="Capa_1" xmlns="http://www.w3.org/2000/svg" xmlns:xlink="http://www.w3.org/1999/xlink" x="0px" y="0px"
	 viewBox="0 0 1080 1080" style="enable-background:new 0 0 1080 1080;" xml:space="preserve">

<path class="st0" d="M1062.2,430.5c-2.2-45.3-40.7-80.3-86.1-78.1c-85.1-0.1-170.3-0.2-255.5,0.2c-0.3,0-0.5,0.1-0.8,0.1
	c-7.4,0.9-14.2-4.5-15-11.9c-9.9-32.9-20.8-65.6-31.3-98.3c-18.5-57.4-37.6-114.5-55.7-172c-9.6-33-39.5-56-73.9-56.7
	c-28-2.4-55.1,10.6-70.8,33.9c-8.9,14.1-15.3,29.6-18.9,45.8c-13.7,41.9-27.9,83.9-41.2,125.6c-13.3,41.7-26,83.5-38.9,125.3
	c-1.1,5.4-6.2,9-11.7,8.2c-43.9-0.5-87.8-0.2-131.7-0.2c-42.8,0-85.6,0-128.3,0.1c-21.4-0.8-42.2,6.8-58.1,21.2
	c-4.5,4.2-8.6,9-12.1,14.1c-26.1,38.4-16.1,90.8,22.3,116.9c25.4,17.6,48.3,38.2,73.4,56.3c17.3,12.5,33.4,27.7,50.3,41.3
	c27.2,21.9,55,43.3,82.5,65c4.5,2.8,6.2,8.5,4,13.4c-17.8,53.4-36,106.8-52.2,160.6c-14.1,38.3-26,77.4-35.6,117.1
	c-3.4,14.3-3.1,29.2,0.9,43.3c2.3,7.6,5.8,14.8,10.2,21.3c25,37.1,75.3,46.9,112.4,22c48.4-33.3,94.7-69.4,143.1-102.7
	c30.3-20.9,59.2-43.7,88.6-66c3.3-3.2,8.3-3.8,12.2-1.3c4.5,3.8,10,6,14.5,9.6c26.6,21.7,55.3,40.7,82.8,61.1
	c18,13.4,36,26.5,54.1,39.7l61.7,44.7c11.7,9.7,24.7,17.8,38.5,24.2c13.2,4.6,27.4,5.4,41,2.4c14-2.6,27.2-8.5,38.5-17.2
	c21.7-18.4,32.8-46.5,29.6-74.8c-1.6-11.2-4.5-22.1-8.5-32.7c-3.8-12.2-7.7-24.3-11.8-36.4c-7.9-24.2-15.8-48.5-23.7-72.7
	c-15.3-47.4-30.4-95-46.6-142c-2.7-5-1-11.2,3.7-14.3c37-28.8,74.2-57.4,111.1-86.5c34.3-27,68.1-55,102.6-82
	C1052.3,481.6,1063.5,456.5,1062.2,430.5z"/>
</svg>
