<?xml version="1.0" encoding="utf-8"?>
<!-- Generator: Adobe Illustrator 27.5.0, SVG Export Plug-In . SVG Version: 6.00 Build 0)  -->
<svg version="1.1" id="Capa_1" xmlns="http://www.w3.org/2000/svg" xmlns:xlink="http://www.w3.org/1999/xlink" x="0px" y="0px"
	 viewBox="0 0 1362.6 1365.9" style="enable-background:new 0 0 1362.6 1365.9;" xml:space="preserve">

<g>
	<path d="M291.8,456.9c55.2,0,110.5-0.3,165.7,0.3c8.6,0.1,12.4-3,14.7-10.3c16.2-52.6,32.2-105.2,48.9-157.6
		c16.9-52.8,34.8-105.3,51.8-158c6.4-19.9,10.8-40.4,23.8-57.7c22.5-29.9,53.2-45.9,89.1-42.6c43.9,4.1,78.5,25.2,93,71.3
		c22.8,72.3,46.8,144.2,70.1,216.4c13.3,41.2,27,82.3,39.4,123.7c3.4,11.4,8,15,19.9,14.9c107.2-0.5,214.4-0.4,321.5-0.3
		c52.1,0.1,90.1,28.3,105.2,77.6c11.1,36.2-4.7,82.2-34.7,105.7c-43.4,34-85.9,69.1-129.1,103.2c-46.4,36.6-93.2,72.6-139.8,108.8
		c-6.1,4.8-7.6,9.5-4.7,18c20.5,59.2,39.4,119,58.7,178.7c9.9,30.5,19.9,61,29.8,91.5c5,15.2,9.9,30.5,14.8,45.8
		c4.4,13.6,9.3,26.8,10.7,41.1c3.4,34.8-9.5,72-37.3,94.1c-14,11.1-31,18.1-48.5,21.6c-17,3.3-35.3,3.2-51.6-3
		c-17.5-6.7-33.4-19.4-48.4-30.4c-25.9-18.8-51.8-37.6-77.7-56.4c-22.8-16.6-45.5-33.2-68.1-50c-34.7-25.7-70.8-49.6-104.2-77
		c-5.6-4.6-12.5-7.3-18.2-12.1c-3.9-3.3-10.1-2.3-15.4,1.7c-37,28-73.4,56.7-111.5,83c-60.9,41.9-119.3,87.3-180.1,129.2
		c-58.6,40.4-134.6,7.7-154.3-54.6c-5.8-18.3-4.7-35.1-1.2-54.5c9.3-51.1,30-98.2,44.8-147.3c20.4-67.8,43.3-134.9,65.7-202.1
		c2.7-8,0.5-12.4-5-16.8c-34.7-27.3-69.6-54.2-104-81.8c-21.3-17.1-41.5-36.2-63.3-51.9c-31.5-22.7-60.3-48.7-92.1-70.8
		C11.8,607.4,9.8,528.4,57.3,483.5c20.2-19,45.5-26.7,73.1-26.7C184.1,456.9,238,456.9,291.8,456.9z M305.6,502.2
		c-58.1,0-116.2-0.2-174.2,0.1c-31.5,0.2-54.2,16.5-60.7,44.9c-5.6,24.6,4.6,50,27.2,66c32.9,23.3,63.6,49.4,95.3,74.2
		c33.9,26.4,67.7,52.8,101.3,79.6c27.7,22.1,54.9,44.8,82.5,67c10.1,8.2,11.6,17.8,7.7,29.6c-15.3,45.7-30.6,91.5-45.6,137.3
		c-20,61.2-39.6,122.6-59.6,183.8c-4.5,13.9-12.4,27.6-14.4,41.1c-3.3,22.4,2,44.7,22.4,60.7c16.6,13.1,50.4,17.5,64.8,6.8
		c44-32.8,87.9-65.9,132.5-97.9c51.7-37.2,103.3-74.5,154.8-111.9c12.5-9,23.2-22.5,42.3-22.8c13.7-0.2,20.7,8.9,29.3,14.8
		c32.4,21.9,63.5,45.8,95.1,68.8c51.7,37.8,103.6,75.3,155.2,113.2c9.4,6.9,18.7,13.6,27.7,20.9c28.6,22.9,73,31.9,96.3-3.5
		c14.9-22.6,10.5-49.4,2.1-73.4c-7.8-22.1-14.5-44.6-21.3-67c-12.9-42.3-27.8-84-41.3-126.2c-15.3-47.9-31.8-95.4-46.6-143.5
		c-4.2-13.5-3.1-20.6,6.9-31.1c19-19.8,43.2-32.6,63.1-51.2c23.7-22,50.7-40.3,76.3-60.2c34.7-27.1,70.3-53.2,103.7-81.9
		c20.2-17.4,46.5-28.3,58.2-56c6.8-16,7.4-31.2,1.9-45.6c-10.5-27.1-33.4-36.7-61.3-36.7c-107.2,0.1-214.4,0-321.5,0
		c-9,0-18,0.4-26.9-0.2c-11.4-0.8-19.6-5-23.6-17.6c-12.5-39.3-24.5-78.8-37.4-117.9c-25.1-76-49-152.3-73.5-228.4
		c-4.9-15.1-7.4-30.8-20.2-43.7c-18.8-19.1-57.7-23.7-78.4-6.6c-18.4,15.1-23.1,36.3-29.7,57.4c-20.6,66.2-42.5,132-63.7,198
		c-13.4,41.8-24.5,84.1-38.6,125.6c-3.2,9.6-2,25.5-15.8,31.9c-7.7,3.6-12.7,1.4-20.6,1.4C419.8,502.3,362.7,502.2,305.6,502.2z"/>
	<path class="st0" d="M1289,538.8c-10.5-27.1-33.4-36.7-61.3-36.7c-107.2,0.1-214.4,0-321.5,0c-9,0-18,0.4-26.9-0.2
		c-11.4-0.8-19.6-5-23.6-17.6c-12.5-39.3-24.5-78.8-37.4-117.9c-25.1-76-49-152.3-73.5-228.4c-4.9-15.1-7.4-30.8-20.2-43.7
		c-18.8-19.1-57.7-23.7-78.4-6.6c-18.4,15.1-23.1,36.3-29.7,57.4c-20.6,66.2-42.5,132-63.7,198c-13.4,41.8-26.1,83.8-40.2,125.3
		c-3.2,9.6-4.9,21.4-11.9,28.8c-5.8,6.2-15,4.7-22.9,4.8c-57.1,0.1-114.3,0-171.4,0c-58.1,0-116.2-0.2-174.2,0.1
		c-31.5,0.2-54.2,16.5-60.7,44.9c-5.6,24.6,4.6,50,27.2,66c32.9,23.3,63.6,49.4,95.3,74.2c33.9,26.4,67.7,52.8,101.3,79.6
		c27.7,22.1,54.9,44.8,82.5,67c10.1,8.2,11.6,17.8,7.7,29.6c-15.3,45.7-30.6,91.5-45.6,137.3c-20,61.2-39.6,122.6-59.6,183.8
		c-4.5,13.9-12.4,27.6-14.4,41.1c-3.3,22.4,2,44.7,22.4,60.7c16.6,13.1,50.4,17.5,64.8,6.8c44-32.8,87.9-65.9,132.5-97.9
		c51.7-37.2,103.3-74.5,154.8-111.9c12.5-9,23.2-22.5,42.3-22.8c13.7-0.2,20.7,8.9,29.3,14.8c32.4,21.9,63.5,45.8,95.1,68.8
		c34.5,25.2,69,50.2,103.5,75.4c17,12.4,34,24.8,50.9,37.3c10.2,7.6,20.3,15.3,30.5,22.9c15.7,11.7,33.4,20.9,53.6,19.2
		c11.6-1,22.9-5.6,31.6-13.3c10.2-9.1,16.4-22.1,18.5-35.6c1.6-10.1,0.9-20.5-1.1-30.5c-2-9.7-6.4-19.4-9.6-28.8
		c-6.3-18.8-12.2-37.5-18-56.4c-12.9-42.3-27.8-84-41.3-126.2c-15.3-47.9-31.8-95.4-46.6-143.5c-4.2-13.5-3.1-20.6,6.9-31.1
		c19-19.8,43.2-32.6,63.1-51.2c23.7-22,50.7-40.3,76.3-60.2c34.7-27.1,70.3-53.2,103.7-81.9c20.2-17.4,46.5-28.3,58.2-56
		C1293.9,568.4,1294.5,553.2,1289,538.8z"/>
</g>
</svg>
