<?xml version="1.0" encoding="utf-8"?>
<!-- Generator: Adobe Illustrator 27.4.1, SVG Export Plug-In . SVG Version: 6.00 Build 0)  -->
<svg version="1.1" id="Capa_1" xmlns="http://www.w3.org/2000/svg" xmlns:xlink="http://www.w3.org/1999/xlink" x="0px" y="0px"
	 viewBox="0 0 884.1 1010.5" style="enable-background:new 0 0 884.1 1010.5;" xml:space="preserve">
<g>
	<path d="M274.3,390.6c0,1.6,0,3,0,4.4c0,59.4,0,118.8,0,178.2c0,13.8,7.1,20.9,21,20.9c53.9,0,107.8,0,161.7,0c1.2,0,2.5-0.1,3.7,0
		c3,0.3,5.2,2.8,5.2,5.8c0,3.1-2,5.6-5,6c-1.1,0.2-2.2,0.1-3.4,0.1c-54.6,0-109.3,0-163.9,0c-18.6,0-31.3-12.7-31.3-31.1
		c0-79.1,0-158.2,0-237.4c0-18.3,12.8-31,31-31c9.5,0,18.9,0,28.9,0c0-4.2,0-8.1,0-12.1c0.1-13.4,10.6-23.9,24-23.9
		c13.4,0,23.8,10.5,23.9,24c0,3.8,0,7.7,0,11.7c16,0,31.7,0,47.9,0c0-3.7,0-7.5,0-11.3c0-12.6,9-23.1,20.9-24.3
		c12.9-1.4,24.3,6.6,26.5,19.4c0.9,5.2,0.2,10.7,0.2,16.3c16.3,0,32.1,0,48.3,0c0-4,0-7.9,0-11.9c0.1-13.4,10.7-23.8,24.1-23.8
		c13.2,0,23.7,10.5,23.8,23.7c0,3.9,0,7.7,0,12.2c1.3,0,2.5,0,3.6,0c8.9,0,17.7,0,26.6,0c16.5,0.1,29.7,13.2,29.7,29.8
		c0,51.5,0,103.1,0,154.6c0,4.8-2.2,7.3-6,7.3c-3.9,0-5.9-2.6-5.9-7.4c0-31.8,0-63.6,0-95.5c0-1.5,0-3,0-4.7
		C498,390.6,386.4,390.6,274.3,390.6z M274.4,378.1c112,0,223.6,0,335.4,0c0-13.7,0.1-27.2,0-40.6c-0.1-11.3-7.8-18.9-19.1-19
		c-8.6-0.1-17.2,0-25.8,0c-0.9,0-1.9,0.2-3,0.3c0,4.3,0,8.3,0,12.2c-0.1,12.9-10.7,23.4-23.7,23.4c-13.3,0-24-10.3-24.2-23.4
		c0-4.1,0-8.2,0-12.3c-16.2,0-31.9,0-47.9,0c0,4,0,7.7,0,11.4c0,13.8-10.4,24.3-24,24.3c-13.5,0-23.9-10.5-23.9-24.3
		c0-3.8,0-7.6,0-11.4c-16.2,0-31.9,0-47.9,0c0,4.1,0,8.1,0,12.1c-0.1,13.2-10.6,23.7-23.8,23.7c-13.4,0-24-10.4-24.1-23.8
		c0-4,0-7.9,0-12c-10.8,0-21.1-0.4-31.4,0.1c-9.1,0.5-16,7.5-16.3,16.6C274.1,349.4,274.4,363.7,274.4,378.1z M358.2,312.7
		c0-5.7,0.1-11.5,0-17.2c-0.1-7.5-5.3-13.1-12.1-13c-6.7,0.1-11.8,5.5-11.8,12.9c-0.1,11.3-0.1,22.7,0,34c0,7.5,5.3,13.1,12.1,13
		c6.7-0.1,11.7-5.5,11.8-12.9C358.3,323.9,358.2,318.3,358.2,312.7z M454,312.6c0-5.4,0-10.7,0-16.1c0-8.3-4.8-13.9-11.9-13.9
		c-7.1-0.1-12,5.6-12.1,13.7c0,10.8,0,21.7,0,32.5c0,7.9,4.9,13.5,11.9,13.6c7,0.1,12-5.6,12.1-13.8
		C454.1,323.3,454,317.9,454,312.6z M549.9,312.4c0-5.7,0.1-11.5,0-17.2c-0.1-7.3-5.4-12.7-12-12.7c-6.7,0.1-11.8,5.4-11.9,12.8
		c-0.1,11.5-0.1,22.9,0,34.4c0.1,7.3,5.3,12.7,12,12.7c6.7,0,11.8-5.5,11.9-12.8C549.9,323.9,549.9,318.1,549.9,312.4z"/>
	<path d="M466,552c-0.1-43.1,34.7-77.7,78-77.8c42.7,0,77.6,34.8,77.7,77.4c0,43.3-34.5,78.3-77.1,78.3
		C500.8,630,466.1,595.6,466,552z M609.8,552.1c-0.2-36.4-30-66.1-66-65.8c-36.6,0.3-66,30-65.7,66.5c0.2,35.9,30.1,65.4,66.2,65.3
		C580,617.9,610,587.8,609.8,552.1z"/>
	<path d="M334.1,462.2c-4,0-8,0-12,0c-6.7-0.1-11.8-5.1-11.8-11.9c-0.1-6.1-0.1-12.2,0-18.3c0.1-6.5,5.1-11.6,11.6-11.7
		c8.2-0.1,16.5-0.1,24.7,0c6.5,0.1,11.6,5.2,11.6,11.6c0.1,6.2,0.1,12.5,0,18.7c-0.1,6.5-5.2,11.4-11.7,11.5
		C342.3,462.3,338.2,462.2,334.1,462.2z M322.4,450c8.1,0,15.9,0,23.6,0c0-6,0-11.6,0-17.5c-7.9,0-15.7,0-23.6,0
		C322.4,438.4,322.4,444.1,322.4,450z"/>
	<path d="M406,462.2c-4,0-8,0-12,0c-6.7-0.1-11.8-5.1-11.8-11.8c-0.1-6.1-0.1-12.2,0-18.3c0.1-6.5,5.1-11.7,11.5-11.7
		c8.2-0.1,16.5-0.1,24.7,0c6.5,0.1,11.6,5.2,11.7,11.6c0.1,6.2,0.1,12.5,0,18.7c-0.1,6.5-5.2,11.5-11.7,11.6
		C414.2,462.3,410.1,462.2,406,462.2z M394.4,432.4c0,6.1,0,11.9,0,17.6c8,0,15.6,0,23.5,0c0-6,0-11.7,0-17.6
		C410,432.4,402.3,432.4,394.4,432.4z"/>
	<path d="M477.8,462.2c-3.9,0-7.7,0-11.6,0c-7-0.1-12-5-12.1-11.9c-0.1-6.1-0.1-12.2,0-18.3c0.1-6.5,5.1-11.6,11.6-11.6
		c8.2-0.1,16.5-0.1,24.7,0c6.5,0.1,11.5,5.2,11.6,11.7c0.1,6.1,0.1,12.2,0,18.3c-0.1,6.7-5.1,11.7-11.8,11.8
		C486,462.3,481.9,462.2,477.8,462.2z M466.2,432.5c0,6,0,11.7,0,17.6c8,0,15.7,0,23.5,0c0-6,0-11.8,0-17.6
		C481.7,432.5,474.1,432.5,466.2,432.5z"/>
	<path d="M550.1,420.3c3.9,0,7.7,0,11.6,0c7,0.1,12.1,5,12.1,11.9c0.1,6.1,0.1,12.2,0,18.3c-0.1,6.5-5.2,11.6-11.6,11.7
		c-8.2,0.1-16.5,0.1-24.7,0c-6.3-0.1-11.4-5.1-11.5-11.4c-0.1-6.4-0.1-12.7,0-19.1c0.1-6.3,5.2-11.3,11.4-11.5
		C541.6,420.2,545.9,420.3,550.1,420.3z M561.6,450.1c0-6.1,0-11.9,0-17.5c-8,0-15.8,0-23.5,0c0,6,0,11.7,0,17.5
		C546,450.1,553.7,450.1,561.6,450.1z"/>
	<path d="M406.1,570.1c-4,0-8,0-12,0c-6.9-0.1-11.9-5.1-12-12.1c0-6-0.1-12,0-17.9c0.1-6.8,5.1-11.8,11.8-11.9
		c8.1-0.1,16.2-0.1,24.3,0c6.7,0.1,11.7,5.1,11.8,11.9c0.1,6.1,0.1,12.2,0,18.3c-0.1,6.5-5.1,11.6-11.6,11.7
		C414.3,570.1,410.2,570.1,406.1,570.1z M394.2,557.8c7.9,0,15.7,0,23.6,0c0-5.9,0-11.7,0-17.4c-8,0-15.8,0-23.6,0
		C394.2,546.3,394.2,551.9,394.2,557.8z"/>
	<path d="M334.5,528.2c3.9,0,7.7,0,11.6,0c7,0.1,12.1,5,12.1,11.9c0.1,6.1,0.1,12.2,0,18.3c-0.1,6.5-5.2,11.6-11.6,11.7
		c-8.2,0.1-16.5,0.1-24.7,0c-6.3-0.1-11.4-5.1-11.5-11.4c-0.1-6.4-0.1-12.7,0-19.1c0.1-6.3,5.2-11.3,11.4-11.5
		C326,528.1,330.2,528.2,334.5,528.2z M322.4,557.8c8.2,0,15.9,0,23.6,0c0-6,0-11.7,0-17.4c-8,0-15.7,0-23.6,0
		C322.4,546.3,322.4,552,322.4,557.8z"/>
	<path d="M334.4,474.2c4,0,8,0,12,0c6.7,0.1,11.7,5.1,11.8,11.9c0.1,6.1,0.1,12.2,0,18.3c-0.1,6.5-5.1,11.6-11.6,11.7
		c-8.2,0.1-16.5,0.1-24.7,0c-6.5-0.1-11.5-5.2-11.6-11.7c-0.1-6.2-0.1-12.5,0-18.7c0.1-6.3,5.1-11.4,11.4-11.5
		C326,474.2,330.2,474.2,334.4,474.2z M346,504c0-6.1,0-11.8,0-17.6c-8,0-15.7,0-23.5,0c0,6,0,11.8,0,17.6
		C330.5,504,338.2,504,346,504z"/>
	<path d="M406.4,474.2c4,0,8-0.1,12,0c6.5,0.1,11.6,5.1,11.7,11.6c0.1,6.2,0.1,12.5,0,18.7c-0.1,6.5-5.2,11.5-11.7,11.6
		c-8.2,0.1-16.5,0.1-24.7,0c-6.3-0.1-11.4-5.2-11.5-11.4c-0.1-6.4-0.1-12.7,0-19.1c0.1-6.3,5.2-11.3,11.5-11.4
		C397.9,474.2,402.2,474.2,406.4,474.2z M394.4,486.3c0,6.2,0,12,0,17.6c8,0,15.7,0,23.4,0c0-6,0-11.8,0-17.6
		C410,486.3,402.3,486.3,394.4,486.3z"/>
	<path d="M466.2,486.2c0,6.1,0,11.8,0,17.6c0.9,0.3,1.8,0.6,2.7,1.1c2.6,1.4,3.6,3.8,3,6.6c-0.6,2.8-2.5,4.5-5.5,4.7
		c-6.1,0.4-12.1-4.8-12.3-11c-0.2-6.6-0.2-13.2,0-19.8c0.1-5.9,5.2-11,11-11.1c8.2-0.1,16.4-0.1,24.7,0c3.8,0,6.2,2.5,6.2,6
		c0,3.5-2.4,5.9-6.2,5.9C482,486.3,474.3,486.2,466.2,486.2z"/>
	<path d="M531.6,573.9c5.9-5.9,11.2-11.2,16.4-16.5c9.5-9.5,19-19,28.6-28.6c0.7-0.7,1.4-1.5,2.2-2.1c2.7-2.1,5.8-2,8.1,0.3
		c2.3,2.3,2.6,5.4,0.4,8.1c-1.2,1.5-2.7,2.9-4.1,4.3c-15.2,15.2-30.3,30.3-45.5,45.5c-4.4,4.4-7.1,4.4-11.4,0.1
		c-7.8-7.7-15.5-15.5-23.3-23.3c-2-2-3.2-4.2-2.1-7c1.6-4.5,6.6-5.5,10.3-1.9c5.9,5.7,11.7,11.6,17.5,17.4
		C529.6,571.2,530.4,572.4,531.6,573.9z"/>
</g>
</svg>
