<?xml version="1.0" encoding="utf-8"?>
<!-- Generator: Adobe Illustrator 27.4.1, SVG Export Plug-In . SVG Version: 6.00 Build 0)  -->
<svg version="1.1" id="Capa_1" xmlns="http://www.w3.org/2000/svg" xmlns:xlink="http://www.w3.org/1999/xlink" x="0px" y="0px"
	 viewBox="0 0 884.1 1010.5" style="enable-background:new 0 0 884.1 1010.5;" xml:space="preserve">
<path d="M608.9,377.7c-0.8,5.8-4.6,11.1-8.4,15.4c-1.1,1.2-2.3,2.4-3.5,3.6c-49.7,49.6-99.3,99.2-149,148.9
	c-7.8,7.8-16.9,11.1-27.5,7.3c-3.8-1.4-7.6-3.9-10.5-6.8c-51.2-51-102.4-102.2-153.5-153.4c-6.1-6.1-9.5-14.1-7.8-22.8
	c1.5-7.6,5.9-14.6,12.9-18.2c3.1-1.6,6.5-2.4,9.9-2.8c8.4-0.8,15.3,2.5,21.1,8.4c12.3,12.3,24.6,24.6,36.8,36.9
	c32,32,64.1,64.1,96.1,96.2c0.9,0.9,1.6,2,3.9,3.7c0.7-1.2,1.2-2.7,2.1-3.6c44.1-44.2,88.3-88.3,132.5-132.5
	c7.7-7.7,16.5-11.1,27.1-7.8c5.3,1.7,10,4.9,13.1,9.5C607.9,364.9,609.7,371.5,608.9,377.7z"/>
</svg>
