<?xml version="1.0" encoding="utf-8"?>
<!-- Generator: Adobe Illustrator 27.5.0, SVG Export Plug-In . SVG Version: 6.00 Build 0)  -->
<svg version="1.1" id="Capa_1" xmlns="http://www.w3.org/2000/svg" xmlns:xlink="http://www.w3.org/1999/xlink" x="0px" y="0px"
	 viewBox="0 0 1864.3 1046.7" style="enable-background:new 0 0 1864.3 1046.7;" xml:space="preserve">

<path id="flecha_hacia_abajo_00000076586799358602728570000008646251888163574670_" class="st0" d="M947.8,336.4
	c-6.8,5.2-322.7,322.7-474.5,474.7C415.2,869.6,357,928,298.6,986.4c-25.2,28.4-62.3,43.2-100.1,39.9c-16.3-1.6-32.3-6.1-47-13.3
	c-32.5-18-55.1-49.8-61.3-86.4c-7-40.1,7-80.9,37-108.3C369.8,574.8,612.7,331.8,855.7,89.6c14.2-14.2,31.1-25.2,49.8-32.4
	c46.5-17,98.6-3.2,130.6,34.6c235.8,235.7,471.8,471.2,708,706.5c6.2,5.6,11.4,11.4,16.7,17c20,20.1,33.9,45.5,39.9,73.2
	c3.3,30.1-4.6,60.4-22.2,85c-14.9,21.7-36.6,37.8-61.7,45.7c-46.4,14.8-97.2,0.2-128.8-37"/>
</svg>
