<?xml version="1.0" encoding="utf-8"?>
<!-- Generator: Adobe Illustrator 27.5.0, SVG Export Plug-In . SVG Version: 6.00 Build 0)  -->
<svg version="1.1" id="Capa_1" xmlns="http://www.w3.org/2000/svg" xmlns:xlink="http://www.w3.org/1999/xlink" x="0px" y="0px"
	 viewBox="0 0 742.5 373.9" style="enable-background:new 0 0 742.5 373.9;" xml:space="preserve">
<path d="M8.9,184c3.6-12.8,14.9-21.7,23.9-30.8c10.8-10.8,21.6-21.6,32.4-32.4c21.6-21.6,43.3-43.1,64.9-64.6
	c11.1-11.1,22.3-22.2,33.4-33.3c7.8-7.8,16.7-11.8,27.6-9.5c10.9,2.3,18.4,9,21.5,19.6c3.1,10.5,0.9,20.3-7,28.3
	c-11.5,11.7-23.2,23.1-34.8,34.7c-19.7,19.6-39.4,39.2-59,58.8c-1.6,1.6-3.1,3.3-5.8,6.2c4.1,0,6.8,0,9.5,0c196.6,0,393.1,0,589.7,0
	c16,0,26.8,7.1,30.8,20.1c5.4,17.5-6.8,35.5-25.1,36.8c-2.8,0.2-5.7,0.1-8.5,0.1c-195.6,0-391.2,0-586.8,0c-2.7,0-5.5,0-9.6,0
	c2.8,3,4.5,4.9,6.3,6.6c30.8,30.7,61.5,61.3,92.4,91.9c8.3,8.3,11.2,18.2,7.9,29.3c-3.1,10.6-10.6,17.3-21.5,19.6
	c-10.6,2.2-19.5-1.4-27.1-9c-35-34.9-70-69.7-105-104.5c-12.3-12.2-24.9-24.1-36.7-36.8c-4.2-4.5-8.4-9.7-11.3-15.1
	C8.1,195,7.4,189.5,8.9,184z"/>
</svg>
