<?xml version="1.0" encoding="utf-8"?>
<!-- Generator: Adobe Illustrator 27.5.0, SVG Export Plug-In . SVG Version: 6.00 Build 0)  -->
<svg version="1.1" id="Capa_1" xmlns="http://www.w3.org/2000/svg" xmlns:xlink="http://www.w3.org/1999/xlink" x="0px" y="0px"
	 viewBox="0 0 1046.7 1834.8" style="enable-background:new 0 0 1046.7 1834.8;" xml:space="preserve">

<path id="flecha_hacia_abajo_00000076586799358602728570000008646251888163574670_" class="st0" d="M85.2,259.2
	C47.9,227.9,33,177.1,47.6,130.6c7.7-25.2,23.7-47,45.4-61.9c24.5-17.7,54.8-25.8,84.9-22.7c27.8,5.9,53.2,19.6,73.4,39.6
	c5.7,5.2,11.5,10.4,17.1,16.6c236.5,235,473.1,469.8,709.9,704.5c37.9,31.8,52,83.9,35.2,130.5c-7.1,18.7-18,35.7-32.1,50
	c-241.1,244.2-482.8,488.2-725.2,732c-27.3,30.1-68.1,44.3-108.2,37.5c-36.7-6-68.6-28.4-86.7-60.9c-7.3-14.7-11.8-30.6-13.5-46.9
	c-3.4-37.8,11.2-75,39.5-100.3c58.2-58.6,116.3-117.2,174.5-175.5C413.1,1220.4,729,903,734.2,896.1"/>
</svg>
