<?xml version="1.0" encoding="utf-8"?>
<!-- Generator: Adobe Illustrator 27.5.0, SVG Export Plug-In . SVG Version: 6.00 Build 0)  -->
<svg version="1.1" id="Capa_1" xmlns="http://www.w3.org/2000/svg" xmlns:xlink="http://www.w3.org/1999/xlink" x="0px" y="0px"
	 viewBox="0 0 1046.7 1834.8" style="enable-background:new 0 0 1046.7 1834.8;" xml:space="preserve">

<path id="flecha_hacia_abajo_00000076586799358602728570000008646251888163574670_" class="st0" d="M328.5,896.1
	c5.1,6.8,321.1,324.2,472.4,476.8c58.2,58.4,116.3,116.9,174.5,175.5c28.3,25.3,42.9,62.5,39.5,100.3c-1.6,16.3-6.2,32.2-13.5,46.9
	c-18.1,32.4-50,54.8-86.7,60.9c-40.1,6.8-80.9-7.4-108.2-37.5c-242.4-243.8-484.2-487.8-725.2-732c-14.1-14.2-25-31.2-32.1-50
	c-16.8-46.6-2.7-98.7,35.2-130.5C321.1,572,557.8,337.1,794.2,102.2c5.7-6.2,11.5-11.4,17.1-16.6C831.5,65.7,857,51.9,884.8,46
	c30.1-3.2,60.3,4.9,84.9,22.7c21.7,15,37.6,36.8,45.4,61.9c14.6,46.5-0.3,97.2-37.6,128.6"/>
</svg>
