<?xml version="1.0" encoding="utf-8"?>
<!-- Generator: Adobe Illustrator 27.4.1, SVG Export Plug-In . SVG Version: 6.00 Build 0)  -->
<svg version="1.1" id="Capa_1" xmlns="http://www.w3.org/2000/svg" xmlns:xlink="http://www.w3.org/1999/xlink" x="0px" y="0px"
	 viewBox="0 0 884.1 1010.5" style="enable-background:new 0 0 884.1 1010.5;" xml:space="preserve">

<path d="M650.7,466.6c0,56.5,0,112.9,0,169.4c-0.2,0.3-0.5,0.6-0.5,0.9c-5,24.6-21.9,38.6-46.9,38.6c-93.7,0-187.4,0-281.1,0
	c-27.6,0-46.8-19.3-46.9-46.8c0-19.8,0-39.6,0-59.4c0-32.4-0.1-64.8,0-97.1c0.1-24.2,18-43.3,42.1-44.6c12.7-0.7,25.4-0.4,38.1-0.3
	c2.9,0,4.6-1,6.2-3.4c5.9-9.3,12.1-18.3,18.1-27.5c9.4-14.3,22.8-21.3,39.8-21.4c29-0.1,57.9-0.1,86.9,0c17,0.1,30.4,7.1,39.8,21.4
	c6.2,9.4,12.5,18.7,18.5,28.1c1.3,2,2.6,2.8,5,2.8c11.5-0.1,23-0.1,34.5,0c17.9,0.1,32,7.5,40.8,23.3
	C647.7,455.5,648.9,461.2,650.7,466.6z M462.9,436.7C407,436.9,361.8,482,361.8,537.5c0,55.7,45.6,101.3,101.2,101.2
	c55.6-0.1,101.2-45.5,101.2-100.9C564.2,482.2,518.5,436.5,462.9,436.7z M591.3,464.2c-3.2,0-6.4-0.2-9.5,0
	c-6.9,0.5-12,5.9-12.3,12.7c-0.3,6.5,4.3,12.6,11.2,13.2c6.9,0.7,13.9,0.7,20.8,0c6.8-0.6,11.3-6.7,10.9-13.3
	c-0.4-6.9-5.5-12.2-12.3-12.7C597.2,464,594.2,464.2,591.3,464.2z"/>
<path class="st0" d="M462.9,436.7c55.6-0.2,101.2,45.5,101.3,101.2c0,55.4-45.5,100.8-101.2,100.9c-55.6,0.1-101.2-45.5-101.2-101.2
	C361.8,482,407,436.9,462.9,436.7z M462.6,593.8c30.6,0.5,56.2-24.6,56.8-55.7c0.6-30.5-24.4-55.8-55.9-56.5
	c-30.4-0.7-56.2,24.7-56.8,55.7C406.1,567.9,431.1,593.2,462.6,593.8z"/>
<path class="st0" d="M591.3,464.2c2.9,0,5.9-0.2,8.8,0c6.8,0.4,11.9,5.8,12.3,12.7c0.4,6.6-4.2,12.7-10.9,13.3
	c-6.9,0.6-13.9,0.6-20.8,0c-6.8-0.7-11.4-6.7-11.2-13.2c0.3-6.8,5.4-12.2,12.3-12.7C584.9,464,588.1,464.2,591.3,464.2z"/>
<path d="M462.6,593.8c-31.4-0.6-56.5-25.8-55.9-56.4c0.6-31.1,26.4-56.4,56.8-55.7c31.5,0.7,56.5,25.9,55.9,56.5
	C518.8,569.2,493.2,594.3,462.6,593.8z"/>
</svg>
