<?xml version="1.0" encoding="utf-8"?>
<!-- Generator: Adobe Illustrator 27.8.1, SVG Export Plug-In . SVG Version: 6.00 Build 0)  -->
<svg version="1.1" id="Capa_1" xmlns="http://www.w3.org/2000/svg" xmlns:xlink="http://www.w3.org/1999/xlink" x="0px" y="0px"
	 viewBox="0 0 3869.4 3880.3" style="enable-background:new 0 0 3869.4 3880.3;" xml:space="preserve">
<g>
	<path d="M1933.8,3800.1c-476.9,0-953.7,0-1430.6,0c-258,0-426.4-167.6-426.4-424.4c-0.1-955.1-0.1-1910.2,0-2865.3
		c0-257.7,167.7-425.7,425-425.7c793.4-0.1,1586.8,0.7,2380.1-0.7c130.8-0.2,238.5,43.4,329.9,136.8
		c147.9,151.2,297.8,300.3,448.5,448.7c89.7,88.4,132.5,193.2,132.3,319.2c-0.9,797.5-0.3,1595-0.5,2392.6
		c-0.1,249.3-169.9,418.7-419.4,418.8C2893,3800.2,2413.4,3800.1,1933.8,3800.1z M2543.1,350.4c0,20.9,0,37.2,0,53.6
		c0,233.6,0.1,467.2-0.1,700.8c-0.1,111.7-47.3,159.1-158.3,159.1c-512.8,0-1025.6,0-1538.4,0c-113.1,0-160.8-47.8-160.9-161.4
		c-0.1-233.6,0-467.2,0-700.8c0-16,0-32.1,0-51.6c-63.2,0-121,0-178.8,0c-116.2,0-164.5,47.6-164.5,162.4c0,953.7,0,1907.4,0,2861.2
		c0,12.4-0.5,24.9,0.4,37.3c4.5,61.1,50.8,116.9,111.5,121.1c75.3,5.2,151.2,1.2,231.4,1.2c0-20.3,0-37.9,0-55.4
		c0-501.7,0-1003.5,0-1505.2c0-115.8,47.6-162.8,164.1-162.9c713.2,0,1426.4,0,2139.7,0c115.5,0,163.8,48.1,163.8,163.3
		c0,503.1,0,1006.2,0,1509.4c0,16.2,0,32.3,0,46.7c6.7,2.9,9.2,4.8,11.6,4.8c74.6,0.4,149.3,1.3,223.9,0.6
		c82.4-0.8,138-55.9,138.1-138.6c0.4-807.2,0.7-1614.4-1.6-2421.6c-0.1-34.9-17.5-78.2-41.7-103.2
		c-156.5-162-316.3-320.9-477.5-478.2c-21.9-21.4-57.3-39.5-87.1-40.6C2795.9,347.8,2672.9,350.4,2543.1,350.4z M953.1,3531.7
		c646.2,0,1289.1,0,1931.2,0c0-288,0-572.9,0-857.4c-645.2,0-1287.1,0-1931.2,0C953.1,2960.5,953.1,3244.5,953.1,3531.7z M952.8,995
		c443.3,0,883,0,1322.9,0c0-215.8,0-428,0-642.4c-441.6,0-881.2,0-1322.9,0C952.8,567.3,952.8,779.5,952.8,995z M952.9,2403.6
		c647.2,0,1290,0,1932.5,0c0-110.4,0-217.6,0-326c-645,0-1287.7,0-1932.5,0C952.9,2187.2,952.9,2294.4,952.9,2403.6z"/>
	<path d="M2012.1,675.3c0,44.2,1.4,88.4-0.3,132.6c-2.8,75.1-56.5,129.5-127.3,131.4c-73.3,2-133.4-50.6-136.1-126.7
		c-3.3-92.4-3.3-185.1,0.3-277.5c2.9-73.7,63.1-127.2,133.1-126.2c70.1,1,126.7,56.3,129.9,129.7c2,45.5,0.4,91.1,0.4,136.7
		C2012,675.3,2012,675.3,2012.1,675.3z"/>
</g>
</svg>
