<?xml version="1.0" encoding="utf-8"?>
<!-- Generator: Adobe Illustrator 27.7.0, SVG Export Plug-In . SVG Version: 6.00 Build 0)  -->
<svg version="1.1" id="Capa_1" xmlns="http://www.w3.org/2000/svg" xmlns:xlink="http://www.w3.org/1999/xlink" x="0px" y="0px"
	 viewBox="0 0 3869.4 3880.3" style="enable-background:new 0 0 3869.4 3880.3;" xml:space="preserve">
<style type="text/css">
	.st0{fill:none;}
</style>
<g>
	<path d="M3481.3,3850.6c-1033.2,0-2066.3,0-3099.5,0c-5.4-2.3-10.9-5.6-16.5-6.6c-128.1-23.9-226.2-92.1-288.2-206.2
		c-24.3-44.7-35.6-96.2-52.9-144.8c0-1033,0-2065.9,0-3098.9c1.9-3.1,5.1-6,5.4-9.3C51.8,208,215.8,34.5,459.5,35.4
		c840.5,3.1,1680.7,1.6,2521.2,0.6c50.7,0,90,15,125.9,51.1c226.6,228.1,453.9,455.3,682.1,681.9c36.1,35.8,51.3,75,51.1,125.7
		c-1,557.3-0.6,1114.5-0.6,1671.8c0,289.2,1.7,578.3-0.6,867.5c-1.6,179.9-88.2,308.6-251.5,383.8
		C3553.5,3833.2,3516.4,3840,3481.3,3850.6z M741.8,3626.8c0-19.8,0-35.8,0-51.5c0-357.6-0.4-715.1,0.2-1072.7
		c0.4-254.8,177-431.4,430.8-431.4c505.4-0.2,1010.7-0.8,1516.1,1c53.6,0.2,109.8,8.2,160.3,25.5
		c169.5,57.9,271.3,212.4,271.7,403.8c0.6,360.1,0.2,720,0.2,1080.1c0,14.4,0,28.8,0,45.9c98.1,0,191,0,283.9,0
		c134.9,0,210.3-75,210.3-209.1c0-823,0-1646.1,0.6-2469.1c0-25.5-6.8-43.5-25.1-61.6c-195.7-194.1-391.6-388.1-584.1-585.3
		c-36.9-37.9-73.5-49-125.7-37.9c0,13.6,0,28.4,0,42.9c0,280.6,0.8,561.2-0.2,841.6c-1,253-177,428.3-429.7,428.5
		c-426,0.4-851.7,0.8-1277.7-0.8c-50.1-0.2-102.4-7-150-22.3c-175.9-57.1-281-212.2-281.4-408.1c-0.6-279.2-0.2-558.7-0.2-837.9
		c0-14.6,0-29.1,0-45.7c-14.4-0.8-25.3-1.9-36.1-1.9c-85.7-0.2-171.4-0.2-257.1,0c-122.2,0.4-200.9,78.1-200.9,199.6
		c-0.2,989.3,0,1978.8,0,2968.1c0,7.4,0,15,0.4,22.3c5.1,92.3,79.3,172,171.6,175.3C524.8,3629.7,630.3,3626.8,741.8,3626.8z
		 M2897.5,3626.2c0-16.1,0-28.4,0-40.4c0-359.9,0.2-719.8,0-1079.7c0-136.2-75.8-211.6-212.2-211.6c-502.7,0-1005.4,0-1508,0
		c-136.2,0-211.8,75.6-211.8,212c-0.2,359.9,0,719.8,0,1079.7c0,13,0,26.2,0,40.2C1611.4,3626.2,2251.8,3626.2,2897.5,3626.2z
		 M965.3,262.2c0,14.6,0,26.8,0,39.1c0,280.6-0.2,561,0,841.6c0.2,135.6,76.6,210.8,213.4,211c420.9,0,841.8,0,1262.7,0
		c142.4,0,215.9-73.1,215.9-215.3c0.2-278.1,0-556.2,0-834.2c0-13.4,0-26.8,0-42.2C2093,262.2,1532.2,262.2,965.3,262.2z"/>
	<path d="M2401.8,806.5c0,58.3,0.6,116.6-0.2,174.9c-0.8,67.2-47,115.4-110,116c-62.8,0.6-112.1-47.2-112.9-113.7
		c-1.4-117.8-1.4-235.7,0-353.5c0.8-65.7,51.5-115.4,112.5-114.8c62.2,0.6,109.4,49.7,110.4,116.4
		C2402.4,689.7,2401.8,748.2,2401.8,806.5z"/>
	<rect x="24" y="29.4" class="st0" width="3821.4" height="3821.4"/>
</g>
</svg>
