<?xml version="1.0" encoding="utf-8"?>
<!-- Generator: Adobe Illustrator 27.5.0, SVG Export Plug-In . SVG Version: 6.00 Build 0)  -->
<svg version="1.1" id="Capa_1" xmlns="http://www.w3.org/2000/svg" xmlns:xlink="http://www.w3.org/1999/xlink" x="0px" y="0px"
	 viewBox="0 0 4000 4000" style="enable-background:new 0 0 4000 4000;" xml:space="preserve">

<g>
	<path d="M2873.8,2878c-531.7,0-1063.3,0-1595,0c-2.8-1.2-5.6-2.9-8.5-3.4c-65.9-12.3-116.4-47.4-148.3-106.1
		c-12.5-23-18.3-49.5-27.2-74.5c0-531.6,0-1063.1,0-1594.7c1-1.6,2.6-3.1,2.8-4.8c11.4-91,95.8-180.3,221.2-179.8
		c432.5,1.6,864.9,0.8,1297.4,0.3c26.1,0,46.3,7.7,64.8,26.3c116.6,117.4,233.6,234.3,351,350.9c18.6,18.4,26.4,38.6,26.3,64.7
		c-0.5,286.8-0.3,573.5-0.3,860.3c0,148.8,0.9,297.6-0.3,446.4c-0.8,92.6-45.4,158.8-129.4,197.5
		C2911,2869,2891.9,2872.5,2873.8,2878z M1464.1,2762.8c0-10.2,0-18.4,0-26.5c0-184-0.2-368,0.1-552c0.2-131.1,91.1-222,221.7-222
		c260.1-0.1,520.1-0.4,780.2,0.5c27.6,0.1,56.5,4.2,82.5,13.1c87.2,29.8,139.6,109.3,139.8,207.8c0.3,185.3,0.1,370.5,0.1,555.8
		c0,7.4,0,14.8,0,23.6c50.5,0,98.3,0,146.1,0c69.4,0,108.2-38.6,108.2-107.6c0-423.5,0-847.1,0.3-1270.6c0-13.1-3.5-22.4-12.9-31.7
		c-100.7-99.9-201.5-199.7-300.6-301.2c-19-19.5-37.8-25.2-64.7-19.5c0,7,0,14.6,0,22.1c0,144.4,0.4,288.8-0.1,433.1
		c-0.5,130.2-91.1,220.4-221.1,220.5c-219.2,0.2-438.3,0.4-657.5-0.4c-25.8-0.1-52.7-3.6-77.2-11.5
		c-90.5-29.4-144.6-109.2-144.8-210c-0.3-143.7-0.1-287.5-0.1-431.2c0-7.5,0-15,0-23.5c-7.4-0.4-13-1-18.6-1
		c-44.1-0.1-88.2-0.1-132.3,0c-62.9,0.2-103.4,40.2-103.4,102.7c-0.1,509.1,0,1018.3,0,1527.4c0,3.8,0,7.7,0.2,11.5
		c2.6,47.5,40.8,88.5,88.3,90.2C1352.4,2764.3,1406.7,2762.8,1464.1,2762.8z M2573.4,2762.5c0-8.3,0-14.6,0-20.8
		c0-185.2,0.1-370.4,0-555.6c0-70.1-39-108.9-109.2-108.9c-258.7,0-517.4,0-776,0c-70.1,0-109,38.9-109,109.1
		c-0.1,185.2,0,370.4,0,555.6c0,6.7,0,13.5,0,20.7C1911.6,2762.5,2241.1,2762.5,2573.4,2762.5z M1579.1,1031.4c0,7.5,0,13.8,0,20.1
		c0,144.4-0.1,288.7,0,433.1c0.1,69.8,39.4,108.5,109.8,108.6c216.6,0,433.2,0,649.8,0c73.3,0,111.1-37.6,111.1-110.8
		c0.1-143.1,0-286.2,0-429.3c0-6.9,0-13.8,0-21.7C2159.4,1031.4,1870.8,1031.4,1579.1,1031.4z"/>
	<path d="M2318.3,1311.5c0,30,0.3,60-0.1,90c-0.4,34.6-24.2,59.4-56.6,59.7c-32.3,0.3-57.7-24.3-58.1-58.5
		c-0.7-60.6-0.7-121.3,0-181.9c0.4-33.8,26.5-59.4,57.9-59.1c32,0.3,56.3,25.6,56.8,59.9C2318.6,1251.4,2318.3,1281.5,2318.3,1311.5
		z"/>
	<rect x="1094.7" y="911.6" class="st0" width="1966.5" height="1966.5"/>
</g>
</svg>
