<?xml version="1.0" encoding="utf-8"?>
<!-- Generator: Adobe Illustrator 27.5.0, SVG Export Plug-In . SVG Version: 6.00 Build 0)  -->
<svg version="1.1" id="Capa_1" xmlns="http://www.w3.org/2000/svg" xmlns:xlink="http://www.w3.org/1999/xlink" x="0px" y="0px"
	 viewBox="0 0 1876.6 1834.8" style="enable-background:new 0 0 1876.6 1834.8;" xml:space="preserve">

<g id="historial_de_viaje" transform="translate(-265.275 -309.826)">
	<path id="Trazado_199" class="st0" d="M746.7,631.9c38.1,7.6,71.5,13.7,105,20.3c28.4,2.4,49.5,27.5,47.1,55.9
		c-2.4,28.4-27.5,49.5-55.9,47.1c-3.5-0.3-7-1-10.4-2l-201.9-38.1c-29.2-1.4-51.6-26.2-50.2-55.4c0.2-4.6,1.1-9.2,2.5-13.6
		c12.5-67.5,25.4-134.5,38.6-201.9c2.1-28.6,27-50,55.5-47.9c2.7,0.2,5.3,0.6,7.9,1.2c28.3,7.5,45.1,36.6,37.5,64.8
		c-0.1,0.5-0.3,1.1-0.5,1.6l-10.7,59.4c0.3,1,0.6,2.1,1,3c32.5-18.8,64.4-38.6,97.9-55.8c421.7-217.5,939.9-51.9,1157.4,369.9
		c217.5,421.7,51.9,939.9-369.9,1157.4c-421.7,217.5-939.9,51.9-1157.4-369.9c-40.3-78.2-68.4-162.1-83.2-248.8
		c-7.1-45.8-10.1-91.7-12.5-138c-3.8-28.2,16.1-54.1,44.3-57.9c2.1-0.3,4.3-0.4,6.4-0.4c29.1,0.4,52.4,24.3,52,53.4
		c0,1.5-0.1,3-0.2,4.4c10.7,287.6,137.5,508.9,387.1,652.5c363.8,204,824.2,74.5,1028.2-289.4s74.5-824.2-289.4-1028.2
		c-68.1-38.2-141.7-65.6-218.3-81.2c-205.6-44.6-420.4,0.6-590.6,124.3C757.9,622.6,752.1,627.1,746.7,631.9z"/>
	<path id="Trazado_200" class="st0" d="M1193.2,1020.2c0-70.9-0.5-141.7,0-212.6c0-36.5,19.3-58.4,50.2-58.9
		c24.8-1.1,46.6,16.2,51.3,40.6c1.7,9.5,2.4,19.2,2,28.9c0,135.5-0.5,271.5,0.5,406.9c0.5,13.6,5.3,26.8,13.7,37.5
		c30.2,36.5,25,90.5-11.5,120.7c-31.9,26.3-78.1,26.2-109.7-0.5c-10.3-7.5-22.7-11.8-35.5-12.2c-137,1-274.5,3-411.5,4.6
		c-9,0.5-18,0-26.9-1.5c-25-5.9-41.8-29.2-39.6-54.8c2.4-26.6,25-46.8,51.8-46.2c62.5-1.5,125.3-2,187.6-3c77.6-1,155.3-3,232.4-2.5
		c34.5,0.5,45.8-12.5,44.6-46.7C1191.7,1154.2,1193.2,1087.2,1193.2,1020.2z"/>
</g>
</svg>
