<?xml version="1.0" encoding="utf-8"?>
<!-- Generator: Adobe Illustrator 27.5.0, SVG Export Plug-In . SVG Version: 6.00 Build 0)  -->
<svg version="1.1" id="Capa_1" xmlns="http://www.w3.org/2000/svg" xmlns:xlink="http://www.w3.org/1999/xlink" x="0px" y="0px"
	 viewBox="0 0 1876.6 1834.8" style="enable-background:new 0 0 1876.6 1834.8;" xml:space="preserve">
<g>
	<path d="M1834.8,854.1c0,42.1,0,84.2,0,126.3c-3.7,28.1-6.5,56.6-11.7,84.6c-35.1,200.6-126.3,371.3-275.4,510.2
		c-128.1,119.2-278.7,194.5-451.3,224.9c-31.3,5.6-63.1,9.4-94.9,14c-42.1,0-84.2,0-125.8,0c-5.1-0.9-10.3-2.8-15.4-3.3
		c-73-5.6-143.6-21-212.8-44.9C233.2,1623.3-18,1205.2,54.1,770.8c40.7-245,164.6-441,367.1-585C621.8,43.2,845.8-5,1088,33.3
		c153.9,24.3,291.8,87,412.5,185.7c172.6,140.8,280.1,320.3,320.3,539.7C1826.9,790,1830.1,822.3,1834.8,854.1z M991.2,1706.1
		c178.6-13.6,333-78.1,466.7-193.1c-1.9-2.8-1.9-3.3-2.3-3.7c-15.4-15.9-31.3-31.3-46.8-47.2c-23.8-24.3-25.3-56.1-4.2-78.1
		c21.5-22.4,54.7-21.5,79,3.3c16.4,16.4,32.3,33.2,48.2,50c100.1-93.1,212.3-365.7,192.7-467.6c-41.2,0-82.3,0.5-123.9,0
		c-29-0.5-52.4-24.3-52.4-52.4c0-28.5,23.4-51.9,52.4-52.4c26.7-0.5,53.8,0,80.4,0c15,0,29.9,0,46.3,0
		c-13.6-178.2-78.1-332.5-195-469c-16.8,17.8-32.3,34.6-48.2,50.5c-24.8,24.8-57.1,26.7-79,5.1c-22.4-22-21-55.2,4.7-80.4
		c15.9-15.9,33.2-30.9,49.6-45.8c-99.6-103.3-372.7-214.6-468.6-193.1c0,14.5,0,29,0,43.5c0,15,0.5,30.4,0,45.4
		c-0.5,26.2-19.6,47.2-45.8,51.4c-22.4,3.3-47.2-11.2-55.2-33.7c-2.8-7.9-3.3-16.8-3.7-25.7c-0.5-27.6,0-55.6,0-84.6
		c-178.6,14-333,78.1-469,195c19.2,18.2,36.9,34.6,54.2,51.9c15.9,15.9,20.1,35.1,12.6,56.1c-13.1,36.9-58,46.3-87,18.7
		c-17.8-17.3-34.6-35.5-51.9-53.3C238.3,507.1,138.7,748.8,152.3,864.8c28.1,0,56.6,0,85.1,0c32.3,0,56.1,22,56.6,51.9
		c0.5,30.4-23.8,53.3-57.1,53.3c-28.5,0-57.1,0-87.4,0c13.6,178.2,78.1,333,195,468.6c16.4-17.3,31.3-33.2,46.3-48.2
		c26.7-26.7,58.9-29,81.8-6.1c22.4,22.4,19.6,55.2-7.5,81.8c-15.4,15-30.9,29.5-48.2,45.8c136.6,116.9,290.9,181.4,469,195
		c0-31.3,0-59.9,0-88.4c0-32.3,22.4-56.1,52.4-56.1c29.9,0,52.4,23.8,52.8,55.6C991.2,1646.2,991.2,1674.8,991.2,1706.1z"/>
	<path d="M991.2,864.8c94,0,185.7,0,276.8,0c26.2,0,44.9,14,52.4,37.9c9.8,31.8-13.6,66.4-47.2,66.9c-112.7,0.5-224.9,0.5-337.6,0
		c-29,0-49.6-23.8-49.6-54.2c0-121.1,0-242.7,0-363.8c0-39.7,0-79.5,0-118.8c0-32.3,22.4-55.2,52.8-55.2s52.4,23.4,52.4,55.6
		c0,137,0,274,0,411.1C991.2,849.8,991.2,856.4,991.2,864.8z"/>
</g>
</svg>
