<?xml version="1.0" encoding="utf-8"?>
<!-- Generator: Adobe Illustrator 27.7.0, SVG Export Plug-In . SVG Version: 6.00 Build 0)  -->
<svg version="1.1" id="Capa_1" xmlns="http://www.w3.org/2000/svg" xmlns:xlink="http://www.w3.org/1999/xlink" x="0px" y="0px"
	 viewBox="0 0 1819.6 1314.4" style="enable-background:new 0 0 1819.6 1314.4;" xml:space="preserve">
<g>
	<path d="M1812.9,1172.7c-3.3,21.1-9.3,41.4-20.6,60.1c-15.6,26-38.5,47.3-65.7,60.9c-19.9,9.9-41.9,15.6-64.1,17
		c-0.4,0-0.7,0-1.1,0.1c-5.3,0.3-10.6,0.2-15.9,0.2c-490.6,0-981.1,0-1471.7,0c-78.7,0-141-45.9-160-118.4
		c-3.8-14.7-5.6-30.2-5.6-45.4C7.9,820.1,7.8,493,8,166C8.1,71.2,77,2.5,172,2.4c492.9-0.1,985.8-0.1,1478.8,0
		c43.3,0,86.1,14.3,117.1,45.3c34.7,34.7,46.2,76.2,47.7,123.7c0.3,11.2,0,22.4,0,33.6c0,22,0,44.1,0,66c0,44.1,0,88,0,132.1
		c0,88,0,176.1,0,264.1s0,176.1,0,264.1c0,44.1,0,88,0,132.1C1815.5,1098.9,1818.4,1136.8,1812.9,1172.7z M910.5,1204.9
		c245.3,0,490.6,0,735.9,0c43.5,0,63.3-20.1,63.3-63.9c0-322.9,0-645.8,0-968.8c0-43.7-19.8-63.7-63.4-63.7
		c-489.4,0-978.9,0-1468.2,0c-44.7,0-64.1,19.6-64.1,64.7c0,322.3,0,644.7,0,967c0,45,19.5,64.6,64.3,64.6
		C422.2,1204.9,666.3,1204.9,910.5,1204.9z"/>
	<path d="M370.5,534.2c-74.9-95.4-48.1-210.3,21.6-271.5c72.1-63.4,183.2-63.6,255.3-0.2c70.4,61.9,96.1,177,20.6,273.1
		c4.3,3,8.5,5.9,12.7,8.8c89.9,60.6,136.6,145.1,139.3,253.8c0.3,10.6,0.2,21.2,0,31.9c-0.5,34.3-22.2,56.2-56.6,56.4
		c-68.8,0.2-137.7,0.1-206.5,0.1c-91.7,0-183.6,0-275.3,0c-41.3,0-60.6-20.5-62.1-61.8c-3.3-91.6,22.3-172.3,87.7-237.9
		C326.2,568,348.5,552.4,370.5,534.2z M712.1,779.7c-7.6-99.3-93.5-176.9-194.2-176c-98.8,0.8-184.9,80.2-190.1,176
		C455.4,779.7,582.9,779.7,712.1,779.7z M520.4,320.7c-48.8-0.3-88.8,39.3-88.9,88.2c-0.1,48.2,38.9,87.9,86.7,88.6
		c48.8,0.7,89.3-38.6,89.7-87.3C608.5,361.3,569.1,321,520.4,320.7z"/>
	<path d="M1215.3,902.4c0-44.8-0.1-89.5,0-134.2c0.1-36.7,21.6-58.3,58-58.4c91.1-0.1,182.2-0.2,273.4,0c35.2,0.1,56.9,22,57,57.6
		c0.2,91.3,0.2,182.6,0,273.8c-0.1,35.4-21.9,57.5-57.1,57.5c-91.1,0.2-182.2,0.2-273.4,0c-36.3-0.1-57.8-21.8-57.9-58.5
		C1215.2,994.3,1215.3,948.3,1215.3,902.4z M1497.1,817.1c-59.2,0-117.1,0-174.4,0c0,59.2,0,117.1,0,174.7c58.8,0,116.2,0,174.4,0
		C1497.1,933.3,1497.1,875.8,1497.1,817.1z"/>
	<path d="M1268.6,320.7c-93.5,0-186.9,0.3-280.4-0.1c-40.8-0.2-66.9-38.9-50.4-74.4c10.2-21.9,28.4-31.7,52.6-31.6
		c105.2,0.1,210.5,0.1,315.6,0.1c79.4,0,158.7-0.1,238.1,0c35.7,0,59.7,21.7,59.6,53.2c-0.1,31.6-24.1,52.9-60,52.9
		C1452,320.7,1360.2,320.7,1268.6,320.7z"/>
	<path d="M1270.1,426.7c92.2,0,184.6-0.2,276.8,0.1c42,0.1,68.6,38.6,51.6,74.8c-10.6,22.7-29.9,31.5-54.5,31.3
		c-121.7-0.3-243.3-0.1-365-0.1c-62.3,0-124.6,0.1-186.9,0c-35.4-0.1-59.6-22-59.2-53.6c0.3-30.7,24.2-52.5,58.6-52.5
		C1084.4,426.7,1177.3,426.7,1270.1,426.7z"/>
	<path d="M518,1098.8c-79.4,0-158.7,0.1-238,0c-35.9,0-59.9-21.2-60.2-52.7c-0.3-31.5,23.9-53.4,59.4-53.4
		c160.5-0.1,320.9-0.1,481.4,0c35.5,0,59.6,21.9,59.3,53.5c-0.3,31.6-24.2,52.6-60.2,52.6C679,1098.8,598.5,1098.8,518,1098.8z"/>
</g>
</svg>
