<?xml version="1.0" encoding="utf-8"?>
<!-- Generator: Adobe Illustrator 27.5.0, SVG Export Plug-In . SVG Version: 6.00 Build 0)  -->
<svg version="1.1" id="Capa_1" xmlns="http://www.w3.org/2000/svg" xmlns:xlink="http://www.w3.org/1999/xlink" x="0px" y="0px"
	 viewBox="0 0 1876.6 1834.8" style="enable-background:new 0 0 1876.6 1834.8;" xml:space="preserve">
<g>
	<path d="M1184.6,617.7c9.8,0,17.5,0,25.2,0c140.5,0,281.5-0.5,421.9,0c103.4,0.5,184.2,64.3,205.8,162.6
		c3.6,15.4,5.1,31.9,5.1,47.9c0.5,160.5,0.5,321.1,0,481.6c-0.5,108.1-70,190.9-173.4,208.9c-9.8,1.5-20.1,2.1-32.4,3.6
		c0,26.2-0.5,52,0,77.7c0.5,38.6-14.4,67.9-50.4,82.8c-36,15.4-67.4,4.6-94.7-22.6c-41.7-41.7-83.9-83.4-125-125.6
		c-9.8-10.3-20.1-13.9-34-13.9c-143,0.5-286.6,0.5-429.7,0c-102.4-0.5-182.7-62.3-205.3-158c-4.1-18-5.7-37-5.7-55.1
		c-0.5-78.2,0-156.9,0-235.2c0-6.7,0-13.9,0-23.2c-20.1,0-38.1,0-56.6,0c-44.3,0-88.5,0.5-132.8,0c-11.3,0-18.5,3.1-25.2,12.9
		c-27.8,39.1-56.6,77.7-85.4,116.3c-24.7,33.4-58.1,45.8-94.2,34.5c-37-11.8-57.1-40.7-57.6-83.9c0-25.7,0-51.5,0-78.2
		c-14.9-2.1-28.8-3.1-42.2-6.2C100.9,1023.1,35.6,943.4,34.5,841c-1-162.6-1.5-324.7,0-487.3c1-120.9,90.6-208.4,211-208.4
		c242.9-0.5,485.2-0.5,728.1,0c122.5,0,211,89,211.5,212C1185.1,442.7,1184.6,528.7,1184.6,617.7z M1554.5,1607.7
		c0-35.5,0-65.3,0-95.2c0-66.9,6.2-72.6,72-73.1c82.3,0,132.8-50.4,132.8-133.3c0-157.5,0-314.4,0-471.8
		c0-84.4-49.9-134.3-133.8-134.3c-238.8,0-477.5,0-716.3,0c-84.9,0-135.8,50.4-135.8,134.8c0,156.4,0,313.4,0,469.8
		c0,83.4,50.9,134.8,134.3,134.8c143,0,286.1,1,429.7-0.5c35-0.5,60.7,8.7,84.4,34.5C1462.9,1518.1,1507.2,1560.3,1554.5,1607.7z
		 M718.4,721.1c-11.3-0.5-18-1-24.7-1c-56.1,0-111.7,0.5-167.7-0.5c-16-0.5-23.7,4.6-29.8,19.6c-17.5,40.6-36,80.8-54.5,120.9
		c-7.7,16.5-21.1,25.7-40.1,24.7c-17.5-1-32.4-10.8-35.5-27.8c-2.6-12.9,0-28.3,5.7-40.1c64.3-144.1,130.2-287.1,195-430.7
		c8.7-19.6,20.1-35,43.2-35s34,17,42.7,36c38.1,84.9,76.7,169.3,115.3,253.7c2.6,5.7,5.1,10.8,8.2,17c42.2-30.4,87-41.2,136.4-40.1
		c55.6,1,111.7,0,167.7,0c6.7,0,13.9,0,21.6,0c0.5-6.2,1.5-9.8,1.5-13.4c0-83.9,0-168.3,0-252.1c0-11.8-2.1-24.2-5.7-36
		c-16-56.1-63.3-89.5-126.6-89.5c-212,0-423.5,0-635.5,0c-31.4,0-62.8-0.5-94.2,0c-70,1.5-123,51.5-123.5,118.9
		c-1,167.7-1,335,0,502.7c0.5,64.3,52.5,114.7,116.8,117.3c13.9,0.5,28.3,0,42.2,0.5c29.3,1,44.8,17,45.3,45.8
		c0.5,23.2,0,46.3,0,69.5c0,15.4,0,30.9,0,46.3c37.6-45.3,71.5-90,103.9-135.8c13.4-18.5,29.8-26.2,52-25.7c44.8,1,90,0,134.8,0
		c25.7,0,50.9,0,77.2,0C698.3,884.2,675.7,800.3,718.4,721.1z M676.2,637.2c-22.1-48.4-43.7-95.7-66.4-146.1
		c-22.6,50.4-44.3,97.3-66.4,146.1C588.7,637.2,630.9,637.2,676.2,637.2z"/>
	<path d="M1263.3,1189.3c58.7-49.9,91.1-108.6,103.4-181.1c-8.2,0-14.9,0-21.6,0c-90,0-179.6,0-269.6,0c-5.7,0-11.8,0.5-17.5-0.5
		c-22.1-2.6-38.1-20.6-37.6-41.7c0.5-21.6,17-39.1,39.1-39.6c46.8-1,93.6-0.5,140.5-0.5c7.7,0,14.9,0,25.7,0c0-28.3-0.5-55.1,0-81.8
		c0.5-24.7,16.5-40.6,39.1-41.2c24.2-0.5,41.7,16.5,42.2,42.2c0.5,26.2,0,52.5,0,80.8c24.7,0,47.9,0,70.5,0c30.4,0,60.2-0.5,90.6,0
		c27.3,0.5,43.7,16.5,43.7,40.6c0,24.2-17,40.1-43.7,41.2c-5.7,0-11.3,0-19.6,0c-11.3,85.4-46.3,159.5-108.6,222.3
		c31.4,16,63.8,21.1,96.7,23.7c6.2,0.5,12.9,0,19,1c22.6,3.1,37.6,21.6,36.5,44.3c-1,21.6-17.5,36.5-41.2,36.5
		c-60.2,0-116.8-14.4-169.8-42.7c-10.8-5.7-19-5.7-29.8,0c-50.9,27.8-106,41.7-164.1,42.2c-29.3,0.5-49.4-16.5-49.4-41.7
		c0-23.7,18-39.1,46.8-39.6c41.7-1,83.4-10.8,101.9-22.1c-23.2-35-47.9-69.5-69-105.5c-12.9-21.6-3.6-45.8,16.5-56.1
		c20.6-10.8,43.2-3.1,55.6,18.5c3.6,6.7,6.7,14.4,10.8,20.1C1222.1,1135.8,1242.2,1162.1,1263.3,1189.3z"/>
</g>
</svg>
