<?xml version="1.0" encoding="utf-8"?>
<!-- Generator: Adobe Illustrator 27.6.1, SVG Export Plug-In . SVG Version: 6.00 Build 0)  -->
<svg version="1.1" id="Capa_1" xmlns="http://www.w3.org/2000/svg" xmlns:xlink="http://www.w3.org/1999/xlink" x="0px" y="0px"
	 viewBox="0 0 685.2 360" style="enable-background:new 0 0 685.2 360;" xml:space="preserve">
<g>
	<path d="M677.4,54.7c-2.6,9.8-8.9,17.1-16.1,24.1c-87,85.8-174,171.9-261,257.9c-17.6,17.5-36.7,17.1-54-1
		c-9.8-10.3-19.7-20.3-29.3-30.7c-9.1-9.8-11.4-21.5-7-34.1c4.4-12.6,13.8-19.9,26.9-21.8c10.5-1.6,19.7,1.7,27.6,8.9
		c3.3,3.1,6.5,6.5,11.4,11.4c15.4-15.9,30-32.1,45.8-47.7c65.7-65.3,131.5-130.3,197.6-195.5c19.4-19,48.4-11.9,56.8,13.8
		c0.3,1,0.9,1.9,1.2,3C677.4,46.9,677.4,50.7,677.4,54.7z"/>
	<path d="M173,268.2c33.9-33.5,67.1-66.4,100.3-99.1c48.7-48,97.3-96.3,146-144.3c19.9-19.6,50.8-11.7,57.3,14.5
		c3.1,12.9-0.9,23.9-10.3,33.2c-30.6,30.2-61.1,60.4-91.5,90.5c-58.3,57.7-116.5,115.3-174.9,172.8c-18.3,18.2-37,17.8-55-0.9
		c-42.1-43.7-84.2-87.2-126.3-130.8C7.7,192.9,5,178.6,10.9,165.7c5.6-12.4,18.5-20.3,32-19.7c10.1,0.5,18,5.2,25,12.6
		c33.2,34.6,66.6,69,99.9,103.4C169.5,264,170.9,265.9,173,268.2z"/>
</g>
</svg>
