<?xml version="1.0" encoding="utf-8"?>
<!-- Generator: Adobe Illustrator 27.8.1, SVG Export Plug-In . SVG Version: 6.00 Build 0)  -->
<svg version="1.1" id="Capa_1" xmlns="http://www.w3.org/2000/svg" xmlns:xlink="http://www.w3.org/1999/xlink" x="0px" y="0px"
	 viewBox="0 0 236.9 443.2" style="enable-background:new 0 0 236.9 443.2;" xml:space="preserve">
<g>
	<path id="Trazado_352" d="M90.6,382.2V187.6c-13.1,0-25.7,0.3-38.4-0.1c-13.6-0.3-25-10.2-27.3-23.6c-2.7-13.3,4.3-26.6,16.8-32
		c4.2-1.6,8.7-2.4,13.2-2.3c20.5-0.2,41-0.1,61.6-0.1c21.6,0,33.1,11.4,33.1,32.9v219.6c17.8,0,34.8-0.2,51.8,0.1
		c15.8-0.4,29,12.1,29.4,27.9c0.1,4.2-0.7,8.4-2.4,12.3c-4.1,11.5-15.3,18.8-27.5,17.8c-35.5,0.1-70.9,0-106.2,0
		c-19.4,0-38.9,0.3-58.3-0.1c-13.9-0.3-25.5-10.7-27.2-24.5c-2.4-14.3,6.3-28.1,20.2-32.2c3.9-1,7.8-1.4,11.8-1.2
		C57.3,382.1,73.5,382.2,90.6,382.2z"/>
	<path id="Trazado_353" d="M112.8,3.4c22.7,0.2,40.9,18.8,40.7,41.5c0,0.2,0,0.5,0,0.7c-0.3,23-19.2,41.4-42.2,41.1
		c-23-0.3-41.4-19.2-41.1-42.2c0.3-23,19.2-41.4,42.2-41.1C112.5,3.4,112.7,3.4,112.8,3.4z"/>
</g>
</svg>
