<?xml version="1.0" encoding="utf-8"?>
<!-- Generator: Adobe Illustrator 27.4.1, SVG Export Plug-In . SVG Version: 6.00 Build 0)  -->
<svg version="1.1" id="Capa_1" xmlns="http://www.w3.org/2000/svg" xmlns:xlink="http://www.w3.org/1999/xlink" x="0px" y="0px"
	 viewBox="0 0 884.1 1010.5" style="enable-background:new 0 0 884.1 1010.5;" xml:space="preserve">

<g>
	<path d="M450.5,258.1c3.4,0.9,6.7,2.2,9.9,3.8c0.2,0.1,0.4,0.2,0.6,0.3c6,3.1,11.1,7.6,16,12.3c0.7,0.7,1.4,1.4,2.1,2.1
		c66.2,66.4,132.6,132.7,198.8,199.1c4.3,4.3,8.7,9.1,11.1,14.5c14.2,31.7-4.4,66.7-40.4,68.3c-2.8,0.1-5.6,0-9.1,0
		c0,2.4,0,4.3,0,6.3c0,50.1,0.1,100.1-0.2,150.2c-0.2,27.5-24.9,51.8-52.4,52c-27.6,0.2-55.2,0.1-82.8,0.1
		c-10.2,0-16.3-6.2-16.3-16.5c0-38.6,0-77.2,0-115.8c0-17.9-9.8-27.8-27.6-27.9c-14.5-0.1-28.9-0.1-43.4,0
		c-17,0.1-26.9,10.2-26.9,27.1c0,38.4,0,76.8,0,115.3c0,12-5.7,17.8-17.6,17.8c-26.3,0-52.6,0-78.8,0c-30.3-0.1-54.8-23-55.1-53.3
		c-0.6-49.6-0.2-99.1-0.3-148.7c0-2,0-3.9,0-5.9c-6.3-0.6-12.1-0.5-17.7-1.8c-17.5-3.8-29.3-14.6-34.8-31.5
		c-5.4-16.7-1.9-32.1,9.6-45.6c1.6-1.9,3.4-3.6,5.2-5.4C266.1,409,332,343.2,397.7,277.3c9.3-9.4,18.9-18.5,32.6-20.5
		C437,255.8,443.9,256.4,450.5,258.1z M517.8,737.1c21.7,0,42.7,0,63.6,0c17.6,0,27.9-10.3,27.9-27.8c0-54.7,0-109.5,0-164.2
		c0-10.3,6.1-16.5,16.3-16.6c7.2,0,14.3,0.1,21.5,0c8-0.1,14.2-5.2,16.3-12.9c2.2-8.3-2.1-13.9-7.5-19.3
		c-67.5-67.5-135-135-202.6-202.5c-10.5-10.5-19-10.5-29.5,0C363.8,354,303.5,414.2,243.3,474.5c-8.4,8.4-16.8,16.6-25,25.1
		c-5.2,5.4-6.7,11.8-3.5,18.8c3,6.7,8.5,10,15.8,10.2c6.5,0.1,13,0,19.5,0c12.3,0,18,5.7,18,18c0,54.7,0,109.5,0,164.2
		c0,15.6,10.7,26.3,26.3,26.4c20.5,0.1,40.9,0,61.4,0c1.1,0,2.2-0.2,3.8-0.3c0-2.4,0-4.5,0-6.7c0.1-34.4-0.2-68.9,0.5-103.3
		c0.5-23.8,21.6-47.3,45.3-49c22.1-1.6,44.6-1.6,66.7,0c23.9,1.8,45,25.5,45.4,49.5c0.6,34.4,0.3,68.9,0.4,103.3
		C517.8,732.5,517.8,734.5,517.8,737.1z"/>
	<path class="st0" d="M517.8,737.1c0-2.6,0-4.6,0-6.5c-0.1-34.4,0.2-68.9-0.4-103.3c-0.4-24-21.5-47.7-45.4-49.5
		c-22.1-1.6-44.6-1.6-66.7,0c-23.7,1.7-44.8,25.2-45.3,49c-0.7,34.4-0.4,68.9-0.5,103.3c0,2.1,0,4.3,0,6.7c-1.6,0.1-2.7,0.3-3.8,0.3
		c-20.5,0-40.9,0.1-61.4,0c-15.6-0.1-26.3-10.8-26.3-26.4c0-54.7,0-109.5,0-164.2c0-12.3-5.7-18-18-18c-6.5,0-13,0.1-19.5,0
		c-7.3-0.1-12.8-3.5-15.8-10.2c-3.1-7-1.7-13.4,3.5-18.8c8.2-8.5,16.7-16.7,25-25.1C303.5,414.2,363.8,354,424,293.8
		c10.4-10.4,19-10.4,29.5,0c67.5,67.5,135,135,202.6,202.5c5.4,5.4,9.7,11,7.5,19.3c-2.1,7.7-8.3,12.8-16.3,12.9
		c-7.2,0.1-14.3,0-21.5,0c-10.2,0.1-16.3,6.2-16.3,16.6c0,54.7,0,109.5,0,164.2c0,17.5-10.3,27.8-27.9,27.8
		C560.5,737.1,539.6,737.1,517.8,737.1z"/>
</g>
</svg>
