<?xml version="1.0" encoding="utf-8"?>
<!-- Generator: Adobe Illustrator 27.4.1, SVG Export Plug-In . SVG Version: 6.00 Build 0)  -->
<svg version="1.1" id="Capa_1" xmlns="http://www.w3.org/2000/svg" xmlns:xlink="http://www.w3.org/1999/xlink" x="0px" y="0px"
	 viewBox="0 0 884.1 1010.5" style="enable-background:new 0 0 884.1 1010.5;" xml:space="preserve">
<path d="M241.5,610c-7.8-1.1-14.9-1.2-21.4-3.1c-33-9.6-44.3-51-21.2-76.5c1.1-1.2,2.3-2.4,3.5-3.6
	c68.2-68.2,136.4-136.5,204.8-204.7c4.1-4.1,8.7-7.9,13.8-10.5c15.3-8,41.4-5.9,56.1,9.4c28.6,29.8,58.2,58.5,87.3,87.7
	c39.2,39.2,78.4,78.3,117.4,117.6c4.2,4.2,8.5,8.9,10.8,14.1c14.2,31.6-4.1,66.8-40.2,68.5c-2.8,0.1-5.6,0-9.3,0c0,2.3,0,4.2,0,6.1
	c0,50.2,0.1,100.5-0.2,150.7c-0.2,27.1-25,51.5-52.2,51.7c-27.8,0.2-55.6,0.1-83.3,0.1c-9.6,0-15.9-6.3-16-15.9
	c-0.1-18.3,0-36.6,0-54.9c0-21.1,0-42.3,0-63.4c0-15.1-9.9-25.6-25-25.9c-16-0.4-31.9-0.3-47.9,0c-15.1,0.3-25,10.8-25.1,25.9
	c0,38.8,0,77.5,0,116.3c0,12.3-5.7,18-17.9,18c-25.5,0-50.9-0.6-76.4,0.2c-30.6,1-58.1-23.9-57.7-57.4c0.6-48.2,0.2-96.5,0.2-144.8
	C241.5,613.7,241.5,611.7,241.5,610z"/>
</svg>
