<?xml version="1.0" encoding="utf-8"?>
<!-- Generator: Adobe Illustrator 27.5.0, SVG Export Plug-In . SVG Version: 6.00 Build 0)  -->
<svg version="1.1" id="Capa_1" xmlns="http://www.w3.org/2000/svg" xmlns:xlink="http://www.w3.org/1999/xlink" x="0px" y="0px"
	 viewBox="0 0 368.5 371.6" style="enable-background:new 0 0 368.5 371.6;" xml:space="preserve">
<path d="M48.9,218.9c-5.1-0.7-9.8-0.7-14.1-1.9c-22.9-6.3-31.2-34.5-15.5-52.3c0.9-1,1.9-2,2.8-3C69,114.7,115.8,67.8,162.8,21
	c2.9-2.9,6.2-5.5,9.8-7.4c9.9-5.3,27.7-4.3,36.7,5.2c4.7,5,9.7,9.7,14.6,14.6c42.7,42.8,85.5,85.4,128.1,128.4
	c3.7,3.7,7.3,8.4,8.8,13.3c7.2,23.2-7.8,42.5-29.6,43.3c-1.8,0.1-3.6,0-5.9,0c0,1.6,0,3,0,4.3c0,33.7,0.1,67.3,0,101
	c-0.1,18.2-11.7,33-29.2,37.2c-3.1,0.7-6.3,1-9.5,1.1c-18,0.1-35.9,0.1-53.9,0c-7.5,0-11.7-4.1-11.7-11.7c0-26.5,0-52.9,0-79.4
	c0-12.5-6.9-19.4-19.3-19.4c-9.8,0-19.7,0-29.5,0c-11.7,0-18.7,7.1-18.8,18.9c0,26.2,0,52.4,0,78.7c0,9.2-3.7,12.9-12.9,12.9
	c-17.3,0-34.6,0-51.9,0c-23.3,0-39.5-16.2-39.6-39.5c0-33.2,0-66.4,0-99.6C48.9,221.4,48.9,220,48.9,218.9z M132.7,341.1
	c0-1.7,0-3.1,0-4.5c0-22.3-0.1-44.7,0-67c0.1-21.4,14.8-37.4,36.2-38.6c12.1-0.7,24.3-0.2,36.4-0.1c2,0,4.1,0.3,6.1,0.8
	c18,4,30,18.8,30.1,37.5c0.1,22.6,0,45.1,0,67.7c0,1.3,0,2.7,0,4.4c1.6,0,2.8,0,4.1,0c13.1,0,26.1,0,39.2,0
	c13.2,0,19.9-6.7,19.9-19.8c0-37.3,0-74.7,0-112c0-7.6,4.1-11.7,11.6-11.8c4.9,0,9.8,0.1,14.8-0.1c4.6-0.1,8-2.4,10.1-6.6
	c2.1-4.3,1.6-8.5-1.3-12.3c-1-1.3-2.1-2.4-3.3-3.5C290.2,128.8,243.8,82.4,197.4,36c-7.3-7.3-13.3-7.3-20.6,0
	c-42.3,42.3-84.7,84.7-127,127c-4.9,4.9-10,9.8-14.8,14.9c-3.5,3.7-4.2,8.1-2.2,12.7c2,4.5,5.6,6.9,10.5,7c4.3,0.1,8.7,0,13.1,0
	c9.4,0,13.1,3.7,13.1,13.1c0,37.4,0,74.9,0,112.3c0,10.8,7.3,18.1,18.1,18.1c14,0,27.9,0,41.9,0
	C130.4,341.2,131.3,341.1,132.7,341.1z"/>
</svg>
