<?xml version="1.0" encoding="utf-8"?>
<!-- Generator: Adobe Illustrator 27.5.0, SVG Export Plug-In . SVG Version: 6.00 Build 0)  -->
<svg version="1.1" id="Capa_1" xmlns="http://www.w3.org/2000/svg" xmlns:xlink="http://www.w3.org/1999/xlink" x="0px" y="0px"
	 viewBox="0 0 368.5 63.5" style="enable-background:new 0 0 368.5 63.5;" xml:space="preserve">
<g>
	<path d="M192.7,57.2c0-0.2-0.2-0.3-0.3-0.4c-1-0.9-1.9-2-2.5-3.2c-0.7-1.3-1.5-2.7-2.3-4c-1.3-2.1-2.5-4.1-3.7-6.2
		c-0.9-1.5-1.8-3.1-2.8-4.5c-0.6-0.9-1.2-1.7-1.5-2.7c-0.1-0.3-0.3-0.5-0.7-0.5c-2.4,0-4.7,0-7.1,0c-0.4,0-0.5,0.2-0.5,0.5
		c0,0.2,0,0.4,0,0.5c0,7.2,0,14.5,0,21.7c0,0.1,0,0.2,0,0.3c0.1,0.4-0.1,0.6-0.6,0.6c-1.7,0-3.4,0-5.1,0c0,0-0.1,0-0.1,0
		c-0.3,0-0.5-0.1-0.5-0.5c0-0.2,0-0.3,0-0.5c0-16.9,0-33.8,0-50.7c0-1.2-0.1-1.1,1-1.1c3.9,0,7.8,0,11.7,0c2.9,0,5.7,0.1,8.5,0.5
		c1.4,0.2,2.9,0.6,4.2,1.1c1,0.4,2,0.7,3,1.2c2.3,1.5,4,3.4,4.9,6.1c0.8,2.5,1.1,4.9,0.8,7.5c-0.2,1.4-0.5,2.7-1,3.9
		c-1.5,3.3-4,5.5-7.3,6.8c-1,0.4-2,0.7-3,1c-0.5,0.2-1.1,0-1.6,0.4c4.9,8,9.9,16,14.8,24C198,59.6,195.2,58.9,192.7,57.2
		C192.7,57.2,192.7,57.2,192.7,57.2L192.7,57.2z M171.2,21.1C171.2,21.1,171.2,21.1,171.2,21.1c0,2.6,0,5.3,0,7.9
		c0,0.7,0,0.8,0.7,0.7c4.2-0.1,8.4,0.3,12.5-0.4c1.4-0.2,2.8-0.5,4.1-1.2c1.5-0.7,2.8-1.8,3.4-3.5c0.4-1.1,0.7-2.3,0.7-3.6
		c0-0.6-0.1-1.1-0.2-1.7c-0.2-1.2-0.5-2.3-1.2-3.3c-0.8-1.1-1.8-1.8-2.9-2.3c-1.7-0.7-3.5-1.1-5.3-1.3c-3.7-0.3-7.4-0.1-11.1-0.1
		c-0.7,0-0.7,0-0.7,0.7C171.2,15.8,171.2,18.5,171.2,21.1z"/>
	<path d="M152.1,59.3c-2.4,0-4.6,0-6.8,0c-0.4,0-0.6-0.1-0.8-0.5c-0.3-1-0.8-2-1.2-3c-0.3-0.8-0.7-1.5-0.9-2.2
		c-0.4-1.1-0.9-2.1-1.3-3.1c-0.5-1.2-1-2.5-1.5-3.7c-0.1-0.3-0.3-0.4-0.6-0.4c-0.2,0-0.3,0-0.5,0c-8.1,0-16.2,0-24.3,0
		c-1,0-1,0-1.4,0.9c-1.3,3-2.5,6.1-3.8,9.1c-0.2,0.5-0.5,0.8-0.9,1.1c-2.2,1.5-4.7,2.1-7.4,1.8c0.2-0.5,0.5-1.1,0.7-1.6
		c1-2.3,2-4.7,3-7c0.8-1.8,1.7-3.7,2.5-5.5c0.8-1.8,1.5-3.5,2.3-5.2c0.7-1.7,1.5-3.3,2.2-5c0.8-1.8,1.6-3.5,2.3-5.3
		c0.7-1.8,1.6-3.6,2.3-5.5c0.7-1.8,1.6-3.6,2.4-5.3c0.7-1.7,1.4-3.4,2.2-5c0.4-0.9,0.8-1.8,1.2-2.6c0.3-0.6,0.5-1.2,0.7-1.8
		c0.1-0.3,0.2-0.5,0.3-0.7c0.2-0.3,0.4-0.6,0.4-1c0.1-0.7,0.5-1,1.2-1c1.5,0,3,0,4.5,0c0.4,0,0.7,0.1,0.9,0.6c0.7,1.5,1.2,3.1,2,4.7
		c0.9,1.9,1.7,3.9,2.5,5.9c0.6,1.3,1.1,2.6,1.7,3.9c0.6,1.3,1.1,2.7,1.7,4c0.8,1.8,1.5,3.6,2.3,5.4c0.4,1,0.9,2.1,1.4,3.1
		c0.5,1.1,0.9,2.2,1.4,3.3c0.5,1,0.8,2.1,1.3,3.1c0.6,1.4,1.2,2.9,1.8,4.3c0.5,1,0.9,2.1,1.4,3.1c0.6,1.4,1.1,2.8,1.7,4.1
		c0.4,1,0.8,2,1.3,3c0.6,1.1,1,2.3,1.4,3.6C151.8,58.9,151.9,59,152.1,59.3z M137,40.5c-3.6-8.6-6.8-17.1-10.4-25.7
		c-0.5,0.8-0.8,1.5-1.1,2.2c-0.8,2.1-1.7,4.2-2.6,6.3c-0.3,0.7-0.6,1.3-0.9,2c-0.7,1.7-1.4,3.3-2.1,5c-0.6,1.6-1.4,3.2-2,4.8
		c-0.4,0.9-0.8,1.9-1.2,2.8c-0.4,0.9-0.8,1.8-1.2,2.7C122.8,40.5,129.9,40.5,137,40.5z"/>
	<path d="M42,44.9c0.1-0.3,0-0.5,0-0.8c-0.4-2-1.3-3.8-3.1-4.9c-1-0.7-2.2-1.2-3.3-1.6c-2.8-1.1-5.7-1.9-8.5-2.9
		c-2.2-0.8-4.3-1.8-6.3-3.1c-1.7-1.1-3.1-2.6-4-4.4c-0.4-0.8-0.7-1.6-1-2.4c-0.6-1.9-0.5-3.9-0.5-5.8c0-1.3,0.2-2.6,0.7-3.7
		c0.7-1.6,1.4-3.2,2.8-4.4c1.3-1.2,2.6-2.5,4.2-3.3c1.2-0.6,2.4-1,3.7-1.4c2.9-0.8,5.8-1.1,8.8-0.8c1.9,0.2,3.8,0.5,5.6,1.2
		c2,0.8,3.9,1.9,5.5,3.4c0.3,0.3,0.3,0.5,0.2,0.9c-0.3,0.9-0.7,1.7-1.2,2.5c-0.7,1-1.8,1.4-2.9,1.8c-0.2,0.1-0.4,0-0.5-0.2
		c-2.3-2.6-5.2-3.7-8.6-3.8c-1.9,0-3.7,0.2-5.4,0.8c-2.3,0.8-4.3,2.2-5.3,4.5c-0.4,0.8-0.6,1.7-0.6,2.7c0,1.3-0.1,2.6,0.4,3.8
		c0.7,1.7,1.9,2.8,3.4,3.7c2,1.2,4.2,2.1,6.4,2.7c2.5,0.7,5,1.6,7.4,2.6c2.5,1,4.8,2.4,6.5,4.6c1.2,1.6,1.9,3.4,2.3,5.4
		c0.4,1.9,0.5,3.8,0.1,5.7c-0.6,3.5-2.2,6.5-5.1,8.8c-1.5,1.1-3.1,2-4.8,2.7c-1.8,0.7-3.8,1.1-5.8,1.3c-1.7,0.2-3.4,0-5.1,0.1
		c-1.2-0.5-2.6-0.3-3.8-0.7c-0.6-0.2-1.2-0.5-1.8-0.6c-0.5-0.1-1-0.2-1.4-0.5c-1.8-1.1-3.7-2.1-5.1-3.6c-0.5-0.6-1-1.2-1.6-1.9
		c0.4-0.6,1.2-1.1,1.8-1.6c0.9-0.7,1.8-1.5,2.7-2.2c0.1-0.1,0.3-0.3,0.4-0.4c0.3-0.2,0.6-0.3,0.8,0.2c0.3,0.5,0.7,0.9,1,1.4
		c0,0.1,0,0.1,0.1,0.1c1.4,1.4,3,2.5,5,3.1c3,1,6,1.1,9,0.2c2.7-0.8,4.9-2.4,6.3-4.8c0.7-1.2,1.1-2.6,0.9-4.1
		C42.3,45.1,42.2,45,42,44.9z"/>
	<path d="M100.2,6.7c0.1,0.2,0.1,0.4,0,0.5c-0.4,1.6-1,3.1-2.4,4.1c-0.9,0.8-2,1.1-3.2,1.1c-2.2,0-4.3,0-6.5,0c-1.5,0-3,0-4.5,0
		c-0.8,0-0.8,0-0.8,0.8c0,12.5,0,25,0,37.5c0,2.6,0,5.2,0,7.7c0,0.8,0,0.8-0.7,0.8c-1.7,0-3.4,0-5.1,0c-0.5,0-0.6-0.2-0.6-0.6
		c0-0.2,0-0.4,0-0.5c0-14.8,0-29.6,0-44.5c0-0.1,0-0.2,0-0.3c0-1.1,0.1-1-1-1c-5.1,0-10.1,0-15.2,0c-0.2,0-0.4,0-0.6,0
		c-0.3,0-0.5-0.1-0.5-0.5c0-1.6,0-3.3,0-4.9c0-0.4,0.2-0.5,0.5-0.5c0.2,0,0.4,0,0.5,0c13,0,25.9,0,38.9,0
		C99.6,6.6,99.9,6.6,100.2,6.7z"/>
	<g>
		<path d="M249.1,6.6c-12.9,0-25.8,0-38.7,0c-0.2,0-0.4,0-0.5,0c-0.6,0-0.7,0-0.7,0.7c0,1.3,0,2.7,0,4c0,1.2-0.1,1.1,1.1,1.1
			c5.1,0,10.2,0,15.3,0c0.9,0,0.9,0,0.9,0.9c0,2.6,0,5.3,0,7.9c0,2.3,0,4.6,0,6.8c0,5,0,10.1,0,15.1c0,0.1,0,0.1,0,0.2
			c0,0.1,0,0.2,0,0.4c0,4.9,0,9.8,0,14.7c0,0.1,0,0.2,0,0.4c0,0.3,0.2,0.4,0.5,0.4c1.8,0,3.6,0,5.5,0c0.4,0,0.5-0.2,0.5-0.5
			c0-0.2,0-0.4,0-0.6c0-3.4,0-6.9,0-10.3c0-1.3,0-2.6,0-3.9c0-0.4,0.1-0.7,0.1-1.1c0-4.4,0-8.8,0-13.1c0-0.4,0-0.8,0-1.3
			c0-0.4,0-0.7,0-1.1c0-4.7,0-9.4,0-14.1c0-0.8,0-0.8,0.8-0.8c0.2,0,0.4,0,0.5,0c3.5,0,6.9,0,10.4,0c1.1,0,2.1-0.3,3-0.9
			c1.3-0.9,2-2.2,2.4-3.7C250.4,6.6,250.4,6.6,249.1,6.6z"/>
		<path d="M296.5,53.4c-0.3-0.2-0.6-0.1-1-0.1c-7.8,0-15.7,0-23.5,0c-0.3,0-0.6-0.1-0.9,0.1l0,0c-0.2,0-0.4,0-0.5,0
			c-0.9,0-0.9,0-0.9-0.9c0-1.9,0-3.8,0-5.7c0-2.9,0-5.8,0-8.6c-0.1,0-0.2,0-0.3,0c0.1,0,0.2,0,0.3,0c0-0.8,0-1.6,0-2.4
			c0-0.9,0-0.9,0.9-0.9c0.1,0.2,0.2,0.2,0.3,0c5.9,0,11.8,0,17.8,0c1.3,0,2.5-0.2,3.5-1c1.3-0.9,1.9-2.2,2.3-3.7
			c0.3-1.1,0.2-1.2-1-1.2c-7.6,0-15.1,0-22.7,0c-0.2,0-0.5,0-0.7,0c-0.3,0-0.5-0.1-0.5-0.5c0-0.2,0-0.5,0-0.7c0-2.5,0-4.9,0-7.4
			c0-2.3,0-4.6,0-6.8c0-1,0-1,1-1c0.2,0,0.5,0,0.7,0c7.9,0,15.8,0,23.7,0c0.2,0,0.4,0,0.6,0c0.7,0,0.7,0,0.7-0.7c0-1.5,0-2.9,0-4.4
			c0-0.7,0-0.7-0.8-0.7c-10.5,0-20.9,0-31.4,0c-0.8,0-0.8,0-0.8,0.8c0,4.2,0,8.3,0,12.5c0,0.1,0,0.2,0,0.4c0,0.2,0,0.4,0,0.5
			c0,5.6,0,11.1,0,16.7c0,0.2,0,0.4,0,0.6c0,0,0,0,0,0c0,0.3,0,0.6,0,0.9c0,6.4,0,12.8,0,19.2c0,1.2-0.1,1.1,1.1,1.1
			c10.1,0,20.1,0,30.2,0c0.8,0,1.6,0,2.4,0c0.7,0,0.7,0,0.7-0.8c0-1.2,0-2.5,0-3.7C297.9,53.2,298.2,53.4,296.5,53.4z M264.3,38.1
			c-0.1,0-0.3,0-0.4,0C264.1,38.1,264.2,38.1,264.3,38.1c0.3,0,0.5,0,0.8,0C264.8,38.1,264.6,38.1,264.3,38.1z M268.1,38.1
			c0.1,0,0.2,0,0.3,0C268.3,38.1,268.2,38.1,268.1,38.1z"/>
		<path d="M353.7,58.3c-1.6-1.5-2.9-3.1-4.4-4.7c-1.6-1.7-3.2-3.4-4.8-5.1c-1.7-1.8-3.3-3.6-5.1-5.3c-0.3-0.3-0.6-0.7-0.9-1
			c-2.9-3-5.8-6.1-8.7-9.1c-0.6-0.6-1.2-1.3-1.8-1.9c-0.5-0.5-0.4-0.5,0.1-1c0.5-0.5,1.1-0.9,1.6-1.5c0.6-0.5,1.2-1.1,1.8-1.6
			c2.3-2.1,4.6-4.3,6.9-6.4c1.8-1.6,3.5-3.3,5.3-4.9c3-2.8,6.1-5.6,9.1-8.4c0.2-0.2,0.5-0.3,0.5-0.7c-0.2,0-0.3,0-0.4,0
			c-2.6,0-5.2,0-7.8,0c-0.6,0-1,0.2-1.4,0.6c-0.9,1-1.9,1.9-2.9,2.8c-1.3,1.1-2.5,2.4-3.8,3.6c-1.3,1.2-2.5,2.5-3.9,3.7
			c-1.3,1.1-2.4,2.4-3.7,3.5c-0.4,0.3-0.7,0.8-1.1,1.2c-1.4,1.2-2.7,2.6-4,3.9c-0.6,0.6-1.4,1.1-1.9,1.8c-0.4,0.3-0.8,0.7-1.1,1
			c-0.2,0.2-0.5,0.4-0.8,0.6c-0.4,0.2-0.6,0-0.6-0.4c0-0.4,0-0.9,0-1.3c0,0,0,0,0,0c0-0.3,0-0.5,0-0.8c0-6.4,0-12.8,0-19.2
			c0-0.2,0-0.3,0-0.5c0-0.3-0.2-0.5-0.5-0.5c-1.8,0-3.6,0-5.4,0c-0.3,0-0.5,0.1-0.5,0.5c0,0.2,0,0.4,0,0.5c0,6.4,0,12.9,0,19.3
			c0,0.3,0,0.5,0,0.8c0,5.2,0,10.5,0,15.7c0,0.1,0,0.1,0,0.2c0,2.1,0,4.2,0,6.3c0,2.9,0,5.8,0,8.7c0,0.7,0,0.7,0.7,0.7
			c2.2-0.1,3.8-1.1,4.8-3c0.6-1.1,0.9-2.2,0.8-3.4c-0.1-3.2,0-6.3-0.1-9.5c-0.3,0-0.5,0.1-0.8,0.2c0.3,0,0.5-0.1,0.8-0.2
			c0.1-1.2,0-2.3,0-3.5c0-2.3,0-4.6,0-6.8c0-0.2-0.1-0.5,0.2-0.6c0.3-0.1,0.5,0,0.7,0.2c0.1,0.1,0.2,0.2,0.3,0.3
			c2.3,2.5,4.7,5,7,7.5c1,1,1.9,2.1,3,3.1c0.2,0.2,0.3,0.4,0.5,0.6c3.9,4.1,7.7,8.2,11.5,12.4c1.7,1.9,3.9,2.4,6.2,2.7
			c1.4,0.2,2.8,0,4.3,0c0.3,0,0.7,0,1-0.3C354.2,58.7,353.9,58.5,353.7,58.3z M316.6,27.7c-0.3,0-0.5,0-0.8,0
			C316.1,27.7,316.3,27.7,316.6,27.7z"/>
	</g>
	<path d="M42,44.9c0.2,0.1,0.3,0.2,0,0.3C41.8,45.1,41.8,45,42,44.9z"/>
	<path d="M20.9,50.9c-0.1,0-0.2,0-0.1-0.1C20.8,50.8,20.9,50.8,20.9,50.9z"/>
	<polygon points="192.7,57.2 192.7,57.2 192.7,57.2 	"/>
</g>
</svg>
