<?xml version="1.0" encoding="utf-8"?>
<!-- Generator: Adobe Illustrator 27.5.0, SVG Export Plug-In . SVG Version: 6.00 Build 0)  -->
<svg version="1.1" id="Capa_1" xmlns="http://www.w3.org/2000/svg" xmlns:xlink="http://www.w3.org/1999/xlink" x="0px" y="0px"
	 viewBox="0 0 1876.6 1834.8" style="enable-background:new 0 0 1876.6 1834.8;" xml:space="preserve">

<g>
	<path d="M938,412.1c280.3,0,508.6,228.4,508.1,508.6c-0.5,279.2-228.4,507-507.6,507c-280.3,0-508.6-228.4-508.1-508.6
		C431,639.9,658.8,412.1,938,412.1z M937.5,539.3c-209.8,0-380.4,171.7-380.4,381.5s171.7,380.4,381.5,380.4S1319,1129.5,1319,919.7
		C1319,709.4,1147.8,538.8,937.5,539.3z"/>
	<path d="M1001.6,158.3c0,20.7,0.5,40.8,0,61.5c-0.5,37.1-27.6,65.2-63,65.2c-35.5,0-63-27.6-63.6-64.6c-0.5-41.9-0.5-83.2,0-125
		c0.5-37.1,28.6-64.6,64.1-64.1c34.4,0.5,62,27.6,63,63.6C1002.1,116,1001.6,137.2,1001.6,158.3z"/>
	<path d="M178.3,856.6c20.7,0,40.8-0.5,61.5,0c36,1.1,63.6,28.1,63.6,62.5c0.5,35.5-27.6,63.6-64.1,64.1c-41.9,0.5-83.2,0.5-125,0
		c-37.1-0.5-64.6-28.1-64.6-63.6c0-35.5,27.6-62.5,65.2-63C135.9,856.1,157.1,856.6,178.3,856.6z"/>
	<path d="M1701,983.3c-21.2,0-42.4,0.5-63.6,0c-37.1-1.1-64.6-28.6-64.1-64.1c0.5-34.4,27.6-62,63.6-62.5c42.4-0.5,84.8-0.5,126.6,0
		c35.5,0.5,63,28.6,63.6,63c0,34.4-27,62.5-62.5,63.6C1743.4,983.8,1722.2,983.3,1701,983.3z"/>
	<path d="M1001.6,1681c0,21.2,0.5,42.4,0,63.6c-1.1,36.6-29.1,64.6-64.1,64.1c-34.4-0.5-62-28.1-62.5-64.1
		c-0.5-42.4-0.5-84.8,0-126.6c0.5-36,28.6-63,63-63s62.5,27,63.6,63C1002.1,1638.7,1001.6,1659.8,1001.6,1681z"/>
	<path d="M291.1,343.8c1.6-33.9,13.8-53.5,37.1-64.6c23.3-11.1,47.7-9,66.8,9c29.1,27,57.2,55.1,84.2,84.2
		c22.3,24.4,19.6,61.5-3.7,84.8c-23.3,23.8-61.5,26.5-85.8,3.2c-28.6-26.5-56.2-54-82.1-82.7C298,366.6,294.3,350.7,291.1,343.8z"/>
	<path d="M1514.5,272.8c33.9,1.1,53.5,13.2,64.6,36.6c11.1,23.3,9.5,47.7-7.9,66.8c-27,29.7-55.6,58.3-85.3,85.3
		c-24.4,21.7-61.5,18-84.2-5.3c-22.8-23.3-25.4-60.4-3.2-84.8c27-29.1,55.1-57.2,84.2-83.7C1492.2,279.1,1507.6,276,1514.5,272.8z"
		/>
	<path d="M362.1,1567.1c-33.4-1.6-53-13.2-64.1-36.6c-11.1-23.3-9.5-47.7,7.9-66.8c27-29.7,55.6-58.3,85.3-85.3
		c24.4-21.7,61.5-18.5,84.2,4.8c22.3,22.8,26,59.3,4.2,83.2c-27.6,30.2-56.7,58.8-86.9,86.4C383.8,1561.3,369,1564.5,362.1,1567.1z"
		/>
	<path d="M1513.9,1567.7c-8.5-4.2-24.9-10.1-37.1-20.7c-26-23.3-50.3-48.7-74.7-73.6c-26-27-26-65.7-0.5-90.6
		c24.9-24.4,63-24.9,89,0.5c26,24.9,51.9,50.9,76.8,77.4c19.1,20.1,22.8,44.5,11.1,69.9C1568.5,1553.4,1548.4,1565,1513.9,1567.7z"
		/>
	<path class="st0" d="M937.5,539.3c209.8,0,381.5,170.1,381.5,379.9c0.5,209.8-170.6,380.9-380.4,381.5
		c-209.8,0-381.5-170.6-381.5-380.4C557.1,710.4,727.7,539.3,937.5,539.3z"/>
</g>
</svg>
