<?xml version="1.0" encoding="utf-8"?>
<!-- Generator: Adobe Illustrator 27.4.1, SVG Export Plug-In . SVG Version: 6.00 Build 0)  -->
<svg version="1.1" id="Capa_1" xmlns="http://www.w3.org/2000/svg" xmlns:xlink="http://www.w3.org/1999/xlink" x="0px" y="0px"
	 viewBox="0 0 884.1 1010.5" style="enable-background:new 0 0 884.1 1010.5;" xml:space="preserve">
<path d="M410.7,524.3c36.6-36.7,72.5-72.6,108.4-108.5c11-11,18.5-12.6,25.9-5.6c7.6,7.3,6.1,15.3-5.2,26.5
	c-37.9,37.9-75.7,75.7-113.6,113.6c-13.2,13.2-18.4,13.2-31.8-0.3c-18.2-18.2-36.6-36.1-54.3-54.7c-3.5-3.7-6.4-10.4-5.7-15.2
	c1.6-12.1,15.9-15.4,25.4-6.1c14.7,14.3,29,28.9,43.6,43.4C405.6,519.5,407.8,521.5,410.7,524.3z"/>
</svg>
