<?xml version="1.0" encoding="utf-8"?>
<!-- Generator: Adobe Illustrator 27.4.1, SVG Export Plug-In . SVG Version: 6.00 Build 0)  -->
<svg version="1.1" id="Capa_1" xmlns="http://www.w3.org/2000/svg" xmlns:xlink="http://www.w3.org/1999/xlink" x="0px" y="0px"
	 viewBox="0 0 884.1 1010.5" style="enable-background:new 0 0 884.1 1010.5;" xml:space="preserve">

<g>
	<path d="M452.7,401c-22.2-0.1-40.2-18.3-39.9-40.5c0.3-21.7,18.2-39.5,39.8-39.5c22.2,0,40.2,18.1,40.1,40.3
		C492.6,383.2,474.5,401.1,452.7,401z M428.9,361c0,13.1,10.4,23.8,23.6,24c13.1,0.2,24.1-10.6,24.3-23.8
		c0.2-13.2-10.6-24.1-23.9-24.1C439.4,337.2,428.9,347.6,428.9,361z"/>
	<path d="M492.7,457.2c-0.1,21.8-18.1,39.8-39.9,39.7c-22.2-0.1-40.2-18.2-40-40.4c0.2-21.8,18.5-39.8,40.1-39.5
		C475.1,417.2,492.8,435.1,492.7,457.2z M428.9,457c0,13.1,10.6,23.8,23.7,23.9c13.1,0.1,24.1-10.7,24.2-23.9
		c0.1-13.2-10.7-24-24-24C439.4,433.1,428.9,443.6,428.9,457z"/>
	<path d="M452.6,592.7c-22.1-0.2-39.8-18.2-39.8-40.2c0.1-21.7,18.3-39.8,40-39.7c22.3,0.1,40.1,18.2,39.9,40.5
		C492.5,575.1,474.4,592.9,452.6,592.7z M428.9,552.8c0,13.1,10.5,23.8,23.6,24c13.1,0.2,24.1-10.6,24.3-23.8
		c0.2-13.2-10.6-24.1-23.9-24.1C439.4,528.9,428.9,539.4,428.9,552.8z"/>
	<path class="st0" d="M428.9,361c0-13.4,10.6-23.9,24-23.9c13.3,0,24.1,10.9,23.9,24.1c-0.2,13.2-11.2,24-24.3,23.8
		C439.3,384.9,428.8,374.2,428.9,361z"/>
	<path class="st0" d="M428.9,457c0-13.4,10.5-23.9,23.9-24c13.3,0,24.1,10.8,24,24c-0.1,13.2-11.1,24-24.2,23.9
		C439.4,480.8,428.9,470.1,428.9,457z"/>
	<path class="st0" d="M428.9,552.8c0-13.4,10.5-23.9,24-23.9c13.3,0,24.1,10.9,23.9,24.1c-0.2,13.2-11.1,24-24.3,23.8
		C439.4,576.6,428.8,565.9,428.9,552.8z"/>
</g>
</svg>
