<?xml version="1.0" encoding="utf-8"?>
<!-- Generator: Adobe Illustrator 27.4.1, SVG Export Plug-In . SVG Version: 6.00 Build 0)  -->
<svg version="1.1" id="Capa_1" xmlns="http://www.w3.org/2000/svg" xmlns:xlink="http://www.w3.org/1999/xlink" x="0px" y="0px"
	 viewBox="0 0 884.1 1010.5" style="enable-background:new 0 0 884.1 1010.5;" xml:space="preserve">
<g>
	<path d="M633.7,368.8c-0.5,1.3-1,2.5-1.4,3.8c-3.5,9.4-12.2,15.6-22,15.6c-112.1,0-224.3,0-336.4,0c-12.7,0-23.3-10.6-23.4-23.4
		c-0.1-16.3-0.1-32.7,0-49c0.1-12.7,10.6-23.4,23.4-23.4c112.1,0,224.3,0,336.4,0c9.9,0,18.5,6.3,22,15.6c0.5,1.3,1,2.5,1.4,3.8
		C633.7,330.8,633.7,349.8,633.7,368.8z M442.1,372.1c54.5,0,109,0,163.5,0c1.5,0,3,0,4.5-0.1c4.5-0.4,7.3-2.9,7.4-7.4
		c0.2-16.2,0.2-32.4,0-48.6c0-4.5-2.9-7-7.4-7.4c-1.4-0.1-2.7-0.1-4.1-0.1c-109.3,0-218.5,0-327.8,0c-1.4,0-2.7,0-4.1,0.1
		c-4.5,0.4-7.3,2.9-7.4,7.4c-0.2,16.2-0.2,32.4,0,48.6c0,4.5,2.9,7,7.4,7.4c1.5,0.1,3,0.1,4.5,0.1
		C333.1,372.1,387.6,372.1,442.1,372.1z"/>
	<path d="M633.7,490.8c-0.8,2.7-1.4,5.5-2.3,8.2c-6.9,21.2-27.1,34.5-50,32.9c-20.8-1.4-39.2-18.4-42.8-39.7
		c-4.4-25.7,12.9-50.9,38-55.3c27-4.7,51.5,12.1,56.4,38.7c0.1,0.6,0.5,1.1,0.7,1.7C633.7,481.8,633.7,486.3,633.7,490.8z
		 M585.9,515.8c17.7-0.1,31.8-14.3,31.7-31.9c-0.2-17.6-14.1-31.5-31.7-31.6c-17.7-0.1-31.8,14.1-31.9,31.8
		C554,501.7,568.2,515.9,585.9,515.8z"/>
	<path d="M579.1,675.7c-2.6-0.7-5.2-1.4-7.8-2.2c-21.4-6.8-34.8-27-33.3-50.1c1.4-20.8,18.4-39.1,39.7-42.8
		c26-4.5,50.5,12.7,55.3,38.8c0.1,0.6,0.5,1.1,0.7,1.7c0,4.5,0,9,0,13.5c-0.2,0.6-0.6,1.1-0.7,1.7c-3.7,18.2-14.4,30.4-31.6,37
		c-2.9,1.1-5.9,1.7-8.9,2.5C588,675.7,583.6,675.7,579.1,675.7z M617.5,627.9c0.1-17.7-14-31.9-31.7-31.9
		c-17.5,0-31.5,13.8-31.8,31.4c-0.2,17.6,13.8,31.9,31.5,32.1C603.2,659.7,617.5,645.6,617.5,627.9z"/>
	<path d="M378.5,451.9c38.8,0,77.5,0,116.3,0c1.4,0,2.8-0.1,4.1,0.1c4.2,0.6,7,3.9,7,7.9c0,4-2.7,7.3-6.9,8.1
		c-1.2,0.2-2.5,0.2-3.7,0.2c-78,0-156.1,0-234.1,0c-0.9,0-1.7,0-2.6,0c-4.8-0.3-8.1-3.6-8.1-8.1c0-4.5,3.2-7.8,8-8.2
		c1.1-0.1,2.2,0,3.4,0C300.7,451.9,339.6,451.9,378.5,451.9z"/>
	<path d="M378.5,499.8c38.8,0,77.5,0,116.3,0c1.2,0,2.5-0.1,3.7,0.1c4.4,0.5,7.4,3.8,7.4,8c0,4.2-2.9,7.5-7.2,8.1
		c-1.1,0.2-2.2,0.1-3.4,0.1c-78,0-156.1,0-234.1,0c-1,0-2,0.1-3,0c-4.7-0.4-7.9-3.9-7.8-8.4c0.1-4.3,3.3-7.5,8-7.8
		c1.1-0.1,2.2,0,3.4,0C300.7,499.8,339.6,499.8,378.5,499.8z"/>
	<path d="M378,612c-39.3,0-78.5,0-117.8,0c-5.7,0-9.3-2.7-9.7-7.2c-0.5-4.5,2.5-8.3,7.1-9c1-0.2,2-0.1,3-0.1c78.4,0,156.8,0,235.3,0
		c5.4,0,8.7,2,9.8,5.7c1.5,5.1-1.8,9.9-7.2,10.5c-1.2,0.1-2.5,0.1-3.7,0.1C455.8,612,416.9,612,378,612z"/>
	<path d="M378,659.9c-39.3,0-78.5,0-117.8,0c-5.7,0-9.3-2.7-9.7-7.2c-0.4-4.5,2.5-8.3,7.1-9c1-0.2,2-0.1,3-0.1
		c78.4,0,156.8,0,235.3,0c5.4,0,8.7,2,9.8,5.7c1.5,5.1-1.8,9.9-7.2,10.5c-1.2,0.1-2.5,0.1-3.7,0.1
		C455.8,659.9,416.9,659.9,378,659.9z"/>
</g>
</svg>
