<?xml version="1.0" encoding="utf-8"?>
<!-- Generator: Adobe Illustrator 27.4.1, SVG Export Plug-In . SVG Version: 6.00 Build 0)  -->
<svg version="1.1" id="Capa_1" xmlns="http://www.w3.org/2000/svg" xmlns:xlink="http://www.w3.org/1999/xlink" x="0px" y="0px"
	 viewBox="0 0 1080 1080" style="enable-background:new 0 0 1080 1080;" xml:space="preserve">

<g>
	<path class="st0" d="M1389,253.5c4.6,3.7,9.6,6.9,13.7,11c31.2,31.9,67.6,55.2,110.2,68.7c25,7.9,50.6,11.5,76.7,12.1
		c12.2,0.3,18.8,6.9,18.8,18.9c0,58.2,0.2,116.3,0,174.5c-0.5,133.9-89.5,257.8-216.3,301c-4.6,1.6-10.9,1.5-15.5-0.3
		c-108.2-40.9-177.3-117.3-206.9-229.2c-6.2-23.4-9-47.3-9-71.4c0-58.2,0-116.3,0-174.5c0-12,6.6-18.7,18.7-18.9
		c72.4-1.5,134.2-27.8,185.3-79.2c4.6-4.7,10.2-8.5,15.3-12.7C1382.9,253.5,1386,253.5,1389,253.5z M1195,379.6c0,1.8,0,3,0,4.1
		c0,50.5-0.4,101,0.2,151.5c0.2,17.1,1.4,34.5,4.8,51.2c21.6,104.3,81.8,177,180.5,217.6c2.3,0.9,5.6,0.9,8,0
		c112.6-43.8,185-149.8,185.3-271.3c0.1-49,0-97.9,0-146.9c0-1.9,0-3.8,0-6.1c-73.3-5.4-136.4-33.3-189.4-84.2
		C1331.3,346.2,1268.5,374.3,1195,379.6z"/>
	<path class="st0" d="M1384.2,701.3c-85.7,0-154.8-69.5-154.7-155.7c0.1-85.3,69.7-154.3,155.6-154.3
		c85.4,0.1,154.5,69.6,154.4,155.4C1539.4,632.2,1469.9,701.3,1384.2,701.3z M1505,546.2c0-66-54.4-120.4-120.4-120.5
		c-66-0.1-120.5,54.2-120.6,120.3c-0.2,66.2,54.5,120.9,120.7,120.8C1450.7,666.7,1505,612.3,1505,546.2z"/>
	<path class="st0" d="M1361.4,579.2c26.3-26.3,51.9-52.2,77.8-77.6c3.4-3.3,8.5-5.9,13.2-6.8c6.9-1.3,12.6,2.3,16,8.7
		c3.5,6.5,2.8,12.9-1.4,18.8c-1.1,1.5-2.5,2.9-3.9,4.2c-28.9,28.9-57.8,57.9-86.8,86.8c-10.3,10.3-19.4,10.3-29.7,0
		c-13.9-13.9-27.9-27.8-41.8-41.8c-8.3-8.4-8.9-19.2-1.4-26.4c7.3-7,17.8-6.4,26,1.8C1340,557.6,1350.4,568.2,1361.4,579.2z"/>
</g>
<g>
	<path class="st1" d="M740.5,371c-0.9,2.7-1.6,5.5-2.8,8c-6.6,14.4-18.1,21.5-33.7,21.7c-17.8,0.2-35.7,0.1-53.5,0.1
		c-85.3,0-170.6,0-255.9,0c-17.7,0-31.4-9.9-36.1-25.8c-6.3-21.8,9.7-44.1,32.5-45.1c1.6-0.1,3.2,0,4.9,0c101.9,0,203.8,0,305.7,0
		c20.9,0,33,9.2,38.5,29.3c0.1,0.2,0.3,0.4,0.4,0.6C740.5,363.5,740.5,367.3,740.5,371z"/>
	<path class="st1" d="M740.5,587.3c-1.2,3.4-2.1,6.9-3.7,10.1c-6.3,12.5-16.8,18.9-30.7,19.8c-4.8,0.3-9.7,0.1-14.6,0.1
		c-99.1,0-198.3,0-297.4,0c-16.8,0-30.6-9.8-35.2-24.9c-7-22.7,9.3-45.1,33.6-46c0.9,0,1.7,0,2.6,0c102.6,0,205.3,0,307.9,0
		c16.1,0,28,6.9,34.8,21.8c1.2,2.6,1.9,5.3,2.8,8C740.5,579.9,740.5,583.6,740.5,587.3z"/>
	<path class="st1" d="M740.5,479.6c-0.5,1.2-1,2.5-1.4,3.7c-4.4,14.9-17.3,25-32.7,25.5c-1.1,0-2.2,0.1-3.4,0.1
		c-102.8,0-205.5,0-308.3,0.1c-14.3,0-25.5-5.4-32.8-17.7c-13.5-22.7,2.8-52,29-52.8c1.4,0,2.7-0.1,4.1-0.1c102.5,0,205,0,307.6,0
		c16.9,0,29.3,7.7,35.1,21.7c1,2.5,1.8,5.1,2.7,7.6C740.5,471.6,740.5,475.6,740.5,479.6z"/>
</g>
</svg>
