<?xml version="1.0" encoding="utf-8"?>
<!-- Generator: Adobe Illustrator 27.4.1, SVG Export Plug-In . SVG Version: 6.00 Build 0)  -->
<svg version="1.1" id="Capa_1" xmlns="http://www.w3.org/2000/svg" xmlns:xlink="http://www.w3.org/1999/xlink" x="0px" y="0px"
	 viewBox="0 0 884.1 1010.5" style="enable-background:new 0 0 884.1 1010.5;" xml:space="preserve">
<g>
	<path d="M648.5,383.3c-0.6,2-1.1,4-1.8,6c-4.4,13.5-16.5,23-30.8,24.1c-1.7,0.1-3.5,0.2-5.2,0.2c-102.6,0-205.3,0-307.9,0
		c-12.5,0-23.1-4.1-30.5-14.4c-8.2-11.2-9.5-23.5-3.5-36c6.1-12.8,16.8-19.3,30.9-20.2c1.5-0.1,3-0.1,4.5-0.1
		c101.9,0,203.8,0,305.6,0c20.9,0,33.3,9.7,38.3,30c0.1,0.2,0.3,0.4,0.4,0.6C648.5,376.8,648.5,380,648.5,383.3z"/>
	<path d="M648.5,599.6c-0.9,2.9-1.6,6-2.8,8.8c-6.1,13.5-16.7,20.6-31.4,21.7c-1,0.1-2,0.1-3,0.1c-102.9,0-205.8,0-308.6,0
		c-17.1,0-30.4-9.1-35.5-24.1c-7.4-21.6,7.7-44.5,30.5-46.3c2-0.2,4-0.2,6-0.2c102.3,0,204.5,0,306.8,0c17.9,0,31,8.7,36.2,24
		c0.7,2.1,1.3,4.2,1.9,6.4C648.5,593.1,648.5,596.3,648.5,599.6z"/>
	<path d="M648.5,491c-0.6,2.1-1.1,4.3-1.8,6.4c-4.7,14.3-17.8,24.1-33,24.3c-21.7,0.2-43.4,0.1-65.1,0.1c-82.2,0-164.4,0-246.6,0
		c-17.7,0-31.5-10.5-35.7-26.7c-5.5-21.6,10.8-43.2,33.1-43.7c12.2-0.2,24.4-0.1,36.7-0.1c91.1,0,182.1,0,273.2,0
		c21.6,0,33.1,8.8,38.8,29.7c0.1,0.3,0.3,0.7,0.4,1C648.5,485.1,648.5,488,648.5,491z"/>
</g>
</svg>
