<?xml version="1.0" encoding="utf-8"?>
<!-- Generator: Adobe Illustrator 27.5.0, SVG Export Plug-In . SVG Version: 6.00 Build 0)  -->
<svg version="1.1" id="Capa_1" xmlns="http://www.w3.org/2000/svg" xmlns:xlink="http://www.w3.org/1999/xlink" x="0px" y="0px"
	 viewBox="0 0 368.5 415" style="enable-background:new 0 0 368.5 415;" xml:space="preserve">
<g>
	<path d="M19.6,404c-3.1-1.9-3.8-4.7-3.8-8.3c0.1-22.2,0.1-44.4,0.1-66.6c0-26.8,17.1-48,43.4-53.8c11.8-2.6,23.5-5.4,35.2-8.2
		c1.9-0.5,3.8-1.2,5.5-2.1c11-6.2,21.8-12.5,32.8-18.6c2.2-1.2,2.9-2.5,2.9-5c-0.2-7.7,0-15.5-0.1-23.2c0-1.3-0.3-2.8-1.1-3.7
		c-9-10.3-14.6-22.2-16.3-35.8c-0.1-0.7-0.4-1.4-0.5-1.9c-4.2-0.4-8.2-0.2-12-1.2c-16.1-4-23.1-22.8-13.8-36.6
		c1.1-1.6,1.8-3.8,1.8-5.8c0.1-19.6,0-39.2,0.2-58.7c0-4.3,0.8-8.7,1.8-12.9c5.5-21.9,27-26.8,41.2-25.6c2.6,0.2,5.5,0.1,7.9-0.9
		c15.5-5.8,31.2-10.9,47.7-13.2c12.4-1.8,24.9-2,37.1,1.4c22,6.2,34.2,21.6,39.9,42.9c4.1,15.5,4.2,31.3,2.6,47.1
		c-0.6,5.8-1.7,11.6-2.3,17.4c-0.1,1.2,0.7,2.8,1.6,3.7c7.1,6.8,9.7,15,7.1,24.5c-2.6,9.3-9,15.1-18.4,17.1
		c-3.4,0.7-6.9,0.4-10.6,0.6c-0.6,3.1-1,6.3-1.8,9.4c-2.6,10.3-7.4,19.5-14.3,27.6c-1,1.2-1.8,3-1.8,4.6c-0.2,7.9,0,15.7-0.1,23.6
		c0,2.2,0.7,3.3,2.6,4.4c5.2,2.8,10.4,5.5,15.2,8.7c13.9,9.4,29.2,14.6,45.6,17.4c6.5,1.1,12.9,2.7,19.2,4.6
		c22.2,7,37.2,27.6,37.3,51c0,22.7-0.1,45.4,0.1,68.1c0,3.5-1,6-3.8,7.9C238.2,404,128.9,404,19.6,404z M155.1,319.5
		c-2.9,1.6-5.4,3-7.9,4.4c-6.1,3.5-7.7,3.1-12.4-2.2c-11.7-13.4-23.5-26.8-35.2-40.3c-1.7-1.9-3.1-2.2-5.4-1.7
		c-10.3,2.5-20.5,5.2-30.9,7.1c-20.5,3.7-36.3,20.7-35.7,45.3c0.5,18.6,0.1,37.2,0.1,55.8c0,1.3,0,2.6,0,3.9c14.3,0,28,0,41.9,0
		c0-9.9,0-19.5,0-29.1c0-4.1,2.3-6.6,6-6.5c3.6,0,5.9,2.5,5.9,6.6c0,3.2,0,6.5,0,9.7c0,6.4,0,12.9,0,19.3c0.8,0.1,1.2,0.3,1.5,0.3
		c19.3,0,38.7,0,58,0.1c2,0,2.7-0.9,3.5-2.5c6.4-14.5,12.8-28.9,19.2-43.3c0.5-1,0.8-2.5,0.4-3.5
		C161.5,335.1,158.4,327.5,155.1,319.5z M339,391.8c0-22.4,0.9-44.7-0.3-66.8c-1-19.3-13.5-32.7-32.2-37.4
		c-11.3-2.8-22.8-5.2-34.1-8c-2.3-0.6-3.6,0-5,1.7c-12,13.9-24.1,27.6-36.2,41.4c-3.5,4-5.7,4.4-10.4,1.8c-2.9-1.6-5.7-3.3-8.9-5.1
		c-3.3,8.1-6.4,15.8-9.4,23.6c-0.4,0.9,0.2,2.4,0.6,3.5c6.3,14.2,12.7,28.4,18.9,42.7c1,2.4,2.3,2.9,4.7,2.9c18.3-0.1,36.7,0,55-0.1
		c1.1,0,2.2-0.1,3.5-0.2c0-1.6,0-2.9,0-4.3c0-8.5-0.1-17,0-25.4c0-3.6,2.5-5.9,5.8-6c3.4-0.1,5.8,2.2,6.1,5.7c0.1,1.1,0,2.2,0,3.4
		c0,8.8,0,17.6,0,26.6C311.3,391.8,325,391.8,339,391.8z M129.6,108.8c0,11.3-0.1,22.7,0,34c0.1,11.6-0.3,23.2,0.8,34.7
		c2.9,30.2,33.7,52.1,63.3,45.8c26.3-5.6,43.6-27,43.7-54c0-19.8,0-39.6,0-59.5c0-1.2-0.1-2.3-0.2-3.6c-11.3,2.4-22.3,4.5-33.2,7
		c-16.8,3.9-33.7,5-50.7,1.7C145.4,113.4,137.8,110.9,129.6,108.8z M257.9,128.4c0.8-6.6,1.9-12.8,2.4-19.1c1-13.7,1-27.4-2.7-40.8
		c-4.9-17.5-15.2-29.8-33.5-34.1c-11.4-2.7-22.8-1.8-34.1,0.1c-15.3,2.7-29.8,7.7-44.2,13.3c-1.9,0.7-4.1,1-6.1,1
		c-4.3,0-8.8-0.8-13-0.3c-9.1,1.1-16,5.6-18.7,14.8c-1.4,4.7-2.1,9.8-2.2,14.7c-0.3,16-0.1,31.9-0.1,47.9c0,1,0.1,2.1,0.2,2.7
		c4.1,0,7.7,0,11.8,0c0-1.6,0-2.8,0-4.1c0-8.5-0.1-17,0-25.4c0-5.3,4-7.8,9-5.8c0.7,0.3,1.4,0.6,2,0.9c21.2,10,43.3,12.9,66.2,8.3
		c15.2-3.1,30.4-6.4,45.6-9.6c5.9-1.2,8.8,1.1,8.8,7.1c0,8.4,0,16.7,0,25.1c0,1.1,0.1,2.2,0.2,3.3
		C252.4,128.4,254.8,128.4,257.9,128.4z M147.6,226c0,6-0.2,11.5,0.1,16.9c0.1,1.8,0.8,3.9,2,5.3c6.5,7.7,13.2,15.3,19.9,22.8
		c4.6,5.2,9.2,10.4,13.8,15.7c0.6-0.6,1-0.9,1.4-1.2c11.1-12.7,22.2-25.3,33.2-38c0.6-0.7,1.4-1.7,1.4-2.5c0.1-6.2,0.1-12.4,0.1-19
		C195.4,239.9,171.8,239.8,147.6,226z M193,294.6c7.9,4.5,15.3,8.7,22.8,13c8.3,4.8,8.3,4.8,14.6-2.3c0.5-0.6,1-1.1,1.5-1.7
		c8.6-9.8,17.2-19.7,26-29.8c-10.5-6-20.7-11.8-31.1-17.8C215.5,269,204.4,281.6,193,294.6z M109.2,273.9
		c10.8,12.4,21.5,24.4,32,36.6c1.6,1.8,2.7,1.4,4.4,0.4c8.6-5,17.3-9.9,25.9-14.8c0.8-0.5,1.5-1.1,2.4-1.7
		c-10.7-12.2-21.2-24.2-31.7-36.3c-1.4-1.7-2.6-1.8-4.4-0.7c-3,1.9-6.2,3.6-9.4,5.4C122.1,266.5,115.7,270.1,109.2,273.9z
		 M210.1,391.9c-4.6-10.4-9-20.3-13.4-30.1c-1.8-3.9-2.8-9.3-5.9-11.1c-3.2-1.9-8.5-0.6-12.8-0.4c-1.1,0.1-2.8,1-3.3,2
		c-5.8,12.7-11.4,25.4-17,38.2c-0.2,0.4-0.2,0.9-0.3,1.5C174.9,391.9,192.2,391.9,210.1,391.9z M183.3,338.1c1.4,0,2.8-0.2,4.1,0
		c2.9,0.4,4.4-0.7,5.4-3.5c2.2-6.2,4.7-12.3,7.3-18.4c0.9-2.1,0.9-3.3-1.4-4.4c-4.4-2.3-8.6-5-13-7.3c-1.2-0.6-3.2-0.6-4.3,0
		c-4.4,2.2-8.6,5-13,7.3c-2.3,1.2-2.3,2.4-1.4,4.4c2.1,4.9,4,9.9,6,14.9C175.7,338.1,175.7,338.1,183.3,338.1z M117.5,140.7
		c-6.5-0.7-12.3-0.2-16,5.8c-2.5,4.1-2.4,8.3,0.2,12.3c3.8,5.8,9.5,6,15.7,5.4C117.5,156.4,117.5,148.8,117.5,140.7z M249.6,140.8
		c0,8,0,15.8,0,23.5c11,1,17.7-3.6,17.7-11.7C267.3,144.3,260.6,139.8,249.6,140.8z"/>
</g>
</svg>
