<?xml version="1.0" encoding="UTF-8" standalone="no"?>
<!DOCTYPE svg PUBLIC "-//W3C//DTD SVG 1.1//EN" "http://www.w3.org/Graphics/SVG/1.1/DTD/svg11.dtd">
<svg xmlns="http://www.w3.org/2000/svg" version="1.1" viewBox="0.00 0.00 512.00 512.00">
<path fill="#000000" d="
  M 461.77 16.11
  C 481.09 14.44 497.52 31.23 495.85 50.48
  Q 495.44 55.22 492.35 63.08
  Q 412.34 266.26 332.28 469.43
  Q 328.17 479.85 324.98 483.93
  C 311.47 501.12 284.76 499.56 273.31 480.99
  Q 270.59 476.57 267.69 465.86
  Q 244.18 378.90 220.77 291.92
  Q 220.64 291.42 220.14 291.29
  Q 133.45 267.77 46.67 244.43
  Q 35.29 241.37 30.88 238.62
  C 12.22 226.98 11.01 200.24 28.22 186.93
  Q 32.30 183.77 42.06 179.93
  Q 244.83 100.08 447.59 20.17
  Q 456.79 16.55 461.77 16.11
  Z
  M 49.40 212.02
  Q 133.42 234.75 217.22 257.34
  Q 231.39 261.16 234.23 262.52
  C 244.13 267.28 249.25 274.90 252.17 285.67
  Q 276.03 373.86 299.91 462.56
  A 0.55 0.55 0.0 0 0 300.98 462.55
  Q 301.03 462.32 301.00 462.09
  Q 300.94 461.71 301.08 461.36
  L 463.68 48.57
  A 0.17 0.17 0.0 0 0 463.46 48.34
  L 49.36 211.45
  A 0.30 0.30 0.0 0 0 49.40 212.02
  Z"
/>
</svg>
