<?xml version="1.0" encoding="utf-8"?>
<!-- Generator: Adobe Illustrator 27.5.0, SVG Export Plug-In . SVG Version: 6.00 Build 0)  -->
<svg version="1.1" id="Capa_1" xmlns="http://www.w3.org/2000/svg" xmlns:xlink="http://www.w3.org/1999/xlink" x="0px" y="0px"
	 viewBox="0 0 4000 4000" style="enable-background:new 0 0 4000 4000;" xml:space="preserve">
<g>
	<path d="M1239.8,1808c0-195.1,0-390.1,0-585.2c0-106.5,68.4-174.8,174.9-174.8c390.2,0,780.4,0,1170.6,0
		c106.5,0,174.7,68.3,174.7,175c0,275.9-0.2,551.9,0.2,827.8c0.1,71.7-26,130.6-80,177.7c-107.8,94-215.4,188.2-323,282.5
		c-43.5,38.1-93.9,57.2-151.8,57.1c-265.8-0.1-531.6,0.1-797.4-0.1c-97.4-0.1-168-70.6-168.1-168
		C1239.6,2202.7,1239.8,2005.3,1239.8,1808z M2651.5,1970.8c0-8.3,0-13.9,0-19.6c0-243.1,0-486.3,0-729.4c0-45.1-20.2-65.3-65-65.3
		c-391.3,0-782.7,0-1174,0c-43.6,0-64.1,20.7-64.1,64.5c0,391.3,0,782.6,0,1173.9c0,44,20.4,64.6,64.1,64.6c225.6,0,451.3,0,676.9,0
		c6,0,12,0,19.2,0c0-8.2,0-14.3,0-20.5c0-99-0.1-197.9,0-296.9c0.1-101.7,69.7-171.2,171.7-171.3c117.1-0.1,234.1,0,351.2,0
		C2637.5,1970.8,2643.6,1970.8,2651.5,1970.8z M2648.7,2079.4c-7,0-12.6,0-18.2,0c-117,0-234,0-351.1,0c-41.1,0-62.3,21.4-62.3,62.9
		c0,99.5,0,199,0,298.4c0,5.8,0.5,11.7,0.7,17.6c31.7-3.9,46.4-10.5,70-31c33.6-29.4,67.2-58.8,100.8-88.2
		c74-64.8,148-129.5,222.1-194.2C2630.4,2127.6,2644.1,2107.1,2648.7,2079.4z"/>
	<path d="M2001.7,1428c125,0,249.9-0.1,374.9,0.1c40.7,0.1,67.6,35.9,54.4,72.1c-7.9,21.7-24.1,33.5-46.9,36.2
		c-5,0.6-10.2,0.2-15.3,0.2c-246,0-492,0-738-0.1c-7.9,0-16,0.1-23.6-1.7c-26.7-6.4-44.2-31.5-41.5-58.2
		c2.8-27.4,25.4-48.3,54.1-48.5c62.8-0.4,125.5-0.1,188.3-0.1C1872.7,1428,1937.2,1428,2001.7,1428z"/>
	<path d="M1999.8,1753.7c-125.5,0-251.1,0.2-376.6-0.1c-41.4-0.1-68.3-37.3-53.7-73.8c8.3-20.7,24.2-32.1,46.4-34.5
		c5-0.5,10.2-0.2,15.3-0.2c246,0,492,0,738,0c7.3,0,14.8-0.3,21.9,1.2c26.6,5.5,45.1,30.3,43.2,57c-1.9,26.7-23.8,48.5-51,50.1
		c-12.4,0.7-24.9,0.2-37.3,0.2C2230.5,1753.7,2115.1,1753.7,1999.8,1753.7z"/>
	<path d="M1782.5,1970.8c-52,0-104,0.1-156,0c-36-0.1-60.7-22.2-60.8-54.1c-0.1-32.1,24.4-54.3,60.5-54.4
		c104.6-0.1,209.2-0.1,313.8,0c35.6,0,60.4,22.9,60,54.9c-0.4,31.3-24.9,53.5-59.6,53.6C1887.6,1970.9,1835.1,1970.8,1782.5,1970.8z
		"/>
	<path d="M1782.6,2188c-52,0-104,0.1-156,0c-36.1-0.1-60.8-22-61-54c-0.2-32.1,24.4-54.5,60.3-54.5c104.6-0.1,209.2-0.1,313.8,0
		c35.7,0,60.4,22.7,60.2,54.8c-0.3,31.3-24.8,53.6-59.5,53.7C1887.8,2188.1,1835.2,2188,1782.6,2188z"/>
</g>
</svg>
