<?xml version="1.0" encoding="utf-8"?>
<!-- Generator: Adobe Illustrator 27.7.0, SVG Export Plug-In . SVG Version: 6.00 Build 0)  -->
<svg version="1.1" id="Capa_1" xmlns="http://www.w3.org/2000/svg" xmlns:xlink="http://www.w3.org/1999/xlink" x="0px" y="0px"
	 viewBox="0 0 3915.9 3910.8" style="enable-background:new 0 0 3915.9 3910.8;" xml:space="preserve">
<g>
	<path d="M13.5,1957c0-498.8,0-997.4,0-1496.2c0-272.3,174.9-446.9,447.2-446.9c997.6,0,1995.3,0,2992.9,0
		c272.3,0,446.7,174.6,446.7,447.4c0,705.4-0.5,1411,0.5,2116.4c0.3,183.3-66.5,333.9-204.5,454.3
		c-275.6,240.3-550.7,481.2-825.8,722.3c-111.2,97.4-240.1,146.2-388.1,146c-679.6-0.3-1359.1,0.3-2038.7-0.3
		c-249-0.3-429.5-180.5-429.8-429.5C13,2966.2,13.5,2461.5,13.5,1957z M3622.8,2373.3c0-21.2,0-35.5,0-50.1
		c0-621.5,0-1243.3,0-1864.9c0-115.3-51.6-167-166.2-167c-1000.4,0-2001.1,0-3001.6,0c-111.5,0-163.9,52.9-163.9,164.9
		c0,1000.4,0,2000.9,0,3001.3c0,112.5,52.2,165.2,163.9,165.2c576.8,0,1153.8,0,1730.6,0c15.3,0,30.7,0,49.1,0c0-21,0-36.6,0-52.4
		c0-253.1-0.3-506,0-759.1c0.3-260,178.2-437.7,439-438c299.4-0.3,598.5,0,897.9,0C3587,2373.3,3602.6,2373.3,3622.8,2373.3z
		 M3615.7,2650.9c-17.9,0-32.2,0-46.5,0c-299.1,0-598.3,0-897.7,0c-105.1,0-159.3,54.7-159.3,160.8c0,254.4,0,508.8,0,762.9
		c0,14.8,1.3,29.9,1.8,45c81-10,118.6-26.8,179-79.3c85.9-75.2,171.8-150.3,257.7-225.5c189.2-165.7,378.4-331.1,567.8-496.5
		C3568.9,2774.2,3603.9,2721.7,3615.7,2650.9z"/>
	<path d="M1961.5,985.5c319.6,0,638.9-0.3,958.5,0.3c104.1,0.3,172.8,91.8,139.1,184.3c-20.2,55.5-61.6,85.6-119.9,92.6
		c-12.8,1.5-26.1,0.5-39.1,0.5c-628.9,0-1257.9,0-1886.8-0.3c-20.2,0-40.9,0.3-60.3-4.3c-68.3-16.4-113-80.5-106.1-148.8
		c7.2-70.1,64.9-123.5,138.3-124c160.6-1,320.9-0.3,481.4-0.3C1631.6,985.5,1796.6,985.5,1961.5,985.5z"/>
	<path d="M1956.6,1818.2c-320.9,0-642,0.5-962.9-0.3c-105.8-0.3-174.6-95.4-137.3-188.7c21.2-52.9,61.9-82.1,118.6-88.2
		c12.8-1.3,26.1-0.5,39.1-0.5c628.9,0,1257.9,0,1886.8,0c18.7,0,37.8-0.8,56,3.1c68,14.1,115.3,77.5,110.4,145.7
		c-4.9,68.3-60.8,124-130.4,128.1c-31.7,1.8-63.7,0.5-95.4,0.5C2546.4,1818.2,2251.4,1818.2,1956.6,1818.2z"/>
	<path d="M1401,2373.3c-132.9,0-265.9,0.3-398.8,0c-92-0.3-155.2-56.8-155.4-138.3c-0.3-82.1,62.4-138.8,154.7-139.1
		c267.4-0.3,534.9-0.3,802.3,0c91,0,154.4,58.5,153.4,140.4c-1,80-63.7,136.8-152.4,137C1669.7,2373.5,1535.5,2373.3,1401,2373.3z"
		/>
	<path d="M1401.3,2928.6c-132.9,0-265.9,0.3-398.8,0c-92.3-0.3-155.4-56.2-156-138.1c-0.5-82.1,62.4-139.3,154.2-139.3
		c267.4-0.3,534.9-0.3,802.3,0c91.3,0,154.4,58,153.9,140.1c-0.8,80-63.4,137-152.1,137.3
		C1670.3,2928.8,1535.8,2928.6,1401.3,2928.6z"/>
</g>
</svg>
