<?xml version="1.0" encoding="utf-8"?>
<!-- Generator: Adobe Illustrator 27.5.0, SVG Export Plug-In . SVG Version: 6.00 Build 0)  -->
<svg version="1.1" id="Capa_1" xmlns="http://www.w3.org/2000/svg" xmlns:xlink="http://www.w3.org/1999/xlink" x="0px" y="0px"
	 viewBox="0 0 1362.6 1365.9" style="enable-background:new 0 0 1362.6 1365.9;" xml:space="preserve">
<path d="M661.1,1341c-27.3-3.1-54-12.1-78.5-26.7c-38-22.6-66.2-57.4-80.7-99.2c-3.5-10-6.2-20.3-8.3-30.7
	c-0.7-3.3-1.4-6.7-2.5-11.6c-4.4,0-9,0-13.5,0c-81.4,0-162.8,0.7-244.2-0.2c-103.6-1.1-175.1-107.5-135.6-202.3
	c24.1-57.8,69.8-88,131.6-94.3c25.9-2.6,27.7-4.4,27.7-30.7c0-81.8-1.7-163.7,0.4-245.5c4.6-182.4,91.3-312.4,256.1-389.5
	c19.3-9,24.9-16.8,24.1-38.1c-2.8-80.7,64-146.7,144.9-146.2c80.8,0.5,145.8,67.5,143.7,148.2c-0.2,8.1-1.1,16.2-1.8,25.5
	c6,2.7,12.6,5.4,19.1,8.5c151.8,71.1,239,189.8,259.7,356.1c4.3,34.7,2.6,70.1,2.8,105.2c0.4,60,0.1,120,0.1,180
	c0,20.8,3.5,24.5,24,26.2c74.1,6.1,130.9,54.4,143.4,121.9c16.7,90-52.2,174.3-144.1,175.1c-81,0.7-162,0.2-242.9,0.2
	c-4.7,0-9.3,0-10.6,0c-10.3,26.1-17.3,51.6-29.8,74c-23.2,41.4-60.3,72-105.6,86.4C714.2,1341.4,687.3,1343.9,661.1,1341z
	 M680.1,1087.9c121.3,0,242.5,0,363.8,0c27.9,0,55.7,0.3,83.6-0.2c29.1-0.5,52.6-18.2,60.8-44.9c12.7-41.5-16.7-79.2-64.6-82.7
	c-65.2-4.8-102.5-45.1-102.5-110.9c0-78.8-0.2-157.7,0.1-236.5c0.2-45.1-7.5-88.6-23.6-130.6c-64-167.8-238.4-256.9-410-209.5
	c-140.8,38.9-244.1,172.2-245.5,318.1c-0.9,88.3-0.1,176.5-0.3,264.8c-0.2,51.6-32.8,92.4-81.9,102.5c-11.3,2.3-23.1,1.8-34.4,3.9
	c-44.8,8.1-67.8,56.9-44.5,94.7c13.8,22.5,34.9,31.3,60.8,31.3C387.9,1087.8,534,1087.9,680.1,1087.9z M578.9,1173.3
	c5.1,46,53.4,84.8,104,84.3c49.2-0.5,97.2-40.3,101-84.3C715.9,1173.3,647.9,1173.3,578.9,1173.3z M740.1,176.7
	c3.2-23.9-8.2-46.4-29.1-58.1c-22.3-12.4-49.1-9.8-68.3,6.6c-16.6,14.2-24.3,36.1-19,51.5C662.6,176.7,701,176.7,740.1,176.7z"/>
</svg>
