<?xml version="1.0" encoding="utf-8"?>
<!-- Generator: Adobe Illustrator 27.5.0, SVG Export Plug-In . SVG Version: 6.00 Build 0)  -->
<svg version="1.1" id="Capa_1" xmlns="http://www.w3.org/2000/svg" xmlns:xlink="http://www.w3.org/1999/xlink" x="0px" y="0px"
	 viewBox="0 0 1876.6 1834.8" style="enable-background:new 0 0 1876.6 1834.8;" xml:space="preserve">

<g id="Numeral">
	<path class="st0" d="M1050.8,1763.8c-30.5,0-61.8-7.6-90.8-22.7c-55.9-29-93.5-80.7-100.8-138.3c-4.2-29.2-1.9-59.6,6.7-90.3
		c5.4-21,11.5-41.7,17.5-61.8c3-10.2,6-20.3,8.8-30.2H731.3c-8.4,29.4-16.6,58.9-24.7,87.7c-10.5,37.8-21.5,76.8-32.7,115.4
		c-18.9,72.5-81.7,127.7-156.8,137.7c-47.2,8.1-97.7-4-138.6-33.4c-41.7-29.9-69.9-74.8-77.4-123.3c-5.1-30.8-2.9-62.9,6.6-92.7
		c9-30.4,17.4-60.3,26.1-92c-7.8,0-15.6-0.2-23.6-0.4l-0.4,0c-28.8-1.1-55.5-7.5-79.4-19.1c-22.8-11.1-42.6-26.6-58.8-46.1
		c-29.2-35.2-44.7-81.3-43.8-129.7c0.9-48.5,18.3-93.9,48.8-128c16.9-18.9,37.3-33.6,60.5-43.8c24.3-10.6,51.1-16,79.8-16
		c0.1,0,0.2,0,0.3,0h124.3c6.8-24.4,13.6-48.7,20.5-73.1c15-53.8,30.5-108.8,46-164.1c-14,0-27.9-0.1-42-0.4l-0.4,0
		c-28.6-0.9-55.1-7.2-79-18.6c-22.8-10.9-42.5-26.1-58.8-45.4c-29.3-34.7-45.3-80.4-44.9-128.6c0.4-48.2,17-93.6,46.8-127.9
		c16.5-19,36.5-34,59.5-44.5c24-11,50.7-16.9,79.2-17.4l0.2,0c41.3-0.6,83.4-0.4,124.1-0.2c7.5,0,15.2,0.1,22.9,0.1
		c6.1-21.5,12.1-43.1,17.9-64.3c13.6-49.1,27.6-100,43.3-149.9c8.4-27,21.3-50.7,38.4-70.5c16.3-18.9,36.1-33.9,58.8-44.5
		c40.9-19.1,88.8-22.5,134.8-9.8c46.1,12.7,85.4,40.3,110.7,77.7c14,20.7,23.3,43.7,27.6,68.3c4.5,25.7,3.4,52.5-3.2,79.9
		c-7.5,32.9-16.7,65.2-25.7,96.4c-1.5,5.4-3,10.6-4.5,15.9h160.1c6.5-22.9,12.9-45.9,19.1-68.4c12.2-43.7,24.7-88.9,37.8-133.5
		l0.1-0.3c8.4-27.9,21.4-52.4,38.6-72.9c16.5-19.6,36.5-35.1,59.5-46.1c41.7-19.9,90.4-23.6,137.3-10.4
		c46.9,13.2,86.5,41.9,111.6,80.7c13.8,21.4,22.8,45.1,26.6,70.5c4,26.5,2.2,54.2-5.2,82.3l-0.1,0.2c-6.3,23.6-12.9,46.8-19.3,69.3
		c-2.7,9.6-5.4,19.2-8.2,29c7.9,0,15.8,0.2,23.9,0.4l0.4,0c28.7,1.1,55.3,7.4,79.1,18.9c22.8,11,42.5,26.4,58.7,45.8
		c29.2,35,44.8,80.9,44.1,129.2c-0.7,48.3-17.8,93.7-48,127.8c-16.8,18.9-36.9,33.7-60,44.1c-24.2,10.8-51,16.4-79.6,16.6l-0.4,0
		l-125.5,0c-7.3,26-14.6,52-21.9,78c-14.7,52.2-29.7,105.6-44.7,159.2c14.1,0,28,0.1,42.2,0.4l0.7,0c28.8,1.1,55.5,7.5,79.4,19.1
		c22.8,11.1,42.6,26.6,58.8,46.1c29.2,35.2,44.7,81.3,43.8,129.7c-0.9,48.5-18.3,93.9-48.8,128c-16.9,18.9-37.3,33.6-60.5,43.8
		c-24.3,10.6-51.1,16-79.8,16c-0.1,0-0.2,0-0.3,0l-142.7,0c-9.8,34-19.3,68.2-28.6,101.6c-9.3,33.4-19,68-28.8,102.1
		c-5.5,20.2-14.2,39.3-25.8,56.7c-18.3,27.7-44.6,50-76.1,64.7C1106.4,1757.4,1078.9,1763.8,1050.8,1763.8z M653.4,1316.7h368.9
		l-12.6,62.3c-7,34.8-17,68.5-26.6,101.2c-6,20.3-11.7,39.5-16.7,59l-0.3,1.1c-4.7,16.8-6.1,33.5-4,48.3l0.2,1.1
		c2.9,23.8,20,46,45.6,59.3c25.9,13.5,54.2,14.7,75.7,3.2l1.5-0.8l1.5-0.7c14.2-6.5,26.3-16.4,33.9-28.1l0.2-0.3
		c5.5-8.2,9.5-17.1,12.1-26.6l0.2-0.8c9.7-33.8,19.3-68.3,28.6-101.7c12.8-46,26.1-93.5,39.8-140.3l11-37.3l220.7,0c0,0,0.1,0,0.1,0
		c61.7,0,84.5-46.3,85.3-85.9c0.8-39.6-20.2-86.6-81.7-89.1c-22.6-0.5-45.4-0.4-69.5-0.2c-12.4,0.1-25.2,0.2-38.3,0.2h-68.4
		l18.3-65.9c21.1-75.9,42.5-152,63.2-225.7c10.8-38.6,21.7-77.1,32.5-115.8l10.6-37.9l204.1,0c61.3-0.5,83.7-46.7,84.3-86.1
		c0.6-39.4-20.4-86.2-81.7-88.6c-18.6-0.5-37.1-0.4-56.8-0.2c-10.3,0.1-20.9,0.2-31.8,0.2h-67l16.7-64.9
		c8.5-33.2,17.6-65.4,26.4-96.6c6.3-22.2,12.7-45.1,18.9-68c16.2-61.6-22.6-96-60.7-106.8c-38.2-10.8-89.3-1.7-107.7,59.2
		c-12.8,43.8-25.3,88.5-37.3,131.8c-9.7,35-19.8,71.2-30.1,106.9l-10.8,37.6H880l15.4-64.1c6.9-28.7,15-57,22.8-84.3
		c9-31.3,17.5-60.9,24.3-91.1l0.2-0.8c14.2-58.5-24.3-91.3-61.7-101.6c-37.4-10.3-87.3-2-105.1,55.5l-0.1,0.2
		c-15.2,48.2-29,98.2-42.3,146.5c-9.3,33.8-19,68.8-29.2,103.3l-11,37.3h-38.9c-20.9,0-42-0.1-62.4-0.2
		c-40.2-0.2-81.8-0.4-122.1,0.2c-61.1,1.1-83.1,47.4-83.4,86.7c-0.3,39.3,21,85.8,82,87.9c22.7,0.5,45.5,0.4,69.6,0.2
		c12.4-0.1,25.2-0.2,38.3-0.2h68.6l-18.6,66C604.8,838.7,583,916.5,562,991.7c-10.3,37-20.7,73.9-31.1,111l-10.6,37.9H317.1
		c0,0-0.1,0-0.1,0c-61.7,0-84.5,46.3-85.3,85.9c-0.8,39.6,20.2,86.7,81.8,89.1c18.3,0.5,36.8,0.4,56.4,0.2
		c10.3-0.1,20.9-0.2,31.8-0.2h67.6l-17.4,65.3c-15.8,59.1-29.4,109.1-44.7,160.9l-0.3,1.1c-4.6,14.4-5.7,29.9-3.2,44.8l0.1,0.9
		c3.2,21.1,16,41.1,35.2,54.8c18.7,13.4,40.9,18.9,61.1,15.3l1.3-0.2l1.3-0.2c33.5-4.2,62.6-29.5,70.7-61.4l0.5-1.7
		c11.1-38.2,22-77.3,32.6-115c11.6-41.4,23.5-84.2,35.9-126.3L653.4,1316.7z M1079,1139H702.6l18.6-66c4.8-16.9,9.5-33.8,14.3-50.6
		c26.8-94.9,54.4-193.1,80.9-289.3l10.5-38.2h376.5l-18.4,65.9c-9.4,33.6-18.8,67.2-28.1,100.7c-21.9,78.6-44.6,159.9-67.2,239.7
		L1079,1139z M839.9,1035.1h160.4c19-67.4,38-135.4,56.4-201.6c3.2-11.6,6.5-23.2,9.7-34.8H906.1
		C884.2,877.7,861.8,957.4,839.9,1035.1z"/>
</g>
</svg>
