<?xml version="1.0" encoding="utf-8"?>
<!-- Generator: Adobe Illustrator 27.5.0, SVG Export Plug-In . SVG Version: 6.00 Build 0)  -->
<svg version="1.1" id="Capa_1" xmlns="http://www.w3.org/2000/svg" xmlns:xlink="http://www.w3.org/1999/xlink" x="0px" y="0px"
	 viewBox="0 0 757.2 752.5" style="enable-background:new 0 0 757.2 752.5;" xml:space="preserve">

<g>
	<path d="M397.2,727.5c-21.3,1.2-42.8,0.5-64.1-2.4c-78-10.3-150.1-44.9-204.8-101.6C22.9,514.3-3.8,344.5,68.6,209.9
		c59-109.7,176.7-182.4,301.5-184.2c73.1-1.1,140.8,17.2,201.6,58.1c39.6,26.6,74.4,60.3,100.5,100.3
		c26.6,40.7,43.1,86.5,51.9,134.1c10.5,57.2,4.9,116.4-13.4,171.5c-16,48.2-42.8,92.1-77.8,128.8c-5.4,5.7-11.1,11.2-16.9,16.6
		C556.4,690.2,477.8,722.9,397.2,727.5z M266.7,468.5c7.3,10.5,13.1,21.2,21.1,30c41.5,45.1,125.8,47.3,170.7,5.5
		c35.4-33,44.6-104.7-4.2-141.8c-9.3-7.1-20.1-12.3-30.5-18.6c0.8-1.1,2.1-2.9,3.5-4.7c11.6-14.8,22.4-30.1,34.9-44
		c10.5-11.6,15.2-23.9,13.6-39.6c-1.2-11.5-0.2-23.1-0.2-34.8c-66.4,0-131.8,0-197.3,0c0,22.1,0,43.6,0,66.1c37.1,0,73.6,0,111.3,0
		c-19,24.1-37,47-54.9,69.7c0.5,1.1,0.6,1.5,0.8,1.9c6.5,9.7,13.3,19.1,19.3,29.2c4.1,7,8.9,10.7,17.5,9.5c4.4-0.6,9.1,0.1,13.7,0.7
		c18.8,2.1,30.7,14.4,31.5,32c0.8,17.3-9.7,30.2-28.4,33.8c-6.4,1.2-13.2,1.4-19.7,1.1c-17.1-1-29.8-9.1-37.3-24.8
		c-1-2.2-2-4.4-3.3-7.1C308.2,444.4,288.3,456,266.7,468.5z"/>
	<path class="st0" d="M266.7,468.5c21.6-12.5,41.4-24,61.9-35.9c1.2,2.7,2.3,4.9,3.3,7.1c7.5,15.8,20.2,23.9,37.3,24.8
		c6.6,0.4,13.3,0.2,19.7-1.1c18.7-3.6,29.2-16.5,28.4-33.8c-0.8-17.6-12.8-29.9-31.5-32c-4.5-0.5-9.2-1.3-13.7-0.7
		c-8.5,1.2-13.3-2.5-17.5-9.5c-5.9-10-12.8-19.5-19.3-29.2c-0.2-0.4-0.4-0.8-0.8-1.9c17.9-22.7,35.9-45.6,54.9-69.7
		c-37.7,0-74.2,0-111.3,0c0-22.5,0-44.1,0-66.1c65.5,0,131,0,197.3,0c0,11.7-0.9,23.3,0.2,34.8c1.6,15.6-3.1,27.9-13.6,39.6
		c-12.5,13.9-23.4,29.3-34.9,44c-1.4,1.8-2.7,3.6-3.5,4.7c10.4,6.3,21.2,11.5,30.5,18.6c48.8,37.1,39.6,108.8,4.2,141.8
		c-44.9,41.8-129.2,39.6-170.7-5.5C279.8,489.7,274,478.9,266.7,468.5z"/>
</g>
</svg>
