<?xml version="1.0" encoding="utf-8"?>
<!-- Generator: Adobe Illustrator 27.4.1, SVG Export Plug-In . SVG Version: 6.00 Build 0)  -->
<svg version="1.1" id="Capa_1" xmlns="http://www.w3.org/2000/svg" xmlns:xlink="http://www.w3.org/1999/xlink" x="0px" y="0px"
	 viewBox="0 0 884.1 1010.5" style="enable-background:new 0 0 884.1 1010.5;" xml:space="preserve">
<g>
	<path d="M315.2,793.7c-3.1-0.8-6.1-1.5-9.2-2.3c-25.9-6.8-45-30-46.8-56.7c-0.3-4.2-0.4-8.5-0.4-12.8c0-90.1,0-180.2,0-270.3
		c0-25.4,10.5-45.2,32.4-58.4c9-5.4,19-8.3,29.5-8.3c66.8-0.1,133.6-0.2,200.4,0c31.7,0.1,60.1,26.7,61.4,58.2
		c1,24,0.5,48.1,0.7,72.2c0.1,10.1,0.1,20.2,0,30.3c-0.1,7.2-3,13-9.9,15.9c-6.2,2.6-12,1.6-17.1-2.9c-4.3-3.8-5.4-8.9-5.4-14.5
		c0-31.1-0.1-62.3,0.1-93.4c0.1-11.3-3.8-20.5-12.7-27.5c-6-4.7-13-6.6-20.5-6.6c-64.5-0.1-129.1-0.1-193.6,0
		c-19.6,0-33,13.7-33,33.3c-0.1,92.7-0.1,185.5,0,278.2c0,19.7,13.6,33.2,33.4,33.3c16.6,0.1,33.3,0,49.9,0c9.5,0,16,4.8,17.5,13
		c1.5,8.4-2.6,15-11.4,18.5c-0.2,0.1-0.4,0.3-0.6,0.5C358.3,793.7,336.7,793.7,315.2,793.7z"/>
	<path d="M444.5,793.7c-6.7-2.6-11.7-6.9-12.2-14.6c-0.2-2.4,0.2-5,0.9-7.4c5.9-19.9,11.9-39.9,18.1-59.7c1.1-3.5,3.3-7.1,5.9-9.7
		c28.5-28.7,57.1-57.3,85.8-85.7c13.5-13.4,29.8-17.8,48-12.5c18.2,5.3,29.6,18,33.4,36.6c3.3,16-0.9,30.4-12.2,42.3
		c-10.8,11.4-22.1,22.3-33.2,33.4c-17.6,17.6-35.2,35.1-52.8,52.7c-3.6,3.6-7.6,5.9-12.6,7.2c-20.2,5.5-40.4,11.1-60.5,16.7
		c-0.5,0.1-0.9,0.5-1.4,0.7C449.3,793.7,446.9,793.7,444.5,793.7z M540.3,664.8c-1.2,1.1-2.2,2.1-3.2,3.1
		c-14.7,14.6-29,29.7-44.2,43.8c-8.5,7.9-14.3,16.7-16.6,28c-0.9,4.7-2.7,9.3-4.2,14.3c1.3-0.1,1.9-0.1,2.5-0.2
		c9.3-2.6,18.6-5.1,27.9-7.9c1.4-0.4,2.8-1.5,3.8-2.6c18-17.9,36-35.9,53.9-53.8c0.8-0.8,1.5-1.7,2.2-2.3
		C555.1,679.6,547.9,672.4,540.3,664.8z M586,663.6c5.5-4.2,8.4-9.9,6.8-17.1c-1.3-6.1-5.3-10.2-11.6-11.8c-7.6-1.9-13,1.4-17.6,6.7
		C571.1,648.8,578.4,656,586,663.6z"/>
	<path d="M420.8,512.6c-27.3,0-54.5,0-81.8,0c-8.8,0-15-5.7-16.2-14.4c-1-7.5,4.2-15,12-17c1.5-0.4,3.1-0.5,4.7-0.5
		c54.3,0,108.5,0,162.8,0c9.6,0,16.8,6.8,17,15.8c0.1,9.1-7.3,16.1-17.1,16.1C475,512.7,447.9,512.6,420.8,512.6z"/>
	<path d="M421.1,544.6c27.3,0,54.5,0,81.8,0c8.8,0,15,5.7,16.2,14.4c1,7.6-4.2,15-12,17c-1.5,0.4-3.1,0.5-4.7,0.5
		c-54.3,0-108.5,0-162.8,0c-9.7,0-16.8-6.8-17-15.8c-0.1-9.1,7.3-16.1,17.1-16.1C366.8,544.6,394,544.6,421.1,544.6z"/>
	<path d="M388.7,640.4c-16.4,0-32.7,0-49.1,0c-9.7,0-16.9-6.7-17-15.8c-0.2-9.1,7.2-16.1,17.1-16.1c32.7,0,65.5,0,98.2,0
		c9.6,0,16.9,7,16.8,16c0,9-7.3,15.9-16.9,15.9C421.4,640.4,405.1,640.4,388.7,640.4z"/>
</g>
</svg>
