<?xml version="1.0" encoding="utf-8"?>
<!-- Generator: Adobe Illustrator 27.4.1, SVG Export Plug-In . SVG Version: 6.00 Build 0)  -->
<svg version="1.1" id="Capa_1" xmlns="http://www.w3.org/2000/svg" xmlns:xlink="http://www.w3.org/1999/xlink" x="0px" y="0px"
	 viewBox="0 0 1080 1080" style="enable-background:new 0 0 1080 1080;" xml:space="preserve">
<g>
	<path d="M434.1,418.1c-2.3-1.6-4.1-2.6-5.4-3.9c-22.6-22.5-45.1-45.1-67.6-67.6c-5.3-5.3-6.7-11.7-4.3-18.6
		c2.3-6.6,7.4-10.3,14.4-11.1c5.9-0.7,10.7,1.6,14.8,5.8c8,8.1,16.1,16.1,24.2,24.2C530.9,467.5,651.5,588.3,772.3,709
		c5.8,5.8,8.8,12.1,6.3,20.1c-3.6,11.6-18.7,15.4-27.9,6.9c-6.5-6-12.6-12.6-18.9-18.8c-17.6-17.4-35.1-34.9-52.4-52.1
		c-12.7,6-25.3,12.6-38.4,17.9c-31.2,12.6-63.7,18.9-97.3,17.6c-33.1-1.4-64.3-10.8-94-25.1c-44.3-21.3-82.4-51.1-116.6-86.1
		c-10.3-10.6-20-21.8-29.5-33c-8.7-10.3-8.5-17.1,0-27.5c34.8-42.6,75.8-78,123-106.3C428.6,421.5,430.6,420.2,434.1,418.1z
		 M337,542.5c0.4,0.8,0.6,1.2,0.8,1.4c33.8,38.3,71.8,71.5,117.1,95.7c24.8,13.2,51,22.5,79,25.8c27.3,3.2,54-0.5,79.9-9.1
		c13.5-4.5,26.5-10.6,39.8-15.9c-15.6-15.8-30.2-30.5-44.8-45.2c-34.3,34.7-81.3,27.8-106.5,4.5c-13.4-12.4-21.8-27.6-24.2-45.7
		c-3.4-26,5.2-48.2,24-66.6c-14.1-14.1-27.7-27.9-41.6-41.4c-0.9-0.9-4-0.8-5.4,0c-12.3,7.4-24.7,14.8-36.6,22.9
		C388,489.6,361.1,514.3,337,542.5z M526.1,512.1c-11.4,10.8-15.8,24.1-12.4,39.5c3.7,16.8,14.6,27.6,31.3,31.3
		c15.3,3.4,28.7-1.1,39.3-12.5C564.9,550.9,545.6,531.6,526.1,512.1z"/>
	<path d="M771.4,542c-15.4-15-30-30.3-45.7-44.4c-31.4-28.3-66-51.7-106.1-66.3c-31.3-11.4-63.3-15.6-96.4-9.5
		c-13.9,2.6-23.6-5-23.1-17.6c0.4-8.4,6.5-14.6,15.6-16.2c43.4-7.8,85.2-1.9,125.8,14.8c52.8,21.7,96.8,55.8,136,96.5
		c9.6,10,18.6,20.6,27.5,31.2c7.1,8.5,6.9,16,0,24.6c-20.6,25.6-43.7,48.8-69.1,69.6c-8.3,6.8-18.7,6-25.1-1.9
		c-6-7.5-4.7-18,3.2-24.6C734.3,581.3,753,563.1,771.4,542z"/>
</g>
</svg>
