<?xml version="1.0" encoding="utf-8"?>
<!-- Generator: Adobe Illustrator 27.5.0, SVG Export Plug-In . SVG Version: 6.00 Build 0)  -->
<svg version="1.1" id="Capa_1" xmlns="http://www.w3.org/2000/svg" xmlns:xlink="http://www.w3.org/1999/xlink" x="0px" y="0px"
	 viewBox="0 0 1876.6 1834.8" style="enable-background:new 0 0 1876.6 1834.8;" xml:space="preserve">
<path d="M1786.9,960.3c-4.2,64.9-16.1,129.4-34.3,192.4c-29.1,100.3-74.7,195.6-137.6,279.1c-63.1,83.9-142.5,154.6-231,210.9
	c-18.7,11.9-37.9,23.2-57.4,33.9c-138.4,76.1-288.5,110.2-445.9,100.7c-308.1-18.7-545.5-160.8-707.9-423.1
	C81.7,1207,39.3,1043.9,51.4,871.6c25.5-363,207.9-619.3,540.7-766.9c119.3-52.9,253-70.6,382.6-62.2c42.2,2.7,84.3,8.1,125.7,16.7
	c64.4,13.3,127.1,34.5,186.1,63.6c0.3,0.1,0.6,0.3,0.9,0.4c92.4,45.6,178.6,104.3,251.6,177.3c70.2,70.2,127,153,167.9,243.5
	c55.6,122.8,86.2,257.8,81.2,392.8C1787.8,944.5,1787.4,952.4,1786.9,960.3z M919.2,115.7C480.7,115.8,124,472.6,124.5,910.5
	c0.6,435.6,356,794.2,786.8,793.6c444.9-0.6,802.4-354.8,802.1-794.9C1713.2,471.9,1356.6,115.6,919.2,115.7z"/>
<g>
	<path d="M1313.2,972c-50.9-0.6-90.7-42-89.7-92.9c1-49.5,41.9-89,91.6-88.6c50.7,0.5,90.7,42,89.6,93
		C1403.6,933.5,1363.2,972.6,1313.2,972z"/>
	<path d="M1010.3,881c-0.2,50-40.7,89.6-90.7,88.9c-48.6-0.7-88.5-40.8-88.7-89.1c-0.2-49.3,40.8-90.4,90.1-90.3
		C971,790.6,1010.5,830.7,1010.3,881z"/>
	<path d="M522.7,790.5c50-0.2,89.9,39.7,89.9,89.8c0,50.1-40.2,90-90,89.7c-48.4-0.3-88.4-40-89.3-88.5
		C432.3,832.5,473.4,790.7,522.7,790.5z"/>
</g>
</svg>
