<?xml version="1.0" encoding="utf-8"?>
<!-- Generator: Adobe Illustrator 27.4.1, SVG Export Plug-In . SVG Version: 6.00 Build 0)  -->
<svg version="1.1" id="Capa_1" xmlns="http://www.w3.org/2000/svg" xmlns:xlink="http://www.w3.org/1999/xlink" x="0px" y="0px"
	 viewBox="0 0 884.1 1010.5" style="enable-background:new 0 0 884.1 1010.5;" xml:space="preserve">

<g>
	<g>
		<circle class="st0" cx="473.7" cy="463.9" r="123.2"/>
		<path d="M473.7,593.5c-71.5,0-129.7-58.2-129.7-129.7s58.2-129.7,129.7-129.7c71.5,0,129.7,58.2,129.7,129.7
			S545.1,593.5,473.7,593.5z M473.7,347c-64.4,0-116.8,52.4-116.8,116.8c0,64.4,52.4,116.8,116.8,116.8s116.8-52.4,116.8-116.8
			C590.5,399.4,538.1,347,473.7,347z"/>
	</g>
	<g>
		<g>
			<path d="M487,419.5c-1.8,20.2-3.5,39-5.3,57.9c-0.2,2-0.6,4.4-1.8,5.8c-1.8,2.1-4.4,4.7-6.7,4.6c-2.2,0-5.3-2.5-6.5-4.7
				c-1.6-2.9-2.1-6.5-2.4-9.9c-1.4-18-2.8-35.9-3.8-53.9c-0.2-4.2,0.5-8.7,1.9-12.7c2.1-5.9,7.3-7.7,13.3-7.5
				c5.7,0.2,8.7,3.4,9.6,8.9C485.8,412.2,486.5,416.5,487,419.5z"/>
		</g>
		<g>
			<path d="M486.3,515.8c0.1,7.2-5.2,12.6-12.3,12.8c-7.4,0.2-13-5.4-12.9-12.8c0.1-7.1,5.5-12.5,12.6-12.5
				C480.8,503.4,486.2,508.7,486.3,515.8z"/>
		</g>
	</g>
</g>
</svg>
