<?xml version="1.0" encoding="utf-8"?>
<!-- Generator: Adobe Illustrator 27.4.1, SVG Export Plug-In . SVG Version: 6.00 Build 0)  -->
<svg version="1.1" id="Capa_1" xmlns="http://www.w3.org/2000/svg" xmlns:xlink="http://www.w3.org/1999/xlink" x="0px" y="0px"
	 viewBox="0 0 884.1 1010.5" style="enable-background:new 0 0 884.1 1010.5;" xml:space="preserve">

<g>
	<path d="M431.8,669.6c-1.7,0-3.5,0-5.2,0c-0.1-0.6-0.6-0.7-1.1-0.7c-7.4,0-14.5-1.6-21.7-3c-21.6-4.1-41.4-12.5-60.3-23.5
		c-8.5-5-16.3-11-24-17.1c-0.3-0.2-0.5-0.4-0.8-0.6c-64.6-55-85.5-143.5-53.4-221c0.2,0.1,0.2,0.8,0.6,0.2c-0.2-0.1-0.4-0.2-0.5-0.4
		c3.2-8.5,7.9-16.1,12.3-23.9c6-10.7,13.6-20.2,21.6-29.5c7.8-9,16.5-16.9,26-24.1c5.7-4.4,12-7.9,18-11.9
		c6.6-4.4,13.6-7.9,20.7-11.1c13.7-6.2,28.1-10.5,43.1-13.1c11.4-2,22.8-3.5,34.2-3.3c6.7,0.1,13.5,0.3,20.2,1
		c8.9,0.9,17.6,2.3,26.2,4.4c16.1,4,31.5,9.9,46,18c13.7,7.6,26.4,16.5,38,27c12.5,11.4,23.2,24.3,32.1,38.7
		c6.1,9.8,11.5,20,15.8,30.8c5.9,14.7,9.8,29.9,11.9,45.7c2.1,16.1,2.5,32.5,0.8,48.6c-1.9,17.7-6.3,33.5-13.2,49.9
		c-11.4,26.9-28.7,50.7-50.2,70.4c-11.1,10.2-23.3,18.6-36.5,25.7c-21.3,11.4-43.9,18.9-68,21.4c-2.6,0.3-5.6-0.4-8,1.3
		c-7.2,0-14.5,0-21.7,0C433.8,668.7,432.8,668.3,431.8,669.6z M461.7,642.8c0.1-0.2,0.8-0.1,0.3-0.6
		C461.8,642.4,461.7,642.5,461.7,642.8c-0.1,0-0.1,0.1-0.2,0.2C461.6,642.9,461.6,642.9,461.7,642.8z M422.9,642.7
		c0.1,0,0.2,0.1,0.3,0.1C423.1,642.8,423,642.8,422.9,642.7c-0.2-0.1,0-0.8-0.5-0.4C422.6,642.5,422.8,642.6,422.9,642.7z
		 M372.7,404.7L372.7,404.7l0.4,0l0.3-0.1c3.9,1.9,5.3,5,4.7,9.3c-0.2,1.3-1.1,3.4,1.8,3.6c6.8,0.5,11.6-0.8,10.9-9.4
		c-0.1-1.1,0.1-2.2,0-3.4c-1.2-11.3,11.4-20.9,23.1-17.6c8.8,2.5,17.3,5.1,26.6,4.6c8.3-0.5,16.5-0.3,24.5-3.2
		c1.6-0.4,3.1-0.8,4.7-1.1c4.4-0.8,8.9-1.3,13.2,0.5c9,3.8,11.3,11.5,11.2,20.4c0,7.6,1.9,9.3,9.5,9.3c2.8,0,3.3-1.1,3.2-3.5
		c-0.1-9.1,0-18.2-0.1-27.2c0-7.6-4.4-12.3-12-12.8c-6.9-0.5-11.4-4.9-11.9-11.9c-0.2-3-1.3-5.7-3.6-7.9c-4.2-4-9.3-3.4-14.4-3.2
		c-20.7,0.1-41.4-1-62.1,0.7c-1.1-0.2-1.7,0.5-2.2,1.4c-0.5,0.1-1,0-1.5,0.2c-10.5,4.6-20.6,15.9-21,29.2c-0.1,4.6-1.5,6.7-5.4,7.4
		c-3,0.7-5.7-1.3-5.8-4.3c-0.1-3.2,0-6.3,0.7-9.5c5.1-22.6,23.2-35.8,43.9-36.3c18.9-0.4,37.9-0.1,56.8-0.1c2.3,0,4.6,0.2,7,0.6
		c9.6,2,16.4,8.8,18.1,18.5c0.4,2.5,1.5,4.6,4.2,4.6c4,0,7.1,2.3,10.3,3.9c3.9,2,6.8,5.2,7.1,10c0.1,0.9,0,1.7,0.8,2.4
		c1.9,1.6,2,3.9,2.1,6.1c0,18.7,0.1,37.4,0,56.1c0,7.1-3.8,12.2-10.2,14.5c-1.5,0.5-2.1,1.2-2.4,2.9c-2.4,13.6-7.5,25.9-17.8,35.5
		c-2.8,2.7-6.7,5-8,8.3c-1.4,3.6-0.2,8.1-0.4,12.2c-0.1,2.2,0.5,3.6,2.7,4.6c13.8,5.9,26.3,14.6,41,18.7c7,2,13.8,4.6,20.8,6.7
		c7.7,2.3,15.1,4.8,21.5,9.8c10.8,8.9,17,20.1,17.3,34.3c0.1,0.6,0,1.3,0.9,1.2c0.3,0,0.4-0.7,0.6-1.1c5.2-7.3,10.9-14.3,15.1-22.2
		c3.4-6.5,6.6-13.1,9.9-19.6c1-0.2,1.6-0.6,0.5-1.5c2.6-8.1,6.5-15.7,8-24.2c2.3-12.4,4.4-24.7,4.9-37.4c0.3-6.4-0.2-12.8-0.2-19.1
		c-0.1-8.6-1.6-17.1-3.4-25.4c-1.9-9-4.3-18-7.9-26.5c-3.9-9.3-8-18.4-13.2-27.1c-9.9-16.6-22-31.3-36.6-44
		c-10.3-8.8-21-17-33.2-23.1c-3.8-1.9-7.3-4.4-11.2-5.9c-12.3-4.6-24.5-9.5-37.5-11.8c-10.4-1.8-20.7-3.9-31.3-3.2
		c-2.9-0.3-5.9-0.9-8.8-0.8c-10.5,0.4-20.9,1.8-31.2,3.6c-15.4,2.6-29.8,7.9-43.9,14.4c-11.8,5.4-22.6,12.4-32.8,20.5
		c-9.5,7.5-18.4,15.6-26.2,24.9c-7,8.3-13.1,17.3-18.8,26.5c-3,4.8-5.5,9.9-7.8,15.1c-3.4,7.8-6.3,15.8-8.9,24
		c-3.8,12.2-6.6,24.6-7,37.3c-0.5,12.9-0.9,26,1.2,38.9c2.4,14.7,5.3,29.1,12.1,42.4c-1.2,0.9-0.5,1.3,0.5,1.5
		c0.3,1,0.3,2.1,0.7,3.2c4.8,12.8,12.5,23.9,20.2,34.9c1.1,1.6,1.8,4.1,4.6,4.5c0.1-5.8,1.1-11.4,3.8-16.4c0-0.3,0-0.6,0-0.9
		c0.8-1.2,1.5-2.5,2.3-3.7c3.6-6,8.1-11.1,13.9-15.2c9.2-6.5,20.2-7.9,30.4-11.6c6-2.1,12.5-2.9,18.1-5.7
		c8.2-4.1,16.4-8.2,24.5-12.4c3.6-1.8,8.3-2.8,10.3-5.7c2.2-3.2,0.5-8.2,0.7-12.4c0-0.4,0-0.8,0-1.1c0.2-1.3-0.5-2.1-1.5-2.8
		c-5.2-3.9-9.8-8.4-13.5-13.6c-5.7-8-10-16.8-11.3-26.7c-0.3-2.3-1.1-4-3.8-5.2c-5.8-2.5-8.8-7.3-8.8-13.8c0-10,0.1-19.9-0.1-29.9
		c-0.1-4,1.4-6.4,5.2-7.3C372.5,405.4,372.6,405.1,372.7,404.7z M417.6,509.5c-0.3-0.4-0.6-0.8-1.1-0.4c-0.5,0.4-0.1,0.8,0.4,1.1
		c-0.6,6-0.4,11.7,5.3,15.5c0.2,0.1,0.3,0.4,0.5,0.5c6.6,7.6,13.2,15.2,20,23.1c0.6-0.7,1.1-1.3,1.5-1.9c6.1-8.2,12.7-16,19.7-23.3
		c3.7-3.9,3.9-8.1,3.7-12.9c-0.1-1.8-0.6-2.2-2.2-1.5c-4.5,1.9-9.2,2.7-13.9,3.7C439.8,516,428.6,513.8,417.6,509.5z M482.8,577
		c-4.4,22-11.9,43.1-20.1,64.1c1.2-0.5,2.1-1.1,2.8-1.9c7.6-8,15.1-16.1,22-24.7c3-3.8,4.7-4.2,9.3-2.4c2.2,2.9,2.5,5.7,0,8.7
		c-6.3,7.9-13.2,15.4-20.2,22.6c-4.1,4.4-8.2,8.7-12.8,13.6c7.5-0.3,14.2-1.7,20.6-3.4c16.1-4.2,31.7-10.1,46.3-18.4
		c14.5-8.3,27.6-18.4,39.5-30.2c0.8-0.8,1.5-1.6,1.5-2.8c0-6.7,0.3-13.4-1.5-19.9c-1.9-6.8-5.5-12.5-11.2-16.7
		c-0.2-0.4-0.4-0.9-0.7-1.2c-7.4-6.2-16.8-7.5-25.5-10.6c-3.9-1.4-8-2.3-11.7-4c-2.9-1.3-4.8-1.1-6.3,1.8c-1,2.1-1.9,4.3-3,6.3
		c-4.6,8.6-4.1,6.8,2.1,13.2c4.2,4.4,6,9.5,3.6,15.4c-1.2,3-2.4,6.1-3.7,9c-1.7,3.7-4.8,4.9-8.7,3.8c-2.7-3-2.9-6.1-0.8-9.5
		c1.1-1.9,1.9-4,2.8-6.1c1-2.1,0.8-3.3-1.3-5.2c-7.8-7-11.4-12.6-5.2-23.1c1.8-3,3-6.3,4.5-9.4c0.3-0.7,1.2-1.4-0.2-2.1
		c-6.8-3.5-13.4-7.3-20.6-10.4c-0.3,1.8-0.1,3.2,0.2,4.7c1,6.2,1.8,12.6,0.9,18.9c-0.8,6.1-0.8,12.2-1.5,18.2
		C483,575.4,482.7,576,482.8,577z M377.9,444.9c1.4,0.5,2.3,1.7,4,1.7c5.8,0,7.6,4,8,8.1c0.9,9.2,3.6,17.6,8.9,25.2
		c11.2,15.8,26.3,23.8,45.8,23.4c4.7-0.1,9.2-1.2,13.5-2.6c10.4-3.4,18.8-9.9,25.6-18.3c6-7.4,9.4-16.1,10.2-25.6
		c0.6-6.7,2.5-9.5,9-11c2.5-0.5,3.6-1.9,3.7-4.3c0.1-3.1-0.2-6.2,0.1-9.3c0.3-3-0.8-3.9-3.7-3.6c-8.5,0.9-14.8-2.4-18.7-10
		c-2.3-4.5-2.3-9.4-2.3-14.3c0-4.2-2.1-6.1-6.2-6.4c-4-0.3-7.3,1.9-11,2.5c-6.9,1.5-13.9,2.4-20.9,2.7c-10.9,0.6-21.6-1.5-32-4.7
		c-5.2-1.6-10.7,0.1-10,7.3c0.3,2.8-0.2,5.6-0.6,8.4c-0.8,5.3-6.9,12.8-12.8,14c-3.3,0.7-6.6,0.1-9.9,0.8c-0.5-0.2-0.6,0-0.5,0.5
		c-0.1,4.5-0.1,9.1-0.2,13.6c-0.2,0.1-0.4,0.2-0.6,0.3c0.2,0.1,0.4,0.2,0.6,0.3c0,0.3,0,0.6-0.1,0.9c-0.2,0.1-0.4,0.2-0.6,0.3
		C377.5,444.8,377.7,444.9,377.9,444.9z M420.9,657c-7.6-8-14.8-14.8-21.3-22.3c-11.7-13.3-23.2-26.6-30.8-42.8
		c-2-4.2-4.6-8.4-2.9-13.6c1.4-4.2,4.1-7.5,7.2-10.4c1.9-1.8,2.2-3.4,1.3-5.9c-1.6-4.2-4.1-7.9-6.1-11.8c-0.8-1.6-2.3-2.6-4.2-1
		c-0.7,0.5-1.4,1-2.2,1.3c-7.9,2.6-15.8,5.2-23.7,7.6c-18.4,5.6-29.9,26.1-25.2,44.8c0.2,0.7,0.7,1.3,1.2,1.8
		c4,5.4,9.5,9.4,14.6,13.5c18.8,15,39.6,26.4,62.8,33.1C400.8,654,410.2,656.3,420.9,657z M421.6,641.5c0.8-1.7-0.1-2.7-0.5-3.6
		c-7.6-17.1-13.6-34.8-18.1-53c-1.7-6.8-3.5-13.8-3.9-20.7c-0.5-9-1-18.1,0.7-27.2c0.2-1.1,1.1-2.2,0.1-3.4
		c-7.2,2.5-13.7,6.2-20.3,9.8c-1.4,0.8-1.7,1.4-0.9,2.8c1.7,3,3.2,6.1,5.1,9.1c4.1,6.6,2.8,16.7-3.1,20.9c-4.3,3.1-4.3,5.1-2.2,10.1
		c2.6,6.1,6.2,11.7,9.9,17.1c6.9,9.9,15.1,18.8,22.8,28C414.3,634.9,418,638,421.6,641.5z M442.3,591.2c-3.8-1.3-5.5,0.7-5.9,4.1
		c-0.7,6-3.3,11.5-4.2,17.4c-1.1,7.2-5.3,14.2-0.6,21.7c1,1.6,2.3,3.2,2.8,5c1.3,5.3,4.7,9.7,6.2,14.9c0.3,0.9,0.6,1.7,1.6,1.7
		c0.9,0,0.9-1.1,1.2-1.7c3.9-8.4,7.6-16.7,11.4-25.1c0.6-1.2,0.5-2.4,0.1-3.8c-2.6-10.1-5.2-20.3-7.6-30.4
		C446.8,591.9,445.8,590,442.3,591.2z M412.9,532.3c-0.5,1.1-0.9,1.7-1.1,2.4c-1.9,6-2.3,12.2-2.3,18.4c0,5.2,0.4,10.6,5.1,14.5
		c2.7,2.2,4.6,2.4,7.3,0c4.1-3.7,8.4-7.2,12.7-10.9C427.5,548.8,420.4,540.7,412.9,532.3z M471.9,532.3c-0.8,0.6-1.2,0.8-1.5,1.2
		c-6.3,7.3-12.6,14.7-19,22c-1.7,1.9,0.2,2.4,1,3.1c3.7,3.1,7.8,5.9,11.3,9.3c2.3,2.2,3.7,1.4,5.6-0.3c4-3.9,5.3-8.8,5.3-14.2
		C474.5,546.4,473.5,539.6,471.9,532.3z M462,607.5c4-8.4,6.2-17.1,8.5-25.8c0.3-0.9,0.2-2.2-0.9-1.7c-2.4,1-4.9,0.2-7.3,0.6
		c-1.8,0.2-5.6,5.4-5.2,7.2C458.8,594.3,460.4,600.9,462,607.5z M413.3,580.4c2.4,9.7,4.8,18.8,8.4,28.7c1.9-7.7,3.5-14.3,5-20.9
		c0.6-2.4-3.5-8.3-5.4-7.6C418.6,581.7,416.2,581.1,413.3,580.4z M441.6,579.7c5,1.4,8.2-0.6,10-5.1c0.2-0.5,1.3-0.8,0.6-1.4
		c-2.9-2.6-5.7-5.8-9.1-7.4c-2.3-1.1-4.3,2.2-6.2,3.9c-0.3,0.2-0.6,0.5-0.8,0.7c-4.6,3.5-4.8,4.9-0.4,8.7
		C437.4,580.7,439.7,579.4,441.6,579.7z"/>
	<path class="st0" d="M431.8,669.6c1-1.3,2-0.9,3,0C433.8,669.6,432.8,669.6,431.8,669.6z"/>
	<path class="st1" d="M275.5,545.3c-6.9-13.3-9.7-27.8-12.1-42.4c-2.1-13-1.7-26-1.2-38.9c0.5-12.6,3.2-25.1,7-37.3
		c2.5-8.2,5.5-16.2,8.9-24c2.2-5.1,4.8-10.2,7.8-15.1c5.7-9.3,11.8-18.2,18.8-26.5c7.8-9.2,16.6-17.4,26.2-24.9
		c10.2-8,21.1-15,32.8-20.5c14-6.5,28.5-11.8,43.9-14.4c10.4-1.7,20.8-3.1,31.2-3.6c2.9-0.1,5.8,0.5,8.8,0.8c0.3,1.8,2,1.7,3.2,2
		c9.5,2.9,18.8,6.6,27.6,11.1c12.7,6.5,24.6,14.3,35.7,23.5c12.5,10.3,23.1,22.1,32.5,35.1c10,13.9,17.7,29,23.6,45.1
		c5.9,16.2,9.3,32.9,10.4,50c0.7,9.7,0.5,19.6-0.4,29.4c-1.4,14.6-4.5,28.8-8.9,42.8c-1.9,5.9-5.3,11.3-6.2,17.5
		c-6.4-5-13.9-7.6-21.5-9.8c-7-2.1-13.8-4.7-20.8-6.7c-14.7-4.1-27.2-12.9-41-18.7c-2.2-0.9-2.8-2.4-2.7-4.6c0.1-4.1-1-8.6,0.4-12.2
		c1.3-3.3,5.2-5.6,8-8.3c10.3-9.7,15.3-22,17.8-35.5c0.3-1.7,0.9-2.4,2.4-2.9c6.4-2.3,10.2-7.5,10.2-14.5c0.1-18.7,0.1-37.4,0-56.1
		c0-2.2-0.2-4.5-2.1-6.1c-0.8-0.7-0.7-1.5-0.8-2.4c-0.3-4.8-3.2-8-7.1-10c-3.2-1.7-6.3-4-10.3-3.9c-2.7,0-3.8-2.2-4.2-4.6
		c-1.7-9.7-8.4-16.5-18.1-18.5c-2.3-0.5-4.6-0.6-7-0.6c-18.9,0-37.9-0.4-56.8,0.1c-20.7,0.5-38.8,13.7-43.9,36.3
		c-0.7,3.2-0.8,6.3-0.7,9.5c0.1,3,2.8,5,5.8,4.3c0,4.8,0,9.5,0.1,14.3c0,0.2,0,0.3,0,0.5c0,0,0,0,0,0c-0.2,0.2-0.5,0.4-0.7,0.6
		c-3.9,0.9-5.3,3.3-5.2,7.3c0.2,10,0,19.9,0.1,29.9c0,6.5,3,11.3,8.8,13.8c2.7,1.1,3.5,2.9,3.8,5.2c1.3,10,5.6,18.7,11.3,26.7
		c3.7,5.2,8.3,9.8,13.5,13.6c0.9,0.7,1.7,1.5,1.5,2.8c-0.1,0.4,0,0.7,0,1.1c-0.2,4.2,1.5,9.2-0.7,12.4c-2,2.9-6.8,3.9-10.3,5.7
		c-8.2,4.2-16.4,8.2-24.5,12.4c-5.6,2.8-12.2,3.5-18.1,5.7c-10.2,3.7-21.2,5.2-30.4,11.6c-5.8,4.1-10.3,9.2-13.9,15.2
		c-0.7,1.2-1.5,2.5-2.3,3.7c-0.4,0.1-0.9,0.3-1.3,0.4c0.4,0.1,0.9,0.3,1.3,0.4c-2.8,5.1-3.7,10.6-3.8,16.4c-2.8-0.4-3.5-2.9-4.6-4.5
		c-7.7-11.1-15.5-22.1-20.2-34.9c-0.4-1.1-0.4-2.2-0.7-3.2C276.2,546.2,276.4,545.6,275.5,545.3z"/>
	<path class="st2" d="M565,555.2c1-6.2,4.4-11.6,6.2-17.5c4.4-14,7.4-28.2,8.9-42.8c1-9.8,1.1-19.7,0.4-29.4
		c-1.1-17.1-4.5-33.8-10.4-50c-5.9-16.1-13.6-31.2-23.6-45.1c-9.4-13-20-24.9-32.5-35.1c-11.1-9.1-22.9-17-35.7-23.5
		c-8.8-4.5-18.1-8.2-27.6-11.1c-1.2-0.4-2.9-0.2-3.2-2c10.6-0.7,21,1.4,31.3,3.2c13,2.2,25.2,7.2,37.5,11.8c3.9,1.5,7.5,4,11.2,5.9
		c12.2,6.1,22.9,14.2,33.2,23.1c14.7,12.6,26.7,27.4,36.6,44c5.2,8.7,9.3,17.8,13.2,27.1c3.6,8.5,5.9,17.5,7.9,26.5
		c1.8,8.3,3.3,16.8,3.4,25.4c0.1,6.4,0.5,12.7,0.2,19.1c-0.5,12.7-2.7,25-4.9,37.4c-1.5,8.5-5.5,16.1-8,24.2
		c-0.9,0.3-0.6,0.9-0.5,1.5c-3.3,6.6-6.4,13.2-9.9,19.6c-4.2,7.9-9.9,14.9-15.1,22.2c-0.5,0-1,0-1.5-0.1
		C582,575.3,575.8,564.1,565,555.2z"/>
	<path class="st3" d="M378.6,428.8c3.2-0.7,6.5-0.1,9.9-0.8c5.9-1.2,12-8.6,12.8-14c0.4-2.8,0.9-5.6,0.6-8.4
		c-0.7-7.1,4.9-8.8,10-7.3c10.4,3.2,21,5.3,32,4.7c7-0.4,14-1.2,20.9-2.7c0,19.7,0.1,39.3,0,59c-0.1,12.5-4.1,23.7-11.6,33.9
		c-2.7,3.6-6.7,5.9-8.6,10.1c-19.4,0.3-34.6-7.6-45.8-23.4c-5.4-7.6-8.1-15.9-8.9-25.2c-0.4-4.1-2.2-8.1-8-8.1c-1.6,0-2.6-1.2-4-1.7
		c0.1-0.2,0.1-0.3,0-0.5c0-0.3,0-0.6,0.1-0.9c0.1-0.2,0.1-0.4,0-0.6c0.1-4.5,0.1-9.1,0.2-13.6C378.3,429.1,378.5,429,378.6,428.8z"
		/>
	<path class="st4" d="M420.9,657c-10.7-0.7-20.1-3-29.4-5.7c-23.2-6.7-44-18.1-62.8-33.1c-5.2-4.1-10.6-8.1-14.6-13.5
		c-0.4-0.6-1-1.2-1.2-1.8c-4.8-18.8,6.8-39.2,25.2-44.8c7.9-2.4,15.8-5,23.7-7.6c0.8-0.3,1.6-0.7,2.2-1.3c1.9-1.6,3.4-0.6,4.2,1
		c2.1,3.9,4.5,7.6,6.1,11.8c1,2.5,0.6,4.1-1.3,5.9c-3.1,3-5.8,6.2-7.2,10.4c-1.7,5.2,0.9,9.4,2.9,13.6c7.5,16.2,19.1,29.6,30.8,42.8
		C406.1,642.2,413.4,649.1,420.9,657z"/>
	<path class="st5" d="M372.6,404.2c0-4.8,0-9.5-0.1-14.3c3.9-0.7,5.3-2.8,5.4-7.4c0.4-13.2,10.5-24.6,21-29.2c0.4-0.2,1-0.2,1.5-0.2
		c1,0,2.1,0,2.2-1.4c20.7-1.7,41.4-0.6,62.1-0.7c0.1,12.5,0.1,25,0.2,37.4c-7.9,2.9-16.2,2.7-24.5,3.2c-9.3,0.5-17.9-2.1-26.6-4.6
		c-11.7-3.3-24.3,6.3-23.1,17.6c0.1,1.1-0.1,2.2,0,3.4c0.7,8.6-4.1,9.9-10.9,9.4c-2.8-0.2-1.9-2.3-1.8-3.6c0.6-4.3-0.8-7.4-4.7-9.3
		C373.1,404.4,372.9,404.3,372.6,404.2z"/>
	<path class="st6" d="M444.5,503.3c1.9-4.2,5.9-6.5,8.6-10.1c7.5-10.1,11.5-21.3,11.6-33.9c0.1-19.7,0-39.3,0-59
		c3.7-0.5,7-2.8,11-2.5c4.2,0.3,6.3,2.2,6.2,6.4c0,4.9-0.1,9.8,2.3,14.3c3.9,7.6,10.2,10.9,18.7,10c2.9-0.3,4,0.6,3.7,3.6
		c-0.3,3.1,0,6.2-0.1,9.3c-0.1,2.4-1.2,3.8-3.7,4.3c-6.5,1.4-8.4,4.3-9,11c-0.8,9.5-4.2,18.2-10.2,25.6
		c-6.8,8.4-15.2,14.9-25.6,18.3C453.7,502.1,449.2,503.3,444.5,503.3z"/>
	<path class="st7" d="M559.1,565.5c5.7,4.3,9.3,9.9,11.2,16.7c1.8,6.5,1.5,13.2,1.5,19.9c0,1.3-0.7,2-1.5,2.8
		c-11.8,11.8-24.9,21.9-39.5,30.2c-14.6,8.3-30.1,14.2-46.3,18.4c-6.5,1.7-13.1,3-20.6,3.4c4.6-4.9,8.7-9.2,12.8-13.6
		c1.1,3,2.7,0.5,3.7,0c19.8-10.7,37.7-23.8,52.7-40.8C543.1,591.1,552,578.9,559.1,565.5z"/>
	<path class="st4" d="M559.1,565.5c-7.1,13.4-16,25.6-26.1,37.1c-15,17-32.9,30.1-52.7,40.8c-0.9,0.5-2.5,3-3.7,0
		c7.1-7.2,13.9-14.7,20.2-22.6c2.4-3,2.1-5.8,0-8.7c2.5-4.4,6.4-8,8.3-12.8c3.9,1.2,7-0.1,8.7-3.8c1.4-2.9,2.5-6,3.7-9
		c2.4-6,0.6-11-3.6-15.4c-6.2-6.5-6.7-4.6-2.1-13.2c1.1-2.1,2-4.2,3-6.3c1.5-2.9,3.4-3.1,6.3-1.8c3.7,1.7,7.8,2.5,11.7,4
		c8.6,3.2,18.1,4.5,25.5,10.6C558.7,564.5,558.9,565,559.1,565.5z"/>
	<path class="st8" d="M505.2,599.2c-1.9,4.8-5.8,8.4-8.3,12.8c-4.6-1.8-6.3-1.4-9.3,2.4c-6.9,8.6-14.4,16.7-22,24.7
		c-0.7,0.8-1.6,1.4-2.8,1.9c8.2-20.9,15.6-42,20.1-64.1c0.8-0.3,1.5-0.7,1.3-1.7c0.6-6.1,0.7-12.2,1.5-18.2
		c0.8-6.3,0.1-12.6-0.9-18.9c-0.2-1.5-0.4-2.9-0.2-4.7c7.2,3,13.8,6.8,20.6,10.4c1.3,0.7,0.5,1.4,0.2,2.1c-1.5,3.1-2.7,6.4-4.5,9.4
		c-6.2,10.5-2.6,16,5.2,23.1c2.1,1.9,2.2,3.1,1.3,5.2c-1,2-1.7,4.2-2.8,6.1C502.3,593.1,502.5,596.2,505.2,599.2z"/>
	<path class="st8" d="M421.6,641.5c-3.6-3.5-7.3-6.5-10.3-10.2c-7.8-9.2-15.9-18.1-22.8-28c-3.8-5.4-7.3-11-9.9-17.1
		c-2.1-5-2.1-7,2.2-10.1c5.9-4.2,7.2-14.2,3.1-20.9c-1.8-2.9-3.3-6.1-5.1-9.1c-0.8-1.4-0.5-2.1,0.9-2.8c6.6-3.5,13.1-7.3,20.3-9.8
		c1,1.2,0.1,2.3-0.1,3.4c-1.7,9-1.2,18.1-0.7,27.2c0.4,7,2.2,13.9,3.9,20.7c4.5,18.2,10.5,35.8,18.1,53
		C421.5,638.8,422.4,639.8,421.6,641.5z"/>
	<path class="st0" d="M464.9,388.4c-0.1-12.5-0.1-25-0.2-37.4c5.1-0.2,10.1-0.8,14.4,3.2c2.3,2.2,3.4,4.8,3.6,7.9
		c0.5,7,4.9,11.5,11.9,11.9c7.6,0.5,12,5.1,12,12.8c0,9.1-0.1,18.2,0.1,27.2c0,2.4-0.4,3.5-3.2,3.5c-7.6,0-9.5-1.8-9.5-9.3
		c0-8.9-2.2-16.5-11.2-20.4c-4.3-1.8-8.7-1.3-13.2-0.5C468,387.6,466.4,388.1,464.9,388.4z"/>
	<path class="st3" d="M417.6,509.5c11,4.3,22.1,6.5,34,4c4.7-1,9.4-1.8,13.9-3.7c1.6-0.7,2.2-0.3,2.2,1.5c0.2,4.7,0,9-3.7,12.9
		c-7.1,7.3-13.6,15.1-19.7,23.3c-0.4,0.6-1,1.2-1.5,1.9c-6.8-7.8-13.4-15.5-20-23.1c-0.2-0.2-0.3-0.4-0.5-0.5
		c-5.7-3.8-5.9-9.5-5.3-15.5C417.2,510,417.4,509.8,417.6,509.5z"/>
	<path class="st9" d="M442.3,591.2c3.5-1.3,4.5,0.7,5.2,3.6c2.4,10.2,5,20.3,7.6,30.4c0.4,1.4,0.4,2.6-0.1,3.8
		c-3.8,8.4-7.6,16.8-11.4,25.1c-0.3,0.6-0.3,1.6-1.2,1.7c-1,0-1.4-0.8-1.6-1.7c-1.5-5.2-4.9-9.6-6.2-14.9c-0.5-1.8-1.8-3.4-2.8-5
		c-4.8-7.5-0.5-14.5,0.6-21.7c0.9-5.9,3.4-11.4,4.2-17.4C436.8,591.9,438.5,589.9,442.3,591.2z"/>
	<path class="st10" d="M412.9,532.3c7.5,8.4,14.7,16.5,21.7,24.5c-4.3,3.7-8.6,7.2-12.7,10.9c-2.7,2.4-4.6,2.2-7.3,0
		c-4.7-3.9-5.1-9.3-5.1-14.5c0-6.2,0.4-12.4,2.3-18.4C412,534,412.4,533.4,412.9,532.3z"/>
	<path class="st10" d="M471.9,532.3c1.6,7.3,2.6,14.2,2.6,21.2c0,5.4-1.3,10.2-5.3,14.2c-1.8,1.8-3.2,2.5-5.6,0.3
		c-3.5-3.3-7.6-6.1-11.3-9.3c-0.8-0.7-2.7-1.2-1-3.1c6.4-7.3,12.7-14.7,19-22C470.6,533.1,471.1,532.9,471.9,532.3z"/>
	<path class="st11" d="M462,607.5c-1.6-6.6-3.2-13.2-4.8-19.8c-0.4-1.8,3.4-7,5.2-7.2c2.4-0.3,4.8,0.4,7.3-0.6
		c1.1-0.4,1.2,0.8,0.9,1.7C468.2,590.4,466.1,599.1,462,607.5z"/>
	<path class="st11" d="M413.3,580.4c2.9,0.7,5.3,1.3,8.1,0.3c1.9-0.7,6,5.1,5.4,7.6c-1.6,6.6-3.2,13.1-5,20.9
		C418.1,599.2,415.7,590.1,413.3,580.4z"/>
	<path class="st12" d="M441.6,579.7c-1.9-0.3-4.2,1-5.9-0.5c-4.3-3.8-4.2-5.2,0.4-8.7c0.3-0.2,0.6-0.5,0.8-0.7
		c1.9-1.7,3.9-4.9,6.2-3.9c3.4,1.6,6.2,4.8,9.1,7.4c0.7,0.6-0.4,0.9-0.6,1.4C449.8,579.1,446.6,581,441.6,579.7z"/>
	<path class="st8" d="M402.6,351.7c-0.1,1.4-1.2,1.4-2.2,1.4C401,352.3,401.5,351.5,402.6,351.7z"/>
	<path class="st13" d="M608.7,547.6c-0.2-0.6-0.4-1.2,0.5-1.5C610.3,547,609.7,547.4,608.7,547.6z"/>
	<path class="st13" d="M275.5,545.3c0.9,0.3,0.7,0.9,0.5,1.5C275,546.6,274.3,546.3,275.5,545.3z"/>
	<path class="st13" d="M484.1,575.3c0.2,1-0.5,1.4-1.3,1.7C482.7,576,483,575.4,484.1,575.3z"/>
	<path class="st13" d="M582.3,589.4c0.5,0,1,0,1.5,0.1c-0.2,0.4-0.3,1.1-0.6,1.1C582.3,590.8,582.3,590,582.3,589.4z"/>
	<path class="st13" d="M417.6,509.5c-0.2,0.2-0.5,0.5-0.7,0.7c-0.4-0.3-0.8-0.7-0.4-1.1C417,508.7,417.4,509.1,417.6,509.5z"/>
	<path class="st13" d="M305.4,573.1c-0.4-0.1-0.9-0.3-1.3-0.4c0.4-0.1,0.9-0.3,1.3-0.4C305.4,572.5,305.4,572.8,305.4,573.1z"/>
	<path class="st2" d="M372.6,404.2c0.2,0.1,0.5,0.3,0.7,0.4c0,0-0.3,0.1-0.3,0.1l-0.3,0C372.7,404.5,372.7,404.3,372.6,404.2z"/>
	<path class="st13" d="M265.4,403.6c0.2,0.1,0.4,0.2,0.5,0.4c-0.4,0.5-0.4-0.2-0.6-0.2C265.3,403.7,265.4,403.6,265.4,403.6z"/>
	<path class="st2" d="M372,405.3c0.2-0.2,0.5-0.4,0.7-0.6C372.6,405.1,372.5,405.4,372,405.3z"/>
	<path class="st9" d="M378.6,428.8c-0.2,0.2-0.3,0.3-0.5,0.5C378,428.8,378.1,428.6,378.6,428.8z"/>
	<path class="st9" d="M377.9,442.9c0.1,0.2,0.1,0.4,0,0.6c-0.2-0.1-0.4-0.2-0.6-0.3C377.5,443.1,377.7,443,377.9,442.9z"/>
	<path class="st13" d="M319.6,625.3c-0.5,0.2-0.7-0.2-0.8-0.6C319,624.9,319.3,625.1,319.6,625.3z"/>
	<path class="st8" d="M422.9,642.7c-0.2-0.1-0.3-0.3-0.5-0.4C423,641.9,422.8,642.6,422.9,642.7C423,642.7,422.9,642.7,422.9,642.7z
		"/>
	<path class="st8" d="M461.6,642.7c0.1-0.2,0.2-0.4,0.3-0.6C462.5,642.6,461.7,642.6,461.6,642.7L461.6,642.7z"/>
	<path class="st13" d="M423,642.7c0.1,0.1,0.2,0.1,0.3,0.2C423.1,642.8,423,642.8,423,642.7C422.9,642.7,423,642.7,423,642.7z"/>
	<path class="st13" d="M461.7,642.8c-0.1,0.1-0.1,0.2-0.2,0.2C461.5,642.9,461.6,642.8,461.7,642.8
		C461.6,642.7,461.7,642.8,461.7,642.8z"/>
	<path class="st9" d="M377.9,444.4c0.2,0.2,0.2,0.3,0,0.5c-0.2-0.1-0.4-0.1-0.6-0.2C377.5,444.6,377.7,444.5,377.9,444.4z"/>
</g>
</svg>
