<?xml version="1.0" encoding="utf-8"?>
<!-- Generator: Adobe Illustrator 27.5.0, SVG Export Plug-In . SVG Version: 6.00 Build 0)  -->
<svg version="1.1" id="Capa_1" xmlns="http://www.w3.org/2000/svg" xmlns:xlink="http://www.w3.org/1999/xlink" x="0px" y="0px"
	 viewBox="0 0 368.5 371.6" style="enable-background:new 0 0 368.5 371.6;" xml:space="preserve">

<g>
	<path class="st0" d="M53.4,305.6c-6-3.6-9.1-9.7-13.1-15c-11.6-15.4-20.1-32.6-26-51c-3.7-11.6-5.9-23.5-7.4-35.6
		c-1.4-11.1-1.4-22.3-0.6-33.3c1.5-19.8,6.6-39,14.6-57.3c7.4-16.9,17.2-32.4,29.3-46.3C63.4,52,79.1,39.8,96.6,29.7
		c12.5-7.2,26-12.7,40-16.5c7.4-2,14.9-3.8,22.6-4.7c7.7-0.9,15.4-1.3,23.1-1.3c15.5,0,30.9,1.6,46,4.9c7.6,1.7,15.2,4.4,22.5,7.2
		c12.2,4.8,23.7,11,34.5,18.4c37.4,25.6,61.2,60.5,72.4,104.2c3.2,12.5,4.3,25.2,4.8,38.1c0.8,19.7-1.8,38.8-7.4,57.6
		c-6.3,21.1-16.5,40.2-29.9,57.6c-2.8,3.6-5.4,7.5-9.4,10.1c-0.4-0.6-0.9-1.3-1.2-1.9c-7.2-18.2-19.8-32.3-34-45.1
		c-17-15.3-37.3-24.4-59.5-29.3c-1.5-0.3-3.5,0.8-4.4-1.4c43.9-23.8,46.8-77.3,21.6-107.1c-24.4-28.8-68.6-33.5-98.4-8
		c-18.6,15.9-26.5,36.9-23.9,60.8c2.7,24.2,16,42.3,38.1,54.3C107.3,237.5,73.3,262.5,53.4,305.6z"/>
	<path class="st1" d="M53.4,305.6c19.9-43.1,53.8-68.2,100.8-78c-22-12-35.4-30.1-38.1-54.3c-2.6-23.9,5.3-44.8,23.9-60.8
		c29.8-25.5,74-20.8,98.4,8c25.2,29.7,22.3,83.3-21.6,107.1c0.9,2.2,2.9,1.1,4.4,1.4c22.2,4.9,42.5,14,59.5,29.3
		c14.2,12.8,26.8,27,34,45.1c0.3,0.7,0.8,1.3,1.2,1.9c-3.5,6.1-8.9,10.6-14.1,15.1c-21.5,18.6-46.1,31.3-73.6,38.4
		c-19.3,5-39.1,6.5-58.8,4.8c-37.4-3.4-70.8-16.9-99.6-41.4C63.8,317.3,57.9,312.2,53.4,305.6z"/>
</g>
</svg>
