<?xml version="1.0" encoding="utf-8"?>
<!-- Generator: Adobe Illustrator 27.5.0, SVG Export Plug-In . SVG Version: 6.00 Build 0)  -->
<svg version="1.1" id="Capa_1" xmlns="http://www.w3.org/2000/svg" xmlns:xlink="http://www.w3.org/1999/xlink" x="0px" y="0px"
	 viewBox="0 0 368.5 371.6" style="enable-background:new 0 0 368.5 371.6;" xml:space="preserve">

<g>
	<circle cx="184.2" cy="185.8" r="177.6"/>
	<path id="Trazado_1" class="st0" d="M153.7,183.2c-22.9-16.9-27.7-49.1-10.9-72c16.9-22.9,49.1-27.7,72-10.9
		c22.9,16.9,27.7,49.1,10.9,72c-3.1,4.2-6.8,7.9-11,11c1.9,0.7,3.7,1.3,5.5,2.1c31.2,12.5,53.5,40.6,58.6,73.8
		c0.7,4.6,1.1,9.3,1.1,13.9c0.5,3.9-2.2,7.5-6.2,8.1c-0.6,0.1-1.3,0.1-1.9,0H96.2c-3.9,0.3-7.3-2.7-7.6-6.7c0-0.3,0-0.6,0-1
		c1.1-38.5,19.1-66.7,52.9-85C145.3,186.5,149.6,185,153.7,183.2z M264.7,266.5c-4.2-44.4-43.5-77-87.9-72.9
		c-38.7,3.6-69.3,34.2-72.9,72.9H264.7z M184.2,178.4c20.3,0,36.7-16.5,36.7-36.8c0-20.3-16.5-36.7-36.8-36.7
		c-20.2,0-36.6,16.4-36.7,36.6C147.5,161.8,163.9,178.3,184.2,178.4L184.2,178.4z"/>
</g>
</svg>
