<svg xmlns="http://www.w3.org/2000/svg" width="101.366" height="101.63" viewBox="0 0 101.366 101.63">
  <g id="Grupo_11" data-name="Grupo 11" transform="translate(-61 -166.027)">
    <g id="destination" transform="translate(61 166.027)">
      <path id="Uni贸n_5" data-name="Uni贸n 5" d="M-2442.2-58.8a6.6,6.6,0,0,1-3.255-2.621,3.516,3.516,0,0,1-.106-3.731c1.006-1.826,2.726-2.647,4.526-3.388.313-.13.651-.261.99-.391a58.866,58.866,0,0,1-7.474-9.984,27.8,27.8,0,0,1-4.1-13.074,18.868,18.868,0,0,1,4.658-13.286,19.17,19.17,0,0,1,11.406-6.564c.292-.053.662-.027.9-.318h.761l.033-.026h3.758a16.662,16.662,0,0,1,5.637,1.3,19.572,19.572,0,0,1,11.461,13.551,10.36,10.36,0,0,1,.238,2.858c-.026,1.244.079,2.515-.052,3.758A29.192,29.192,0,0,1-2417.3-78.1a56.9,56.9,0,0,1-6.881,9.025c.106.476.556.4.847.529,1.8.768,3.547,1.561,4.5,3.388a3.668,3.668,0,0,1-.742,4.578,10.885,10.885,0,0,1-5.531,2.832,31.793,31.793,0,0,1-7.346.911A24.466,24.466,0,0,1-2442.2-58.8Zm2.831-33.93a7.117,7.117,0,0,0,7.252,7.172,7.125,7.125,0,0,0,7.119-7.2,7.218,7.218,0,0,0-7.251-7.119A7.25,7.25,0,0,0-2439.369-92.731Z" transform="translate(2514.03 112.185)" fill="#303440"/>
      <path id="Uni贸n_4" data-name="Uni贸n 4" d="M-2429.825-41.064l-.053-.026c-1.535-.265-3.1-.476-4.631-.794A17.415,17.415,0,0,1-2442.4-45.3a4.63,4.63,0,0,1-1.562-5.531l.007,0-.033-.052a7.225,7.225,0,0,1,3.652-3.546,17.082,17.082,0,0,1,4.235-1.615l.028.029v0a98.438,98.438,0,0,1-6.591-7.913c-3.811-5.241-6.934-10.825-8.284-17.257-1.958-9.21.239-17.283,6.935-23.952a23.679,23.679,0,0,1,13.974-6.775c.4-.053.741-.318,1.165-.185l.029,0-.029-.032c7.411-.45,13.947,1.694,19.293,6.908,6.67,6.511,8.84,14.477,7.093,23.556-1.349,6.987-4.843,12.968-9.024,18.606-1.826,2.462-3.891,4.738-5.9,7.04v.007c2.954.794,5.749,1.854,7.57,4.572a4.383,4.383,0,0,1,.318.608,1.119,1.119,0,0,0-.111.058.638.638,0,0,1,.138.022,4.425,4.425,0,0,1-1.085,4.976c-2.011,2.091-4.658,3.017-7.357,3.705a25.011,25.011,0,0,1-5.029.821.583.583,0,0,0-.529.185Zm3.017-55.5a9.163,9.163,0,0,0-9.237,9.263,9.11,9.11,0,0,0,9.184,9.343,9.2,9.2,0,0,0,9.422-9.158,9.218,9.218,0,0,0-9.271-9.449Z" transform="translate(2451.634 142.695)" fill="#303440"/>
      <path id="Trazado_29" data-name="Trazado 29" d="M373.244,310.393c-.423.45-.4,1.085-.609,1.615a1.46,1.46,0,0,1-1.853,1.032,1.488,1.488,0,0,1-.979-1.958c.106-.371.212-.768.291-1.138.185-.82.45-1.561,1.4-1.694.9-.132,1.35.476,1.72,1.138v.979Z" transform="translate(-271.877 -226.653)" fill="#303440"/>
      <path id="Trazado_34" data-name="Trazado 34" d="M237.123,350.494a5.265,5.265,0,0,1-1.191-.132,1.328,1.328,0,0,1-1.032-1.4,1.3,1.3,0,0,1,1.138-1.4,12.757,12.757,0,0,1,2.461-.053,1.337,1.337,0,0,1,1.3,1.456,1.406,1.406,0,0,1-1.323,1.456C238.076,350.468,237.679,350.468,237.123,350.494Z" transform="translate(-172.731 -255.506)" fill="#303440"/>
      <path id="Trazado_35" data-name="Trazado 35" d="M226.3,181.664c-1.482.45-2.435-.265-2.541-1.244-.132-1.032.635-1.588,2.276-1.694a5.986,5.986,0,0,1,1.376.026,1.341,1.341,0,0,1,1.244,1.509,1.357,1.357,0,0,1-1.376,1.4C226.909,181.691,226.565,181.664,226.3,181.664Z" transform="translate(-164.528 -131.405)" fill="#303440"/>
      <path id="Trazado_36" data-name="Trazado 36" d="M200.622,192.777a1.5,1.5,0,0,1-1.429-2.117,6.43,6.43,0,0,1,1.8-2.064,1.3,1.3,0,0,1,1.72.079,1.282,1.282,0,0,1,.45,1.667,8.6,8.6,0,0,1-1.932,2.223,1.715,1.715,0,0,1-.635.238Z" transform="translate(-146.366 -138.468)" fill="#303440"/>
      <path id="Trazado_37" data-name="Trazado 37" d="M262.707,251.694h1.085a1.454,1.454,0,0,1,.265,2.858,6.374,6.374,0,0,1-2.647,0,1.46,1.46,0,0,1,.238-2.885c.371-.026.715,0,1.085,0Z" transform="translate(-191.381 -185.051)" fill="#303440"/>
      <path id="Trazado_38" data-name="Trazado 38" d="M370,284.1a1.576,1.576,0,0,1-1.456-1.244c-.238-1.059-1.323-2.064-.212-3.176a1.433,1.433,0,0,1,2.223.291,6.985,6.985,0,0,1,.873,2.382,1.491,1.491,0,0,1-1.456,1.747Z" transform="translate(-270.486 -205.365)" fill="#303440"/>
      <path id="Trazado_39" data-name="Trazado 39" d="M353.283,338.175a1.526,1.526,0,0,1-1.323-.847,1.365,1.365,0,0,1,.265-1.641,19.4,19.4,0,0,1,1.826-1.482,1.315,1.315,0,0,1,1.641.079,1.417,1.417,0,0,1,.556,1.482,5.043,5.043,0,0,1-2.991,2.408Z" transform="translate(-258.692 -245.569)" fill="#303440"/>
      <path id="Trazado_40" data-name="Trazado 40" d="M325.859,349.723a3.766,3.766,0,0,1-.9-.079,1.4,1.4,0,0,1-1.085-1.561,1.431,1.431,0,0,1,1.35-1.35c.662-.079,1.323-.106,1.959-.132a1.537,1.537,0,0,1,1.588,1.323,1.5,1.5,0,0,1-1.27,1.615,4.477,4.477,0,0,1-.582.106c-.318.027-.662.053-1.085.079Z" transform="translate(-238.149 -254.867)" fill="#303440"/>
      <path id="Trazado_41" data-name="Trazado 41" d="M204.59,241.426c.926,0,3.044,1.667,3.176,2.408a1.353,1.353,0,0,1-.529,1.4,1.324,1.324,0,0,1-1.561.185,7.461,7.461,0,0,1-2.091-1.641,1.32,1.32,0,0,1-.185-1.482,1.5,1.5,0,0,1,1.165-.9Z" transform="translate(-149.461 -177.51)" fill="#303440"/>
      <path id="Trazado_42" data-name="Trazado 42" d="M232.9,254.683a3.879,3.879,0,0,1-1.456-.106,1.368,1.368,0,0,1-.979-1.535,1.328,1.328,0,0,1,1.35-1.3q1.032-.04,2.064,0a1.448,1.448,0,0,1,1.482,1.4,1.5,1.5,0,0,1-1.376,1.535A7.426,7.426,0,0,1,232.9,254.683Z" transform="translate(-169.464 -185.102)" fill="#303440"/>
      <path id="Trazado_43" data-name="Trazado 43" d="M321.831,251.726h.979a1.459,1.459,0,0,1,.106,2.911,13.078,13.078,0,0,1-2.276,0,1.467,1.467,0,0,1-1.35-1.561,1.512,1.512,0,0,1,1.535-1.376h.979Z" transform="translate(-234.783 -185.084)" fill="#303440"/>
      <path id="Trazado_44" data-name="Trazado 44" d="M296.671,350.091h-.979a1.467,1.467,0,0,1-.185-2.911,9.58,9.58,0,0,1,2.461,0,1.325,1.325,0,0,1,1.191,1.561,1.367,1.367,0,0,1-1.4,1.35Z" transform="translate(-216.399 -255.235)" fill="#303440"/>
      <path id="Trazado_45" data-name="Trazado 45" d="M178.138,347.8h.9a1.47,1.47,0,0,1,.079,2.938,14.837,14.837,0,0,1-2.17,0,1.431,1.431,0,0,1-1.35-1.535,1.408,1.408,0,0,1,1.456-1.4Z" transform="translate(-129.123 -255.75)" fill="#303440"/>
      <path id="Trazado_46" data-name="Trazado 46" d="M292.3,251.653a8.934,8.934,0,0,1,1.191,0,1.346,1.346,0,0,1,1.244,1.3,1.317,1.317,0,0,1-.979,1.509,5.7,5.7,0,0,1-2.832,0,1.3,1.3,0,0,1-1.059-1.562,1.345,1.345,0,0,1,1.35-1.3H292.3Z" transform="translate(-213.143 -185.011)" fill="#303440"/>
      <path id="Trazado_47" data-name="Trazado 47" d="M352.6,260.2a1.475,1.475,0,0,1-2.091,1.429,11.481,11.481,0,0,1-2.038-1.376,1.457,1.457,0,0,1,1.27-2.488,5.529,5.529,0,0,1,2.647,1.8A1.634,1.634,0,0,1,352.6,260.2Z" transform="translate(-255.891 -189.504)" fill="#303440"/>
      <path id="Trazado_48" data-name="Trazado 48" d="M266.949,350.08c-.37,0-.715.026-1.085,0a1.469,1.469,0,0,1-.291-2.858,5.932,5.932,0,0,1,2.726-.027,1.318,1.318,0,0,1,1.112,1.509,1.349,1.349,0,0,1-1.323,1.35c-.4.027-.794,0-1.191,0h0Z" transform="translate(-194.537 -255.198)" fill="#303440"/>
      <path id="Trazado_49" data-name="Trazado 49" d="M207.676,347.667c.371,0,.715-.027,1.085,0a1.327,1.327,0,0,1,1.3,1.35,1.363,1.363,0,0,1-1.112,1.535,6.838,6.838,0,0,1-2.541.053,1.359,1.359,0,0,1-1.217-1.535,1.373,1.373,0,0,1,1.4-1.376h1.085Z" transform="translate(-150.88 -255.644)" fill="#303440"/>
      <path id="Trazado_50" data-name="Trazado 50" d="M192.077,216.833a1.661,1.661,0,0,1,.979-1.879,1.272,1.272,0,0,1,1.667.45,4.906,4.906,0,0,1,.344,3.52,1.241,1.241,0,0,1-1.429.82,1.337,1.337,0,0,1-1.3-1.138c-.132-.582-.159-1.165-.238-1.747Z" transform="translate(-141.235 -157.972)" fill="#303440"/>
    </g>
  </g>
</svg>
