<svg xmlns="http://www.w3.org/2000/svg" width="87" height="87.095" viewBox="0 0 87 87.095">
  <g id="QR" transform="translate(0 0.022)">
    <path id="Unión_2" data-name="Unión 2" d="M-3390.368-26.9a6.944,6.944,0,0,1-5.746-3.43,7.493,7.493,0,0,1-.886-3.2v-73.737c.227-1,.114-2.089.7-3.02a7.272,7.272,0,0,1,6.449-3.7h19.53a1.007,1.007,0,0,1,.549.068c6.652,0,13.3-.068,19.957,0a7.57,7.57,0,0,1,7.131,7.2c.023,1.158,0,2.316,0,3.474l-.019.023h.065c1.543,0,3.088,0,4.61.022v.022q13.626,0,27.273-.022c.817,0,.75.409.75.954v54.365c0,.59-.159.772-.772.772q-13.626,0-27.273-.023l-.029-.022c-1.527,0-3.054,0-4.559.022h-.011l.011.023c0,4.292.045,8.607,0,12.9a7.619,7.619,0,0,1-5.9,7.107c-.181.046-.409,0-.545.182h-20.733v.023Zm8.674-13.535v1.7c0,1.182.091,1.272,1.249,1.272h9.856a1.157,1.157,0,0,1,.816.274.485.485,0,0,0,.047-.069,1.768,1.768,0,0,1,1.226-.228h9.243c1.226,0,1.294-.068,1.294-1.294v-2.044c0-.908-.136-1.021-1.045-1.045h-9.856a1.219,1.219,0,0,1-.885-.227c0-.009-.01-.018-.017-.027a1.7,1.7,0,0,1-1.279.3h-9.265C-3381.626-41.818-3381.694-41.749-3381.694-40.433Zm26.184-35.608V-74c.022.84.158.977,1,1h8.084c.75.068,1.045.364,1.09,1.136.045.908,0,1.816,0,2.725,0,1.135.091,1.226,1.2,1.226h3.316c1.136,0,1.408.3,1.431,1.409.022,2.316.045,4.655,0,6.971-.023,1.021.045,1.84,1.249,2.066a.471.471,0,0,0,.051.075,1.853,1.853,0,0,1,1.321-.284c.143,0,.284.01.422.005,1.226-.046,1.294-.091,1.294-1.294V-70.976c0-1.181-.068-1.227-1.248-1.272-.636,0-1.318.158-1.863-.319a1.045,1.045,0,0,1-.249-.613q-.069-2.009,0-4.019a.879.879,0,0,1,.182-.454,1.59,1.59,0,0,1,1.4-.393c.148.006.294.013.439.008,1.317-.023,1.339-.023,1.339-1.318v-2.2c0-.613-.273-.862-.885-.862h-1.272a1.233,1.233,0,0,1-.923-.285l-.007.013a1.685,1.685,0,0,1-1.136.249h-4.927c-1,0-1.113.114-1.113,1.136v2.2c0,1.521-.2,1.725-1.7,1.725h-7.131C-3355.443-77.38-3355.488-77.312-3355.51-76.04Zm17.4-11.967a.364.364,0,0,0,.026.043,1.429,1.429,0,0,1,.973-.248h2.2a.648.648,0,0,0,.726-.726v-2.884c0-.545-.273-.749-.795-.749h-2.112a1.33,1.33,0,0,1-1.048-.319,1.512,1.512,0,0,1-1.027.227c-.111,0-.222,0-.331,0a.639.639,0,0,0-.727.726v2.953c0,.5.25.7.727.726.166,0,.334-.011.5-.011A1.294,1.294,0,0,1-3338.115-88.007Z" transform="translate(3397 113.97)" fill="#303440"/>
    <path id="Trazado_80" data-name="Trazado 80" d="M77.958,321.132H66.512c-.613,0-.84-.114-.818-.795.045-1.2.045-2.43,0-3.633,0-.568.182-.7.727-.7H77.958a1.07,1.07,0,0,1,.363.84v3.452a1.056,1.056,0,0,1-.363.818h0Z" transform="translate(-50.775 -244.256)" fill="#8aff80"/>
    <path id="Trazado_81" data-name="Trazado 81" d="M68.343,52.608a2.555,2.555,0,1,0-.023,0Z" transform="translate(-50.857 -36.729)" fill="#8aff80"/>
    <path id="Trazado_84" data-name="Trazado 84" d="M119.6,321.187v-5.064c3.838,0,7.676,0,11.536-.023.545,0,.749.182.727.727-.023,1.2-.023,2.43,0,3.633,0,.545-.182.727-.727.727-3.838,0-7.676,0-11.536-.023Z" transform="translate(-92.44 -244.334)" fill="#8aff80"/>
    <path id="Trazado_85" data-name="Trazado 85" d="M306.356,142.493v4.315c0,.477-.068.7-.636.7-2.7-.023-5.427,0-8.13,0-.431,0-.59-.114-.59-.568.023-1.317.023-2.657,0-3.974,0-.477.2-.568.613-.545.954,0,1.93-.045,2.884,0,.659.045.795-.2.772-.818-.045-1.2,0-2.43-.023-3.656,0-.522.159-.681.681-.659,1.249.023,2.5.045,3.724,0,.545,0,.727.136.727.7-.045,1.5,0,3,0,4.5Z" transform="translate(-229.554 -106.13)" fill="#8aff80"/>
    <path id="Trazado_86" data-name="Trazado 86" d="M306.273,209.6v4.406c0,.522-.159.659-.681.659-2.68-.023-5.359,0-8.062,0-.454,0-.659-.114-.636-.613.023-1.294.023-2.612,0-3.906,0-.5.182-.613.636-.613,1,.023,1.976,0,2.975,0,.545,0,.681-.159.659-.681-.023-1.272,0-2.543,0-3.815,0-.477.136-.636.613-.636,1.294.023,2.612.023,3.906,0,.522,0,.613.2.59.659V209.6Z" transform="translate(-229.471 -158)" fill="#8aff80"/>
    <path id="Trazado_87" data-name="Trazado 87" d="M258.441,182.2c.954,0,1.93.023,2.884,0,.409,0,.545.136.545.545v14.239c0,.409-.136.545-.545.545h-2.861a1.25,1.25,0,0,1-.363-1.022v-13.4a1.112,1.112,0,0,1,.2-.795C258.35,182.268,258.4,182.245,258.441,182.2Z" transform="translate(-199.488 -140.841)" fill="#8aff80"/>
    <path id="Trazado_88" data-name="Trazado 88" d="M304.961,92.4h3.633c.477,0,.636.159.613.636-.023,1.294-.023,2.589,0,3.906,0,.431-.114.59-.568.59h-7.38c-.454,0-.59-.136-.568-.59.023-1.294.045-2.589,0-3.906,0-.568.227-.636.7-.636,1.181.023,2.362,0,3.565,0Z" transform="translate(-232.406 -71.434)" fill="#8aff80"/>
    <path id="Trazado_89" data-name="Trazado 89" d="M258.441,92.4c1.2,0,2.43.023,3.633,0,.477,0,.636.114.636.613q-.034,1.942,0,3.883c0,.5-.159.613-.636.613h-3.611a1.137,1.137,0,0,1-.363-.84V93.24a1.024,1.024,0,0,1,.363-.818h-.023Z" transform="translate(-199.488 -71.434)" fill="#8aff80"/>
    <path id="Trazado_90" data-name="Trazado 90" d="M258.439,137.3c.954,0,1.908.023,2.884,0,.386,0,.545.114.545.522v4.065c0,.409-.159.522-.545.522h-2.884c-.045-.045-.091-.068-.136-.114a1.208,1.208,0,0,1-.2-.886V138.3a1.179,1.179,0,0,1,.363-1h-.023Z" transform="translate(-199.486 -106.138)" fill="#8aff80"/>
    <path id="Trazado_91" data-name="Trazado 91" d="M249.695,158.429v5.064h.023a2.457,2.457,0,0,1-2.339.227c-.431-.091-.545-.522-.568-.954-.023-1.2-.045-2.43,0-3.633a.952.952,0,0,1,1.045-1.067c.636,0,1.317-.2,1.862.318h-.023Z" transform="translate(-190.742 -122.157)" fill="#303440"/>
    <path id="Trazado_92" data-name="Trazado 92" d="M198.848,142.31h-.25c-.749.068-1.771-.341-2.18.182-.386.477-.114,1.453-.136,2.2v2.2c0,.409.136.545.545.522h2.021V162.68q-1.7.045-1.7-1.612v-7.812c0-.59-.159-.772-.749-.749-1.5.045-3,0-4.5.023-.545,0-.749-.136-.727-.7.045-1.181-.045-2.384.023-3.565.045-.749-.25-.863-.908-.863-2.793.045-5.609,0-8.4.045-.795,0-.954-.227-.908-.954.068-1.158.045-2.316,0-3.475,0-.568.182-.7.727-.7,2.884.023,5.768,0,8.652.023.681,0,.863-.182.84-.84-.045-1.2,0-2.43-.023-3.656,0-.477.136-.636.613-.636,2.339.023,4.7,0,7.04.023v5.064Z" transform="translate(-139.872 -106.06)" fill="#8aff80"/>
    <path id="Trazado_93" data-name="Trazado 93" d="M181.023,97.487v-4.5c0-.431.114-.59.568-.59h9.084c.363,0,.568.068.568.5,0,1.363-.023,2.725,0,4.065,0,.5-.25.522-.636.522h-3.815c-.522,0-.681.114-.681.659.045,1.249,0,2.5,0,3.724,0,.522-.114.749-.681.727-1.249-.045-2.5-.045-3.724,0-.568,0-.7-.182-.7-.727.023-1.476,0-2.929,0-4.406Z" transform="translate(-139.896 -71.434)" fill="#8aff80"/>
    <path id="Trazado_94" data-name="Trazado 94" d="M186.087,214.819h-4.5c-.431,0-.59-.114-.59-.568v-9.084c0-.454.159-.568.59-.568,1.294,0,2.612.023,3.906,0,.477,0,.636.136.613.613-.023,1.272,0,2.543,0,3.815,0,.5.114.7.659.681,1.249-.045,2.5,0,3.724,0,.522,0,.749.091.727.681q-.068,1.908,0,3.815c0,.5-.159.613-.636.613-1.5-.023-3,0-4.5,0Z" transform="translate(-139.896 -158.154)" fill="#8aff80"/>
    <path id="Trazado_95" data-name="Trazado 95" d="M250.663,92.143v5.064c-.84-.023-1.908.363-2.43-.182-.409-.431-.114-1.5-.136-2.271V94.6c0-.795-.272-1.862.136-2.271C248.733,91.78,249.823,92.189,250.663,92.143Z" transform="translate(-191.688 -71.155)" fill="#8aff80"/>
  </g>
</svg>
