<svg xmlns="http://www.w3.org/2000/svg" width="99.959" height="99.544" viewBox="0 0 99.959 99.544">
  <g id="Grupo_10" data-name="Grupo 10" transform="translate(-2299 -59)">
    <g id="ticket" transform="translate(2299 59)">
      <path id="Trazado_1" data-name="Trazado 1" d="M154.1,147.475c.306.362.723.195,1.085.195,2.587,0,5.2.028,7.788,0,.751,0,.918.25.918.946v41.469c0,1.057-.528.973-1.224.973H111.826a2.119,2.119,0,0,0-1.418.223c-.111,0-.195.028-.306.028-5.284.083-10.569.167-15.853-.028-.5-.139-.556-.584-.668-.973a4.864,4.864,0,0,0-2.225-3A5.34,5.34,0,0,1,88.88,181.3a5.709,5.709,0,0,1,2.976-3.449c.278-.139.584-.223.862-.362a1.566,1.566,0,0,0,.028-2.865,10.909,10.909,0,0,1-2.475-1.5,5.231,5.231,0,0,1,1.474-8.566,6.566,6.566,0,0,1,.779-.334,1.571,1.571,0,0,0,1.14-1.446,1.693,1.693,0,0,0-1.085-1.613,7.545,7.545,0,0,1-1.752-.918c-2.92-2.475-2.92-6.23.167-8.539a6.22,6.22,0,0,0,2.7-3.643.785.785,0,0,1,.528-.612,11.524,11.524,0,0,1,2.587-.111c3.282,0,6.536-.028,9.818,0,1.585-.028,3.171,0,4.784,0,.779-.028,1.585,0,2.364,0,1.585,0,3.171-.028,4.756,0,1.585,0,3.2-.028,4.784,0,1.613,0,3.226-.028,4.812,0,8.316-.056,16.632,0,24.948,0a1.9,1.9,0,0,1,1.029.139Z" transform="translate(-63.932 -106.336)" fill="#303440"/>
      <path id="Trazado_2" data-name="Trazado 2" d="M124.426,41.292h-2.392a23.562,23.562,0,0,1-3.31-3.143.674.674,0,0,1,.056-1.029c.334-.389.723-.751,1.085-1.113.528-.556,1.057-.918,1.752-.223.278.278.528.167.834-.056,1.669-1.252,1.7-1.5.25-2.948a9.226,9.226,0,0,0-.751-.723,1.435,1.435,0,0,0-2.142,0c-1.558,1.446-3.032,2.948-4.478,4.478a1.646,1.646,0,0,0,.111,2.42c.445.473.946.918,1.391,1.418.25.278.612.473.528.946H104.624a.848.848,0,0,1-1.224-.028c.167-.195.306-.362.473-.528Q123.815,20.655,143.729.518c.64-.668,1-.751,1.7,0,5.813,6.2,11.681,12.349,17.522,18.5,3.643,3.838,7.287,7.732,10.958,11.57.528.556.64.862.028,1.474-3.087,3-6.119,6.063-9.178,9.095a1.7,1.7,0,0,1-.89.223H138.722c0-.612.5-.89.834-1.224,5.451-5.479,10.93-10.958,16.382-16.465.334-.334,1.029-.64.751-1.224a4.4,4.4,0,0,0-1.585-1.613c-.223-.139-.445.056-.64.223l-.668.668q-9.3,9.345-18.607,18.662a4.485,4.485,0,0,1-1.2.973h-4.867a4.157,4.157,0,0,0-2.058-4.116c-.195-.111-.389-.167-.556,0a14.451,14.451,0,0,0-1.446,1.474c-.139.195-.083.362,0,.584.612,1.2.584,1.279-.64,2.058Z" transform="translate(-74.586 0.014)" fill="#303440"/>
      <path id="Trazado_3" data-name="Trazado 3" d="M28.586,148.5c.417,0,.807,0,1.224.028a4.614,4.614,0,0,1-2.364,3.922,4.966,4.966,0,0,0-2.392,5.952,4.906,4.906,0,0,0,3.254,3.226,1.833,1.833,0,0,1,1.474,1.669c.083,1.085-.306,1.641-1.558,2.114a5.037,5.037,0,0,0-3.2,6.341,4.8,4.8,0,0,0,3.2,3.171,1.9,1.9,0,0,1,1.558,1.836c.028,1.14-.612,1.641-1.585,2a4.972,4.972,0,0,0-2.948,6.842,5.5,5.5,0,0,0,2.253,2.392,4.589,4.589,0,0,1,2.281,3.838,1.433,1.433,0,0,1-1.14.334h-6.4a1.426,1.426,0,0,1-1.057-.278c-6.731,0-13.434,0-20.164-.028-1.335,0-1.418-.111-.946-1.391a5.3,5.3,0,0,1,2.253-2.614,4.933,4.933,0,0,0,2.225-5.841,4.8,4.8,0,0,0-3.171-3.2C.44,178.482-.2,178.009-.2,176.925a1.951,1.951,0,0,1,1.613-1.975,4.973,4.973,0,0,0,3.393-4.756,4.943,4.943,0,0,0-3.365-4.673c-.918-.362-1.585-.834-1.585-1.975,0-1.168.7-1.613,1.669-1.947a4.784,4.784,0,0,0,3.31-4.172A4.766,4.766,0,0,0,2.581,152.7a5.433,5.433,0,0,1-2.587-3.226c-.195-.779,0-.946.751-.946H28.586Z" transform="translate(0.2 -107.194)" fill="#303440"/>
      <path id="Trazado_4" data-name="Trazado 4" d="M74.5,304.463c2.865,0,5.729-.028,8.594-.056h15.3c.389,0,.834-.167,1.168.222q-7.134,7.134-14.24,14.324c-.473.473-.723.362-1-.111a4.307,4.307,0,0,1-.668-3.477,5.351,5.351,0,0,0-.528-4.506,4.959,4.959,0,0,0-6.48-1.78,1.852,1.852,0,0,1-2.364-.222A1.744,1.744,0,0,1,73.8,306.6a6.765,6.765,0,0,0,.668-2.169Z" transform="translate(-53.054 -219.714)" fill="#303440"/>
      <path id="Trazado_5" data-name="Trazado 5" d="M155.738,226.6h28.592c1,0,1.391.195,1.335,1.307-.111,2.058,0,2.058-2.114,2.058H127.174q-1.474,0-1.474-1.418a1.709,1.709,0,0,1,1.947-1.919h28.091Z" transform="translate(-90.684 -163.572)" fill="#ff80bf"/>
      <path id="Trazado_6" data-name="Trazado 6" d="M149.633,263.319c-5.729,0-11.431,0-17.161.056-.584,0-.807-.139-.779-.751.028-1.724.028-3.477,0-5.2,0-.556.167-.723.723-.723,7.315,0,14.63.028,21.944.028.111.946-.556,1.613-.918,2.364a19.4,19.4,0,0,1-2.753,3.616A2.7,2.7,0,0,1,149.633,263.319Z" transform="translate(-95.009 -185.301)" fill="#ff80bf"/>
      <path id="Trazado_7" data-name="Trazado 7" d="M230.838,170.571c1.085-.528,2-1,2.92-1.474.723-.362.389-1.057.389-1.585,0-.723.223-.946.946-.918,2.42,0,2.308,0,2.448,2.336a2.727,2.727,0,0,1-2.086,3.087c.028.139.028.167.056.195,2.753,1.863,1.863,4.7,1.975,7.287,0,.278-.111.473-.417.473h-.195c-2.7.223-2.809.223-2.67-2.448a3.739,3.739,0,0,0-1.53-3.365c-.306-.25-.5-.556-.973-.25-.389.25-.89.334-.862,1,.028,1.418,0,2.837,0,4.255,0,.64-.167.834-.807.834-2.531.028-2.531.056-2.531-2.448v-9.985c0-.7.139-.946.918-.946,2.448,0,2.448,0,2.448,2.42V170.6Z" transform="translate(-164.17 -120.254)" fill="#ff80bf"/>
      <path id="Trazado_8" data-name="Trazado 8" d="M185.528,173.375v-4.784a1.666,1.666,0,0,1,1.919-1.891h6.119c1.307,0,1.891.612,1.919,1.919v2.392c0,.556-.195.751-.723.7-.417-.028-.834,0-1.252,0-.862.056-1.641.083-1.391-1.2.083-.334-.139-.5-.5-.473h-.306a2.134,2.134,0,0,0-2.5,2.42v3.532c0,.556.167.751.723.723a8.379,8.379,0,0,1,1.446,0c.807.083,1.363-.056,1.168-1.085-.083-.445.139-.64.584-.612h.111c.862.083,2.253-.362,2.448.195a6.325,6.325,0,0,1,0,3.866,1.49,1.49,0,0,1-1.585.946h-6.453a1.631,1.631,0,0,1-1.752-1.863v-4.784Z" transform="translate(-133.852 -120.332)" fill="#ff80bf"/>
      <path id="Trazado_9" data-name="Trazado 9" d="M213.5,94.357c.195-.223.389-.473.612-.7,6.536-6.564,13.1-13.1,19.608-19.691.584-.584.918-.667,1.53-.028,1.585,1.669,1.641,1.641,0,3.31q-8.094,8.094-16.159,16.215c-.306.306-.556.612-.834.918h-4.728Z" transform="translate(-154.064 -53.051)" fill="#ff80bf"/>
      <path id="Trazado_10" data-name="Trazado 10" d="M269.4,173.3v-4.7c0-1.391.584-1.975,1.947-2h5.618c.584,0,.751.167.779.779.083,2.587.083,2.587-2.475,2.587-.528,0-1.029.028-1.558,0-.668-.056-1,.083-1,.862s.362.834.946.807c1.113-.028,2.225,0,3.338,0,.612,0,.751.195.751.779.056,2.559.083,2.559-2.5,2.559s-1.057.028-1.558,0c-.668-.056-.973.111-.973.89s.389.807.973.807h3.338c.5,0,.723.111.751.7.139,2.67.139,2.67-2.5,2.67h-3.949a1.662,1.662,0,0,1-1.863-1.863v-4.784Z" transform="translate(-194.417 -120.26)" fill="#ff80bf"/>
      <path id="Trazado_11" data-name="Trazado 11" d="M269.026,253.938h-10.6c-.751,0-1.029-.167-1.029-.973,0-2.364,0-2.364,2.308-2.364h19.747c.973,0,1.335.223,1.279,1.252-.083,2.114,0,2.114-2.169,2.114H269Z" transform="translate(-185.754 -180.897)" fill="#ff80bf"/>
      <path id="Trazado_12" data-name="Trazado 12" d="M129.03,174.944c0-1.363-.056-2.7,0-4.061.056-.807-.25-1.029-1-.946-.445.056-.918-.056-1.335,0-.862.111-1.029-.278-1-1.057.028-2.281,0-2.281,2.253-2.281H134.9c.556,0,.779.111.807.723.083,2.559.111,2.587-2.448,2.587-.751,0-.918.278-.89.973.028,2.753,0,5.479,0,8.233,0,.584-.111.834-.779.862-2.559.056-2.559.083-2.559-2.531Z" transform="translate(-90.676 -120.26)" fill="#ff80bf"/>
      <path id="Trazado_13" data-name="Trazado 13" d="M310.1,166.6h4.172c.584,0,.751.167.779.751.083,2.531.083,2.559-2.475,2.559-.667,0-.89.195-.89.89.028,2.753,0,5.479.028,8.233,0,.723-.195.946-.918.946-2.42,0-2.42,0-2.42-2.448v-6.759c0-.64-.167-.918-.807-.807h-.195c-2.5,0-2.7-.278-2.336-2.837.083-.528.362-.5.723-.5h4.367Z" transform="translate(-220.041 -120.26)" fill="#ff80bf"/>
      <path id="Trazado_14" data-name="Trazado 14" d="M146.218,122.531l-2.169-2.253a1.808,1.808,0,0,1,0-2.753c1.446-1.5,2.92-2.948,4.394-4.422a1.638,1.638,0,0,1,2.559,0c.167.139.306.306.445.445,1.947,1.947,1.919,1.919-.111,3.783-.389.362-.64.362-.89-.056-.5-.7-.918-.556-1.446,0-1.557,1.613-1.585,1.585,0,3.2.668.667,1.279,1.335,1.919,2.03h-4.7Z" transform="translate(-103.47 -81.198)" fill="#ff80bf"/>
      <path id="Trazado_15" data-name="Trazado 15" d="M167.7,173.092v-5.618c0-.7.139-.973.89-.973,2.448,0,2.448,0,2.448,2.42v9.9c0,.779-.139,1.085-1,1.057-2.336-.056-2.336,0-2.336-2.308Z" transform="translate(-121.002 -120.188)" fill="#ff80bf"/>
      <path id="Trazado_16" data-name="Trazado 16" d="M196.2,263.247a18.092,18.092,0,0,0,4.728-6.619c1.112,0,2.225,0,3.31-.028.5,0,.667.167.667.667v5.312c0,.528-.167.723-.7.723C201.54,263.275,198.87,263.275,196.2,263.247Z" transform="translate(-141.576 -185.228)" fill="#ff80bf"/>
      <path id="Trazado_17" data-name="Trazado 17" d="M179,136.734a3.806,3.806,0,0,1,.528-.612c.556-.445.528-.834,0-1.224-.556-.389-.473-.723,0-1.112.64-.528,1.2-1.558,1.808-1.585.584,0,1.224,1,1.808,1.558,1.224,1.224,1.307,1.641.584,2.976H179Z" transform="translate(-129.159 -95.428)" fill="#ff80bf"/>
      <path id="Trazado_18" data-name="Trazado 18" d="M176.168,88.907c.334-.973.64-1.947.973-2.92.25-.7-.362-.946-.7-1.224-.668-.584-.723-1,0-1.641,1.641-1.53,1.558-1.53,3.2,0,1.029.946,1.557,1.919.918,3.282-.195.417,0,.612.389.528,2.2-.473,3.5.862,4.756,2.281l.083.083c1.863,1.891,1.863,1.863-.223,3.616-.389.334-.64.306-.946-.028a14.807,14.807,0,0,1-1.307-1.335,3.144,3.144,0,0,0-3.171-1.279c-.417.056-.89-.111-1.085.528-.167.556-.278.973.25,1.474,1.029.918,1.975,1.975,2.948,2.92.389.362.389.584,0,1-1.808,1.975-1.808,1.975-3.643.111-2.336-2.336-4.645-4.673-6.981-6.981-.5-.5-.668-.807-.056-1.391,1.752-1.7,1.724-1.724,3.421,0a8.865,8.865,0,0,1,.834,1.168l.306-.222Z" transform="translate(-123.518 -59.172)" fill="#ff80bf"/>
      <path id="Trazado_19" data-name="Trazado 19" d="M211.233,70.045a1.871,1.871,0,0,1-1.53-.751c-2.2-2.169-4.367-4.367-6.536-6.564a1.753,1.753,0,0,1,0-2.753c1.335-1.363,2.7-2.7,4.033-4.061.445-.473.668-.334,1.057.028,1.863,1.808,1.863,1.808.056,3.616a11.979,11.979,0,0,1-1.029,1.029c-.723.528-.64.946,0,1.5.417.362.612.25.918-.056.862-.89,1.78-1.752,2.642-2.67.306-.306.528-.389.834,0a.335.335,0,0,0,.139.139,2.24,2.24,0,0,1,.056,3.616,11.975,11.975,0,0,1-1.029,1.029c-.751.556-.584.946,0,1.5.417.389.612.222.918-.083.834-.862,1.724-1.7,2.559-2.587.362-.389.584-.389.973,0,1.947,1.836,1.947,1.836.083,3.7l-2.726,2.726a1.758,1.758,0,0,1-1.391.612Z" transform="translate(-146.123 -40.142)" fill="#ff80bf"/>
      <path id="Trazado_20" data-name="Trazado 20" d="M232.831,25.8c.417.083.612.417.834.64,1.613,1.585,1.613,1.613,0,3.2-.584.556-.64.89,0,1.474,1.919,1.863,3.783,3.783,5.674,5.646.528.5.64.807.056,1.391-1.752,1.7-1.724,1.724-3.421,0-1.557-1.558-3.143-3.115-4.7-4.728-.473-.5-.807-.64-1.307-.056-.528.612-1.168,1.585-1.7,1.558-.807-.056-1.279-1.14-1.975-1.7-.389-.334-.334-.556,0-.918,2.058-2.03,4.061-4.061,6.119-6.091a5.574,5.574,0,0,1,.445-.389Z" transform="translate(-163.104 -18.62)" fill="#ff80bf"/>
      <path id="Trazado_21" data-name="Trazado 21" d="M275.367,103.565c-.278-.25-.529-.5-.779-.723a1.972,1.972,0,0,1-.028-3.171c2.587-2.587,5.145-5.145,7.7-7.732.5-.528.807-.64,1.391-.056,1.7,1.752,1.724,1.724,0,3.449-2.559,2.559-5.09,5.118-7.648,7.649C275.812,103.175,275.617,103.342,275.367,103.565Z" transform="translate(-197.575 -66.041)" fill="#ff80bf"/>
      <path id="Trazado_22" data-name="Trazado 22" d="M40.76,175.865H36.616c-.556,0-.779-.139-.807-.751C35.7,172.5,35.7,172.5,38.285,172.5h6.647c.64,0,.89.139.918.862,0,2.5.056,2.5-2.475,2.5H40.76Z" transform="translate(-25.769 -124.519)" fill="#ff80bf"/>
      <path id="Trazado_23" data-name="Trazado 23" d="M40.834,196.6c1.335,0,2.7.028,4.033,0,.7,0,.973.139.973.918,0,2.448.028,2.448-2.42,2.448H36.773c-.7,0-.973-.139-.973-.918,0-2.448-.028-2.448,2.42-2.448h2.587Z" transform="translate(-25.787 -141.916)" fill="#ff80bf"/>
      <path id="Trazado_24" data-name="Trazado 24" d="M40.834,220.6c1.391,0,2.781.028,4.144,0,.7,0,.862.25.862.89,0,2.448.028,2.448-2.42,2.448H36.773c-.668,0-.973-.111-.973-.89,0-2.448-.028-2.448,2.42-2.448h2.587Z" transform="translate(-25.787 -159.241)" fill="#ff80bf"/>
      <path id="Trazado_25" data-name="Trazado 25" d="M40.648,247.824H36.393c-1.057,0-.751-.807-.668-1.252.167-.7-.751-1.975.64-2.058,2.865-.139,5.729-.028,8.594-.056,1.057,0,.751.807.668,1.252-.167.7.751,1.919-.64,2.058a38.081,38.081,0,0,1-4.367.028Z" transform="translate(-25.629 -176.452)" fill="#ff80bf"/>
      <path id="Trazado_26" data-name="Trazado 26" d="M40.834,268.6c1.335,0,2.7.028,4.033,0,.668,0,.973.139.973.89,0,2.448.028,2.448-2.42,2.448H36.773c-.668,0-.973-.139-.973-.89,0-2.448-.028-2.448,2.42-2.448h2.587Z" transform="translate(-25.787 -193.891)" fill="#ff80bf"/>
    </g>
  </g>
</svg>
