<?xml version="1.0" encoding="utf-8"?>
<!-- Generator: Adobe Illustrator 27.7.0, SVG Export Plug-In . SVG Version: 6.00 Build 0)  -->
<svg version="1.1" id="Capa_1" xmlns="http://www.w3.org/2000/svg" xmlns:xlink="http://www.w3.org/1999/xlink" x="0px" y="0px"
	 viewBox="0 0 684.4 1008.4" style="enable-background:new 0 0 684.4 1008.4;" xml:space="preserve">
<g>
	<path id="Trazado_349" d="M340.6,4C415,4.3,488.1,23.8,552.8,60.5c129.5,76.1,164,264.3,46.7,376.3
		c-42.3,38.3-86.8,74.1-133.3,107.1c-28.7,20.2-50.1,49-61,82.3c-1.6,4.9-4,9.4-5.8,14.2c-19.9,51.7-61,61.9-108.8,51.4
		c-41.6-9-65.3-52-61.3-98.4c5.2-59,39.7-99.4,82-135c31-26.1,63.6-50.4,94.3-76.9c31.2-27,57-57.9,59-102.2
		c5.9-56.2-33-107.2-88.7-116.5c-30.8-7.1-62.9-6.1-93.2,2.9c-29,8.4-53.2,28.4-67,55.2c-12.2,22.6-22.8,46-35.7,68.3
		c-22.7,42.2-73.9,60.1-118,41.3c-41.1-15.6-59-53.7-49.3-104.4c14.1-73.4,58.9-124.9,119.3-164.2C194.2,22,266.9,1.8,340.6,4z"/>
	<path id="Trazado_350" d="M431,894.7c-0.1,61-49.6,110.3-110.6,110.2c-61-0.1-110.3-49.6-110.2-110.6
		c0.1-61,49.6-110.3,110.6-110.2c0.1,0,0.2,0,0.3,0C381.8,784.7,430.7,834,431,894.7z"/>
</g>
</svg>
