<?xml version="1.0" encoding="utf-8"?>
<!-- Generator: Adobe Illustrator 27.5.0, SVG Export Plug-In . SVG Version: 6.00 Build 0)  -->
<svg version="1.1" id="Capa_1" xmlns="http://www.w3.org/2000/svg" xmlns:xlink="http://www.w3.org/1999/xlink" x="0px" y="0px"
	 viewBox="0 0 1876.6 1834.8" style="enable-background:new 0 0 1876.6 1834.8;" xml:space="preserve">

<g id="proximo_viaje" transform="translate(-262 -243.626)">
	<path id="Trazado_187" class="st0" d="M1989.6,908.2H410V1771c-5.8,47.3,27.8,90.2,75.1,96c6.8,0.8,13.7,0.9,20.5,0.1h773.8
		c20.2,0.5,32.8,11.8,32.8,28.7c-0.6,16-14.1,28.5-30.1,27.9c-0.6,0-1.3-0.1-1.9-0.1c-26.8,0.5-54.1,0-81,0H506.5
		c-77.9,6.4-146.2-51.6-152.6-129.5c-0.6-7.7-0.6-15.4,0-23.1V665.2c-6-78.2,52.5-146.6,130.8-152.6c7.4-0.6,14.9-0.6,22.3,0h129
		v-51.3c-1.5-62.3,47.8-114.1,110.1-115.7c62.3-1.5,114.1,47.8,115.7,110.1c0,2,0,4,0,6.1v49.9h225.8c0-19.3-0.5-39.1,0-58.9
		c1.5-62.1,53.1-111.2,115.2-109.7c47.7,1.2,89.5,32.3,104.2,77.7c3.5,11.8,5.4,24,5.7,36.2c0.9,17.4,0.5,35.3,0.5,53.7h225.8v-52.3
		c-0.1-62.3,50.3-113,112.7-113.1c62.3-0.1,113,50.3,113.1,112.6l0,0v54.1c48.5,0,95.6-0.5,142.2,0c62.7,0.2,117.6,42.1,134.2,102.6
		c3.8,14.1,5.7,28.7,5.7,43.3c0.5,239.7,0.5,479.6,0,719.6c0.3,4.1,0.2,8.2-0.5,12.3c-1.2,14.3-13.4,25.2-27.8,24.6
		c-14.4,0.7-26.8-10.2-27.8-24.6c-0.6-5.8-0.8-11.6-0.5-17.4V908.2H1989.6z M410,849.9h1579.1c0-68.8,1.4-136.1-0.5-203.5
		c-2.7-42.6-37.4-76.1-80.1-77.2c-18.3-0.9-36.2,0-54.6,0h-90.3v51.3c1.8,62.3-47.3,114.3-109.6,116.1
		c-62.3,1.8-114.3-47.3-116.1-109.6c-0.1-2-0.1-4,0-6.1v-49.9h-225.8v54.1c0,62.3-50.5,112.9-112.9,112.9s-112.9-50.5-112.9-112.9
		c-0.5-17.9,0-36.2,0-54.6H860.6v49.9c1.8,62.3-47.3,114.3-109.6,116.1S636.6,689.3,634.8,627c-0.1-2-0.1-4,0-6.1v-50.9
		c-51.3,0-99.8-1.4-148.3,0.5c-41.4,2.2-74.4,35.4-76.3,76.8C408.6,713.7,410,781.1,410,849.9z M691.6,540.9c0,27.8-0.5,55.1,0,82.9
		c-1.3,31.1,22.8,57.3,53.9,58.6c31.1,1.3,57.3-22.8,58.6-53.9c0.1-1.4,0.1-2.8,0-4.3c0.5-55.1,0.5-110.8,0-165.8
		c1.3-31.1-22.8-57.3-53.9-58.6c-31.1-1.3-57.3,22.8-58.6,53.9c-0.1,1.4-0.1,2.8,0,4.3V540.9z M1255.8,540v-82.4
		c1.1-31.1-23.3-57.1-54.4-58.2c-31.1-1.1-57.1,23.3-58.2,54.4c0,1.4,0,2.8,0,4.3c-0.5,55.1-0.5,110.8,0,165.8
		c-1.1,31.1,23.3,57.1,54.4,58.2c31.1,1.1,57.1-23.3,58.2-54.4c0-1.4,0-2.8,0-4.3C1256.3,595.4,1255.8,567.7,1255.8,540L1255.8,540z
		 M1707.3,540.9v-82.4c0.8-31.4-24-57.6-55.4-58.4c-0.1,0-0.1,0-0.2,0c-31-0.5-56.6,24.3-57,55.3c0,1.2,0,2.3,0.1,3.5
		c-0.5,54.7-0.5,109.4,0,163.9c-1.5,31.1,22.4,57.5,53.5,59.1c31.1,1.5,57.5-22.4,59.1-53.5c0.1-2,0.1-4,0-6.1V540.9z"/>
	<path id="Trazado_188" class="st0" d="M1312.4,1667.4c0.9-202.5,165.8-365.9,368.3-365c202.5,0.9,365.9,165.8,365,368.3
		c-0.9,201.2-163.8,364.1-365,365c-202.6,0.8-367.5-162.8-368.3-365.4C1312.4,1669.3,1312.4,1668.3,1312.4,1667.4z M1368.9,1670.2
		c0.7,171.3,140,309.6,311.3,308.9c171.3-0.7,309.6-140,308.9-311.3c-0.7-169.7-137.6-307.4-307.3-308.9
		c-171.7-1.1-311.8,137.2-312.9,308.9C1368.9,1668.6,1368.9,1669.4,1368.9,1670.2z"/>
	<path id="Trazado_189" class="st1" d="M693.5,1048.5c18.3,0,36.2-0.5,54.6,0c31.1-0.1,56.4,24.9,56.5,56v0
		c0.5,28.7,0.5,57.5,0,86.2c-0.2,30.3-24.8,54.9-55.1,55.1c-38.1,0.5-76.3,0.5-114.4,0c-30.5,0-55.3-24.6-55.6-55.1
		c-0.9-28.7-0.5-57.5,0-86.2c-0.3-30.7,24.4-55.8,55.1-56c0.3,0,0.6,0,0.9,0C654.9,1048.1,674.1,1048.5,693.5,1048.5z M747.2,1188.9
		V1106H636.4v82.9L747.2,1188.9z"/>
	<path id="Trazado_190" class="st1" d="M1030.7,1245.9c-18.3,0-36.2,0.5-54.6,0c-31.2,1.1-57.3-23.3-58.4-54.4c0-1,0-2,0-3
		c-0.5-27.8-0.5-55.1,0-82.9c-0.7-30.8,23.7-56.3,54.5-57c0.8,0,1.7,0,2.5,0c37.2-0.5,73.9-0.5,111.2,0
		c30.9-0.9,56.6,23.4,57.5,54.3c0,1.4,0,2.8,0,4.1c0.5,26.8,0.5,54.1,0,81c1,31-23.4,56.9-54.4,57.9c-1.2,0-2.3,0-3.5,0
		C1067,1246.3,1048.6,1245.9,1030.7,1245.9z M974.7,1105.5v82.9h110.8v-82.9H974.7z"/>
	<path id="Trazado_191" class="st1" d="M1368.8,1245.9c-18.8,0-37.7,0.5-56.5,0c-31.1,0.1-56.4-24.9-56.5-56v0
		c-0.5-28.7-0.5-57.5,0-86.2c0.2-30.3,24.8-54.9,55.1-55.1c38.1-0.5,76.3-0.5,114.4,0c30.3,0,55.1,24.3,55.6,54.6
		c0.9,29.2,0.9,58.9,0,88.1c-0.7,29.6-24.5,53.5-54.1,54.1C1407.5,1246.3,1388.2,1245.9,1368.8,1245.9z M1313.3,1105.5v82.9h110.8
		v-82.9H1313.3z"/>
	<path id="Trazado_192" class="st1" d="M1707.1,1048.5c18.8,0,37.7-0.5,56.5,0c31.1-0.1,56.4,24.9,56.5,56v0
		c0.5,28.7,0.5,57.5,0,86.2c-0.4,30.3-24.8,54.7-55.1,55.1c-38.1,0.5-76.3,0.5-114.4,0c-30.5,0-55.3-24.6-55.6-55.1
		c-0.9-29.2-0.9-58.9,0-88.1c0.7-29.6,24.5-53.5,54.1-54.1C1668.4,1048.1,1687.7,1048.5,1707.1,1048.5z M1652,1188.4h110.8V1106
		H1652V1188.4z"/>
	<path id="Trazado_193" class="st1" d="M1030.3,1753.5c-18.8,0-37.7,0.5-56.5,0c-30.9,0.1-55.9-24.8-56-55.7c0-0.1,0-0.2,0-0.3
		c-0.5-28.3-0.5-56.5,0-84.8c-0.6-30.6,23.7-55.9,54.3-56.5c1,0,2.1,0,3.1,0c37.2-0.5,73.9-0.5,111.2,0c30.8-0.7,56.3,23.7,57,54.5
		c0,0.8,0,1.7,0,2.5c0.5,27.8,0.5,55.1,0,82.9c0.9,30.9-23.4,56.6-54.3,57.5c-1.4,0-2.8,0-4.1,0
		C1066.5,1754,1048.1,1753.5,1030.3,1753.5z M1085.3,1696.6v-82.9H975.1v82.9H1085.3z"/>
	<path id="Trazado_194" class="st1" d="M691.7,1753.5c-18.8,0-37.7,0.5-56.5,0c-30.7,0.3-55.8-24.4-56-55.1c0-0.3,0-0.6,0-0.9
		c-0.5-28.7-0.5-57.5,0-86.2c0.3-30.4,25.2-54.9,55.6-54.6c38.1-0.5,76.3-0.5,114.4,0c30.3-0.1,55,24.4,55.1,54.7c0,0.1,0,0.3,0,0.4
		c0.9,29.2,0.9,58.9,0,88.1c-0.9,29.7-24.9,53.5-54.6,54.1C730.3,1754.5,711,1753.5,691.7,1753.5z M747.2,1696.6v-82.4H636.4v82.4
		H747.2z"/>
	<path id="Trazado_195" class="st1" d="M692.1,1499.7c-18.4,0-36.2,0.5-54.6,0c-31.2,1.1-57.3-23.3-58.4-54.4c0-1,0-2,0-3
		c-0.5-27.8-0.5-55.1,0-82.9c-0.7-30.8,23.7-56.3,54.5-57c0.8,0,1.7,0,2.5,0c37.2-0.5,73.9-0.5,111.2,0
		c30.9-0.9,56.6,23.4,57.5,54.3c0,1.4,0,2.8,0,4.1c0.5,26.8,0.5,54.1,0,81c1,31-23.4,56.9-54.4,57.9c-1.2,0-2.3,0-3.5,0
		C728.4,1500.2,710,1499.7,692.1,1499.7z M747.7,1360.2H636.5v82.1h111.2V1360.2z"/>
	<path id="Trazado_196" class="st1" d="M1029.8,1302.4h54.6c31-1.2,57.1,22.9,58.4,53.9c0,1.2,0.1,2.4,0,3.5
		c0.5,27.8,0.5,55.1,0,82.9c0.7,30.8-23.7,56.3-54.5,57c-0.8,0-1.7,0-2.5,0c-37.2,0.5-73.9,0.5-111.2,0c-31,0.7-56.8-23.8-57.5-54.9
		c0-1.2,0-2.4,0-3.5c-0.5-26.8-0.5-54.1,0-81c-1.1-30.9,23-56.8,53.8-57.9c1.4-0.1,2.7-0.1,4.1,0
		C993.5,1301.9,1011.9,1302.4,1029.8,1302.4z M975.2,1359.4v82.4H1086v-82.4H975.2z"/>
	<path id="Trazado_197" class="st1" d="M1312.8,1359v83.4c3.3,1.4,6.6,2.3,9.4,3.8c13.5,4.7,20.9,19.1,17,32.8
		c-3.1,14-16.4,23.2-30.6,21.2c-28.4-1.6-50.9-24.4-52.3-52.7c-0.9-30.6-0.9-61.2,0-91.8c0.8-28.4,23.4-51.4,51.8-52.7
		c38.6-1.4,77.7-0.9,116.3,0c15.1-0.7,28,10.9,28.7,26c0,0.4,0,0.9,0,1.3c0.5,15.4-11.5,28.2-26.9,28.8c-0.8,0-1.5,0-2.3,0
		L1312.8,1359z"/>
	<path id="Trazado_198" class="st0" d="M1623.2,1770l208.1-208.1c21.2-21.2,35.3-24,49.3-10.8c14.6,14.1,11.8,29.2-9.9,50.9
		l-218,218c-25.4,25.4-35.3,25.4-61.2-0.5c-34.8-34.8-70.2-69.2-104.1-105c-7.4-7.9-11.3-18.4-10.8-29.2c2.8-23.1,30.6-29.7,49-11.8
		c28.2,27.3,55.6,55.6,83.8,83.4C1613.3,1760.4,1617.5,1764.5,1623.2,1770z"/>
</g>
</svg>
