<?xml version="1.0"?>
<svg xmlns="http://www.w3.org/2000/svg" xmlns:xlink="http://www.w3.org/1999/xlink" xmlns:svgjs="http://svgjs.com/svgjs" version="1.1" width="512" height="512" x="0" y="0" viewBox="0 0 463 464" style="enable-background:new 0 0 512 512" xml:space="preserve" class=""><g><path xmlns="http://www.w3.org/2000/svg" d="m64.5 64h160c35.347656 0 64 28.652344 64 64v160c0 35.347656-28.652344 64-64 64h-160c-35.347656 0-64-28.652344-64-64v-160c0-35.347656 28.652344-64 64-64zm0 0" fill="#ffdd00" data-original="#ffdd00" style="" class=""/><path xmlns="http://www.w3.org/2000/svg" d="m224.5 64h-160c-22.847656.003906-43.957031 12.207031-55.367188 32h119.367188c70.691406 0 128 57.308594 128 128v119.367188c19.796875-11.40625 31.996094-32.519532 32-55.367188v-160c0-35.347656-28.652344-64-64-64zm0 0" fill="#ffe435" data-original="#ffee80" style="" class=""/><path xmlns="http://www.w3.org/2000/svg" d="m232.5 320c-106.039062 0-192-85.960938-192-192v-59.304688c-24.167969 9.777344-39.988281 33.234376-40 59.304688v160c0 35.347656 28.652344 64 64 64h160c22.847656-.003906 43.957031-12.207031 55.367188-32zm0 0" fill="#ffac0d" data-original="#ffac0d" style="" class=""/><path xmlns="http://www.w3.org/2000/svg" d="m80.5 136c0 4.417969-3.582031 8-8 8s-8-3.582031-8-8 3.582031-8 8-8 8 3.582031 8 8zm0 0" fill="#ee1442" data-original="#ee1442" style="" class=""/><path xmlns="http://www.w3.org/2000/svg" d="m96.5 240h-48c-8.835938 0-16 7.164062-16 16v48c0 8.835938 7.164062 16 16 16h48c8.835938 0 16-7.164062 16-16v-48c0-8.835938-7.164062-16-16-16zm-48 64v-48h48v48zm0 0" fill="#ee1442" data-original="#ee1442" style="" class=""/><path xmlns="http://www.w3.org/2000/svg" d="m80.5 280c0 4.417969-3.582031 8-8 8s-8-3.582031-8-8 3.582031-8 8-8 8 3.582031 8 8zm0 0" fill="#a10022" data-original="#a10022" style="" class=""/><path xmlns="http://www.w3.org/2000/svg" d="m240.5 96h-48c-8.835938 0-16 7.164062-16 16h-64c0-8.835938-7.164062-16-16-16h-48c-8.835938 0-16 7.164062-16 16v48c0 8.835938 7.164062 16 16 16h16v32c0 4.417969 3.582031 8 8 8s8-3.582031 8-8v-32h16c8.835938 0 16-7.164062 16-16v-32h16v32c0 4.417969 3.582031 8 8 8s8-3.582031 8-8v-32h32v88c0 4.417969 3.582031 8 8 8s8-3.582031 8-8v-40h32v16c0 4.417969 3.582031 8 8 8s8-3.582031 8-8v-16c8.835938 0 16-7.164062 16-16v-48c0-8.835938-7.164062-16-16-16zm-192 64v-48h48v48zm144 0v-48h48v48zm0 0" fill="#ee1442" data-original="#ee1442" style="" class=""/><path xmlns="http://www.w3.org/2000/svg" d="m224.5 136c0 4.417969-3.582031 8-8 8s-8-3.582031-8-8 3.582031-8 8-8 8 3.582031 8 8zm0 0" fill="#ee1442" data-original="#ee1442" style="" class=""/><path xmlns="http://www.w3.org/2000/svg" d="m192.5 248c0 4.417969-3.582031 8-8 8s-8-3.582031-8-8 3.582031-8 8-8 8 3.582031 8 8zm0 0" fill="#ee1442" data-original="#ee1442" style="" class=""/><path xmlns="http://www.w3.org/2000/svg" d="m160.5 184c0 4.417969-3.582031 8-8 8s-8-3.582031-8-8 3.582031-8 8-8 8 3.582031 8 8zm0 0" fill="#ee1442" data-original="#ee1442" style="" class=""/><path xmlns="http://www.w3.org/2000/svg" d="m160.5 312c0 4.417969-3.582031 8-8 8s-8-3.582031-8-8 3.582031-8 8-8 8 3.582031 8 8zm0 0" fill="#a10022" data-original="#a10022" style="" class=""/><path xmlns="http://www.w3.org/2000/svg" d="m248.5 312c0 4.417969-3.582031 8-8 8s-8-3.582031-8-8 3.582031-8 8-8 8 3.582031 8 8zm0 0" fill="#ee1442" data-original="#ee1442" style="" class=""/><path xmlns="http://www.w3.org/2000/svg" d="m56.5 208c0 4.417969-3.582031 8-8 8s-8-3.582031-8-8 3.582031-8 8-8 8 3.582031 8 8zm0 0" fill="#a10022" data-original="#a10022" style="" class=""/><g xmlns="http://www.w3.org/2000/svg" fill="#ee1442"><path d="m136.5 200h-32c-4.417969 0-8 3.582031-8 8s3.582031 8 8 8h32c4.417969 0 8-3.582031 8-8s-3.582031-8-8-8zm0 0" fill="#ee1442" data-original="#ee1442" style="" class=""/><path d="m136.5 240v16c0 4.417969 3.582031 8 8 8s8-3.582031 8-8v-16c0-4.417969-3.582031-8-8-8s-8 3.582031-8 8zm0 0" fill="#ee1442" data-original="#ee1442" style="" class=""/><path d="m216.5 280h-16c-8.835938 0-16 7.164062-16 16v16c0 4.417969 3.582031 8 8 8s8-3.582031 8-8v-16h16c4.417969 0 8-3.582031 8-8s-3.582031-8-8-8zm0 0" fill="#ee1442" data-original="#ee1442" style="" class=""/><path d="m240.5 216h-16c-8.835938 0-16 7.164062-16 16v16c0 8.835938 7.164062 16 16 16h16c8.835938 0 16-7.164062 16-16v-16c0-8.835938-7.164062-16-16-16zm-16 32v-16h16v16zm0 0" fill="#ee1442" data-original="#ee1442" style="" class=""/><path d="m156.5 280h-24c-4.417969 0-8 3.582031-8 8s3.582031 8 8 8h24c4.417969 0 8-3.582031 8-8s-3.582031-8-8-8zm0 0" fill="#ee1442" data-original="#ee1442" style="" class=""/></g><path xmlns="http://www.w3.org/2000/svg" d="m240.5 96h-48c-6.457031.003906-12.277344 3.886719-14.761719 9.847656 5.078125 2.152344 10.007813 4.628906 14.761719 7.417969v-1.265625h48v48h-1.273438c2.792969 4.753906 5.269532 9.683594 7.417969 14.761719 5.960938-2.480469 9.851563-8.304688 9.855469-14.761719v-48c0-8.835938-7.164062-16-16-16zm0 0" fill="#ff6283" data-original="#ff6283" style="" class=""/><path xmlns="http://www.w3.org/2000/svg" d="m96.5 263.519531v40.480469h-48v-48h40.929688c-4.550782-5.101562-8.824219-10.441406-12.800782-16h-28.128906c-8.835938 0-16 7.164062-16 16v48c0 8.835938 7.164062 16 16 16h48c8.835938 0 16-7.164062 16-16v-26.167969c-5.59375-4.46875-10.9375-9.246093-16-14.3125zm0 0" fill="#a10022" data-original="#a10022" style="" class=""/><path xmlns="http://www.w3.org/2000/svg" d="m376.5 0h-192c-35.347656 0-64 28.652344-64 64h104c35.347656 0 64 28.652344 64 64v160c0 35.347656-28.652344 64-64 64h-104v48c0 35.347656 28.652344 64 64 64h192c35.347656 0 64-28.652344 64-64v-336c0-35.347656-28.652344-64-64-64zm0 0" fill="#8de3d7" data-original="#88d3d1" style="" class=""/><path xmlns="http://www.w3.org/2000/svg" d="m376.5 0h-192c-23.015625.00390625-44.25 12.375-55.609375 32.390625 9.628906-5.5 20.523437-8.394531 31.609375-8.390625h118.921875c75.703125.003906 137.074219 61.375 137.078125 137.078125v262.921875c.003906 11.085938-2.890625 21.980469-8.390625 31.609375 20.015625-11.359375 32.386719-32.59375 32.390625-55.609375v-336c0-35.347656-28.652344-64-64-64zm0 0" fill="#96c3bd" data-original="#c5dddc" style="" class=""/><path xmlns="http://www.w3.org/2000/svg" d="m344.5 80h32c4.417969 0 8 3.582031 8 8v32c0 4.417969-3.582031 8-8 8h-32c-4.417969 0-8-3.582031-8-8v-32c0-4.417969 3.582031-8 8-8zm0 0" fill="#ff6283" data-original="#ff6283" style="" class=""/><path xmlns="http://www.w3.org/2000/svg" d="m344.5 168h32c4.417969 0 8 3.582031 8 8v32c0 4.417969-3.582031 8-8 8h-32c-4.417969 0-8-3.582031-8-8v-32c0-4.417969 3.582031-8 8-8zm0 0" fill="#875ed1" data-original="#33b1a2" style="" class=""/><path xmlns="http://www.w3.org/2000/svg" d="m344.5 256h32c4.417969 0 8 3.582031 8 8v32c0 4.417969-3.582031 8-8 8h-32c-4.417969 0-8-3.582031-8-8v-32c0-4.417969 3.582031-8 8-8zm0 0" fill="#ee1442" data-original="#ee1442" style="" class=""/><path xmlns="http://www.w3.org/2000/svg" d="m120.5 352h320v48c0 35.347656-28.652344 64-64 64h-192c-35.347656 0-64-28.652344-64-64zm0 0" fill="#875ed1" data-original="#33b1a2" style="" class=""/><path xmlns="http://www.w3.org/2000/svg" d="m120.5 352v48c-.019531 17.011719 6.753906 33.324219 18.816406 45.320312l111.085938-93.320312zm0 0" fill="#593ce5" data-original="#2e9989" style="" class=""/><path xmlns="http://www.w3.org/2000/svg" d="m232.5 392h96c8.835938 0 16 7.164062 16 16s-7.164062 16-16 16h-96c-8.835938 0-16-7.164062-16-16s7.164062-16 16-16zm0 0" fill="#ffe435" data-original="#ffee80" style="" class=""/><path xmlns="http://www.w3.org/2000/svg" d="m224.5 32c0 4.417969-3.582031 8-8 8s-8-3.582031-8-8 3.582031-8 8-8 8 3.582031 8 8zm0 0" fill="#593ce5" data-original="#2e9989" style="" class=""/><path xmlns="http://www.w3.org/2000/svg" d="m256.5 32c0 4.417969-3.582031 8-8 8s-8-3.582031-8-8 3.582031-8 8-8 8 3.582031 8 8zm0 0" fill="#593ce5" data-original="#2e9989" style="" class=""/></g></svg>
