<?xml version="1.0" encoding="utf-8"?>
<!-- Generator: Adobe Illustrator 27.4.1, SVG Export Plug-In . SVG Version: 6.00 Build 0)  -->
<svg version="1.1" id="Capa_1" xmlns="http://www.w3.org/2000/svg" xmlns:xlink="http://www.w3.org/1999/xlink" x="0px" y="0px"
	 viewBox="0 0 1080 1080" style="enable-background:new 0 0 1080 1080;" xml:space="preserve">

<path class="st0" d="M872.9,520.5c-0.3,0.4-0.8,0.8-1,1.3c-4.8,11.3-11.4,15.8-23.6,15.8c-157.5,0-314.9,0-472.4,0
	c-2.3,0-4.5,0-8.1,0c2.2,2.3,3.7,3.9,5.2,5.4c24.5,24.4,49.1,48.7,73.5,73.2c9.5,9.5,10.3,22.2,2.4,31.8
	c-8.8,10.6-23.9,11.2-34.2,1.1c-17.1-16.7-34-33.7-51-50.6c-21.9-21.8-43.9-43.7-65.8-65.5c-11.8-11.8-11.8-24.6,0-36.3
	c38.6-38.5,77.3-76.9,116-115.3c8.8-8.8,19.5-10.4,29-4.8c12.8,7.6,15.3,24.6,4.8,35.7c-8.5,9-17.4,17.5-26.2,26.2
	c-16.6,16.5-33.1,33-49.7,49.4c-1,1-2,2.2-3.9,4.2c3.2,0,5.4,0,7.6,0c156.3,0,312.7,0.1,469-0.2c13.8,0,23.4,4.3,28.6,17.3
	C872.9,512.9,872.9,516.7,872.9,520.5z"/>
</svg>
