<?xml version="1.0" encoding="utf-8"?>
<!-- Generator: Adobe Illustrator 27.5.0, SVG Export Plug-In . SVG Version: 6.00 Build 0)  -->
<svg version="1.1" id="Capa_1" xmlns="http://www.w3.org/2000/svg" xmlns:xlink="http://www.w3.org/1999/xlink" x="0px" y="0px"
	 viewBox="0 0 21 21" style="enable-background:new 0 0 21 21;" xml:space="preserve">

<g id="Settings" transform="translate(-95.325 -46.7)">
	<path id="Trazado_682" class="st0" d="M115.7,58.5c-0.1,0.3-0.3,0.4-0.6,0.5c-0.7,0.2-1.3,0.3-2,0.5c-0.1,0-0.2,0.1-0.3,0.2
		c-0.1,0.3-0.2,0.6-0.4,0.9c0,0.1,0,0.2,0,0.2c0.3,0.6,0.7,1.2,1,1.7c0.2,0.3,0.2,0.7-0.1,0.9c0,0,0,0-0.1,0c-0.5,0.5-1,1-1.5,1.5
		c-0.2,0.3-0.6,0.3-0.9,0.1c0,0,0,0,0,0c-0.6-0.3-1.2-0.7-1.7-1c-0.1-0.1-0.2-0.1-0.3,0c-0.3,0.1-0.6,0.3-0.9,0.4
		c-0.1,0-0.2,0.1-0.2,0.2c-0.2,0.7-0.3,1.3-0.5,2c0,0.3-0.3,0.6-0.7,0.5c-0.7,0-1.4,0-2.2,0c-0.3,0-0.6-0.2-0.7-0.5
		c-0.2-0.7-0.3-1.3-0.5-2c0-0.1-0.1-0.2-0.2-0.2c-0.3-0.1-0.6-0.2-0.9-0.4c-0.1-0.1-0.2,0-0.3,0c-0.6,0.4-1.2,0.7-1.7,1
		c-0.3,0.2-0.7,0.2-0.9-0.1c0,0,0,0,0-0.1c-0.5-0.5-1-1-1.5-1.5c-0.3-0.2-0.4-0.6-0.2-0.9c0,0,0,0,0-0.1c0.3-0.6,0.7-1.2,1-1.7
		c0.1-0.1,0.1-0.2,0-0.3c-0.1-0.3-0.3-0.6-0.4-0.9c0-0.1-0.1-0.2-0.2-0.2c-0.7-0.2-1.3-0.3-2-0.5c-0.3,0-0.6-0.3-0.5-0.7
		c0,0,0,0,0,0c0-0.7,0-1.4,0-2.1c0-0.3,0.2-0.6,0.5-0.7c0,0,0,0,0,0c0.7-0.2,1.3-0.3,2-0.5c0.1,0,0.2-0.1,0.2-0.2
		c0.1-0.3,0.2-0.6,0.4-0.9c0-0.1,0-0.2,0-0.3c-0.4-0.6-0.7-1.2-1-1.7c-0.2-0.3-0.2-0.7,0.1-0.9c0,0,0,0,0,0c0.5-0.5,1-1,1.5-1.5
		c0.2-0.3,0.6-0.3,0.9-0.1c0,0,0,0,0,0c0.6,0.3,1.2,0.7,1.7,1c0.1,0.1,0.2,0.1,0.3,0c0.3-0.1,0.6-0.3,0.9-0.4c0.1,0,0.2-0.1,0.2-0.2
		c0.2-0.7,0.3-1.3,0.5-2c0-0.3,0.2-0.5,0.5-0.6h2.6c0.3,0.1,0.4,0.3,0.5,0.6c0.2,0.7,0.3,1.3,0.5,2c0,0.1,0.1,0.2,0.2,0.2
		c0.3,0.1,0.6,0.2,0.9,0.4c0.1,0.1,0.2,0,0.3,0c0.6-0.3,1.2-0.7,1.7-1c0.3-0.2,0.7-0.2,0.9,0.1c0,0,0,0,0,0.1c0.5,0.5,1,1,1.5,1.5
		c0.3,0.2,0.4,0.6,0.2,0.9c0,0,0,0,0,0.1c-0.3,0.6-0.7,1.2-1,1.7c-0.1,0.1-0.1,0.2,0,0.3c0.1,0.3,0.3,0.6,0.4,0.9
		c0,0.1,0.1,0.2,0.2,0.2c0.7,0.2,1.3,0.3,2,0.5c0.3,0,0.5,0.2,0.6,0.5L115.7,58.5z M111.4,50.5l-0.2,0.1c-0.5,0.3-1.1,0.7-1.6,1
		c-0.2,0.1-0.5,0.1-0.7,0c-0.5-0.2-1-0.4-1.5-0.6c-0.2-0.1-0.4-0.2-0.5-0.5c-0.1-0.3-0.1-0.5-0.2-0.8c-0.1-0.5-0.2-0.9-0.3-1.4h-1.4
		c-0.2,0.7-0.3,1.4-0.5,2c-0.1,0.3-0.3,0.5-0.6,0.6c-0.4,0.1-0.9,0.3-1.3,0.5c-0.3,0.2-0.6,0.2-0.9,0c-0.6-0.4-1.1-0.7-1.7-1l-1,1
		c0.3,0.6,0.7,1.2,1.1,1.7c0.2,0.2,0.2,0.6,0,0.8c-0.2,0.4-0.4,0.9-0.5,1.3c-0.1,0.3-0.3,0.5-0.6,0.6c-0.6,0.1-1.2,0.3-1.8,0.5
		c-0.1,0-0.2,0.1-0.2,0.2c0,0.4,0,0.8,0,1.1c0,0.1,0,0.2,0.2,0.2c0.6,0.1,1.2,0.3,1.8,0.5c0.3,0.1,0.5,0.3,0.6,0.6
		c0.2,0.5,0.4,0.9,0.6,1.4c0.1,0.2,0.1,0.5,0,0.7c-0.2,0.4-0.5,0.8-0.7,1.2c-0.1,0.2-0.3,0.4-0.4,0.6l1,1c0.6-0.3,1.2-0.7,1.8-1.1
		c0.2-0.2,0.5-0.2,0.8,0c0.4,0.2,0.9,0.4,1.4,0.6c0.3,0.1,0.5,0.3,0.6,0.6c0.1,0.6,0.3,1.2,0.5,1.9c0,0.1,0.1,0.1,0.2,0.1
		c0.4,0,0.8,0,1.1,0c0.1,0,0.2,0,0.2-0.1c0.2-0.6,0.3-1.3,0.5-1.9c0.1-0.2,0.2-0.4,0.5-0.5c0.5-0.2,1-0.4,1.5-0.6
		c0.2-0.1,0.5-0.1,0.7,0c0.2,0.1,0.4,0.2,0.6,0.4l1.2,0.7l1-1c-0.3-0.6-0.7-1.2-1.1-1.8c-0.1-0.2-0.2-0.5,0-0.7
		c0.2-0.5,0.4-1,0.6-1.5c0.1-0.2,0.2-0.4,0.5-0.4c0.3-0.1,0.5-0.1,0.8-0.2l1.4-0.3c0-0.4,0-0.8,0-1.3c0-0.1,0-0.2-0.2-0.2
		c-0.6-0.1-1.3-0.3-1.9-0.5c-0.3-0.1-0.5-0.3-0.6-0.5c-0.2-0.5-0.4-0.9-0.6-1.4c-0.1-0.2-0.1-0.5,0-0.7c0.2-0.4,0.5-0.8,0.7-1.2
		c0.1-0.2,0.3-0.4,0.4-0.6C112.1,51.2,111.8,50.9,111.4,50.5L111.4,50.5z"/>
	<path id="Trazado_683" class="st0" d="M105.8,61.3c-2.2,0-4.1-1.8-4.1-4.1s1.8-4.1,4.1-4.1c2.2,0,4.1,1.8,4.1,4.1
		C109.8,59.4,108,61.2,105.8,61.3z M108.7,57.2c0-1.6-1.3-2.9-2.9-2.9s-2.9,1.3-2.9,2.9c0,1.6,1.3,2.9,2.9,2.9
		C107.4,60.1,108.7,58.8,108.7,57.2L108.7,57.2z"/>
</g>
</svg>
