<?xml version="1.0" encoding="utf-8"?>
<!-- Generator: Adobe Illustrator 27.4.1, SVG Export Plug-In . SVG Version: 6.00 Build 0)  -->
<svg version="1.1" id="Capa_1" xmlns="http://www.w3.org/2000/svg" xmlns:xlink="http://www.w3.org/1999/xlink" x="0px" y="0px"
	 viewBox="0 0 1080 1080" style="enable-background:new 0 0 1080 1080;" xml:space="preserve">
<g>
	<path d="M486.7,768.6c-9.8-2.8-17.1-9-24.1-16.1c-26-26.2-52.2-52.2-78.3-78.4c-8.2-8.2-14-17.6-15.5-29.4
		c-2-15.3,2.2-28.9,13-39.7c29.5-29.8,59.2-59.3,89.1-88.7c7-6.9,16-10.3,26.1-7.4c10.7,3,17.7,12.9,18.4,26.4
		c0.4,8.8,0.3,17.6,0.2,26.4c0,2.9,0.9,3.9,3.9,4.3c44.2,6.9,86.4,0.6,126.6-19c28.7-14,52.9-33.6,72.8-58.6c2-2.5,3.8-5,6-7.3
		c4.8-5.1,11.4-6.4,17.3-3.6c5.8,2.8,9.7,8.9,8.4,15.5c-2.9,15.1-5.4,30.5-10,45.2c-12.8,41.1-35.2,76.6-66.4,106.2
		c-30.5,28.9-65.9,49.4-106.6,60c-15.2,4-31,5.7-46.5,8.5c-1.6,0.3-3.3,0.4-5.5,0.7c0,7.3,0.4,14.4-0.1,21.4
		c-0.5,6.4-1.5,12.9-3.4,18.9c-2.5,7.8-9.2,11.8-16.5,14.7C492.7,768.6,489.7,768.6,486.7,768.6z M707.1,543.3
		c-2.4,1.8-3.6,2.7-4.7,3.6c-58.5,44.7-123.9,60.4-196.3,47c-18.1-3.3-20.3-6.3-20.3-24.9c0-8.2,0-16.4,0-25.6
		c-2.1,1.9-3.3,3-4.4,4.1c-25.3,25.3-50.6,50.6-75.8,75.9c-10,10-9.9,19.7,0.2,29.8c25.3,25.3,50.6,50.6,75.8,75.8
		c1.1,1.1,2.3,2.1,4.2,3.9c0-10.8,0-20.5,0-30.3c0-13.4,5.2-18.7,18.6-18.9c22.8-0.4,45-4.1,66.5-11.4
		c46.3-15.7,83.6-43.7,111.8-83.6C692.5,575.1,700.5,560.4,707.1,543.3z"/>
	<path d="M503.3,457c-69.7,2.4-125.4,28.9-168.1,81.9c-1.4,1.7-2.6,3.4-4,5.1c-4.9,5.8-11.7,7.8-17.8,5.1
		c-6.6-2.9-10.1-9.2-9.1-16.7c1.1-7.6,2.2-15.2,3.9-22.6c16.6-69.5,55-123.4,115.9-160.9c33.7-20.7,70.5-32.3,109.9-35.4
		c4-0.3,5.3-1.6,5.3-5.7c0-9.3-0.6-18.8,1.1-27.8c4.4-22.4,24.8-29.2,42.6-14.8c2.3,1.9,4.5,3.9,6.7,6c27.1,27,54.1,54.1,81.2,81.1
		c11.5,11.5,17.1,25.1,15.3,41.4c-1.3,11.6-6.6,21.1-14.7,29.2c-27.6,27.7-55.2,55.4-83,82.8c-4.3,4.2-9.5,8-15,10.3
		c-13.7,5.8-27.3-0.6-31.8-14.8c-1.8-5.6-2-11.7-2.4-17.7c-0.4-6.5,0.1-13-0.2-19.4c-0.1-1.3-1.9-3.6-3.1-3.7
		C524.5,459.1,512.9,458,503.3,457z M569.2,482.8c2.2-2,3.4-3.1,4.5-4.2c25.2-25.2,50.3-50.3,75.5-75.5c10.4-10.4,10.4-19.8,0-30.2
		c-25.2-25.2-50.3-50.3-75.5-75.5c-1.1-1.1-2.3-2.2-4.1-3.8c-0.1,2.4-0.3,4-0.3,5.6c0,8.5,0,17,0,25.4c-0.1,12.1-5.6,17.1-17.6,18.1
		c-15.9,1.3-32,2.2-47.4,5.8C442,363.1,394.7,398.7,362,453.5c-5.3,8.9-9.4,18.5-14.1,27.7c0.4,0.2,0.8,0.5,1.1,0.7
		c3.5-2.7,7-5.5,10.6-8c58.6-41.5,123.1-55.2,193.5-40.8c12.1,2.5,16,7.2,16,19.4C569.2,462.2,569.2,471.9,569.2,482.8z"/>
</g>
</svg>
