<?xml version="1.0" encoding="utf-8"?>
<!-- Generator: Adobe Illustrator 27.5.0, SVG Export Plug-In . SVG Version: 6.00 Build 0)  -->
<svg version="1.1" id="Capa_1" xmlns="http://www.w3.org/2000/svg" xmlns:xlink="http://www.w3.org/1999/xlink" x="0px" y="0px"
	 viewBox="0 0 368.5 371.6" style="enable-background:new 0 0 368.5 371.6;" xml:space="preserve">
<g id="telefono_num" transform="translate(-254.152 -291.707)">
	<path id="Trazado_104" d="M617.8,598c-6.1,22.7-22.6,41.2-44.5,49.9c-18.6,8.1-39.3,10.4-59.2,6.6c-41.1-7.5-79.9-24.9-112.8-50.6
		c-43.8-32.9-81.8-72.8-112.5-118c-12.6-17.6-21.6-37.5-26.5-58.6c-9.5-39,0.7-80.3,27.3-110.4c6.3-8.3,15.2-14.2,25.2-16.8
		c12.2-3.4,25.3,0,34.4,8.8c18.2,17.6,36.1,35.6,53.8,53.8c13.5,14.6,13.3,37.1-0.4,51.5c-6.1,6.6-12.6,12.8-19,19.1
		c-1.7,1.1-2.1,3.3-1,5c0.1,0.1,0.1,0.2,0.2,0.3c21.7,40.8,55.1,74.2,95.8,95.9c1.7,1.4,4.1,1.1,5.5-0.5c0-0.1,0.1-0.1,0.1-0.2
		c6.2-6.4,12.5-13,19.1-19c14.8-14.1,38.1-13.9,52.6,0.6c17.4,17.1,34.5,34.5,51.8,51.7c5.2,5.5,8.8,12.4,10.3,19.8
		C617.8,590.5,617.8,594.3,617.8,598z M535.9,633.9l11.4-1.5c18.2-2.4,34.4-12.8,44.2-28.3c5.8-7.1,4.9-17.6-2.1-23.6
		c-16.3-15.7-32.1-32-48.1-48c-5.7-6.8-15.8-7.7-22.6-2c-0.7,0.6-1.4,1.3-2,2c-7,7-14,14.1-21.1,21.1c-5.6,6.3-14.8,7.8-22.1,3.5
		c-19.3-10-37.3-22.2-53.9-36.2c-24-21.3-43.9-46.8-58.7-75.3c-5.7-8-4.2-19.1,3.5-25.2c6.9-6.9,13.7-13.6,20.5-20.6
		c6.5-5.7,7.1-15.5,1.5-22c-0.4-0.4-0.7-0.8-1.1-1.2c-16.9-17-33.8-33.9-50.8-50.8c-5.5-6-14.8-6.5-21-1.1c-4,3.1-7.7,6.8-10.9,10.8
		c-19.5,25-26.2,57.6-18.2,88.2c5.8,21.5,15.8,41.5,29.3,59.1c22.7,31,48.9,59.4,77.9,84.6c24.4,22.1,52.3,39.8,82.6,52.6
		C493.8,628.3,514.6,633.1,535.9,633.9z"/>
	<path id="Trazado_105" d="M585.5,437.9c0.7,6.4-3.7,12.1-10.1,13c-6.1,0.6-11.6-3.9-12.3-10c-6.8-41.5-37.4-75.1-78.1-85.7
		c-3-0.7-6-1.1-8.9-1.7c-6.1-0.8-10.4-6.5-9.5-12.6c0.8-6.1,6.5-10.4,12.6-9.5c0.2,0,0.4,0.1,0.6,0.1c51.1,8.1,92.1,46.4,103.8,96.7
		C584.5,431.4,585.1,434.6,585.5,437.9z"/>
	<path id="Trazado_106" d="M468.8,378c7.6,1,15.1,3.3,21.9,6.9c24.6,11.5,42.6,33.6,48.8,60.1c0.8,3,1,6.2,0.6,9.3
		c-1.1,5.3-5.9,8.9-11.2,8.6c-5.3-0.4-9.6-4.3-10.5-9.5c-4.6-25.4-23.6-45.8-48.7-52.3c-1.5-0.5-3.2-0.6-4.8-1
		c-5.6-1.3-9.3-6.6-8.7-12.3C457,381.6,462.6,377.3,468.8,378z"/>
</g>
</svg>
