<?xml version="1.0" encoding="utf-8"?>
<!-- Generator: Adobe Illustrator 27.4.1, SVG Export Plug-In . SVG Version: 6.00 Build 0)  -->
<svg version="1.1" id="Capa_1" xmlns="http://www.w3.org/2000/svg" xmlns:xlink="http://www.w3.org/1999/xlink" x="0px" y="0px"
	 viewBox="0 0 884.1 1010.5" style="enable-background:new 0 0 884.1 1010.5;" xml:space="preserve">
<g>
	<path d="M237.3,422c2.1-3,4.9-4.3,8.5-4c1.7,0.2,3.5,0.1,5.2,0c6.9-0.2,11.8-5,11.9-11.8c0.1-6,0-12,0-18c0-5.5,2.2-7.8,7.7-7.8
		c24.1,0,48.2,0,72.2,0c4.6,0,7.4,2.3,7.4,6c0,3.7-2.7,6.1-7.3,6.1c-20.8,0.1-41.5,0-62.3,0c-1.6,0-3.1,0-5.1,0
		c-0.2,5.6-0.2,10.9-0.8,16.1c-1.2,11.7-9.5,20-21.1,21.3c-1.3,0.1-2.6,0.4-4.4,0.8c0,3.9,0,7.7,0,11.5c0,3.8,0,7.7,0,11.9
		c9,0.3,16.6,3.3,21.7,10.8c2.9,4.3,4.3,9.1,4,14.3c-0.9,13.5-8.6,20.7-25.5,23.6c0,7.6,0,15.3,0,23.2c18.4,1.4,26.3,12.2,25.8,30.5
		c1.9,0,3.6,0,5.3,0c76,0,151.9,0,227.9,0c1.3,0,2.7,0,4,0c4.3,0.2,6.7,2.5,6.6,6.3c-0.1,3.6-2.7,5.8-7.1,5.8
		c-7.6,0-15.2,0.6-22.7-0.1c-9-0.8-15.6,2.1-22.4,8.1c-30.7,27-61.9,53.3-92.9,79.9c-5.5,4.7-7.9,4.6-12.7-0.8
		c-2.1-2.4-4.1-4.9-6.3-7.2c-4.7-5-11.1-5.4-16.5-1.2c-1.9,1.5-3.6,3.2-5.5,4.6c-3.3,2.5-6.6,2.5-9.2-0.5
		c-7.8-8.9-15.5-17.9-23.1-27c-2.8-3.3-2.4-6.4,0.9-9.5c1.7-1.6,3.7-3.1,5.4-4.7c4.9-4.7,5.3-11.7,1.1-16.5
		c-4.3-5-10.9-5.5-16.4-1.3c-2,1.5-3.8,3.3-5.8,4.8c-3.4,2.6-6.3,2.4-9.2-0.8c-7.7-8.8-15.3-17.7-22.8-26.7c-2.9-3.4-2.4-6.8,1-9.8
		c1.1-1,2.2-2,3.4-2.7c3.6-2.1,5.4-5,4.2-9.2c-1.2-4.6-4-7.8-8.7-8.9c-2.3-0.5-4.8-0.6-7.1-0.5c-3.8,0.2-7-0.6-9.6-3.5
		c0-13.8,0-27.7,0-41.5c2.4-3.1,5.8-3.9,9.5-3.7c1.9,0.1,3.7,0,5.6-0.1c5.4-0.5,9.7-4.6,10.5-9.9c0.8-5.5-2.3-11-7.6-12.5
		c-3-0.9-6.3-1-9.4-0.8c-3.7,0.1-6.5-0.9-8.5-4C237.3,449.2,237.3,435.6,237.3,422z M269.4,569.1c4.7,5.5,8.8,10.3,12.9,15
		c14.3-9,26.1-8.5,35.1,1.5c9,10,8,21.3-3.3,35.7c5.1,5.9,10.2,11.8,15.3,17.8c6.3-5.1,12.9-7.6,20.9-6.4
		c8.1,1.2,13.3,6.6,18.4,12.5c29.6-25.4,58.9-50.5,88.8-76.1C394.5,569.1,332.4,569.1,269.4,569.1z"/>
	<path d="M607.7,556.8c0.3-5.9,0.3-11.3,0.8-16.7c1-10.9,9.8-19.5,20.8-20.7c1.4-0.2,2.9-0.5,4.4-0.7c0-7.8,0-15.4,0-23.4
		c-9.2-0.5-17.2-3.7-22.2-12.1c-3.1-5.2-3.8-10.7-3-16.5c1.5-11,10.5-18.3,25.1-20.1c0-7.7,0-15.5,0-23.4
		c-18.6-1.5-26.2-12.4-25.8-30.5c-2.1,0-3.8,0-5.5,0c-69.5,0-138.9,0-208.4,0c-1.6,0-3.2,0-4.8-0.1c-3.4-0.3-5.8-2.8-5.8-5.9
		c0-3.3,2.5-6,6.1-6.1c4.8-0.1,9.6,0.1,14.4-0.1c1.7-0.1,3.7-0.8,4.9-1.8c33.6-28.7,67.1-57.4,100.6-86.2c5.1-4.4,7.7-4.2,12.1,0.8
		c2.2,2.5,4.3,5.1,6.5,7.5c4.7,5,11.1,5.4,16.5,1.2c1.9-1.5,3.6-3.2,5.5-4.6c3.2-2.5,6.6-2.5,9.2,0.5c7.8,8.9,15.5,17.9,23.1,27
		c2.8,3.3,2.3,6.4-0.9,9.5c-1.6,1.5-3.5,2.9-5.1,4.4c-5.1,4.8-5.7,11.9-1.4,16.8c4.5,5.1,11.1,5.5,16.8,1.1c1.9-1.5,3.6-3.2,5.5-4.6
		c3.4-2.6,6.3-2.4,9.2,0.9c7.7,8.8,15.3,17.7,22.8,26.7c2.7,3.2,2.4,6.5-0.6,9.5c-1.3,1.3-2.7,2.6-4.1,3.8c-3,2.3-5.2,4.9-3.7,9.1
		c1.6,4.5,4.4,7.6,9.3,8.3c2.9,0.4,5.8,0.3,8.7,0.4c5.1,0.2,7.2,2.3,7.2,7.4c0,11.3,0,22.6,0,33.9c0,4.6-2,6.8-6.6,7.2
		c-2.6,0.2-5.3,0-8,0.2c-6.3,0.5-10.9,5.3-10.9,11.5c-0.1,6.3,4.7,11.4,11.1,11.9c2.6,0.2,5.3,0,8,0.1c4.1,0.2,6.5,2.4,6.5,6.5
		c0.1,11.8,0.1,23.7,0,35.5c0,3.9-2.2,6.2-6.1,6.5c-2.5,0.2-5.1,0-7.6,0.1c-6.9,0.2-11.8,5-11.9,11.8c-0.1,6,0,12,0,18
		c0,5.5-2.3,7.7-7.7,7.8c-14.9,0-29.8,0-44.7,0c-4.9,0-7.7-2.2-7.6-6.1c0-3.9,2.7-6,7.7-6c11.7,0,23.4,0,35.1,0
		C604.7,556.8,606.1,556.8,607.7,556.8z M569.2,328.2c-4.7-5.5-9.5-11.1-14.2-16.6c-0.3-0.4-0.8-0.7-1.2-1.1
		c-6.1,4.9-12.7,7.5-20.7,6.3c-8.2-1.2-13.3-6.6-18.5-12.5c-29.6,25.3-58.9,50.5-88.7,76c62.9,0,125.1,0,187.9,0
		c-4.5-5.3-8.7-10.1-12.7-14.9c-15,9-26.5,8.4-35.3-1.7C556.9,353.5,558,342,569.2,328.2z"/>
	<path d="M310.8,421.2c0,35.8,0,71.2,0,106.8c87.1,0,174.2,0,261.6,0c0-35.4,0-70.8,0-106.8c-1.5,0-3,0-4.6,0
		c-52.6,0-105.1,0-157.7,0c-6.5,0-9.8-2.1-9.7-6.3c0.1-4.2,3.2-6.2,9.8-6.2c55,0,109.9,0,164.9,0c8.2,0,10,1.8,10,10.1
		c0,37.4,0,74.8,0,112.2c0,7.8-1.9,9.8-9.6,9.8c-89.3,0-178.6,0-267.9,0c-7.5,0-9.6-2-9.6-9.4c0-37.8,0-75.6,0-113.4
		c0-7.2,2.1-9.3,9.3-9.3c16.6,0,33.3,0,49.9,0c0.8,0,1.6,0,2.4,0c4.1,0.4,6.9,3.2,6.7,6.5c-0.2,3.5-3,5.9-7.3,5.9
		c-14.4,0.1-28.7,0-43.1,0C314.5,421.2,312.9,421.2,310.8,421.2z"/>
	<path d="M445.6,471.5c4.9-6.7,9.9-13.4,14.8-20.1c2.5-3.4,4.8-4,7.6-2c3.1,2.2,3.2,4.5,0.4,8.1c-4.1,5.2-8.3,10.4-12.5,15.7
		c5.3,8.1,10.6,16.1,15.8,24.1c2.5,3.9,2.4,5.8-0.6,7.8c-3.3,2.3-5.7,1.8-8.3-2c-4.6-6.8-9-13.7-13.7-20.8c-2.7,2.7-4.7,4.9-4.3,8.8
		c0.3,3.4,0,6.9,0.1,10.4c0.1,3.6-2.2,4.5-5.2,4.5c-2.9,0-5.3-0.6-5.2-4.4c0.1-16.3,0-32.7,0-49c0-3.5,2.2-4.2,5-4.2
		c2.9,0,5.4,0.5,5.4,4.2c0,6.2,0,12.5,0,18.7C445.1,471.3,445.3,471.4,445.6,471.5z"/>
	<path d="M488.6,457.2c0,5.5,0,10.4,0,15.8c3.3,0,6.4,0.1,9.6,0c3.1-0.2,5.4,0.7,5.4,4.2c0,3.3-2.3,4.1-5.2,3.9
		c-3.2-0.2-6.3,0-9.7,0c0,5.4,0,10.4,0,15.9c6.5,0,12.9,0.1,19.2,0c3.3-0.1,5.9,0.5,6.1,4.4c0.1,3.4-1.4,4.6-5.8,4.6
		c-8.1,0-16.2,0-24.3,0c-4.9,0-5.9-1.1-6-5.8c0-15.4,0-30.9,0-46.3c0-4.5,1.1-5.6,5.7-5.7c8.5-0.1,17,0.1,25.5-0.1
		c3.2,0,4.8,1.4,4.9,4.4c0,3.2-1.5,4.8-5,4.7C502.3,457.1,495.7,457.2,488.6,457.2z"/>
	<path d="M390,477.3c0.4-5.8,0.4-11.7,1.4-17.4c0.9-5.7,5-9.3,10.5-10.7c5.7-1.5,11.3-1.3,16.8,1c5.7,2.5,8.9,7.6,8.7,13.5
		c-0.1,2.8-1.2,4.5-4.2,4.7c-3,0.1-5.5-0.2-6.2-3.9c-1.1-6-4.5-7.9-10.3-6.6c-3.7,0.8-5.5,3.3-5.6,6.8c-0.2,8.5-0.2,17,0,25.5
		c0.1,4.5,3,6.9,7.5,7.1c5.1,0.2,7.5-1.6,8.4-6.5c0.8-4.4,2.1-5.2,6.5-4.9c4,0.3,4.2,3.1,3.9,6c-0.1,1.4-0.3,2.9-0.8,4.3
		c-2.5,7.2-11.6,11.6-20.8,10.3c-9.2-1.3-14.7-6.7-15.1-15.2c-0.2-4.6,0-9.3,0-14C390.4,477.3,390.2,477.3,390,477.3z"/>
	<path d="M350.8,457.7c0,10.1,0,19.5,0,29c0,4.4,0,8.8,0,13.2c0,4.9-1.1,6.1-5.1,6.1c-4.1,0-5.3-1.3-5.3-6c0-12.5,0-25,0-37.5
		c0-1.4,0-2.9,0-4.7c-3.6,0-6.7,0-9.9,0c-3.4,0-4.8-1.8-4.7-5c0.1-3.1,1.6-4.5,4.8-4.5c10.1,0.1,20.2,0.1,30.3,0
		c3.2,0,4.8,1.4,4.9,4.4c0.1,3.1-1.4,5.1-4.7,5.1C357.8,457.7,354.6,457.7,350.8,457.7z"/>
	<path d="M530.9,457.7c-3.5,0-6.6-0.1-9.6,0c-3.4,0.1-5.3-1.5-5.3-4.9c0-3.2,1.8-4.6,5.1-4.6c10,0.1,20,0.1,29.9,0
		c3.4,0,4.9,1.4,4.9,4.7c0,3.4-1.8,4.8-5,4.7c-3,0-6.1,0-9.5,0c0,1.8,0,3.2,0,4.7c0,12.6,0,25.3,0,37.9c0,4.3-1.3,5.7-5.3,5.7
		c-4,0-5.2-1.2-5.2-5.7c0-12.6,0-25.3,0-37.9C530.9,460.9,530.9,459.5,530.9,457.7z"/>
	<path d="M371.2,476.8c0-7.7,0.1-15.4,0-23.1c-0.1-3.7,1.4-5.4,5.1-5.4c4.1,0,5.5,1.3,5.5,5.5c0,15.5,0,31,0,46.6
		c0,4.3-1.3,5.6-5.3,5.6c-4,0-5.1-1.2-5.2-5.7C371.1,492.4,371.2,484.6,371.2,476.8z"/>
</g>
</svg>
