<?xml version="1.0" encoding="utf-8"?>
<!-- Generator: Adobe Illustrator 27.4.1, SVG Export Plug-In . SVG Version: 6.00 Build 0)  -->
<svg version="1.1" id="Capa_1" xmlns="http://www.w3.org/2000/svg" xmlns:xlink="http://www.w3.org/1999/xlink" x="0px" y="0px"
	 viewBox="0 0 874.8 988.3" style="enable-background:new 0 0 874.8 988.3;" xml:space="preserve">
<g>
	<path d="M482.6,231.2c-0.2,25.6,14.5,45.5,38.5,50.6c19.6,4.2,35.9-2.6,48.8-17.6c11.9-13.8,21.2-16.5,38.2-10.2
		c7.2,2.7,14.3,5.8,21.6,8c19.1,5.7,25.8,24.1,19.2,42.2c-22.3,61.5-45.3,122.7-67.9,184.1c-28.3,76.6-56.6,153.3-84.9,230
		c-3.9,10.6-9.9,19.3-21.6,21.5c-4.5,0.9-9.8,0.4-14.2-1c-11.1-3.5-21.9-7.7-32.7-11.9c-10.7-4.2-16.8-14.5-16.2-27.1
		c0.6-13.2-2.5-25.4-10.7-35.9c-19.3-24.7-55.9-24.3-76.9,0.7c-11.5,13.7-21,16.2-37.7,10c-8.3-3.1-16.4-6.5-24.8-9.2
		c-12.3-3.9-22.6-21.3-16.9-36.8c51.6-139.5,102.9-279.2,154-418.9c5.9-16.2,21.2-25.8,38.9-18c8,3.6,16.5,6.2,24.7,9.3
		C477.4,206.8,482.7,214.6,482.6,231.2z M528.6,302.1c-3.1-0.4-8.5-0.7-13.8-2c-30.5-7.6-51.9-37.3-49.7-68.6
		c0.6-8.1-0.8-10.2-8.4-13c-7.9-2.9-15.8-5.8-23.7-8.8c-10.2-3.8-13-2.5-16.9,7.9c-29.2,78.1-58.4,156.3-87.6,234.4
		c-22.6,60.4-45.2,120.8-67.8,181.2c-3.3,8.9-1.8,12.2,7,15.5c7.7,2.9,15.5,5.8,23.2,8.6c9.6,3.5,10.5,3.2,17-5
		c19.8-25,56.1-33.5,83.8-18.6c25.1,13.4,36.4,35.3,35.9,63.5c-0.1,7.8,0.9,9.9,8.2,12.6c7.7,2.9,15.5,5.7,23.2,8.6
		c11.4,4.3,13.7,3.3,17.9-8.2c42.5-114.2,84.9-228.4,127.4-342.6c9.1-24.6,18.3-49.2,27.3-73.8c2.7-7.5,1.5-10.1-5.9-12.9
		c-7.7-2.9-15.4-5.8-23.2-8.6c-10.1-3.7-11-3.4-17.8,4.5C570.7,293.4,552.7,301.6,528.6,302.1z"/>
	<path d="M582.9,378.8c0.2,9.3-5.7,13.6-12.7,11.2c-3.2-1.1-6.4-2.1-9.4-3.5c-4.9-2.3-6.9-7.1-5.2-11.5c1.9-4.8,6.6-7.1,11.8-5.5
		c3.4,1,7,1.9,9.9,3.7C579.9,374.7,581.8,377.6,582.9,378.8z"/>
	<path d="M442.2,323.1c6.6,2.9,12.3,4.6,17.1,7.6c4.5,2.8,3.1,7.6,1,11.6c-1.9,3.9-5.2,5.3-9.4,4c-3.9-1.3-7.9-2.5-11.5-4.4
		c-4-2-6.7-5.9-4.9-10.2C435.9,328.6,439.5,326.1,442.2,323.1z"/>
	<path d="M422.5,320.4c-0.2,8.6-5.8,12.5-13,10c-3.5-1.2-7.1-2.4-10.4-4.1c-3.9-2.1-5.9-6.2-4.1-9.9c1.3-2.9,5.3-6.8,7.7-6.5
		c5.9,0.7,11.6,3.3,17.1,5.8C421.3,316.4,421.9,319.3,422.5,320.4z"/>
	<path d="M485.5,338.8c3.9,1.6,9.4,3.2,14,6.1c4.6,2.9,3.8,7.8,1.4,12c-2.2,3.9-5.4,5.5-9.9,3.6c-3.6-1.5-7.5-2.4-11-4.2
		c-4.1-2-6.1-5.7-5-10.3C476.1,341.8,479.4,339.4,485.5,338.8z"/>
	<path d="M525.8,354.4c3.5,1.4,8.8,3,13.4,5.7c4.5,2.7,3.8,7.3,1.8,11.4c-2,3.9-5.1,6-9.6,4.6c-3.9-1.2-7.8-2.5-11.5-4.3
		c-4-2-6.3-5.6-5.2-10.1C515.8,357,519.1,354.5,525.8,354.4z"/>
</g>
</svg>
