<?xml version="1.0" encoding="utf-8"?>
<!-- Generator: Adobe Illustrator 27.4.1, SVG Export Plug-In . SVG Version: 6.00 Build 0)  -->
<svg version="1.1" id="Capa_1" xmlns="http://www.w3.org/2000/svg" xmlns:xlink="http://www.w3.org/1999/xlink" x="0px" y="0px"
	 viewBox="0 0 884.1 1010.5" style="enable-background:new 0 0 884.1 1010.5;" xml:space="preserve">
<path d="M271.7,445c1-6.6,1.8-13.3,2.9-19.9c6.3-35.9,21.6-67.4,45.9-94.5c29.9-33.4,67.3-53.8,111.4-61.3
	c99.4-17,195.8,47.7,218.4,146.3c23.3,101.8-39.3,203.8-140.8,228.9c-9.6,2.4-19.6,3.3-29.4,4.9c-1.1,0.2-2.2,0.5-3.2,0.7
	c-5.2,0-10.5,0-15.7,0c-5.1-3.2-6.5-6.7-4.5-10.7c1.6-3.3,4.5-4.2,8-4.3c24.6-0.4,48.3-5,70.6-15.4c56-26.3,90.6-69.8,101.8-130.6
	c17-92-42.6-181.6-133.7-202.6c-95.1-21.9-190.1,37.2-211.9,132.2c-2.8,12.1-3.4,24.6-4.6,37c-0.4,4.1-0.4,8.1-5,9.9
	c-4.5,1.7-7.5-0.8-10.1-4C271.7,455.9,271.7,450.5,271.7,445z"/>
<path d="M286.7,650.1c-4.1-2-5.5-5.3-5.3-9.8c0.4-9.3-0.8-18.7,1.9-27.8c6.4-21.2,21.4-32.9,42.2-37.8c5.4-1.3,11.1-1.8,16.7-1.8
	c15.7-0.2,31.4-0.6,47.1,0.3c25.8,1.5,48.3,16.8,53.1,42.6c1.7,9.1,1.3,18.6,1.1,27.9c0,2.2-3.2,4.3-4.9,6.4
	C388,650.1,337.4,650.1,286.7,650.1z M428.7,635c1.3-17-2.9-31-18.2-40c-7.8-4.6-16.3-6.9-25.3-7c-15-0.2-29.9-0.2-44.9,0
	c-9,0.1-17.5,2.4-25.3,6.9c-13.9,7.9-21.9,26-17.9,40.1C340.8,635,384.6,635,428.7,635z"/>
<path d="M463.5,316.6C395.9,317,336.8,366,324.8,432.2c-0.3,1.6-0.5,3.2-0.9,4.8c-1.1,4.3-4.4,6.5-8.6,5.9c-4.1-0.6-7.1-4-6.1-8.3
	c2.8-11.6,4.9-23.5,9.4-34.4C340,349,378.2,317,432.3,305.3c83.1-17.9,166.5,37,183.8,120c17.4,83.2-32.5,163.5-114.5,184.6
	c-12.2,3.1-24.7,4.7-37.3,4.8c-4.8,0.1-8.2-3-8.3-7.2c-0.2-4.4,2.6-7.4,7.6-7.9c2.1-0.2,4.2-0.2,6.4-0.3
	c22.2-0.8,43.1-6.6,62.2-17.7c39.3-22.6,63.2-56.4,70.6-101.2c12.4-74.8-38-146.6-112.6-160.6C481.3,318.3,472.3,317.6,463.5,316.6z
	"/>
<path d="M362.4,563.4c-34.1-0.5-60.7-27.7-60.1-61.3c0.6-33.8,27.8-60.1,61.4-59.5c33.6,0.5,60,27.9,59.3,61.6
	C422.4,537.3,395.1,564,362.4,563.4z M362.4,548.3c25.2,0.1,45.6-20.1,45.6-45.1c0.1-24.9-20.2-45.5-44.9-45.6
	c-25.3,0-45.7,20-45.8,45C317.3,527.9,337.3,548.2,362.4,548.3z"/>
<path d="M455.9,405.7c0-17.5,0-34.9,0-52.4c0-4.1,2.5-7.1,6.2-7.8c3.4-0.7,7.2,1.5,8.3,4.9c0.5,1.4,0.5,2.9,0.5,4.4
	c0,31.7,0.1,63.3-0.1,95c0,3.2,1,4.8,3.8,6.3c11.8,6.6,23.6,13.4,35.2,20.4c2.1,1.3,4.1,3.7,5.1,6c1.1,2.8-0.2,5.7-2.8,7.5
	c-2.7,1.9-5.6,1.9-8.4,0.3c-6.7-3.8-13.4-7.7-20-11.6c-7.3-4.2-14.6-8.6-22-12.7c-4-2.2-5.7-5-5.6-9.6
	C456,439.6,455.9,422.6,455.9,405.7z"/>
</svg>
