<?xml version="1.0"?>
<svg xmlns="http://www.w3.org/2000/svg" xmlns:xlink="http://www.w3.org/1999/xlink" xmlns:svgjs="http://svgjs.com/svgjs" version="1.1" width="512" height="512" x="0" y="0" viewBox="0 0 380 380.00023" style="enable-background:new 0 0 512 512" xml:space="preserve" class=""><g><path xmlns="http://www.w3.org/2000/svg" d="m190 0c104.929688 0 190 85.070312 190 190 .035156 65.152344-33.339844 125.769531-88.410156 160.578125l-.058594-.089844v-39.179687c0-55.015625-44.601562-99.617188-99.617188-99.617188h-3.824218c-55.015625-.003906-99.617188 44.597656-99.621094 99.613282v39.183593l-.058594.089844c-55.070312-34.808594-88.4453122-95.425781-88.410156-160.578125 0-104.929688 85.070312-190 190-190zm50.199219 120.089844c0-27.722656-22.472657-50.199219-50.199219-50.199219-27.722656 0-50.199219 22.476563-50.199219 50.199219 0 27.726562 22.476563 50.199218 50.199219 50.199218 27.726562 0 50.199219-22.472656 50.199219-50.199218zm0 0" fill="#8266e4" data-original="#e48e66" style="" class=""/><path xmlns="http://www.w3.org/2000/svg" d="m291.53125 350.488281.058594.089844c-62.046875 39.230469-141.132813 39.230469-203.179688 0l.058594-.089844v-39.179687c0-55.015625 44.601562-99.617188 99.617188-99.617188h3.824218c55.015625-.003906 99.617188 44.597656 99.621094 99.613282zm0 0" fill="#6ee7cb" data-original="#f8ec7d" style="" class=""/><path xmlns="http://www.w3.org/2000/svg" d="m190 69.898438c27.726562 0 50.199219 22.476562 50.199219 50.203124 0 27.722657-22.472657 50.199219-50.199219 50.199219-27.722656 0-50.199219-22.476562-50.199219-50.199219v-.011718c.003907-27.71875 22.480469-50.191406 50.199219-50.191406zm0 0" fill="#6ee7cb" data-original="#f8ec7d" style="" class=""/><path xmlns="http://www.w3.org/2000/svg" d="m190 69.898438c-27.722656-.390626-50.515625 21.765624-50.90625 49.488281-.390625 27.722656 21.765625 50.511719 49.488281 50.902343.472657.007813.945313.007813 1.417969 0zm0 0" fill="#29c0d9" data-original="#e2d574" style="" class=""/><path xmlns="http://www.w3.org/2000/svg" d="m190 211.691406h-1.910156c-55.015625-.003906-99.617188 44.597656-99.621094 99.613282v39.183593l-.058594.089844c30.375 19.273437 65.617188 29.476563 101.589844 29.421875zm0 0" fill="#29c0d9" data-original="#e2d574" style="" class=""/><path xmlns="http://www.w3.org/2000/svg" d="m190 170.289062c-27.722656.394532-50.515625-21.761718-50.90625-49.484374-.390625-27.722657 21.765625-50.515626 49.488281-50.90625.472657-.003907.945313-.003907 1.417969 0v-69.898438c-104.929688 0-190 85.070312-190 190-.0351562 65.152344 33.339844 125.769531 88.410156 160.578125l.058594-.089844v-39.179687c0-55.015625 44.601562-99.617188 99.617188-99.617188h1.914062zm0 0" fill="#a298eb" data-original="#d18162" style="" class=""/></g></svg>
