<?xml version="1.0" encoding="utf-8"?>
<!-- Generator: Adobe Illustrator 27.5.0, SVG Export Plug-In . SVG Version: 6.00 Build 0)  -->
<svg version="1.1" id="Capa_1" xmlns="http://www.w3.org/2000/svg" xmlns:xlink="http://www.w3.org/1999/xlink" x="0px" y="0px"
	 viewBox="0 0 1876.6 1834.8" style="enable-background:new 0 0 1876.6 1834.8;" xml:space="preserve">
<g>
	<path d="M657.2,894.2c-241.7-183.7-250.6-513-62.5-708.5c189.8-197.5,499.6-197.1,688.6,1.6c186.5,195.9,177.2,523.1-64.9,708.1
		c17.4,6.9,34.5,12.2,50.7,19.5c300.1,131.4,481,357.7,539.8,679.7c7.7,41.8,8.5,85.2,9.7,128.1c1.6,47.9-26,74.2-74.2,74.2
		c-519.9,0-1039.8,0-1559.7,0c-19.1,0-38.1,0-57.2,0c-42.2-0.4-71-28.4-69.8-70.2c10.5-354.8,175.6-614.4,486.6-782.7
		C580.2,924.6,619.1,910.8,657.2,894.2z M1678.8,1660.6c-28.8-357.7-339-685-759.2-674c-422.6,10.9-700,351.6-721.5,674
		C691.3,1660.6,1184.4,1660.6,1678.8,1660.6z M937.9,850c184.9,0,338.2-152.1,339-336.6c0.8-185.3-152.5-339-338.6-339.4
		c-184.9,0-338.2,152.1-339,336.6C598.8,696.3,752.1,850,937.9,850z"/>
</g>
</svg>
