<?xml version="1.0" encoding="utf-8"?>
<!-- Generator: Adobe Illustrator 27.7.0, SVG Export Plug-In . SVG Version: 6.00 Build 0)  -->
<svg version="1.1" id="Capa_1" xmlns="http://www.w3.org/2000/svg" xmlns:xlink="http://www.w3.org/1999/xlink" x="0px" y="0px"
	 viewBox="0 0 4000 2842.8" style="enable-background:new 0 0 4000 2842.8;" xml:space="preserve">
<g>
	<path d="M888.1,2471.3c0,17,0.3,32.4,0,48.1c-0.5,42.4,1.3,84.7-2.1,126.5c-4.2,51.2-49.9,92.8-101.2,97
		c-9.4,0.8-19.1,0.8-28.8,0.8c-128.6,0-257,0-385.6,0c-55.9,0-99.9-31.6-114.5-83.4c-3.4-11.8-3.4-24.8-3.7-37.4
		c-0.8-62.2-1-124.4-1-186.7c0-260.4-0.3-521,0.8-781.4c0.5-127.8,8.9-255.2,36.1-380.4c20.9-97,55.9-187.7,123.1-263.3
		c14.6-16.5,29.3-33.2,43.9-49.7c1,0.3,2.1,0.8,3.4,1c-5.8-0.3-11.5-0.8-17.3-1c-83.9-2.1-164.2-19.1-239.5-56.7
		c-70.1-35.3-102-115.3-72.9-184.1c14.6-34.8,41.3-58.8,73.7-76.6c43.4-23.8,90.5-34,139.1-36.1c54.1-2.4,108.2-1.3,160,17
		c53.6,19.1,98,48.9,121.3,103.5c0.5,1,1.8,1.8,3.4,3.4c12.8-30.1,24.8-59.9,37.9-89.2c34.5-77.6,68.5-155.6,115.8-226.7
		c70.6-106.4,160.8-190.8,279.5-241.8c50.5-21.7,103.8-31.9,157.6-40.3c242.1-37.9,486.3-48.1,730.7-47.3
		c135.4,0.5,271.1,1.8,406.3,6.5c161.3,5.5,321.6,20.9,480.5,49.9c131,23.8,235.6,93.9,322.9,192.2
		c56.7,63.8,99.1,136.7,134.4,213.9c26.7,58.3,51.8,117.1,77.6,175.7c1,2.4,2.1,4.7,4.2,8.6c3.4-6.8,5.8-12.3,8.6-17.5
		c20.9-39.7,53.9-66.9,94.6-82.4c103.3-38.7,207.3-38.2,309.3,5.2c43.7,18.6,76.6,50.2,90.2,97.5c19.1,65.9-14.6,136.5-79.2,168.9
		c-75.8,37.9-156.6,54.4-241,56.5c-5,0-9.9,0.8-16.7,1c2.4,3.1,3.1,4.7,4.2,5.8c76.6,63.3,122.1,146.4,150.6,239.7
		c24.6,80.3,37.9,163.1,43.1,246.5c6,95.7,9.7,191.4,10.2,287.3c1.6,214.4,0.5,428.8,0.5,643.1c0,35.3-1.8,70.6-1.6,105.6
		c0,42.6,2.4,85.2,1.8,127.8c-0.8,64.1-30.3,106.9-90.7,122.1c-8.4,2.1-17.3,2.6-25.9,2.6c-133.3,0.3-266.7,0.3-400,0
		c-73.2-0.3-120.3-48.4-120.3-122.1c0-46.3,0-92.3,0-138.6c0-3.4-0.3-6.8-0.8-11.5C2370.4,2471.3,1630.3,2471.3,888.1,2471.3z
		 M765.2,905.1c823.5-60.4,1646-60.4,2469.3,0c-1-4.4-1.3-7.1-2.4-9.2c-43.4-114.5-88.4-228.5-148.2-335.4
		c-74-132.3-178.8-220.1-336.5-240c-176.5-22.2-352.9-37.1-530.5-42.9c-57.8-1.8-115.8-2.1-173.6-2.4c-48.6-0.3-97.5-0.3-146.1,0.5
		c-38.7,0.5-77.4,2.1-116.1,3.4c-66.4,2.6-132.8,5-199.2,8.4c-112.4,5.8-223.8,18.3-335.2,34.5c-58.8,8.6-115.3,22.7-165.8,55.4
		c-74.8,48.4-129.4,114.5-170.7,192.4c-55.7,104.8-100.7,214.4-142.5,325.2C766.7,897.5,766.5,900.3,765.2,905.1z M1988.2,1374.9
		c-166.3-0.5-344.1,9.2-521.6,26.7c-46.8,4.7-93.9,6.5-138,24.3c-26.9,11-48.6,26.9-55.4,58.8c-7.8,36.6,0,71.4,8.6,105.6
		c12.5,49.4,29.3,97.5,43.7,146.4c8.6,29.3,26.4,50.5,53.1,64.8c28.5,15.4,59.3,22.7,91,26.7c145.4,18.6,291.2,27.7,437.6,30.8
		c195.3,3.9,390.1-4.4,584.3-25.9c38.2-4.2,76.3-8.6,112.2-23.5c32.9-13.6,58.6-34.2,69.3-69.8c11.2-37.4,23.3-74.8,34.2-112.4
		c11-37.9,22.2-75.6,22.2-115.6c0-55.2-36.9-86.8-82.4-94.4c-58.3-9.7-117.1-15.7-175.9-21.2
		C2314.7,1381.1,2157.6,1374.9,1988.2,1374.9z M1999.4,2277.3L1999.4,2277.3c142,0,284.2,0,426.1,0c8.6,0,17.5,0.3,26.1,0
		c34-1,58-25.1,58.3-59.3c0.3-35.8,0.5-71.4,0-107.2c-0.5-31.6-24.6-55.9-56.2-57.5c-5.2-0.3-10.5-0.3-15.7-0.3
		c-288.1,0-575.9,0-864.1,0c-9.7,0-19.1-0.3-28.8,0.3c-31.9,1.6-55.4,26.1-55.7,58c-0.3,35.8-0.3,71.4,0,107.2
		c0.3,33.5,24.1,57.5,57.5,58.8c3.9,0.3,7.8,0,11.8,0C1705.8,2277.3,1852.8,2277.3,1999.4,2277.3z M1118.9,1761.3
		c-0.8-4.4-1-7.1-1.8-9.4c-25.1-89.9-49.9-180.1-75.8-269.8c-4.2-14.4-12-28.2-20.7-40.3c-29-39.2-71.1-56.7-117.1-67.7
		c-58.3-13.9-116.6-27.7-174.9-41c-69.3-15.7-138.6-30.6-207.6-46.5c-9.4-2.1-13.9,0-18.3,8.4c-39.2,71.1-53.9,147.2-47.1,228
		c5.2,63,31.6,113.2,84.7,148.8c53.9,35.8,114.8,49.2,177.8,54.9c115,10.5,229.8,20.7,344.8,30.8
		C1081,1758.4,1099.6,1759.7,1118.9,1761.3z M2879.9,1761.5c21.7-1.8,41.6-3.4,61.4-5.2c104.6-9.2,209.2-18.8,313.7-27.7
		c55.4-4.7,110.1-11.2,161.6-33.7c62.7-27.7,109.8-70.1,122.9-140.4c17-90.5,2.6-176.7-40.8-258c-5.8-10.7-11.5-12.3-22.5-9.7
		c-111.4,25.9-223,51-334.4,76.6c-28.2,6.5-56.5,13.9-84.2,22.7c-56.5,18.6-91.5,56.7-105.9,115.3c-14.1,57.3-31.4,114-47.3,171
		C2896.7,1701.4,2888.6,1730.1,2879.9,1761.5z"/>
</g>
</svg>
