<?xml version="1.0" encoding="utf-8"?>
<!-- Generator: Adobe Illustrator 27.4.1, SVG Export Plug-In . SVG Version: 6.00 Build 0)  -->
<svg version="1.1" id="Capa_1" xmlns="http://www.w3.org/2000/svg" xmlns:xlink="http://www.w3.org/1999/xlink" x="0px" y="0px"
	 viewBox="0 0 1080 1080" style="enable-background:new 0 0 1080 1080;" xml:space="preserve">
<g>
	<path d="M591.1,253.5c4.6,3.7,9.6,6.9,13.7,11c31.2,31.9,67.6,55.2,110.2,68.7c25,7.9,50.6,11.5,76.7,12.1
		c12.2,0.3,18.8,6.9,18.8,18.9c0,58.2,0.2,116.3,0,174.5c-0.5,133.9-89.5,257.8-216.3,301c-4.6,1.6-10.9,1.5-15.5-0.3
		c-108.2-40.9-177.3-117.3-206.9-229.2c-6.2-23.4-9-47.3-9-71.4c0-58.2,0-116.3,0-174.5c0-12,6.6-18.7,18.7-18.9
		c72.4-1.5,134.2-27.8,185.3-79.2c4.6-4.7,10.2-8.5,15.3-12.7C585,253.5,588.1,253.5,591.1,253.5z M397.1,379.6c0,1.8,0,3,0,4.1
		c0,50.5-0.4,101,0.2,151.5c0.2,17.1,1.4,34.5,4.8,51.2c21.6,104.3,81.8,177,180.5,217.6c2.3,0.9,5.6,0.9,8,0
		c112.6-43.8,185-149.8,185.3-271.3c0.1-49,0-97.9,0-146.9c0-1.9,0-3.8,0-6.1c-73.3-5.4-136.4-33.3-189.4-84.2
		C533.4,346.2,470.6,374.3,397.1,379.6z"/>
	<path d="M586.3,701.3c-85.7,0-154.8-69.5-154.7-155.7c0.1-85.3,69.7-154.3,155.6-154.3c85.4,0.1,154.5,69.6,154.4,155.4
		C741.5,632.2,672,701.3,586.3,701.3z M707.1,546.2c0-66-54.4-120.4-120.4-120.5c-66-0.1-120.5,54.2-120.6,120.3
		c-0.2,66.2,54.5,120.9,120.7,120.8C652.8,666.7,707.1,612.3,707.1,546.2z"/>
	<path d="M563.5,579.2c26.3-26.3,51.9-52.2,77.8-77.6c3.4-3.3,8.5-5.9,13.2-6.8c6.9-1.3,12.6,2.3,16,8.7c3.5,6.5,2.8,12.9-1.4,18.8
		c-1.1,1.5-2.5,2.9-3.9,4.2c-28.9,28.9-57.8,57.9-86.8,86.8c-10.3,10.3-19.4,10.3-29.7,0c-13.9-13.9-27.9-27.8-41.8-41.8
		c-8.3-8.4-8.9-19.2-1.4-26.4c7.3-7,17.8-6.4,26,1.8C542.1,557.6,552.5,568.2,563.5,579.2z"/>
</g>
</svg>
