<?xml version="1.0" encoding="utf-8"?>
<!-- Generator: Adobe Illustrator 27.7.0, SVG Export Plug-In . SVG Version: 6.00 Build 0)  -->
<svg version="1.1" id="Capa_1" xmlns="http://www.w3.org/2000/svg" xmlns:xlink="http://www.w3.org/1999/xlink" x="0px" y="0px"
	 viewBox="0 0 2663.2 2982.2" style="enable-background:new 0 0 2663.2 2982.2;" xml:space="preserve">
<path d="M2527.3,88.8c-38.2-30.5-83.7-42.7-130.1-52.8c-19,0-38,0-57,0c-4.3,1.6-8.6,3.8-13,4.6c-63.9,12.2-116.4,42.8-158.1,93.2
	c-31.7,38.4-46.6,83.7-58.2,131.1c-9.6-4.9-10.3-14.4-13.7-21.8c-99.5-223.6-407.9-260.6-558.1-67.5c-60.8,78.2-75.2,167.6-70.3,263
	c4.1,79.7,30.9,150.2,84.7,209c15.7,17.1,17.2,22.5-5.9,33.5c-87.7,41.9-149.2,108.9-183.3,200.5c-19.3,51.9-30.8,106.4-36.2,160.5
	c-8.8,88.1-44.1,158-113.4,212.6c-14.2,11.2-26.4,18.2-44.9,18.1c-135.7-0.7-271.5-0.8-407.2-0.2c-81,0.3-142.9,34.2-178.7,108.7
	c-22.5,46.7-20.3,95.4-3.9,146.5c-11.6,0-20.9,0-30.2,0c-128.3,0.6-213.4,65.7-246.5,189.5c-28.6,106.7-56.5,214.8-84.7,322.1
	c-19.4,73.9-38.8,147.8-58.1,221.7c-21.5,82.3-42.9,164.6-64.1,247c-16.5,64.1-33,128.2-48.7,192.5c-3.1,12.6-6.2,25.3-9.1,38
	c-26.8,117,51.9,211.7,172.3,213.4c36.1,0.5,72.1,0.2,108.2,0.1c99.1-0.2,161.1-47.5,186-142.5c25.4-97.2,50.3-194.5,75.6-291.7
	c17-65.4,34.4-130.7,52.9-201c73.7,78.9,164.3,92.9,261.4,89.1c60.7-2.3,121.5-0.5,182.2-0.4c31.5,0,31.5,0.1,19,30.2
	c-58.6,140.8-117.4,281.6-175.9,422.5c-24.6,59.3-1.1,93.8,63.7,93.8c252.5,0.1,505,0,757.5,0c33.2,0,66.5,0.7,99.7-0.2
	c45.9-1.3,70.3-37.2,55.3-80.1c-2.8-8-6.2-15.9-9.5-23.8c-57.6-138.2-114.6-276.6-173.3-414.4c-10.8-25.3-5.1-29,20.1-28.6
	c83.5,1.4,167.1,2,250.6,0.1c114.1-2.6,197.3-56.2,243.7-160.9c23.5-53.1,28.6-111.8,40.5-168.3c31.3-148.5,62-297.2,92.7-445.9
	c0.7-2.6,1.3-5.3,1.8-8c54.4-262.6,206.2-994.1,260.4-1256.8C2646.6,254.2,2617.2,160.8,2527.3,88.8z M1636.1,237.7
	c53.4-62,144.1-88.8,224.8-64.1c81.6,24.9,141.2,96.2,149.7,179c1.7,17,3.2,33.9,4.8,50.9c-1.1,114.2-53.6,196.7-145.9,227.7
	c-131.8,44.3-266.5-38.1-284-176.1C1575.7,377.3,1581,301.7,1636.1,237.7z M2028.6,663.9c-9.6,47.3-17.8,87.3-26.9,132.2
	c-22.5-23.7-42.7-45-65.2-68.8C1969.1,710.5,1997,691.4,2028.6,663.9z M601.8,2016.5c-22.4,36.5-28,78.1-38.5,118.3
	c-55.5,212.7-110.8,425.5-166.1,638.3c-14,53.6-28.6,65.1-83.4,65.1c-32.3,0-64.5,0.1-96.8,0c-56.2-0.3-79.6-30.2-65.5-84.5
	c28.4-110.2,161.5-622.5,198.1-764.5c1.2-3.2,2.3-6.6,3.2-10.2c19.9-75.1,39.1-150.4,59-225.5c21.7-82.4,59.5-111.5,143.9-111.5
	c262.9,0,525.9-0.4,788.8,0.5c33.9,0.1,59.4-10.8,82.9-35c84-86.5,169.4-171.6,254-257.5c9.3-9.4,18.5-19.4,25.2-30.6
	c13.1-22.4,8-50.8-11.6-67.4c-20.1-17-42.8-20.4-65.8-6.5c-10.4,6.3-19.4,15.2-28,23.9c-78.9,79.5-157.9,158.9-236,239.2
	c-13.6,14-27.1,20-46.9,19.9c-183.2-0.7-366.4-0.4-549.6-0.5c-7.6,0-15.2,0.3-22.8-0.5c-35.6-3.9-63.5-33.8-64.3-68.3
	c-0.8-35.1,24.9-65.8,60.6-71.4c10.2-1.6,20.8-1.2,31.2-1.2c143.3-0.1,286.7-0.3,430,0.2c22.8,0.1,43.3-3.6,60-20.4
	c105.8-106.3,211.9-212.4,317.1-319.2c27.3-27.7,27.4-63.2,3.2-86c-23.2-21.9-56.5-19.9-84,6.1c-14.9,14.1-28.3,29.8-44.7,47.3
	c-6.4-20.7,0.6-34,3.2-47.2c23.1-114.6,110.3-196.1,220.2-206.8c173.1-17,302.9,135.7,266,311.9c-37.7,180-74.6,360.1-111.9,540.2
	c-8.5,40.8-16.7,81.7-25.8,122.4c-22.2,99.5-83.1,148.8-185.4,149c-258.2,0.4-516.4,0.4-774.6,0
	C740.8,1883.8,658,1924.8,601.8,2016.5z M1758.6,2835.6c-235.5,0-468.9,0-705.6,0c52.8-126.9,104.9-251.8,156.9-376.7
	c22.3-53.5,22.3-53.5,79.9-53.5c89.2,0,178.4,0.1,267.6-0.1c12.9,0,22.8,0.3,29,15.5C1642.9,2558.3,1700.3,2695.5,1758.6,2835.6z
	 M2513.2,334.6c-45.7,220.9-188.5,910.7-234.3,1131.5c-9.6,46.4-19.5,92.8-28.6,139.3c-0.3,1.3-0.5,2.6-0.7,3.9
	c-38,181.6-75.8,363.2-113.5,544.8c-20,96.1-70.5,137.5-168.4,137.5c-372.1,0-744.2,0-1116.3,0c-11.4,0-22.8,0.1-34.1-1
	C704.7,2279,644,2155.7,706,2063.7c33.3-49.4,82.3-66,140.2-65.9c257.2,0.6,514.5,0.5,771.7,0.1c155.9-0.3,268.9-87.8,299.7-234.6
	c69.4-331.2,137.4-662.6,206-994c34.2-165.2,68-330.5,102.8-495.6c18.1-86,93.9-137.7,173.9-120.4
	C2484.1,171.6,2531.3,247.1,2513.2,334.6z"/>
</svg>
