<?xml version="1.0" encoding="utf-8"?>
<!-- Generator: Adobe Illustrator 27.7.0, SVG Export Plug-In . SVG Version: 6.00 Build 0)  -->
<svg version="1.1" id="Capa_1" xmlns="http://www.w3.org/2000/svg" xmlns:xlink="http://www.w3.org/1999/xlink" x="0px" y="0px"
	 viewBox="0 0 3592.3 4000" style="enable-background:new 0 0 3592.3 4000;" xml:space="preserve">

<g id="BG">
</g>
<g>
	<path class="st0" d="M2277.4,1402.5c0.5-1.9,0-3.1-1.4-4.1"/>
	<path d="M999.5,2898.8c0,193.8-157,350.8-350.8,350.8S298,3092.6,298,2898.8C298,2705,455,2548,648.8,2548
		S999.5,2705.2,999.5,2898.8 M858.6,2899c0-115.9-94-209.9-209.9-209.9s-209.9,94-209.9,209.9s94,209.9,209.9,209.9
		S858.6,3014.8,858.6,2899L858.6,2899z"/>
	<path d="M3565.7,2764.8c-16.4-179.8-81.2-341.7-194.4-485.4c-100.9-128.1-223.9-221.9-369.1-281.5
		c-113.8-46.8-232.4-70.1-355.9-69.9c-64.7,0-129.5-0.2-194.2-0.6c-1.6,0-3-1.1-3.4-2.7c-26.3-81.3-75.4-139.5-147.2-174.5
		c-33.6-16.4-68.7-25.6-105.1-27.8c-48.8-3-94.9,6.4-138.1,28.1c-33.3,16.7-62.1,38.9-86.2,66.6c-26.9,31-46.4,67.1-58.3,108.2
		c-1.3,4.1-5.2,4.2-8.8,3.6c-10.5-2-20.8-1.7-31.4-1.7c-10.9,0-21.9,0-33,0c-21.9,0-43.9,0.2-65.8,0.2s-43.9,0.2-65.8,0.2
		s-43.9,0-65.8,0.2c-21.9,0-43.9,0-65.8,0.2c-21.9,0-43.9,0-65.8,0c-21.9,0-43.9,0-65.8,0c-14.7,0-29.4,0-44.1,0
		c-59.1,0-95.7-0.5-109.5-1.4c-93-6.1-179.2-31.7-258.7-77.1c-134.3-76.6-227.1-186.9-278.5-330.9c-12.4-34.6-21.3-69.9-26.9-106
		c-20.8-133.2-0.6-259.1,60.5-377.8c16.9-32.7,36.4-63.5,58.8-92.3c81.3-105.4,187.8-177.3,319.3-215.7
		c51.6-15,104.5-23.3,158.1-24.7c31.1-0.8,61.8-0.5,92,1.1c1.7,0,3,1.1,3.6,2.7c27.5,84,79.3,143.7,155.6,179.2
		c33.5,15.6,69.3,23.5,107.4,23.8c36,0.3,71-6.4,105.7-20.2c80.4-32.1,135.6-93,165.8-183.1c0.8-2.2,2.8-3.8,5.2-3.8
		c197.4,0,394.9,0,592.9,0c0.3,0,12,0.3,34.9,0.9c12,0.3,24.4,0,36.8-0.9c7.4-0.6,14.2,1.1,20.5,5.2
		c264.4,168.6,529.2,337.2,794.4,505.8c0.2,0.2,5,3.4,14.4,9.9c20,13.8,40.5,18.1,61.6,12.8c20.8-5.2,36.1-16.9,46-34.9
		c10.3-18.8,10.9-40,2-64.1c-62.2-167-124-334.4-185.2-501.8c-0.6-1.7-0.6-3.4,0-5.2c62.6-170,125.1-340.1,187.8-510.1
		c4.5-12.2,5.2-24.9,2-38.2c-2.8-11.7-8.6-22.4-17.7-32.1c-17.8-19.2-38.9-26.1-63.2-21c-11.6,2.5-29.9,11.6-54.7,27.5
		c-257.1,163.9-514,327.6-771.3,491.2c-10.9,7-16.7,10.6-17,10.8c-6.1,2.8-12.8,4.2-20.2,4.2c-220.5,0-441.6,0-663.4,0
		c-2.8,0-5.3-1.9-6.1-4.5c-26.6-82.6-76.2-141.1-149-175.2c-33-15.3-68.2-23.9-105.7-25.8c-88.2-4.2-162.5,28-222.7,97
		c-24.9,28.5-43.6,63.3-56.1,104.9c-0.5,1.6-1.9,2.7-3.4,2.8c-25.2,1.1-50.4,1.4-75.7,1.3c-125.3-1.4-243.5,26.4-354.5,83.5
		c-152.3,78.5-265.4,198-339.5,358.6c-41.8,90.7-64.4,185.2-67.7,283.5c-4.2,125.9,21,244.6,75.2,356.1c15.8,32.4,34.2,64,55.2,94.6
		c97,141.4,228.6,239.4,395.3,294.2c41.4,13.6,80.2,22.8,116.5,27.8c64.4,8.9,129.6,8.8,194.4,8.4c64.9-0.3,130-0.3,194.9-0.5
		c65.8-0.2,131.7-0.5,197.4-0.6c34.2-0.2,68.2,0.5,102.4,1.1c16,33.9,28.5,68.3,51.5,98.4c21,27.4,47.4,50.2,76.8,67.9
		c41.4,24.9,85.4,37.8,132,38.9c78.7,2,146.2-24.6,202.7-79.4c35-34.1,59.3-74.8,73-121.8c0.8-2.5,3-4.2,5.5-4.2
		c37.5-0.3,75.2-0.6,113.2-0.3c70.4,0.3,107,0.5,109.6,0.6c133.6,4.5,256.8,40.2,369.5,107c132.9,78.8,234.1,187.7,303.2,327
		c16.3,32.8,30.2,66.6,41.4,101.3c49.1,150.4,52.1,302,8.9,454.5c-9.9,35.2-22.4,69.4-37.4,102.9c-59,131.7-146.4,238.3-262.1,319.8
		c-96.2,67.7-202.7,112-319.8,132.8c-3,0.6-5.9-1.3-6.9-4.1c-23.3-68.8-65.2-120.4-125.6-154.7c-29.1-16.4-59.6-27.4-91.5-32.8
		c-33.2-5.6-66.2-5.2-98.8,1.3c-36.1,7.2-69.6,21.1-100.6,41.9c-54.1,36.3-91.8,88.4-113.2,156.4c-0.5,1.6-2,2.7-3.6,2.7
		l-1422.5-0.3c-2.7,0-3.1-0.9-1.3-3c69.3-76.6,141.5-148.7,217.2-216.4c41.9-37.5,70.8-65.4,86.5-83.4
		c121.4-139.8,174.4-300.6,159-482.3c-3.1-37.1-9.5-72.9-19.4-107.6c-34.9-124.6-101.2-228.9-198.9-312.9
		c-27.8-23.9-57.6-45.4-88.8-64c-91-54.3-188.6-83.4-292.8-87.6c-95.1-3.8-183.8,11.3-265.7,45.2c-157.8,65.2-272,177.3-342.3,336.5
		c-31.6,71.5-48.9,143.7-52.2,216.9c-7,163.1,41.3,308.1,144.8,434.8c25.3,31.1,53.2,59.9,83.4,86.5c33.6,29.6,66.5,59.9,98.7,90.9
		c21.4,20.6,47.1,46.8,76.9,78.2c53,56,106,112.1,158.7,168.3c14.5,15.5,22.8,24.1,25.2,25.8c10.2,8.1,21.6,13,34.1,14.4
		c12.8,1.4,33.9,2.2,63,2.2c511.4-0.6,1023.4-0.8,1535.7-0.8c2,0,3.8,1.3,4.4,3.1c22.5,69.7,62.1,122.8,118.7,158.9
		c31.1,19.9,64.9,33,101.5,39.3c47.1,8.1,93,4.2,137.8-11.7c35.2-12.5,66.3-31.1,93.5-55.5c40.8-36.8,69-83.8,84.3-141.2
		c0.5-1.7,1.9-3,3.4-3.1c167-25.6,314.8-90.5,443.4-194.7c130.1-105.4,224.7-236.5,284.2-393
		C3559.3,3036.1,3578,2901.8,3565.7,2764.8z M2794.4,628.7l559.7-356.6c4.5-3,5.9-1.9,4.1,3.3c-41.8,110.3-82.1,220.3-121.4,330.4
		c-4.1,11.6-5.8,21.1-5.3,28.6c0.6,9.2,2.8,18.9,6.6,29.1c39.3,107.1,79.3,215.8,120.1,325.8c1.6,4.1,0.5,5-3.3,2.7l-560.5-357
		C2792,633.4,2792,630.1,2794.4,628.7z M1687,496.4c74.8,0,135.4,60.7,135.4,135.4c0,74.8-60.7,135.4-135.4,135.4
		c-74.8,0-135.4-60.7-135.4-135.4S1612.3,496.4,1687,496.4z M2180.7,2133.6c-74.9,0-135.6-60.7-135.6-135.6
		c0-74.9,60.7-135.6,135.6-135.6c74.9,0,135.6,60.7,135.6,135.6C2316.2,2072.9,2255.5,2133.6,2180.7,2133.6z M652.1,3588.6
		c-2,2.2-5.5,2.2-7.5,0c-100.1-112-205.8-217.7-317.2-317.2c-110.6-98.8-167.3-220.7-170.1-365.5c-1.9-96,23-184.8,74.9-266.6
		c19.5-31,42.4-59.4,68.2-85.5c71.9-72.9,158.7-118.9,260.2-137.8c36.1-6.7,72.6-9.4,109.2-7.8c107,4.4,202.4,40.3,286,107.6
		c88.2,71,145.3,161.2,171.2,270.5c8.4,35.3,12.7,71.6,12.8,108.5c0.5,115.7-34.7,218.3-105.6,307.9c-15.2,19.2-40.7,45.4-76.2,78.3
		c-30.5,28.5-61,56.9-91.3,85.4c-26.6,25-52.4,50.8-77.7,77.3C743.5,3491.2,698,3539.5,652.1,3588.6z M2509.1,3830.6
		c-74.8,0-135.4-60.7-135.4-135.4s60.7-135.4,135.4-135.4c74.8,0,135.4,60.7,135.4,135.4C2644.6,3770,2583.9,3830.6,2509.1,3830.6z"
		/>
</g>
</svg>
