<?xml version="1.0" encoding="utf-8"?>
<!-- Generator: Adobe Illustrator 27.5.0, SVG Export Plug-In . SVG Version: 6.00 Build 0)  -->
<svg version="1.1" id="Capa_1" xmlns="http://www.w3.org/2000/svg" xmlns:xlink="http://www.w3.org/1999/xlink" x="0px" y="0px"
	 viewBox="0 0 4000 4000" style="enable-background:new 0 0 4000 4000;" xml:space="preserve">

<g id="BG">
</g>
<g>
	<path class="st0" d="M2258.6,1532.4c0.3-1.2,0-2-0.9-2.6"/>
	<path d="M1441.5,2489.2c0,123.9-100.4,224.3-224.3,224.3s-224.3-100.4-224.3-224.3c0-123.9,100.4-224.3,224.3-224.3
		S1441.5,2365.4,1441.5,2489.2 M1351.4,2489.3c0-74.1-60.1-134.2-134.2-134.2s-134.2,60.1-134.2,134.2s60.1,134.2,134.2,134.2
		S1351.4,2563.4,1351.4,2489.3L1351.4,2489.3z"/>
	<path d="M3082.4,2403.5c-10.5-115-51.9-218.5-124.3-310.4c-64.5-81.9-143.2-141.9-236-180c-72.8-29.9-148.6-44.8-227.6-44.7
		c-41.4,0-82.8-0.1-124.2-0.4c-1,0-1.9-0.7-2.2-1.7c-16.8-52-48.2-89.2-94.1-111.6c-21.5-10.5-43.9-16.4-67.2-17.8
		c-31.2-1.9-60.7,4.1-88.3,18c-21.3,10.7-39.7,24.9-55.1,42.6c-17.2,19.8-29.7,42.9-37.3,69.2c-0.8,2.6-3.3,2.7-5.6,2.3
		c-6.7-1.3-13.3-1.1-20.1-1.1c-7,0-14,0-21.1,0c-14,0-28.1,0.1-42.1,0.1c-14,0-28.1,0.1-42.1,0.1c-14,0-28.1,0-42.1,0.1
		c-14,0-28.1,0-42.1,0.1c-14,0-28.1,0-42.1,0c-14,0-28.1,0-42.1,0c-9.4,0-18.8,0-28.2,0c-37.8,0-61.2-0.3-70-0.9
		c-59.5-3.9-114.6-20.3-165.4-49.3c-85.9-49-145.2-119.5-178.1-211.6c-7.9-22.1-13.6-44.7-17.2-67.8
		c-13.3-85.2-0.4-165.7,38.7-241.6c10.8-20.9,23.3-40.6,37.6-59c52-67.4,120.1-113.4,204.2-137.9c33-9.6,66.8-14.9,101.1-15.8
		c19.9-0.5,39.5-0.3,58.8,0.7c1.1,0,1.9,0.7,2.3,1.7c17.6,53.7,50.7,91.9,99.5,114.6c21.4,10,44.3,15,68.7,15.2
		c23,0.2,45.4-4.1,67.6-12.9c51.4-20.5,86.7-59.5,106-117.1c0.5-1.4,1.8-2.4,3.3-2.4c126.2,0,252.5,0,379.1,0
		c0.2,0,7.7,0.2,22.3,0.6c7.7,0.2,15.6,0,23.5-0.6c4.7-0.4,9.1,0.7,13.1,3.3c169.1,107.8,338.4,215.6,508,323.4
		c0.1,0.1,3.2,2.2,9.2,6.3c12.8,8.8,25.9,11.6,39.4,8.2c13.3-3.3,23.1-10.8,29.4-22.3c6.6-12,7-25.6,1.3-41
		c-39.8-106.8-79.3-213.8-118.4-320.9c-0.4-1.1-0.4-2.2,0-3.3c40-108.7,80-217.5,120.1-326.2c2.9-7.8,3.3-15.9,1.3-24.4
		c-1.8-7.5-5.5-14.3-11.3-20.5c-11.4-12.3-24.9-16.7-40.4-13.4c-7.4,1.6-19.1,7.4-35,17.6c-164.4,104.8-328.7,209.5-493.2,314.1
		c-7,4.5-10.7,6.8-10.9,6.9c-3.9,1.8-8.2,2.7-12.9,2.7c-141,0-282.4,0-424.2,0c-1.8,0-3.4-1.2-3.9-2.9c-17-52.8-48.7-90.2-95.3-112
		c-21.1-9.8-43.6-15.3-67.6-16.5c-56.4-2.7-103.9,17.9-142.4,62c-15.9,18.2-27.9,40.5-35.9,67.1c-0.3,1-1.2,1.7-2.2,1.8
		c-16.1,0.7-32.2,0.9-48.4,0.8c-80.1-0.9-155.7,16.9-226.7,53.4c-97.4,50.2-169.7,126.6-217.1,229.3c-26.7,58-41.2,118.4-43.3,181.3
		c-2.7,80.5,13.4,156.4,48.1,227.7c10.1,20.7,21.9,40.9,35.3,60.5c62,90.4,146.2,153.1,252.8,188.1c26.5,8.7,51.3,14.6,74.5,17.8
		c41.2,5.7,82.9,5.6,124.3,5.4c41.5-0.2,83.1-0.2,124.6-0.3c42.1-0.1,84.2-0.3,126.2-0.4c21.9-0.1,43.6,0.3,65.5,0.7
		c10.2,21.7,18.2,43.7,32.9,62.9c13.4,17.5,30.3,32.1,49.1,43.4c26.5,15.9,54.6,24.2,84.4,24.9c50.3,1.3,93.5-15.7,129.6-50.8
		c22.4-21.8,37.9-47.8,46.7-77.9c0.5-1.6,1.9-2.7,3.5-2.7c24-0.2,48.1-0.4,72.4-0.2c45,0.2,68.4,0.3,70.1,0.4
		c85.4,2.9,164.2,25.7,236.3,68.4c85,50.4,149.7,120,193.9,209.1c10.4,21,19.3,42.6,26.5,64.8c31.4,96.2,33.3,193.1,5.7,290.6
		c-6.3,22.5-14.3,44.4-23.9,65.8c-37.7,84.2-93.6,152.4-167.6,204.5c-61.5,43.3-129.6,71.6-204.5,84.9c-1.9,0.4-3.8-0.8-4.4-2.6
		c-14.9-44-41.7-77-80.3-98.9c-18.6-10.5-38.1-17.5-58.5-21c-21.2-3.6-42.3-3.3-63.2,0.8c-23.1,4.6-44.5,13.5-64.3,26.8
		c-34.6,23.2-58.7,56.5-72.4,100c-0.3,1-1.3,1.7-2.3,1.7l-909.6-0.2c-1.7,0-2-0.6-0.8-1.9c44.3-49,90.5-95.1,138.9-138.4
		c26.8-24,45.3-41.8,55.3-53.3c77.6-89.4,111.5-192.2,101.7-308.4c-2-23.7-6.1-46.6-12.4-68.8c-22.3-79.7-64.7-146.4-127.2-200.1
		c-17.8-15.3-36.8-29-56.8-40.9c-58.2-34.7-120.6-53.3-187.2-56c-60.8-2.4-117.5,7.2-169.9,28.9
		c-100.9,41.7-173.9,113.4-218.9,215.2c-20.2,45.7-31.3,91.9-33.4,138.7c-4.5,104.3,26.4,197,92.6,278c16.2,19.9,34,38.3,53.3,55.3
		c21.5,18.9,42.5,38.3,63.1,58.1c13.7,13.2,30.1,29.9,49.2,50c33.9,35.8,67.8,71.7,101.5,107.6c9.3,9.9,14.6,15.4,16.1,16.5
		c6.5,5.2,13.8,8.3,21.8,9.2c8.2,0.9,21.7,1.4,40.3,1.4c327-0.4,654.4-0.5,982-0.5c1.3,0,2.4,0.8,2.8,2
		c14.4,44.6,39.7,78.5,75.9,101.6c19.9,12.7,41.5,21.1,64.9,25.1c30.1,5.2,59.5,2.7,88.1-7.5c22.5-8,42.4-19.9,59.8-35.5
		c26.1-23.5,44.1-53.6,53.9-90.3c0.3-1.1,1.2-1.9,2.2-2c106.8-16.4,201.3-57.9,283.5-124.5c83.2-67.4,143.7-151.2,181.7-251.3
		C3078.3,2577,3090.3,2491.1,3082.4,2403.5z M2589.2,1037.6l357.9-228c2.9-1.9,3.8-1.2,2.6,2.1c-26.7,70.5-52.5,140.9-77.6,211.3
		c-2.6,7.4-3.7,13.5-3.4,18.3c0.4,5.9,1.8,12.1,4.2,18.6c25.1,68.5,50.7,138,76.8,208.3c1,2.6,0.3,3.2-2.1,1.7l-358.4-228.3
		C2587.7,1040.6,2587.7,1038.5,2589.2,1037.6z M1881.1,953c47.8,0,86.6,38.8,86.6,86.6c0,47.8-38.8,86.6-86.6,86.6
		c-47.8,0-86.6-38.8-86.6-86.6C1794.5,991.8,1833.3,953,1881.1,953z M2196.8,1999.9c-47.9,0-86.7-38.8-86.7-86.7
		c0-47.9,38.8-86.7,86.7-86.7s86.7,38.8,86.7,86.7C2283.4,1961.1,2244.6,1999.9,2196.8,1999.9z M1219.3,2930.3
		c-1.3,1.4-3.5,1.4-4.8,0c-64-71.6-131.6-139.2-202.8-202.8c-70.7-63.2-107-141.1-108.8-233.7c-1.2-61.4,14.7-118.2,47.9-170.5
		c12.5-19.8,27.1-38,43.6-54.7c46-46.6,101.5-76,166.4-88.1c23.1-4.3,46.4-6,69.8-5c68.4,2.8,129.4,25.8,182.9,68.8
		c56.4,45.4,92.9,103.1,109.5,173c5.4,22.6,8.1,45.8,8.2,69.4c0.3,74-22.2,139.6-67.5,196.9c-9.7,12.3-26,29-48.7,50.1
		c-19.5,18.2-39,36.4-58.4,54.6c-17,16-33.5,32.5-49.7,49.4C1277.8,2868,1248.7,2898.9,1219.3,2930.3z M2406.8,3085
		c-47.8,0-86.6-38.8-86.6-86.6c0-47.8,38.8-86.6,86.6-86.6c47.8,0,86.6,38.8,86.6,86.6C2493.4,3046.3,2454.6,3085,2406.8,3085z"/>
</g>
</svg>
