<?xml version="1.0" encoding="utf-8"?>
<!-- Generator: Adobe Illustrator 27.5.0, SVG Export Plug-In . SVG Version: 6.00 Build 0)  -->
<svg version="1.1" id="Capa_1" xmlns="http://www.w3.org/2000/svg" xmlns:xlink="http://www.w3.org/1999/xlink" x="0px" y="0px"
	 viewBox="0 0 353 300.4" style="enable-background:new 0 0 353 300.4;" xml:space="preserve">
<g>
	<path d="M176.5,291c-43.2,0-86.5,0-129.7,0c-19.7,0-35-12.1-39.2-30.8c-2.5-11,0-21.1,6.1-30.5c19.5-30.2,38.9-60.5,58.4-90.8
		c23.9-37.1,47.6-74.2,71.6-111.3C157.9,5.7,187.9,3,205.4,22c1.9,2,3.5,4.4,5,6.7c43.1,66.9,85.9,134,129.2,200.7
		c16.2,25,1.7,56-24.6,60.8c-3.2,0.6-6.6,0.7-9.9,0.7C262.3,291,219.4,291,176.5,291z M176.6,269.1c2.5,0,5.1,0,7.6,0
		c40.5,0,80.9,0,121.4,0c7.1,0,13-2.2,16.7-8.7s2.8-12.8-1.2-19c-13.6-21-27.1-42.1-40.6-63.2c-29.3-45.6-58.6-91.1-87.8-136.7
		c-2.4-3.7-5.1-7-9.4-8.6c-8.3-3.2-16.7-0.3-21.8,7.6c-25,38.8-49.9,77.6-74.9,116.4c-18.1,28.1-36.1,56.3-54.2,84.4
		c-2.6,4.1-4.3,8.4-3.4,13.3c1.7,9.2,8.5,14.4,18.7,14.4C90.6,269.1,133.6,269.1,176.6,269.1z"/>
	<path d="M187.6,144.6c0,12.6,0.1,25.2,0,37.8c-0.1,5.9-3.7,10-9.2,10.9c-4.9,0.8-9.8-1.9-11.7-6.6c-0.4-1-0.8-2.2-0.8-3.3
		c0-25.9-0.1-51.9,0-77.8c0-5.4,4.3-9.4,9.7-10.1c4.9-0.6,10,2.7,11.5,7.6c0.5,1.7,0.5,3.5,0.5,5.3
		C187.6,120.4,187.6,132.5,187.6,144.6L187.6,144.6z"/>
	<path d="M187.5,226.4c0,1.5,0.1,3.1,0,4.6c-0.6,5.6-5.2,9.7-10.9,9.7c-5.6,0-10.2-4.1-10.7-9.8c-0.2-2.8-0.2-5.6-0.1-8.4
		c0.4-6.1,5-10.4,10.9-10.4s10.4,4.4,10.8,10.5C187.6,223.8,187.6,225.1,187.5,226.4L187.5,226.4z"/>
</g>
</svg>
